<svg width="181" height="46" viewBox="0 0 181 46" fill="none" xmlns="http://www.w3.org/2000/svg">
<path d="M179.852 15.2849C180.061 14.8656 180.148 14.3845 180.092 13.9034C179.938 12.5651 179.525 11.3131 178.871 10.1906C178.23 9.0866 177.385 8.14297 176.361 7.37203C175.362 6.6196 174.208 6.05836 172.932 5.68214C171.673 5.31209 170.317 5.15173 168.886 5.18874C167.233 5.23191 165.66 5.54029 164.211 6.0892C163.52 6.34823 162.872 6.66894 162.262 7.03283C161.892 7.20552 161.534 7.39053 161.189 7.59406C160.924 7.71741 160.671 7.8531 160.418 7.98878V7.83459C160.418 6.61343 159.308 5.6513 157.951 5.68214C156.329 5.71298 154.7 5.73765 153.078 5.76232C152.344 5.77466 151.691 6.06452 151.241 6.50858C150.883 6.6381 150.574 6.83547 150.328 7.08217C149.97 7.21168 149.662 7.40904 149.415 7.65574C149.057 7.78526 148.749 7.98262 148.502 8.22932C148.428 8.25399 148.354 8.29099 148.286 8.328C147.861 7.80376 147.429 7.27952 147.003 6.76145C146.541 6.20021 145.782 5.8795 144.962 5.88567C143.562 5.90417 142.162 5.91651 140.756 5.93501C140.491 5.93501 140.244 5.98435 140.003 6.04602C139.763 5.98435 139.516 5.94734 139.251 5.94734C137.758 5.95967 136.266 5.97818 134.779 5.99052C134.742 5.861 134.693 5.73765 134.619 5.6143C133.947 4.4363 133.281 3.27064 132.608 2.11115C132.208 1.42039 131.326 0.988662 130.357 1.01333C128.933 1.04417 127.508 1.08118 126.083 1.10585C125.17 1.12435 124.338 1.5314 123.906 2.16049C123.863 2.22833 123.82 2.29618 123.789 2.37019C123.635 2.49971 123.499 2.64156 123.388 2.80192C123.345 2.86976 123.302 2.9376 123.271 3.01161C123.117 3.14113 122.981 3.28298 122.87 3.44333C122.827 3.51117 122.784 3.57902 122.753 3.64686C122.599 3.77638 122.463 3.91823 122.352 4.07858C122.309 4.14643 122.266 4.21427 122.235 4.28211C122.081 4.41163 121.945 4.55348 121.834 4.71384C121.791 4.78168 121.754 4.84952 121.717 4.91737C121.562 5.04688 121.427 5.18873 121.316 5.34909C121.273 5.41693 121.229 5.48478 121.199 5.55879C121.044 5.68831 120.909 5.83016 120.798 5.99052C120.773 6.02135 120.761 6.05836 120.742 6.0892C120.711 6.0892 120.681 6.08302 120.644 6.08302C119.015 6.08919 117.393 6.10153 115.765 6.1077C114.649 6.1077 113.711 6.68127 113.409 7.45221C113.243 7.6249 113.119 7.81609 113.039 8.01962C112.872 8.19231 112.755 8.3835 112.669 8.58703C112.502 8.75972 112.379 8.95092 112.299 9.15445C112.132 9.32714 112.015 9.51833 111.929 9.72186C111.762 9.89455 111.639 10.0857 111.559 10.2954C111.392 10.4681 111.275 10.6593 111.195 10.8628C111.028 11.0355 110.911 11.2267 110.825 11.4303C110.658 11.6029 110.541 11.7941 110.455 11.9977C110.393 12.0655 110.338 12.1333 110.288 12.2012H110.257C110.257 10.7888 110.257 9.38264 110.257 7.97028C110.257 6.94647 109.147 6.1262 107.784 6.1262C106.594 6.1262 105.41 6.1262 104.219 6.13237C104.207 6.11386 104.201 6.09537 104.182 6.0707C101.481 6.13854 95.8255 6.13237 95.8255 6.13237C95.8255 6.13237 95.8255 6.13236 95.8255 6.13853C94.5735 6.13853 93.3276 6.13853 92.0756 6.13853C90.7126 6.13853 89.6086 6.95265 89.6086 7.95795V8.37117C89.6024 8.42668 89.5839 8.47602 89.5839 8.53153V8.94475C89.5778 8.99409 89.5654 9.04959 89.5654 9.09894V9.51216C89.5593 9.56767 89.5408 9.61701 89.5408 9.67252C89.5408 9.8082 89.5408 9.94389 89.5408 10.0857C89.5346 10.1412 89.5161 10.1906 89.5161 10.2461C89.5161 10.3818 89.5161 10.5236 89.5161 10.6593C89.5099 10.7087 89.4976 10.7642 89.4976 10.8135V11.2267C89.4914 11.2822 89.4729 11.3316 89.4729 11.3871V11.8003C89.4729 11.8496 89.4544 11.9052 89.4544 11.9545V12.1333C88.7267 12.1333 87.9989 12.1333 87.2711 12.1333C87.265 12.1025 87.2465 12.0778 87.2341 12.047C87.2341 12.0162 87.2341 11.9853 87.2341 11.9545C87.2341 11.788 87.1971 11.6338 87.1416 11.4796C87.1416 11.4488 87.1416 11.4179 87.1416 11.3871C87.1416 11.2206 87.1046 11.0664 87.0491 10.9122V10.8197C87.0491 10.6532 87.0121 10.499 86.9566 10.3448C86.9566 10.3139 86.9566 10.2831 86.9566 10.2523C86.9566 10.0857 86.9196 9.93155 86.8641 9.77736V9.68485C86.8641 9.51832 86.8271 9.36414 86.7716 9.20996V9.11744C86.7716 8.95091 86.7346 8.79673 86.679 8.64255V8.55003C86.679 8.3835 86.642 8.22932 86.5865 8.07514V7.98262C86.5865 6.97731 85.4825 6.16321 84.1195 6.15704C82.4913 6.15704 80.8631 6.15703 79.2287 6.15087C78.9635 6.15087 78.7168 6.18788 78.4763 6.24339C78.2357 6.18788 77.989 6.1447 77.7238 6.1447C76.0956 6.1447 74.4735 6.13853 72.8453 6.13237C71.4823 6.13237 70.3783 6.95265 70.3722 7.97645C70.3722 8.95092 70.3722 9.93155 70.3722 10.906C69.1633 9.58617 67.9607 8.26016 66.758 6.92181C66.3016 6.4099 65.5368 6.10769 64.7227 6.10153C63.3227 6.10153 61.9165 6.08919 60.5165 6.08302C60.2944 6.08302 60.0847 6.10769 59.8812 6.15087C59.8504 6.09536 59.8195 6.03369 59.7825 5.97818C59.6715 5.81166 59.5297 5.66364 59.3632 5.52795C59.3323 5.46011 59.2953 5.39844 59.2521 5.33676C59.1411 5.17024 58.9993 5.02221 58.8327 4.88653C58.8019 4.81868 58.7649 4.75701 58.7217 4.69534C58.6107 4.52881 58.4689 4.38079 58.3023 4.25127C58.2715 4.18343 58.2345 4.12176 58.1913 4.06008C58.0803 3.89356 57.9385 3.74554 57.7719 3.61602C57.7411 3.54818 57.7041 3.48651 57.6609 3.42483C57.5499 3.25831 57.4081 3.11029 57.2415 2.98077C57.2107 2.91293 57.1737 2.85125 57.1305 2.78958C57.0195 2.62305 56.8776 2.47503 56.7111 2.34552C56.6803 2.27767 56.6433 2.216 56.6001 2.15432C56.1745 1.52524 55.3358 1.11818 54.423 1.09968C52.9983 1.06884 51.5736 1.03801 50.1489 1.001C49.1744 0.976334 48.2925 1.40806 47.8978 2.10498C47.2317 3.27064 46.5656 4.44247 45.8995 5.62046C45.807 5.78082 45.7515 5.94118 45.7145 6.1077C45.0237 6.30506 44.4686 6.74295 44.2219 7.3227C44.0369 7.76676 43.8457 8.21699 43.6607 8.66105C43.5743 8.60554 43.4818 8.55003 43.3893 8.50069C43.1919 8.27249 42.9329 8.07513 42.6369 7.92711C42.4395 7.69892 42.1805 7.50772 41.8844 7.3597C41.6871 7.12534 41.428 6.93414 41.132 6.78612C40.6879 6.26805 39.954 5.92267 39.1214 5.91034C37.4932 5.89183 35.8711 5.87334 34.2491 5.84867C32.886 5.83016 31.7821 6.74911 31.7759 7.90244C31.7759 8.1553 31.7759 8.40817 31.7759 8.65487C31.5354 8.45135 31.2455 8.291 30.9309 8.17998C30.6719 7.93328 30.3574 7.73592 29.9873 7.6064C29.7283 7.3597 29.4137 7.16234 29.0437 7.03283C28.7846 6.78613 28.4639 6.58876 28.1001 6.45924C27.6498 6.02752 27.0022 5.73764 26.2806 5.72531C24.6524 5.70064 23.0242 5.6698 21.396 5.63896C21.3405 5.63896 21.2911 5.64513 21.2418 5.6513C21.1678 5.64513 21.0999 5.6328 21.0259 5.6328C19.1078 5.59579 17.1897 5.55262 15.2778 5.50945C14.5192 5.49095 13.8038 5.79932 13.335 6.34206C13.1007 6.6196 12.8601 6.90331 12.6258 7.18701C12.5394 7.16234 12.4531 7.13767 12.3606 7.11917C12.0275 6.83547 11.6143 6.63194 11.1579 6.53942C10.8249 6.25572 10.4116 6.04602 9.95525 5.95968C9.52352 5.58963 8.96228 5.34909 8.33936 5.33059C6.71114 5.28742 5.08908 5.23808 3.46086 5.18874C2.09784 5.14557 0.993858 6.21254 1.00003 7.57556C1.00003 14.3166 1.00003 21.0516 1.00003 27.7865C1.00003 29.1063 2.03 30.0438 3.31901 29.9575C3.68289 30.1733 4.12078 30.272 4.59568 30.2412C4.95957 30.457 5.39746 30.5557 5.87236 30.5249C6.23624 30.7407 6.67413 30.8394 7.14903 30.8086C7.51291 31.0244 7.95081 31.1231 8.42571 31.0923C8.78959 31.3081 9.22748 31.4068 9.70238 31.376C10.0663 31.5918 10.5042 31.6905 10.9791 31.6597C11.3429 31.8755 11.7808 31.9742 12.2557 31.9434C12.6196 32.1593 13.0575 32.2579 13.5324 32.2271C13.8963 32.443 14.3342 32.5416 14.8091 32.5108C15.173 32.7267 15.6109 32.8253 16.0857 32.7945C16.4866 33.0289 16.9739 33.1399 17.4981 33.072C18.8611 32.9055 20.2241 32.7452 21.5872 32.591C22.5493 32.48 23.3757 31.8632 23.7766 31.0614C24.0973 31.2465 24.4736 31.3513 24.8744 31.3636C25.1952 31.5487 25.5775 31.6535 25.9784 31.6659C26.3917 31.9064 26.9036 32.0112 27.434 31.9557C29.0684 31.783 30.6966 31.6227 32.3248 31.4685C32.368 31.4685 32.405 31.4562 32.442 31.45C32.4667 31.45 32.4975 31.45 32.5222 31.45C33.8852 31.3205 35.2544 31.191 36.6174 31.0738C37.8324 30.9628 38.8377 30.124 39.0412 29.1125C39.0967 29.131 39.1646 29.131 39.2262 29.1433C39.4668 29.2975 39.7443 29.4085 40.0527 29.4702C40.2932 29.6244 40.5708 29.7354 40.8791 29.7971C41.1197 29.9513 41.3972 30.0623 41.7056 30.124C42.1373 30.4015 42.6862 30.5557 43.2968 30.5064C43.7902 30.4694 44.2898 30.4323 44.7832 30.3953C43.3153 34.0958 41.8104 37.858 40.2932 41.6079C39.954 42.4467 40.102 43.4026 40.6756 44.0995C41.1505 44.6793 41.8536 45 42.5814 45C42.7356 45 42.8897 44.9877 43.0439 44.9568C43.1549 44.9322 43.2721 44.9137 43.3893 44.8952C43.4571 44.8952 43.525 44.9198 43.599 44.9198C43.747 44.9198 43.9012 44.9075 44.0554 44.8767C44.1726 44.8582 44.2836 44.8335 44.4008 44.815C44.4748 44.8211 44.5426 44.8396 44.6166 44.8396C44.7647 44.8396 44.9127 44.8273 45.0607 44.7965C45.1779 44.778 45.2889 44.7595 45.4061 44.7348C45.4801 44.741 45.5541 44.7595 45.6343 44.7595C45.7761 44.7595 45.9241 44.7471 46.066 44.7225C46.1832 44.704 46.3004 44.6855 46.4114 44.6608C46.4916 44.667 46.5656 44.6855 46.6457 44.6855C46.7876 44.6855 46.9295 44.6731 47.0713 44.6484C47.1885 44.6299 47.3057 44.6114 47.4167 44.5929C47.4969 44.5991 47.577 44.6176 47.6634 44.6176C47.7991 44.6176 47.9409 44.6053 48.0766 44.5806C48.1938 44.5621 48.311 44.5436 48.4282 44.5251C48.5145 44.5313 48.5947 44.5559 48.6872 44.5559C48.8229 44.5559 48.9586 44.5436 49.0881 44.5251C49.2053 44.5066 49.3224 44.4881 49.4396 44.4696C49.526 44.4819 49.6185 44.5004 49.7048 44.5004C49.8344 44.5004 49.97 44.4881 50.0996 44.4696C50.2167 44.4511 50.3339 44.4326 50.4511 44.4141C50.5436 44.4264 50.6361 44.4449 50.7286 44.4449C50.8582 44.4449 50.9877 44.4326 51.111 44.4141C51.2282 44.3956 51.3454 44.3771 51.4626 44.3586C51.5613 44.3709 51.6538 44.3894 51.7524 44.3894C51.8758 44.3894 51.9991 44.3771 52.1287 44.3586C52.2458 44.3401 52.363 44.3216 52.4802 44.3092C52.5789 44.3216 52.6776 44.3401 52.7763 44.3401C52.8996 44.3401 53.0168 44.3339 53.1401 44.3154C53.2573 44.2969 53.3745 44.2846 53.4917 44.2661C53.5965 44.2784 53.6952 44.3031 53.8001 44.3031C53.9172 44.3031 54.0344 44.2969 54.1516 44.2784C55.0212 44.1551 55.8908 44.0317 56.7605 43.9145C57.2662 43.8467 57.7226 43.6246 58.0865 43.2916C58.1728 43.2916 58.2653 43.2916 58.3517 43.2731C58.3764 43.2731 58.4072 43.2669 58.4319 43.2608C58.5675 43.2854 58.7032 43.2978 58.8451 43.2978C58.9499 43.2978 59.0486 43.2978 59.1535 43.2793C59.1781 43.2793 59.209 43.2731 59.2336 43.2669C59.3693 43.2916 59.5112 43.3039 59.653 43.3039C59.7517 43.3039 59.8504 43.3039 59.9552 43.2854C59.9861 43.2854 60.0107 43.2793 60.0416 43.2731C60.1773 43.2978 60.3191 43.3101 60.4671 43.3101C60.5658 43.3101 60.6583 43.3101 60.757 43.2916C60.7878 43.2916 60.8187 43.2854 60.8495 43.2793C60.9914 43.3039 61.1332 43.3224 61.2751 43.3224C61.3676 43.3224 61.4663 43.3224 61.5588 43.3039C62.4284 43.2053 63.298 43.1066 64.1738 43.0202C64.6672 42.9709 65.1236 42.755 65.4998 42.4467C65.6232 42.459 65.7527 42.459 65.876 42.4652C66.0734 42.4898 66.2769 42.5022 66.4805 42.5145C66.684 42.5392 66.8875 42.5577 67.091 42.5638C67.2884 42.5885 67.4919 42.607 67.6893 42.6132C68.0223 42.6563 68.3554 42.6872 68.7069 42.6872C68.9475 42.6872 69.2003 42.6748 69.4532 42.6563C70.4215 42.5762 71.3158 42.3603 72.1114 42.0088C72.2532 41.9471 72.3951 41.8731 72.5308 41.8052C72.6665 41.8422 72.8022 41.8607 72.9378 41.8792C73.0797 41.9224 73.2215 41.9409 73.3634 41.9594C73.4991 42.0026 73.6409 42.0211 73.7828 42.0396C74.011 42.1074 74.2392 42.1506 74.4797 42.1506C74.5291 42.1506 74.5846 42.1506 74.6339 42.1506C75.5097 42.0951 76.3793 42.0458 77.2551 41.9964C78.1062 41.9533 78.8525 41.4722 79.2657 40.7506C79.2842 40.7629 79.3089 40.7691 79.3274 40.7753C79.3952 40.8123 79.4631 40.8431 79.5371 40.8739C79.6049 40.9109 79.6789 40.9418 79.7468 40.9726C79.8146 41.0096 79.8824 41.0405 79.9565 41.0713C80.0243 41.1083 80.0983 41.1391 80.1723 41.1761C80.2402 41.2132 80.308 41.244 80.3759 41.2748C80.4437 41.3118 80.5177 41.3488 80.5917 41.3797C80.6596 41.4167 80.7274 41.4475 80.8014 41.4783C81.1591 41.6757 81.5662 41.7929 81.9917 41.7929C82.0226 41.7929 82.0472 41.7929 82.0781 41.7929C82.9539 41.7621 83.8297 41.7374 84.6993 41.7189C84.8843 41.7189 85.0632 41.688 85.242 41.6449C85.4024 41.6757 85.5689 41.7004 85.7416 41.7004C85.7601 41.7004 85.7724 41.7004 85.7909 41.7004C87.0368 41.6757 88.2826 41.6634 89.5284 41.6572C90.947 41.651 92.2175 41.3735 93.3029 40.8308C93.5065 40.7321 93.6853 40.6087 93.8704 40.4916C94.2897 41.2008 95.0545 41.688 95.9365 41.7066C98.2801 41.7559 100.648 41.8361 102.98 41.9471C103.017 41.9471 103.06 41.9471 103.097 41.9471C103.319 41.9471 103.535 41.9039 103.745 41.8484C103.985 41.9409 104.238 42.0088 104.503 42.0211C105.293 42.0643 106.088 42.1136 106.878 42.1629C106.927 42.1629 106.982 42.1629 107.032 42.1629C107.242 42.1629 107.457 42.1321 107.655 42.0828C107.827 42.0766 108 42.0519 108.173 42.0088C108.253 42.0088 108.333 42.0026 108.413 41.9903C108.709 42.1444 109.036 42.2431 109.382 42.274C109.887 42.311 110.393 42.348 110.899 42.3911C110.967 42.3911 111.028 42.3973 111.096 42.3973C111.281 42.3973 111.466 42.3726 111.645 42.3356C111.676 42.3356 111.701 42.3356 111.731 42.3356C111.916 42.3356 112.095 42.311 112.268 42.274C112.28 42.274 112.293 42.274 112.299 42.274C112.626 42.4837 112.996 42.6193 113.403 42.6563C114.192 42.7242 114.982 42.7982 115.771 42.8784C115.851 42.8845 115.932 42.8907 116.012 42.8907C116.172 42.8907 116.332 42.8722 116.487 42.8414C116.505 42.8414 116.517 42.8414 116.536 42.8414C116.622 42.8475 116.702 42.8537 116.789 42.8537C116.949 42.8537 117.103 42.8352 117.258 42.8105C117.27 42.8105 117.288 42.8105 117.301 42.8105C117.387 42.8167 117.473 42.8229 117.56 42.8229C117.714 42.8229 117.874 42.8105 118.022 42.7797C118.035 42.7797 118.053 42.7797 118.065 42.7797C118.152 42.792 118.244 42.792 118.331 42.792C118.485 42.792 118.639 42.7797 118.787 42.7489C118.799 42.7489 118.818 42.7489 118.83 42.7489C118.923 42.7612 119.015 42.7612 119.102 42.7612C119.108 42.7612 119.12 42.7612 119.126 42.7612C119.49 43.0819 119.947 43.3101 120.465 43.3656C121.266 43.4581 122.074 43.5568 122.876 43.6617C122.981 43.674 123.086 43.6802 123.191 43.6802C123.32 43.6802 123.45 43.6617 123.579 43.6432C123.672 43.6555 123.758 43.6678 123.851 43.6802C123.955 43.6925 124.066 43.6987 124.171 43.6987C124.295 43.6987 124.424 43.6802 124.548 43.6617C124.64 43.674 124.733 43.6863 124.825 43.6987C124.936 43.711 125.047 43.7233 125.158 43.7233C125.281 43.7233 125.399 43.7048 125.522 43.6925C125.615 43.7048 125.707 43.7172 125.8 43.7295C125.911 43.748 126.028 43.7542 126.139 43.7542C126.25 43.7542 126.373 43.7357 126.49 43.7233C126.583 43.7357 126.675 43.748 126.768 43.7603C126.885 43.7788 127.002 43.785 127.119 43.785C127.237 43.785 127.348 43.7665 127.459 43.7542C127.551 43.7665 127.644 43.7788 127.736 43.7912C127.853 43.8097 127.977 43.8158 128.094 43.8158C128.205 43.8158 128.316 43.7973 128.421 43.785C128.513 43.7973 128.606 43.8097 128.698 43.8282C128.822 43.8467 128.945 43.8528 129.068 43.8528C129.173 43.8528 129.278 43.8343 129.383 43.822C129.475 43.8343 129.568 43.8467 129.667 43.8652C129.79 43.8837 129.919 43.896 130.043 43.896C130.148 43.896 130.246 43.8775 130.351 43.8652C130.444 43.8775 130.536 43.896 130.635 43.9083C130.764 43.9269 130.894 43.9392 131.023 43.9392C131.122 43.9392 131.221 43.9268 131.319 43.9145C131.412 43.9268 131.511 43.9454 131.603 43.9577C131.733 43.9762 131.868 43.9885 131.998 43.9885C132.097 43.9885 132.189 43.9762 132.282 43.9639C132.374 43.9824 132.473 43.9947 132.565 44.007C132.701 44.0317 132.837 44.0379 132.972 44.0379C133.065 44.0379 133.157 44.0255 133.244 44.0132C133.336 44.0317 133.435 44.044 133.527 44.0625C133.669 44.0872 133.805 44.0995 133.947 44.0995C134.551 44.0995 135.143 43.8775 135.6 43.4581C136.161 42.9524 136.457 42.2123 136.408 41.4537L136.161 37.9567C137.456 35.6316 138.739 33.2941 139.985 31.0059C140.269 30.4817 140.349 29.8834 140.225 29.3099C140.472 29.242 140.694 29.1372 140.898 29.0015C140.935 28.9953 140.978 28.9892 141.021 28.9768C141.243 29.2729 141.471 29.5566 141.693 29.8526C142.156 30.457 142.914 30.8702 143.722 30.9381C144.882 31.0368 146.041 31.1416 147.195 31.2526C147.756 31.3081 148.262 31.1848 148.675 30.9381C149.045 30.9072 149.372 30.7901 149.662 30.6235C150.001 30.5927 150.309 30.494 150.587 30.3522C150.704 30.4262 150.815 30.5064 150.938 30.5804C152.536 31.5548 154.38 32.1716 156.415 32.3998C158.068 32.5786 159.579 32.4615 160.936 32.0236C161.349 31.9496 161.75 31.8509 162.139 31.7275C162.552 31.6535 162.953 31.5548 163.341 31.4315C163.754 31.3575 164.161 31.2588 164.55 31.1354C164.963 31.0614 165.364 30.9628 165.747 30.8394C166.16 30.7654 166.561 30.6667 166.955 30.5434C167.369 30.4694 167.769 30.3707 168.158 30.2473C168.571 30.1733 168.972 30.0746 169.361 29.9513C169.774 29.8773 170.175 29.7786 170.563 29.6552C170.977 29.5812 171.377 29.4826 171.766 29.3592C172.179 29.2852 172.58 29.1865 172.969 29.0632C173.592 28.946 174.19 28.7795 174.757 28.5636C176.503 27.8852 177.89 26.7442 178.889 25.1653C179.876 23.6049 180.382 21.6436 180.382 19.3925C180.382 18.4982 180.382 17.6101 180.382 16.7158C180.382 16.1731 180.203 15.6612 179.907 15.2418L179.852 15.2849Z" fill="#3A3A3A" stroke="#EC008C" stroke-width="1.25909" stroke-miterlimit="10"/>
<path d="M3.45312 27.9713V7.76036C5.08135 7.80353 6.7034 7.84054 8.33162 7.87754C8.33162 10.6283 8.33162 13.379 8.33162 16.1235C8.41797 16.1235 8.51048 16.1173 8.59683 16.1112C10.8233 13.2865 13.0498 10.5912 15.2762 8.01323C17.1943 8.05024 19.1063 8.08107 21.0244 8.10574C18.6314 10.7331 16.2445 13.4776 13.8577 16.3579C16.2815 19.7315 18.7054 22.9324 21.123 25.9915C19.1803 26.1827 17.2375 26.3862 15.2947 26.5898C13.6233 24.3325 11.952 22.0011 10.2806 19.5835C9.6268 20.4038 8.97921 21.2364 8.33162 22.0875C8.33162 23.8514 8.33162 25.6091 8.33162 27.373C6.70957 27.5642 5.08751 27.7616 3.46546 27.9589L3.45312 27.9713Z" fill="white"/>
<path d="M21.3594 25.9726C21.3717 20.0209 21.3779 14.0693 21.3902 8.11766C23.0184 8.14233 24.6467 8.16083 26.2749 8.1855C26.2749 10.5045 26.2687 12.8235 26.2625 15.1425C28.9146 15.0623 31.5666 14.9883 34.2248 14.9204C34.2248 12.7063 34.2371 10.4922 34.2371 8.27185C35.8592 8.29035 37.4874 8.29652 39.1095 8.31503C39.0971 13.6993 39.0848 19.0773 39.0725 24.4616C37.4504 24.5787 35.8222 24.7083 34.2001 24.8378C34.2001 22.6175 34.2125 20.4033 34.2125 18.183C31.5604 18.3002 28.9084 18.4236 26.2502 18.5593C26.2502 20.8782 26.2379 23.2034 26.2379 25.5224C24.6097 25.6704 22.9876 25.8246 21.3594 25.9849V25.9726Z" fill="white"/>
<path d="M44.95 24.0487C43.1985 24.1597 41.4469 24.2831 39.6953 24.4064C41.9835 18.8803 44.2654 13.5393 46.5536 8.3524C48.7245 8.36473 50.8893 8.3709 53.0603 8.38324C55.3238 13.4529 57.5873 18.3931 59.8507 23.2346C58.0992 23.3086 56.3476 23.395 54.596 23.4813C53.0233 19.7993 51.4444 16.0556 49.8717 12.2379C49.8162 12.2379 49.7669 12.2379 49.7113 12.2379C48.1201 16.0926 46.5351 20.0213 44.9439 24.0364L44.95 24.0487ZM44.2654 17.8935C47.9228 17.7578 51.5863 17.6345 55.2436 17.5296C55.2436 18.4486 55.2436 19.3737 55.2436 20.2927C51.5801 20.4345 47.9228 20.6011 44.2593 20.7861C44.2593 19.824 44.2593 18.8557 44.2654 17.8935ZM48.151 6.89069C48.8171 5.76204 49.4831 4.63956 50.1554 3.5294C51.5801 3.56641 53.0048 3.59725 54.4295 3.62809C53.4304 4.71357 52.4374 5.81756 51.4382 6.92771C50.3404 6.91537 49.2488 6.90303 48.151 6.89069Z" fill="white"/>
<path d="M77.7226 8.43892C77.7226 13.1879 77.7164 17.9369 77.7102 22.6859C76.3287 22.7105 74.941 22.7414 73.5595 22.7722C70.8766 20.077 68.1938 17.3633 65.5171 14.5941C65.4739 14.5941 65.4307 14.5941 65.3875 14.5941C65.3875 17.4003 65.3752 20.2127 65.3752 23.0189C63.747 23.0744 62.1126 23.1423 60.4844 23.2101C60.4967 18.2761 60.5029 13.3421 60.5152 8.40808C61.9152 8.40808 63.3214 8.41425 64.7215 8.42042C67.3673 11.2328 70.0193 13.9897 72.6714 16.7096C72.7269 16.7096 72.7824 16.7096 72.8379 16.7096C72.8379 13.9527 72.8441 11.1958 72.8502 8.43892C74.4784 8.43892 76.1005 8.43892 77.7287 8.43892H77.7226Z" fill="white"/>
<path d="M79.2188 22.6613C79.2188 17.9185 79.2249 13.1818 79.2311 8.43901C80.8593 8.43901 82.4937 8.43901 84.1219 8.43901C84.1219 10.3324 84.1219 12.2259 84.1219 14.1193C86.7801 14.1069 89.4383 14.107 92.0965 14.107C92.0965 12.2197 92.0965 10.3263 92.0965 8.43901C93.7247 8.43901 95.353 8.43901 96.975 8.43901C96.975 13.1572 96.975 17.8753 96.9812 22.5934C95.353 22.5811 93.7247 22.5688 92.0965 22.5688C92.0965 20.6753 92.0965 18.7819 92.0965 16.8947C89.4383 16.8947 86.7801 16.8947 84.1219 16.9132C84.1219 18.8066 84.1219 20.7062 84.1219 22.5996C82.4875 22.6181 80.8593 22.6366 79.2249 22.6613H79.2188Z" fill="white"/>
<path d="M102.911 22.6735C102.911 17.9307 102.905 13.1817 102.898 8.43892C104.527 8.43892 106.161 8.43892 107.789 8.43892C107.789 10.357 107.789 12.2751 107.795 14.1932C110.454 14.2179 113.112 14.2487 115.77 14.2796C115.77 12.3245 115.764 10.3755 115.758 8.42042C117.386 8.42042 119.008 8.41425 120.636 8.40808C120.649 13.3421 120.655 18.2699 120.667 23.2039C119.039 23.1361 117.411 23.0682 115.782 23.0127C115.782 21.0576 115.776 19.1025 115.77 17.1474C113.112 17.0919 110.454 17.0488 107.795 17.0118C107.795 18.9298 107.795 20.8541 107.802 22.7722C106.167 22.7352 104.539 22.6982 102.905 22.6674L102.911 22.6735Z" fill="white"/>
<path d="M134.379 8.35916C136.007 8.35299 137.629 8.34065 139.257 8.32832C139.263 11.7513 139.276 15.1742 139.282 18.591C139.282 19.7752 138.93 20.7928 138.215 21.6255C137.499 22.4581 136.5 23.0687 135.217 23.4634C133.935 23.8581 132.442 23.9938 130.746 23.8951C129.025 23.7964 127.527 23.4819 126.237 22.97C124.955 22.4519 123.956 21.7735 123.24 20.9224C122.525 20.0712 122.167 19.0968 122.167 17.9928C122.161 14.798 122.155 11.6033 122.148 8.40233C123.777 8.40233 125.405 8.39 127.033 8.38383C127.039 11.5293 127.045 14.6747 127.052 17.8139C127.052 18.332 127.206 18.8069 127.514 19.2263C127.823 19.6457 128.254 19.9849 128.803 20.2378C129.358 20.4968 130 20.6387 130.727 20.6695C131.461 20.7003 132.097 20.614 132.646 20.4043C133.194 20.1946 133.626 19.8862 133.935 19.4792C134.243 19.0721 134.397 18.5972 134.397 18.0606C134.391 14.8227 134.385 11.5848 134.372 8.34682L134.379 8.35916ZM129.087 6.93446C128.088 5.82431 127.089 4.73266 126.089 3.64718C127.514 3.61634 128.939 3.58551 130.364 3.55467C131.036 4.66482 131.702 5.78114 132.374 6.90362C131.276 6.91596 130.185 6.9283 129.087 6.93446Z" fill="white"/>
<path d="M157.953 8.14969C157.965 14.0273 157.971 19.905 157.984 25.7888C156.602 25.6592 155.227 25.5297 153.845 25.4064C151.162 21.8601 148.473 18.4803 145.784 15.2423C145.741 15.2423 145.698 15.2423 145.655 15.2423C145.661 18.4063 145.667 21.564 145.679 24.728C144.051 24.5984 142.423 24.4812 140.795 24.3641C140.782 19.023 140.77 13.6758 140.758 8.33472C142.158 8.32238 143.558 8.31621 144.964 8.30388C147.622 11.4246 150.28 14.6749 152.939 18.0855C152.994 18.0855 153.05 18.0855 153.105 18.0917C153.099 14.8044 153.093 11.511 153.087 8.2237C154.709 8.20519 156.337 8.1867 157.959 8.16203L157.953 8.14969Z" fill="white"/>
<path d="M172.708 14.2425C172.596 13.8416 172.43 13.4839 172.214 13.1755C171.998 12.8671 171.733 12.6019 171.412 12.386C171.098 12.1702 170.734 12.0037 170.327 11.8926C169.92 11.7816 169.476 11.7261 168.988 11.72C168.008 11.72 167.163 11.9297 166.454 12.3614C165.738 12.7931 165.189 13.416 164.807 14.2301C164.418 15.0442 164.227 16.0372 164.227 17.209C164.227 18.387 164.418 19.3985 164.795 20.2558C165.171 21.1131 165.714 21.7915 166.423 22.2911C167.132 22.7906 167.996 23.0867 169.001 23.173C169.895 23.247 170.648 23.173 171.27 22.951C171.893 22.7228 172.362 22.3651 172.683 21.8717C173.004 21.3783 173.164 20.7739 173.164 20.0708C173.466 20.1263 173.768 20.1818 174.071 20.2373C172.436 20.1324 170.802 20.0214 169.167 19.9227C169.167 18.8064 169.167 17.6901 169.167 16.5738C172.066 16.691 174.965 16.8081 177.864 16.9253V19.602C177.864 21.4153 177.481 22.9386 176.716 24.1413C175.952 25.3501 174.903 26.2074 173.571 26.7255C172.239 27.2436 170.703 27.3916 168.97 27.1942C167.046 26.9784 165.356 26.4048 163.9 25.5043C162.439 24.6039 161.304 23.4382 160.484 22.0074C159.669 20.5765 159.256 18.9359 159.25 17.061C159.25 15.6055 159.491 14.3165 159.984 13.1878C160.477 12.0592 161.162 11.097 162.044 10.2953C162.926 9.49348 163.95 8.87056 165.115 8.43267C166.281 7.99478 167.539 7.75425 168.884 7.72341C170.055 7.69874 171.141 7.82826 172.152 8.13047C173.164 8.43268 174.058 8.87674 174.835 9.46265C175.612 10.0486 176.248 10.764 176.735 11.6028C177.222 12.4415 177.524 13.3667 177.642 14.372C175.995 14.335 174.354 14.298 172.708 14.261V14.2425Z" fill="white"/>
<path d="M45.9287 41.6135C44.7754 41.8171 43.6221 42.0268 42.4688 42.2488C44.393 37.7403 46.2803 33.2504 48.1305 28.779C49.5244 28.5384 50.9121 28.3102 52.3121 28.0944C53.4222 32.0786 54.5756 36.0689 55.7721 40.0717C54.6126 40.232 53.4531 40.3985 52.2998 40.5712C51.5103 37.58 50.7394 34.5887 49.9931 31.6037C49.9561 31.6037 49.9253 31.616 49.8883 31.6222C48.5869 34.9403 47.2732 38.2707 45.9349 41.6135H45.9287ZM45.9411 36.7104C48.3279 36.2848 50.7147 35.8901 53.1077 35.5385C53.046 36.3095 52.9843 37.0866 52.9227 37.8575C50.5173 38.2152 48.1182 38.61 45.719 39.0355C45.793 38.2584 45.867 37.4875 45.9411 36.7104Z" fill="url(#paint0_linear_1287_12896)"/>
<path d="M69.1376 30.6049C68.0644 30.6974 66.9851 30.7961 65.912 30.9009C65.8873 30.5925 65.8133 30.315 65.6961 30.0745C65.5789 29.8339 65.4124 29.6366 65.2027 29.4762C64.993 29.3159 64.7463 29.2048 64.4503 29.1432C64.1604 29.0753 63.8335 29.063 63.4758 29.1062C62.8405 29.174 62.2793 29.3899 61.8044 29.7414C61.3233 30.093 60.9471 30.5679 60.6634 31.1661C60.3797 31.7643 60.2132 32.4613 60.1577 33.2692C60.1022 34.108 60.1824 34.7926 60.3982 35.323C60.6141 35.8596 60.9471 36.2358 61.3912 36.4702C61.8352 36.7045 62.378 36.7847 63.0071 36.7107C63.3648 36.6737 63.6917 36.5935 63.9877 36.4763C64.2837 36.3591 64.5489 36.205 64.7833 36.0199C65.0177 35.8287 65.2089 35.6067 65.3692 35.3538C65.5296 35.101 65.6406 34.8173 65.7146 34.5089C66.7939 34.4102 67.8794 34.3177 68.9649 34.2314C68.8847 34.7926 68.6873 35.3538 68.379 35.9213C68.0706 36.4887 67.6512 37.0129 67.1331 37.5063C66.6151 37.9997 65.9921 38.4068 65.2582 38.7398C64.5304 39.0728 63.704 39.2887 62.7789 39.3874C61.5639 39.5169 60.4907 39.3936 59.5718 39.0112C58.6466 38.6288 57.9435 37.9874 57.4625 37.0931C56.9814 36.1988 56.7902 35.064 56.8951 33.6763C56.9938 32.2886 57.3576 31.0736 57.9744 30.0374C58.5911 29.0013 59.3867 28.1749 60.355 27.5581C61.3233 26.9414 62.3842 26.5713 63.5436 26.4418C64.3331 26.3555 65.0609 26.3863 65.7208 26.5281C66.3807 26.67 66.9604 26.9229 67.4477 27.2806C67.9411 27.6383 68.3296 28.0947 68.6257 28.6498C68.9217 29.2048 69.0882 29.8586 69.1314 30.6049H69.1376Z" fill="url(#paint1_linear_1287_12896)"/>
<path d="M73.1939 38.2839C72.0283 38.3641 70.8626 38.4504 69.7031 38.5429C71.3992 34.2257 73.0582 29.9269 74.6803 25.6405C76.0865 25.548 77.4927 25.474 78.8989 25.4061C80.2681 29.526 81.6743 33.6521 83.1175 37.7966C81.9518 37.8337 80.7861 37.8707 79.6205 37.9262C78.6398 34.8362 77.6777 31.7587 76.7402 28.6811C76.7032 28.6811 76.6724 28.6811 76.6354 28.6811C75.5067 31.8697 74.3658 35.0706 73.1939 38.2777V38.2839ZM72.9164 33.3684C75.3279 33.2019 77.7332 33.0662 80.1509 32.9675C80.1324 33.7384 80.1139 34.5032 80.1015 35.2741C77.6777 35.3728 75.2539 35.5085 72.8362 35.6812C72.8671 34.9103 72.8979 34.1455 72.9226 33.3745L72.9164 33.3684Z" fill="url(#paint2_linear_1287_12896)"/>
<path d="M89.5458 37.6974C87.8868 37.7036 86.2277 37.7283 84.5625 37.7653C84.618 33.5775 84.6735 29.396 84.7229 25.2082C86.3387 25.1712 87.9485 25.1465 89.5643 25.1404C90.9027 25.1404 92.0499 25.3932 93.0243 25.899C93.9926 26.4109 94.7512 27.1387 95.2878 28.0884C95.8244 29.0382 96.1019 30.1607 96.1204 31.4682C96.1389 32.7758 95.886 33.8921 95.3618 34.8234C94.8376 35.7547 94.079 36.4639 93.086 36.9512C92.093 37.4446 90.915 37.6851 89.5458 37.6913V37.6974ZM87.8374 35.1256C88.3679 35.1256 88.8983 35.1132 89.4287 35.1132C90.1811 35.1132 90.8163 34.9899 91.3344 34.7555C91.8525 34.5212 92.2472 34.1326 92.5124 33.5899C92.7776 33.0471 92.9071 32.3317 92.901 31.4251C92.901 30.5246 92.7591 29.803 92.4877 29.2603C92.2164 28.7237 91.8278 28.329 91.3098 28.0884C90.7917 27.8479 90.1564 27.7307 89.3978 27.7307C88.8921 27.7307 88.3864 27.7369 87.8806 27.7431C87.8683 30.2039 87.8498 32.6647 87.8374 35.1256Z" fill="url(#paint3_linear_1287_12896)"/>
<path d="M98.088 37.8019C98.0201 33.6142 97.9585 29.4326 97.8906 25.2449C100.937 25.3312 103.984 25.4792 107.031 25.6766C107.062 26.4969 107.093 27.3233 107.117 28.1436C105.119 28.0141 103.115 27.9031 101.116 27.8229C101.135 28.6802 101.153 29.5375 101.172 30.4009C103.028 30.4811 104.878 30.5736 106.735 30.6908C106.766 31.5172 106.79 32.3375 106.821 33.1639C104.959 33.0468 103.096 32.9481 101.227 32.8679C101.246 33.7314 101.264 34.5886 101.289 35.4521C103.324 35.5384 105.359 35.6433 107.389 35.779C107.419 36.5993 107.45 37.4257 107.475 38.246C104.348 38.0425 101.215 37.8944 98.088 37.8019Z" fill="url(#paint4_linear_1287_12896)"/>
<path d="M109.016 25.8123C110.323 25.911 111.624 26.0158 112.932 26.133C114.165 28.8282 115.417 31.5357 116.688 34.2494C116.737 34.2494 116.793 34.2618 116.842 34.2679C117.823 31.7886 118.779 29.3093 119.722 26.8361C121.024 26.9903 122.325 27.1506 123.626 27.3233C123.929 31.5295 124.231 35.7358 124.533 39.9359C123.485 39.794 122.43 39.6645 121.381 39.535C121.215 36.957 121.048 34.3728 120.876 31.7948C120.839 31.7948 120.802 31.7886 120.765 31.7824C119.877 34.2124 118.964 36.6424 118.039 39.0786C117.366 39.0046 116.694 38.9367 116.022 38.8689C114.807 36.1984 113.61 33.534 112.432 30.8758C112.395 30.8758 112.358 30.8696 112.321 30.8635C112.445 33.4538 112.562 36.0442 112.685 38.6345C111.631 38.542 110.576 38.4618 109.521 38.3817C109.355 34.1877 109.188 30 109.016 25.8061V25.8123Z" fill="url(#paint5_linear_1287_12896)"/>
<path d="M124.945 27.4961C126.117 27.6564 127.289 27.8291 128.461 28.008C129.522 29.9076 130.595 31.8195 131.674 33.7376C131.711 33.7437 131.748 33.7499 131.791 33.7561C132.562 32.1464 133.321 30.5366 134.067 28.9331C135.233 29.1366 136.398 29.3525 137.564 29.5745C136.275 32.0909 134.949 34.6134 133.598 37.142C133.728 38.5482 133.857 39.9606 133.987 41.3668C132.92 41.1818 131.853 41.0091 130.78 40.8426C130.663 39.4364 130.539 38.0302 130.422 36.624C128.572 33.5649 126.746 30.5243 124.951 27.5022L124.945 27.4961Z" fill="url(#paint6_linear_1287_12896)"/>
<defs>
<linearGradient id="paint0_linear_1287_12896" x1="49.1204" y1="28.0944" x2="49.1204" y2="42.2488" gradientUnits="userSpaceOnUse">
<stop stop-color="#FA98CD"/>
<stop offset="1" stop-color="#F41E92"/>
</linearGradient>
<linearGradient id="paint1_linear_1287_12896" x1="63.0024" y1="26.3938" x2="63.0024" y2="39.437" gradientUnits="userSpaceOnUse">
<stop stop-color="#FA98CD"/>
<stop offset="1" stop-color="#F41E92"/>
</linearGradient>
<linearGradient id="paint2_linear_1287_12896" x1="76.4103" y1="25.4061" x2="76.4103" y2="38.5429" gradientUnits="userSpaceOnUse">
<stop stop-color="#FA98CD"/>
<stop offset="1" stop-color="#F41E92"/>
</linearGradient>
<linearGradient id="paint3_linear_1287_12896" x1="90.3419" y1="25.1404" x2="90.3419" y2="37.7653" gradientUnits="userSpaceOnUse">
<stop stop-color="#FA98CD"/>
<stop offset="1" stop-color="#F41E92"/>
</linearGradient>
<linearGradient id="paint4_linear_1287_12896" x1="102.683" y1="25.2449" x2="102.683" y2="38.246" gradientUnits="userSpaceOnUse">
<stop stop-color="#FA98CD"/>
<stop offset="1" stop-color="#F41E92"/>
</linearGradient>
<linearGradient id="paint5_linear_1287_12896" x1="116.774" y1="25.8061" x2="116.774" y2="39.9359" gradientUnits="userSpaceOnUse">
<stop stop-color="#FA98CD"/>
<stop offset="1" stop-color="#F41E92"/>
</linearGradient>
<linearGradient id="paint6_linear_1287_12896" x1="131.255" y1="27.4961" x2="131.255" y2="41.3668" gradientUnits="userSpaceOnUse">
<stop stop-color="#FA98CD"/>
<stop offset="1" stop-color="#F41E92"/>
</linearGradient>
</defs>
</svg>
