<svg width="80" height="81" viewBox="0 0 80 81" fill="none" xmlns="http://www.w3.org/2000/svg">
<g clip-path="url(#clip0_1832_4074)">
<path d="M0 40.9381C0 18.8479 17.9075 0.9375 40.0003 0.9375C62.0931 0.9375 80 18.8479 80 40.9381C80 63.0283 62.0907 80.9375 40.0003 80.9375C17.9099 80.9375 0 63.0295 0 40.9381Z" fill="url(#paint0_radial_1832_4074)"/>
<path d="M78.7153 40.9361C78.7153 62.3172 61.3832 79.6521 40.0002 79.6521C18.6172 79.6521 1.28516 62.3172 1.28516 40.9361C1.28516 19.5551 18.6196 2.22137 40.0002 2.22137C61.3808 2.22137 78.7153 19.5545 78.7153 40.9361Z" fill="url(#paint1_linear_1832_4074)"/>
<path d="M40.7585 76.0624C40.7471 75.8409 40.9262 75.6511 41.1477 75.6463C41.3745 75.6356 41.559 75.8135 41.5697 76.0355C41.5751 76.2624 41.402 76.4468 41.1745 76.4576H41.1638C40.9423 76.4576 40.7632 76.2839 40.7585 76.0624ZM36.8048 76.3328C36.5828 76.3113 36.415 76.1161 36.4371 75.8953C36.458 75.6678 36.6532 75.506 36.8747 75.5275C37.1021 75.5436 37.2639 75.7436 37.2424 75.9657C37.2263 76.177 37.0478 76.3334 36.8424 76.3334H36.8048V76.3328ZM45.0685 75.7108C45.0309 75.4893 45.1819 75.2786 45.4034 75.2458C45.6255 75.2135 45.8302 75.3592 45.8684 75.5813C45.9007 75.8027 45.7496 76.0135 45.5282 76.0463C45.512 76.0517 45.4906 76.0517 45.4685 76.0517C45.2679 76.0517 45.0948 75.9108 45.0679 75.7102L45.0685 75.7108ZM32.4829 75.6786H32.4781C32.262 75.6302 32.1205 75.4135 32.1701 75.1974C32.2184 74.9753 32.4351 74.8351 32.6512 74.884C32.8679 74.9324 33.0082 75.1491 32.9646 75.3652C32.9216 75.5544 32.7533 75.6839 32.5646 75.6839C32.5378 75.6839 32.5109 75.6839 32.4835 75.6786H32.4829ZM49.3027 74.8297C49.2383 74.6136 49.3624 74.3862 49.5791 74.3265C49.7952 74.262 50.0173 74.3915 50.0823 74.6029C50.142 74.8189 50.0179 75.0458 49.8006 75.1061C49.763 75.1168 49.7301 75.1222 49.6925 75.1222C49.514 75.1222 49.3517 75.0088 49.3027 74.8303V74.8297ZM28.2648 74.4942C28.054 74.4184 27.946 74.1862 28.0158 73.9749C28.0916 73.7635 28.3239 73.6501 28.5352 73.7259C28.7459 73.8017 28.8599 74.034 28.7835 74.2453C28.7238 74.4077 28.5674 74.5157 28.4003 74.5157C28.3567 74.5157 28.3077 74.5103 28.2648 74.4942ZM53.3913 73.4286C53.3047 73.2233 53.4026 72.9851 53.608 72.8986C53.8133 72.8066 54.0521 72.9039 54.1381 73.1093C54.2246 73.3146 54.1333 73.5528 53.9214 73.6447C53.873 73.6668 53.8187 73.6776 53.765 73.6776C53.608 73.6776 53.4569 73.5856 53.3913 73.4286ZM24.2305 72.7965C24.0305 72.6938 23.9494 72.4502 24.052 72.2503C24.1493 72.0503 24.3929 71.9691 24.5929 72.0664C24.7929 72.1691 24.874 72.4126 24.7767 72.6126C24.7063 72.7535 24.5606 72.8347 24.415 72.8347C24.3559 72.8347 24.2902 72.8239 24.2311 72.7971L24.2305 72.7965ZM57.2745 71.5363C57.1664 71.3417 57.2315 71.0928 57.4261 70.9847C57.6153 70.8713 57.8637 70.9358 57.9771 71.1304C58.0911 71.325 58.0261 71.5739 57.8314 71.682C57.7664 71.7196 57.6965 71.7417 57.6261 71.7417C57.4912 71.7417 57.3497 71.6658 57.2745 71.5363ZM20.4393 70.6116C20.2548 70.4869 20.2005 70.2385 20.3252 70.0493C20.45 69.8654 20.6983 69.8111 20.8876 69.9359C21.0714 70.06 21.1257 70.309 21.0016 70.4982C20.9258 70.617 20.7962 70.6821 20.6661 70.6821C20.5849 70.6821 20.5097 70.6606 20.4393 70.6116ZM60.904 69.1837C60.7625 69.0052 60.8007 68.7509 60.9792 68.616C61.1577 68.4751 61.412 68.5127 61.5475 68.6912C61.6824 68.8697 61.6502 69.124 61.4717 69.2595C61.3959 69.3133 61.3099 69.3407 61.2228 69.3407C61.104 69.3407 60.9792 69.2864 60.904 69.1837ZM16.9459 67.9827C16.7727 67.8364 16.7566 67.5827 16.9017 67.4096C17.0432 67.2424 17.3022 67.2203 17.4706 67.3666C17.6431 67.5128 17.6652 67.7666 17.5189 67.9403C17.4377 68.0322 17.3237 68.0806 17.2103 68.0806C17.113 68.0806 17.0211 68.0483 16.9459 67.9832V67.9827ZM64.2081 66.3983C64.0571 66.236 64.0571 65.9823 64.2189 65.8253C64.3813 65.6683 64.6356 65.6736 64.792 65.8306C64.949 65.993 64.9442 66.2527 64.7866 66.4091C64.7054 66.4849 64.6027 66.5225 64.5006 66.5225C64.398 66.5225 64.2899 66.4795 64.2081 66.3983ZM13.7981 64.9436C13.6471 64.7806 13.6578 64.5215 13.825 64.3705C13.9873 64.2189 14.2416 64.2296 14.398 64.3974C14.5437 64.5597 14.5336 64.8194 14.3712 64.9704C14.29 65.0409 14.1927 65.0785 14.0954 65.0785C13.9873 65.0785 13.8787 65.0355 13.7981 64.9436ZM67.1559 63.2291C66.9828 63.0942 66.9559 62.8345 67.0962 62.6614C67.2377 62.4883 67.4914 62.4614 67.6645 62.6017C67.8376 62.742 67.8645 62.9963 67.7296 63.1694C67.6478 63.2673 67.529 63.3211 67.4102 63.3211C67.3237 63.3211 67.2323 63.2936 67.1559 63.2285V63.2291ZM11.0449 61.5469C10.9154 61.363 10.9584 61.1087 11.1422 60.9792C11.3213 60.8491 11.575 60.8926 11.7052 61.0765C11.8353 61.2604 11.7917 61.5093 11.6126 61.6388C11.5368 61.6932 11.4562 61.7146 11.3751 61.7146C11.2509 61.7146 11.1261 61.655 11.0449 61.5469ZM69.6924 59.7298C69.5031 59.611 69.4435 59.3621 69.5622 59.1728C69.6816 58.9782 69.9306 58.9185 70.1198 59.0373C70.309 59.1561 70.3681 59.405 70.2493 59.5949C70.1735 59.719 70.044 59.7895 69.9085 59.7895C69.8327 59.7895 69.7574 59.768 69.6924 59.7304V59.7298ZM8.72994 57.8368C8.62189 57.6422 8.6977 57.3939 8.89291 57.2906C9.09289 57.1826 9.33585 57.253 9.4445 57.453C9.55255 57.6476 9.47614 57.8959 9.28153 57.9992C9.21706 58.032 9.15199 58.0482 9.08692 58.0482C8.94126 58.0482 8.80516 57.9724 8.72934 57.8368H8.72994ZM71.7799 55.9385C71.574 55.8466 71.4874 55.6036 71.5794 55.4031C71.6713 55.1977 71.9148 55.1052 72.1202 55.2031C72.3202 55.295 72.4127 55.538 72.3148 55.7386C72.2503 55.8896 72.1035 55.9761 71.9471 55.9761C71.8934 55.9761 71.8337 55.9654 71.7799 55.9379V55.9385ZM6.89131 53.8725C6.81013 53.6618 6.9128 53.4295 7.11816 53.3478C7.32948 53.2666 7.56229 53.3699 7.64288 53.5752C7.72407 53.7859 7.62676 54.0187 7.41604 54.1053C7.36768 54.1214 7.31873 54.1322 7.27038 54.1322C7.10801 54.1322 6.95101 54.0349 6.89131 53.8725ZM73.3864 51.9204C73.1697 51.8554 73.0509 51.6285 73.1213 51.4124C73.1864 51.1958 73.4126 51.0823 73.6299 51.1474C73.8406 51.2178 73.9594 51.4453 73.895 51.6554C73.8406 51.8291 73.6783 51.9425 73.5057 51.9425C73.4675 51.9425 73.4246 51.9318 73.3864 51.9204ZM5.55055 49.7081C5.49622 49.492 5.62636 49.2706 5.84723 49.2163C6.06393 49.1625 6.2854 49.2921 6.33972 49.5082C6.39345 49.7243 6.26391 49.9463 6.04781 50.0001C6.0102 50.0108 5.97737 50.0108 5.94513 50.0108C5.76664 50.0108 5.5989 49.892 5.55055 49.7075V49.7081ZM74.4788 47.74C74.2567 47.6964 74.1111 47.4857 74.154 47.2636C74.1916 47.0422 74.4024 46.9013 74.625 46.9395C74.8465 46.9831 74.9922 47.1938 74.9492 47.4099C74.917 47.6051 74.7438 47.7454 74.554 47.7454C74.5277 47.7454 74.5003 47.74 74.4788 47.74ZM4.73868 45.4089C4.71182 45.1868 4.86822 44.9868 5.09029 44.9546C5.31176 44.9272 5.51712 45.0901 5.54458 45.3062V45.3116C5.57144 45.5337 5.41444 45.7336 5.19297 45.7605C5.17685 45.7659 5.16073 45.7659 5.14462 45.7659C4.94463 45.7659 4.76555 45.6142 4.73868 45.4089ZM75.0459 43.4509C74.8244 43.4401 74.6519 43.2455 74.668 43.0235C74.6782 42.796 74.8734 42.6289 75.0948 42.6396C75.3169 42.6558 75.49 42.8456 75.4739 43.0724C75.4632 43.2831 75.2847 43.4509 75.068 43.4509H75.0465H75.0459ZM4.46289 41.0446C4.46289 41.0285 4.46289 41.007 4.46886 40.9908C4.46289 40.9741 4.46289 40.958 4.46289 40.9365C4.46289 40.7145 4.64675 40.5306 4.86822 40.5306C5.09029 40.5306 5.27416 40.7145 5.27416 40.9365C5.27416 40.958 5.27416 40.9741 5.26878 40.9908C5.27416 41.007 5.27416 41.0285 5.27416 41.0446C5.27416 41.2666 5.09029 41.4505 4.86822 41.4505C4.64138 41.4505 4.46289 41.272 4.46289 41.0446ZM74.6573 38.7457C74.6459 38.5242 74.8137 38.3296 75.0405 38.3189C75.2626 38.3028 75.4572 38.4753 75.4679 38.6974C75.4841 38.9194 75.3109 39.1134 75.0895 39.1248C75.0781 39.1301 75.0728 39.1301 75.062 39.1301C74.8513 39.1301 74.6728 38.9624 74.6573 38.7463V38.7457ZM5.08014 37.0265C4.85867 36.999 4.70108 36.7937 4.72854 36.5722C4.7554 36.3501 4.95598 36.1931 5.18282 36.2206C5.40429 36.2475 5.56129 36.4474 5.53443 36.6695C5.50697 36.8749 5.33385 37.0265 5.1285 37.0265H5.08014ZM74.1325 34.5062C74.0943 34.2841 74.2352 34.074 74.4567 34.0358C74.6788 33.9928 74.8895 34.139 74.9325 34.3599C74.9701 34.576 74.8244 34.7873 74.6083 34.8303C74.5809 34.8357 74.5534 34.8357 74.5319 34.8357C74.3373 34.8357 74.1702 34.7002 74.1325 34.5056V34.5062ZM5.82037 32.7648C5.60427 32.7111 5.47414 32.489 5.52906 32.2724C5.58278 32.0563 5.80425 31.9208 6.02095 31.9751C6.23764 32.0342 6.36718 32.2509 6.31286 32.467C6.26988 32.6514 6.10213 32.7756 5.92305 32.7756C5.88544 32.7756 5.85261 32.7702 5.82037 32.7648ZM73.0885 30.3633C73.018 30.1526 73.1368 29.9198 73.3476 29.8547C73.5642 29.7849 73.7911 29.9037 73.8615 30.1144C73.9266 30.3311 73.8132 30.5579 73.5971 30.6283C73.5541 30.6391 73.5159 30.6445 73.4723 30.6445C73.2992 30.6445 73.1428 30.5364 73.0885 30.3633ZM7.08114 28.6274C6.87579 28.5462 6.77252 28.308 6.8537 28.1026C6.93489 27.8913 7.16711 27.7886 7.37843 27.8698C7.58378 27.951 7.69183 28.1832 7.61065 28.3946C7.54617 28.5563 7.38917 28.6542 7.2268 28.6542C7.17785 28.6542 7.1289 28.6435 7.08114 28.6274ZM71.5364 26.3828C71.4445 26.1775 71.531 25.9339 71.7364 25.842C71.9369 25.7447 72.1805 25.8366 72.2724 26.0366C72.3697 26.2419 72.2832 26.4855 72.0778 26.5774C72.0241 26.6049 71.9644 26.6156 71.9053 26.6156C71.7543 26.6156 71.608 26.5291 71.537 26.3828H71.5364ZM8.84933 24.6737C8.64935 24.5711 8.57354 24.3221 8.68159 24.1275C8.78964 23.9276 9.03319 23.8571 9.23317 23.9598C9.42778 24.0678 9.50419 24.3114 9.39555 24.5114C9.32511 24.6469 9.18482 24.7227 9.03857 24.7227C8.97409 24.7227 8.90843 24.7066 8.84933 24.6737ZM69.5079 22.6184C69.3891 22.4292 69.4482 22.1809 69.6381 22.0615C69.8327 21.9427 70.081 22.0018 70.2004 22.191C70.3138 22.3803 70.2601 22.6346 70.0703 22.7486C69.9998 22.7916 69.924 22.8136 69.8536 22.8136C69.7187 22.8136 69.5837 22.7432 69.5073 22.619L69.5079 22.6184ZM11.0831 20.9744C10.9047 20.8449 10.8611 20.5906 10.9852 20.4067C11.1154 20.2229 11.3697 20.1793 11.5529 20.3088C11.7368 20.439 11.7804 20.6927 11.6503 20.8765C11.5691 20.99 11.4449 21.0497 11.3207 21.0497C11.2395 21.0497 11.1584 21.0228 11.0825 20.9738L11.0831 20.9744ZM67.0312 19.1358C66.8909 18.9627 66.9177 18.7084 67.0956 18.5681C67.2693 18.4272 67.523 18.4541 67.6639 18.6272C67.8048 18.8003 67.7773 19.06 67.6042 19.2009C67.5284 19.26 67.4371 19.2874 67.3505 19.2874C67.2317 19.2874 67.1123 19.2391 67.0312 19.1364V19.1358ZM13.7599 17.573C13.5928 17.4214 13.5814 17.1677 13.733 16.9999C13.8847 16.8382 14.1384 16.822 14.3061 16.9731C14.4679 17.1247 14.4846 17.3844 14.333 17.5461C14.2518 17.6381 14.1437 17.6816 14.0303 17.6816C13.9324 17.6816 13.8357 17.644 13.7599 17.5736V17.573ZM64.1484 15.9827C63.992 15.8263 63.9867 15.572 64.1431 15.4096C64.2953 15.2479 64.5544 15.2419 64.7161 15.3989C64.8731 15.5559 64.8791 15.815 64.7215 15.972C64.6457 16.0585 64.5377 16.0961 64.4302 16.0961C64.3323 16.0961 64.2302 16.0585 64.1484 15.9827ZM16.8265 14.5279C16.6802 14.3548 16.7017 14.1005 16.87 13.9549C17.0426 13.8086 17.2969 13.8307 17.4425 13.9979C17.5888 14.171 17.5679 14.4253 17.3995 14.5709C17.3237 14.636 17.2264 14.6682 17.1345 14.6682C17.0211 14.6682 16.9071 14.6193 16.8265 14.5273V14.5279ZM60.904 13.2027C60.7249 13.0678 60.6873 12.8135 60.8228 12.635C60.9583 12.4565 61.212 12.4183 61.3905 12.5538C61.5696 12.6893 61.6072 12.943 61.4717 13.1215C61.3905 13.2296 61.2717 13.2839 61.1475 13.2839C61.061 13.2839 60.9744 13.257 60.9046 13.2027H60.904ZM20.244 11.8781C20.1199 11.6942 20.1682 11.4399 20.3581 11.3157C20.5419 11.1916 20.7962 11.2453 20.921 11.4292C21.0452 11.6184 20.9908 11.8667 20.807 11.9915C20.7365 12.0398 20.6607 12.0619 20.5849 12.0619C20.45 12.0619 20.3199 11.9969 20.244 11.8781ZM57.3396 10.84C57.1449 10.7319 57.0805 10.483 57.1885 10.2878C57.3019 10.0932 57.5515 10.0281 57.7455 10.1415C57.9401 10.2496 58.0046 10.4985 57.8911 10.6931C57.8153 10.8233 57.6804 10.8937 57.5395 10.8937C57.4691 10.8937 57.3998 10.8776 57.3396 10.84ZM23.9601 9.67174C23.8574 9.47176 23.9386 9.2282 24.144 9.12553C24.3386 9.02763 24.5875 9.10941 24.6848 9.30939C24.7875 9.50937 24.7009 9.75292 24.5069 9.85023C24.4472 9.88246 24.3822 9.89321 24.3231 9.89321C24.1768 9.89321 24.0311 9.81262 23.9607 9.67174H23.9601ZM53.5113 8.93629C53.3053 8.84973 53.208 8.61155 53.2946 8.4062C53.3811 8.20085 53.6193 8.10354 53.8247 8.1901C54.0354 8.27666 54.1333 8.51425 54.0414 8.7202C53.9763 8.8766 53.8247 8.96853 53.6677 8.96853C53.6139 8.96853 53.5644 8.95778 53.5113 8.93629ZM27.9191 7.9352C27.8433 7.72448 27.9567 7.49226 28.1675 7.41645C28.3788 7.34064 28.611 7.45466 28.6868 7.66538C28.7572 7.8761 28.6492 8.10832 28.4385 8.17936C28.3955 8.19547 28.3465 8.20622 28.3024 8.20622C28.1352 8.20622 27.9782 8.09757 27.9191 7.9358V7.9352ZM49.4764 7.51913C49.2597 7.46003 49.1356 7.23319 49.1947 7.01649C49.2597 6.80577 49.4812 6.67563 49.6979 6.7407C49.914 6.8004 50.0388 7.02187 49.9791 7.23796C49.9247 7.41645 49.7624 7.53524 49.5899 7.53524C49.5522 7.53524 49.514 7.52987 49.4764 7.51913ZM32.0668 6.7025C32.0184 6.48043 32.1533 6.26433 32.3754 6.22076C32.5915 6.17181 32.8076 6.30672 32.856 6.52878C32.9049 6.74488 32.764 6.96157 32.5479 7.00993C32.5211 7.0153 32.4882 7.02067 32.4614 7.02067C32.2721 7.02067 32.1038 6.89113 32.0662 6.7019L32.0668 6.7025ZM45.3007 6.61056C45.0792 6.57833 44.9276 6.37238 44.9605 6.15091C44.9927 5.92944 45.2034 5.77782 45.4255 5.81005H45.4207C45.6422 5.84288 45.7986 6.05361 45.761 6.27508C45.7341 6.47506 45.561 6.61594 45.3604 6.61594C45.3443 6.61594 45.3228 6.61594 45.3007 6.61056ZM36.3291 5.99391C36.307 5.76647 36.4747 5.57187 36.6962 5.55038C36.9183 5.52829 37.1182 5.69663 37.1397 5.9181C37.1558 6.14017 36.9941 6.34015 36.7714 6.35626C36.7607 6.36164 36.7451 6.36164 36.7338 6.36164C36.5284 6.36164 36.3493 6.19926 36.3285 5.99391H36.3291ZM41.045 6.22672C40.8235 6.22135 40.6445 6.03212 40.6498 5.81005C40.6552 5.58321 40.8444 5.41009 41.0665 5.41547C41.2933 5.42084 41.4665 5.61007 41.4617 5.83214C41.4563 6.05421 41.2772 6.22672 41.0558 6.22672H41.045Z" fill="url(#paint2_radial_1832_4074)"/>
<path d="M7.21875 40.9372C7.21875 22.8334 21.8949 8.15497 40.0006 8.15497C58.1064 8.15497 72.7819 22.8334 72.7819 40.9372C72.7819 59.041 58.104 73.7183 40.0006 73.7183C21.8973 73.7183 7.21875 59.0422 7.21875 40.9372Z" fill="url(#paint3_linear_1832_4074)"/>
<path d="M8.66016 40.9374C8.66016 23.6288 22.6916 9.59503 40.0022 9.59503C57.3128 9.59503 71.3436 23.6288 71.3436 40.9374C71.3436 58.2461 57.3104 72.2786 40.0022 72.2786C22.694 72.2786 8.66016 58.2473 8.66016 40.9374Z" fill="url(#paint4_radial_1832_4074)"/>
<path d="M69.3635 40.9364C69.3635 57.1527 56.2174 70.3005 39.9998 70.3005C23.7823 70.3005 10.6367 57.1527 10.6367 40.9364C10.6367 24.7202 23.7835 11.5729 39.9998 11.5729C56.2162 11.5729 69.3635 24.719 69.3635 40.9364Z" fill="url(#paint5_radial_1832_4074)"/>
<path d="M29.0227 32.2772L31.5091 32.2454L31.5315 33.997L29.0451 34.0287L29.1096 39.0869L27.1872 39.1114L27.0308 26.859L32.1232 26.794L32.1455 28.5456L28.9756 28.5861L29.0227 32.2772ZM37.2266 38.9833C37.1615 38.7905 37.1167 38.6258 37.0921 38.4894C37.0608 38.2676 37.0423 37.9317 37.0366 37.4817L37.012 35.5593C36.9987 34.5169 36.5706 34.0011 35.7275 34.0118L35.0611 34.0203L35.1248 39.0102L33.2023 39.0347L33.046 26.7823L35.951 26.7452C37.8535 26.7209 38.8168 27.6487 38.8408 29.5284L38.8531 30.4939C38.8691 31.7527 38.4582 32.5869 37.6203 32.9964C38.4792 33.3387 38.9175 34.2019 38.9351 35.586L38.9592 37.4743C38.9677 38.1351 39.0423 38.6297 39.1833 38.9584L37.2266 38.9833ZM34.9908 28.5093L35.0388 32.2773L35.7907 32.2677C36.5654 32.2578 36.9472 31.82 36.9362 30.9542L36.9208 29.7494C36.9101 28.9064 36.5772 28.4891 35.9221 28.4974L34.9908 28.5093ZM42.0748 31.8372L44.7235 31.8034L44.7458 33.5464L42.0971 33.5802L42.1428 37.1688L45.4666 37.1264L45.4889 38.8779L40.2427 38.9449L40.0864 26.6924L45.3326 26.6255L45.3549 28.3771L42.0312 28.4195L42.0748 31.8372ZM48.5172 31.755L51.1659 31.7212L51.1881 33.4642L48.5394 33.498L48.5852 37.0866L51.9089 37.0442L51.9312 38.7957L46.6851 38.8627L46.5288 26.6102L51.7749 26.5433L51.7973 28.2949L48.4736 28.3373L48.5172 31.755ZM21.7879 45.9275L21.9084 55.3774C21.9186 56.1748 22.2569 56.5693 22.9234 56.5608C23.5898 56.5523 23.9179 56.1493 23.9078 55.3519L23.7872 45.902L25.6071 45.8787L25.7262 55.209C25.7523 57.2596 24.8085 58.2972 22.8946 58.3216C20.9806 58.346 20.0106 57.3329 19.9844 55.2823L19.8654 45.952L21.7879 45.9275ZM29.7596 45.8258C31.6735 45.8013 32.6434 46.8002 32.6692 48.8223L32.6895 50.4115C32.7152 52.428 31.7711 53.4484 29.8572 53.4728L28.943 53.4845L29.0017 58.0898L27.0793 58.1144L26.9229 45.8619L29.7596 45.8258ZM28.8677 47.589L28.9207 51.7415L29.8349 51.7298C30.4615 51.7218 30.7699 51.3305 30.76 50.5558L30.7365 48.7188C30.7267 47.9498 30.4085 47.5693 29.782 47.5773L28.8677 47.589ZM33.5191 45.7778L36.5608 45.739C38.4747 45.7146 39.4446 46.7134 39.4704 48.7355L39.5494 54.9301C39.5751 56.9465 38.6311 57.967 36.7172 57.9914L33.6754 58.0302L33.5191 45.7778ZM35.4639 47.5048L35.5755 56.2541L36.6606 56.2403C37.3157 56.2319 37.6382 55.8318 37.6281 55.0401L37.5467 48.6661C37.5366 47.8743 37.204 47.4826 36.549 47.491L35.4639 47.5048ZM47.0471 57.8596L45.1076 57.8843L44.746 55.6671L42.3878 55.6972L42.0829 57.9229L40.3143 57.9455L42.1146 45.6681L44.9342 45.6321L47.0471 57.8596ZM42.6058 54.028L44.4684 54.0042L43.4581 47.8216L42.6058 54.028ZM47.2667 45.6024L53.2135 45.5265L53.2359 47.2781L51.228 47.3037L51.362 57.8045L49.4395 57.8291L49.3055 47.3282L47.2891 47.3539L47.2667 45.6024ZM56.082 50.66L58.7307 50.6262L58.7529 52.3692L56.1042 52.403L56.15 55.9916L59.4737 55.9492L59.4961 57.7008L54.2499 57.7677L54.0936 45.5153L59.3397 45.4483L59.3621 47.1999L56.0384 47.2423L56.082 50.66Z" fill="url(#paint6_linear_1832_4074)"/>
<path d="M39.5417 60.0664L40.4371 62.4763L43.0058 62.5832L40.9911 64.1794L41.683 66.6556L39.5417 65.2324L37.401 66.6556L38.0929 64.1794L36.0781 62.5832L38.6462 62.4763L39.5417 60.0664Z" fill="url(#paint7_linear_1832_4074)"/>
<path d="M46.7066 60.9102L47.3734 62.7034L49.2842 62.7834L47.7853 63.9713L48.2998 65.8135L46.7066 64.7545L45.1133 65.8135L45.6285 63.9713L44.1289 62.7834L46.0404 62.7034L46.7066 60.9102Z" fill="url(#paint8_linear_1832_4074)"/>
<path d="M32.5294 60.9102L33.1956 62.7034L35.1071 62.7834L33.6075 63.9714L34.1221 65.8136L32.5294 64.7546L30.9362 65.8136L31.4507 63.9714L29.9512 62.7834L31.8626 62.7034L32.5294 60.9102Z" fill="url(#paint9_linear_1832_4074)"/>
<path d="M39.5417 14.4609L40.4371 16.8708L43.0058 16.9777L40.9911 18.5739L41.683 21.0501L39.5417 19.627L37.401 21.0501L38.0929 18.5739L36.0781 16.9777L38.6462 16.8708L39.5417 14.4609Z" fill="url(#paint10_linear_1832_4074)"/>
<path d="M46.7066 15.3047L47.3734 17.0979L49.2842 17.1773L47.7853 18.3659L48.2998 20.2081L46.7066 19.1491L45.1133 20.2081L45.6285 18.3659L44.1289 17.1773L46.0404 17.0979L46.7066 15.3047Z" fill="url(#paint11_linear_1832_4074)"/>
<path d="M32.5294 15.3047L33.1956 17.098L35.1071 17.1774L33.6075 18.3659L34.1221 20.2081L32.5294 19.1491L30.9362 20.2081L31.4507 18.3659L29.9512 17.1774L31.8626 17.098L32.5294 15.3047Z" fill="url(#paint12_linear_1832_4074)"/>
</g>
<defs>
<radialGradient id="paint0_radial_1832_4074" cx="0" cy="0" r="1" gradientUnits="userSpaceOnUse" gradientTransform="translate(39.9997 40.9375) scale(40.0003 40)">
<stop stop-color="#2C3C4F"/>
<stop offset="0.52" stop-color="#0D1D30"/>
<stop offset="1" stop-color="#060D29"/>
</radialGradient>
<linearGradient id="paint1_linear_1832_4074" x1="65.5536" y1="68.8061" x2="15.5457" y2="14.2627" gradientUnits="userSpaceOnUse">
<stop stop-color="#FFEF00"/>
<stop offset="0.1" stop-color="#FFE600"/>
<stop offset="0.26" stop-color="#FFCD00"/>
<stop offset="0.46" stop-color="#FFA600"/>
<stop offset="0.53" stop-color="#FF9600"/>
<stop offset="1" stop-color="#FFEF00"/>
</linearGradient>
<radialGradient id="paint2_radial_1832_4074" cx="0" cy="0" r="1" gradientUnits="userSpaceOnUse" gradientTransform="translate(9.42301 18.5126) scale(73.5893 73.5887)">
<stop stop-color="#2C3C4F"/>
<stop offset="0.52" stop-color="#0D1D30"/>
<stop offset="1" stop-color="#060D29"/>
</radialGradient>
<linearGradient id="paint3_linear_1832_4074" x1="63.6491" y1="64.5861" x2="15.053" y2="15.9902" gradientUnits="userSpaceOnUse">
<stop stop-color="#FFEF00"/>
<stop offset="0.1" stop-color="#FFE600"/>
<stop offset="0.26" stop-color="#FFCD00"/>
<stop offset="0.46" stop-color="#FFA600"/>
<stop offset="0.53" stop-color="#FF9600"/>
<stop offset="1" stop-color="#FFEF00"/>
</linearGradient>
<radialGradient id="paint4_radial_1832_4074" cx="0" cy="0" r="1" gradientUnits="userSpaceOnUse" gradientTransform="translate(21.2715 25.6077) scale(52.7209 52.7205)">
<stop stop-color="#2C3C4F"/>
<stop offset="0.52" stop-color="#0D1D30"/>
<stop offset="1" stop-color="#060D29"/>
</radialGradient>
<radialGradient id="paint5_radial_1832_4074" cx="0" cy="0" r="1" gradientUnits="userSpaceOnUse" gradientTransform="translate(63.3689 67.3665) scale(53.2324 53.232)">
<stop stop-color="#2C3C4F"/>
<stop offset="0.52" stop-color="#0D1D30"/>
<stop offset="1" stop-color="#060D29"/>
</radialGradient>
<linearGradient id="paint6_linear_1832_4074" x1="53.1949" y1="54.4581" x2="28.5203" y2="26.1605" gradientUnits="userSpaceOnUse">
<stop stop-color="#FFEF00"/>
<stop offset="0.1" stop-color="#FFE600"/>
<stop offset="0.26" stop-color="#FFCD00"/>
<stop offset="0.46" stop-color="#FFA600"/>
<stop offset="0.53" stop-color="#FF9600"/>
<stop offset="1" stop-color="#FFEF00"/>
</linearGradient>
<linearGradient id="paint7_linear_1832_4074" x1="41.8282" y1="65.7326" x2="37.5964" y2="60.8798" gradientUnits="userSpaceOnUse">
<stop stop-color="#FFEF00"/>
<stop offset="0.1" stop-color="#FFE600"/>
<stop offset="0.26" stop-color="#FFCD00"/>
<stop offset="0.46" stop-color="#FFA600"/>
<stop offset="0.53" stop-color="#FF9600"/>
<stop offset="1" stop-color="#FFEF00"/>
</linearGradient>
<linearGradient id="paint8_linear_1832_4074" x1="48.4079" y1="65.1267" x2="45.2587" y2="61.5154" gradientUnits="userSpaceOnUse">
<stop stop-color="#FFEF00"/>
<stop offset="0.1" stop-color="#FFE600"/>
<stop offset="0.26" stop-color="#FFCD00"/>
<stop offset="0.46" stop-color="#FFA600"/>
<stop offset="0.53" stop-color="#FF9600"/>
<stop offset="1" stop-color="#FFEF00"/>
</linearGradient>
<linearGradient id="paint9_linear_1832_4074" x1="34.2307" y1="65.1267" x2="31.0816" y2="61.5151" gradientUnits="userSpaceOnUse">
<stop stop-color="#FFEF00"/>
<stop offset="0.1" stop-color="#FFE600"/>
<stop offset="0.26" stop-color="#FFCD00"/>
<stop offset="0.46" stop-color="#FFA600"/>
<stop offset="0.53" stop-color="#FF9600"/>
<stop offset="1" stop-color="#FFEF00"/>
</linearGradient>
<linearGradient id="paint10_linear_1832_4074" x1="41.8282" y1="20.1271" x2="37.5964" y2="15.2743" gradientUnits="userSpaceOnUse">
<stop stop-color="#FFEF00"/>
<stop offset="0.1" stop-color="#FFE600"/>
<stop offset="0.26" stop-color="#FFCD00"/>
<stop offset="0.46" stop-color="#FFA600"/>
<stop offset="0.53" stop-color="#FF9600"/>
<stop offset="1" stop-color="#FFEF00"/>
</linearGradient>
<linearGradient id="paint11_linear_1832_4074" x1="48.4079" y1="19.5212" x2="45.2588" y2="15.9099" gradientUnits="userSpaceOnUse">
<stop stop-color="#FFEF00"/>
<stop offset="0.1" stop-color="#FFE600"/>
<stop offset="0.26" stop-color="#FFCD00"/>
<stop offset="0.46" stop-color="#FFA600"/>
<stop offset="0.53" stop-color="#FF9600"/>
<stop offset="1" stop-color="#FFEF00"/>
</linearGradient>
<linearGradient id="paint12_linear_1832_4074" x1="34.2307" y1="19.5213" x2="31.0816" y2="15.9096" gradientUnits="userSpaceOnUse">
<stop stop-color="#FFEF00"/>
<stop offset="0.1" stop-color="#FFE600"/>
<stop offset="0.26" stop-color="#FFCD00"/>
<stop offset="0.46" stop-color="#FFA600"/>
<stop offset="0.53" stop-color="#FF9600"/>
<stop offset="1" stop-color="#FFEF00"/>
</linearGradient>
<clipPath id="clip0_1832_4074">
<rect width="80" height="80" fill="white" transform="translate(0 0.9375)"/>
</clipPath>
</defs>
</svg>
