<svg width="80" height="81" viewBox="0 0 80 81" fill="none" xmlns="http://www.w3.org/2000/svg">
<path d="M41.594 80.5411C63.3246 79.7859 80.3385 61.2589 79.5955 39.1599C78.8525 17.061 60.634 -0.24151 38.9034 0.513713C17.1728 1.26894 0.158953 19.7959 0.901943 41.8948C1.64493 63.9938 19.8634 81.2963 41.594 80.5411Z" fill="url(#paint0_linear_1832_4039)"/>
<path d="M78.5945 46.8383C82.021 25.3045 67.633 5.02282 46.458 1.53792C25.283 -1.94698 5.33964 12.6845 1.91316 34.2183C-1.51331 55.7521 12.8747 76.0338 34.0496 79.5187C55.2246 83.0036 75.168 68.3721 78.5945 46.8383Z" fill="url(#paint1_linear_1832_4039)"/>
<path d="M51.7283 75.0987C49.891 76.6142 46.5058 77.3768 44.2098 76.7943C41.9137 76.2043 38.1503 76.184 35.8403 76.7392C33.5375 77.2945 30.1588 76.4908 28.3418 74.9475C26.5248 73.4042 23.1384 71.7213 20.8279 71.2053C18.5173 70.6892 15.8209 68.474 14.839 66.2802C13.8571 64.0864 11.5308 61.0805 9.66298 59.5963C7.80239 58.1122 6.31149 54.9286 6.36845 52.52C6.41814 50.1114 5.60263 46.3733 4.55541 44.2164C3.50818 42.0596 3.52827 38.528 4.60247 36.3848C5.67667 34.2417 6.53941 30.5102 6.51645 28.1017C6.49349 25.6931 8.01763 22.5302 9.89859 21.0664C11.7796 19.6026 14.1465 16.6314 15.1553 14.4513C16.1641 12.2713 18.8875 10.0904 21.2049 9.60909C23.5222 9.12034 26.9288 7.48588 28.7661 5.96301C30.6034 4.44752 33.9886 3.68489 36.2847 4.26745C38.5807 4.85001 42.3441 4.87774 44.6541 4.3225C46.9569 3.76726 50.3356 4.57095 52.1526 6.11422C53.9697 7.65748 57.356 9.34037 59.6666 9.85643C61.9844 10.3725 64.6736 12.5877 65.6554 14.7815C66.6373 16.9753 68.9636 19.9812 70.8315 21.4654C72.6993 22.9495 74.1829 26.1331 74.1333 28.5417C74.0836 30.9503 74.8991 34.6884 75.9463 36.8453C76.9935 39.0095 76.9734 42.5338 75.8992 44.6769C74.825 46.8274 73.9623 50.5515 73.9853 52.96C74.0082 55.3686 72.4841 58.5389 70.6031 59.9953C68.7222 61.4591 66.3552 64.4377 65.3464 66.6104C64.3376 68.7904 61.6142 70.9713 59.2968 71.4526C56.9795 71.9414 53.573 73.5758 51.7356 75.0987L51.7283 75.0987Z" fill="url(#paint2_linear_1832_4039)"/>
<path d="M51.6047 74.7146C49.7891 76.2153 46.4403 76.9705 44.166 76.3879C41.8917 75.8054 38.172 75.785 35.891 76.3328C33.61 76.8807 30.2749 76.0844 28.4797 74.5632C26.6772 73.0421 23.3344 71.374 21.0529 70.8653C18.7642 70.3566 16.0968 68.1636 15.1295 65.9993C14.1622 63.835 11.8577 60.8587 10.0116 59.3893C8.16558 57.9199 6.6965 54.7732 6.75347 52.3868C6.80317 50.0077 5.99495 46.3066 4.96226 44.1719C3.92958 42.0372 3.94969 38.5499 5.00937 36.429C6.06905 34.308 6.92455 30.6209 6.9016 28.2419C6.87865 25.8628 8.38828 22.7295 10.2475 21.2805C12.1066 19.8389 14.4518 16.8898 15.4461 14.7393C16.4404 12.5889 19.1347 10.4302 21.4303 9.94884C23.7258 9.46749 27.0888 7.84783 28.9043 6.34713C30.7199 4.84643 34.0688 4.09121 36.343 4.67378C38.6173 5.25635 42.3371 5.27671 44.618 4.72888C46.899 4.18104 50.2341 4.97736 52.0293 6.49847C53.8318 8.02697 57.1746 9.68771 59.4634 10.1964C61.7521 10.7051 64.4195 12.8981 65.3868 15.0624C66.3541 17.2341 68.6586 20.203 70.5047 21.6724C72.3507 23.1418 73.8198 26.2885 73.7628 28.6749C73.7131 31.054 74.5213 34.7551 75.554 36.8898C76.5867 39.0245 76.5666 42.5118 75.5069 44.6327C74.4472 46.7537 73.5917 50.4408 73.6147 52.8199C73.6376 55.1989 72.128 58.3322 70.2688 59.7738C68.4097 61.2155 66.0645 64.1645 65.0702 66.315C64.0759 68.4728 61.3816 70.6241 59.086 71.1055C56.7905 71.5868 53.4275 73.2065 51.612 74.7072L51.6047 74.7146Z" fill="url(#paint3_radial_1832_4039)"/>
<path style="mix-blend-mode:screen" d="M8.50458 51.7654C8.45482 54.0188 9.85117 57.003 11.5955 58.3985C13.1145 59.6021 14.9537 61.8916 16.0153 63.812C20.2834 56.0301 25.598 48.8239 31.8647 42.4522C41.6751 32.4659 53.4918 24.8429 66.3342 19.9752C65.3891 18.7861 64.5457 17.4862 64.0584 16.393C63.1348 14.3395 60.6128 12.2646 58.4403 11.778C56.275 11.2915 53.1067 9.71929 51.3986 8.27201C49.6906 6.82474 46.5299 6.07267 44.3724 6.59089C42.215 7.11651 38.6841 7.08866 36.5333 6.54297C34.3826 5.99728 31.2081 6.7081 29.4869 8.12748C27.7658 9.54686 24.5771 11.0852 22.4051 11.5443C20.233 11.996 17.6767 14.0438 16.7332 16.0834C15.7897 18.1231 13.5752 20.9169 11.8032 22.2846C10.0384 23.6523 8.60864 26.623 8.63153 28.8765C8.65442 31.1299 7.84242 34.6249 6.8408 36.635C5.83919 38.6451 5.81173 41.9477 6.7935 43.9716C7.77527 45.9955 8.53981 49.4972 8.49005 51.758L8.50458 51.7654Z" fill="#8ED3F9" fill-opacity="0.1"/>
<path style="mix-blend-mode:screen" d="M28.4785 74.5631C28.4785 74.5631 28.5439 74.6148 28.5729 74.637L40.246 40.527L27.7735 74.0241C28.0206 74.2087 28.2604 74.3859 28.4712 74.5631L28.4785 74.5631ZM4.56822 43.1524L40.2533 40.5344L4.34979 42.1846C4.40808 42.5245 4.48089 42.8495 4.57549 43.1598L4.56822 43.1524ZM40.7427 75.9536L40.2533 40.527L39.7982 75.9392C40.1106 75.9391 40.423 75.9389 40.7427 75.9536ZM32.4315 76.3196L40.246 40.527L31.4797 76.091C31.7921 76.1795 32.1118 76.2607 32.4243 76.3196L32.4315 76.3196ZM17.4691 68.9534L40.2533 40.5344L16.7495 68.2888C16.9748 68.5177 17.2219 68.7466 17.4691 68.9534ZM35.8897 76.3401C36.1295 76.2809 36.3837 76.2364 36.6452 76.192L40.2533 40.5344L35.6646 76.3919C35.7445 76.3771 35.8244 76.3623 35.897 76.3475L35.8897 76.3401ZM21.0444 70.8652C21.0953 70.8726 21.1462 70.8947 21.197 70.9021L40.246 40.527L20.2306 70.6218C20.5067 70.7251 20.7756 70.8062 21.0444 70.8652ZM6.70809 51.2563L40.246 40.527L6.6059 50.2737C6.64966 50.6061 6.67888 50.9386 6.70082 51.2489L6.70809 51.2563ZM7.36402 55.5116L40.2533 40.5344L7.05116 54.5735C7.13849 54.8837 7.24036 55.2014 7.36402 55.5116ZM6.00866 47.1783L40.246 40.527L5.7394 46.2475C5.834 46.5504 5.92133 46.8607 6.00139 47.1709L6.00866 47.1783ZM12.6054 62.0699L40.2533 40.527L11.9947 61.3387C12.1983 61.575 12.4091 61.8187 12.6054 62.0699ZM14.8955 65.5339L40.2533 40.5344L14.4229 64.6696C14.5974 64.9651 14.7574 65.2532 14.9028 65.5412L14.8955 65.5339ZM9.647 59.079L40.2533 40.527L8.97098 58.3405C9.18906 58.6064 9.4144 58.8575 9.647 59.079ZM25.0628 72.3926L40.2533 40.527L24.2126 71.9867C24.496 72.1195 24.7794 72.2524 25.0628 72.3926ZM73.4036 54.5118L40.2533 40.5344L73.128 55.465C73.2368 55.1472 73.3311 54.8295 73.4036 54.5118ZM71.6182 58.3545L40.2533 40.5344L70.9865 59.1158C71.2044 58.8793 71.4222 58.628 71.6255 58.3545L71.6182 58.3545ZM73.8374 50.2263L40.2533 40.527L73.7071 51.1943C73.7433 50.8766 73.7867 50.5588 73.8374 50.2263ZM74.8381 46.2288L40.2533 40.527L74.5406 47.1525C74.6349 46.8347 74.7365 46.5244 74.8381 46.2288ZM49.0468 76.0604L40.2533 40.5344L48.1024 76.3268C48.4221 76.2528 48.7344 76.1639 49.0395 76.0677L49.0468 76.0604ZM68.5756 61.3482L40.2533 40.527L67.9366 62.0578C68.1472 61.8139 68.3577 61.5774 68.5756 61.3482ZM76.2165 42.1424L40.2533 40.527L76.0353 43.1178C76.1078 42.8 76.173 42.4749 76.2165 42.1424ZM56.339 72.0007L40.2533 40.527L55.4746 72.3779C55.7652 72.2448 56.0557 72.119 56.339 71.9933L56.339 72.0007ZM66.0416 64.5781L40.246 40.527L65.5335 65.4133C65.6859 65.1398 65.8601 64.859 66.0416 64.5781ZM52.7146 73.9012L40.2533 40.527L51.9085 74.4705C52.1554 74.2783 52.4314 74.0861 52.7146 73.9012ZM63.7549 68.2291L40.2533 40.5344L63.0577 68.9239C63.3047 68.7021 63.537 68.473 63.7549 68.2291ZM60.356 70.691L40.2533 40.527L59.4189 71.0239C59.7313 70.9351 60.0436 70.8241 60.356 70.691ZM44.1648 76.3878C44.3973 76.4468 44.6443 76.491 44.8986 76.5204L40.2533 40.527L43.9104 76.3288C43.9976 76.351 44.0848 76.3657 44.172 76.3878L44.1648 76.3878ZM59.4548 10.1889C59.404 10.1815 59.3531 10.1594 59.295 10.152L40.246 40.527L60.2614 10.4323C59.9853 10.329 59.7164 10.2479 59.4476 10.1889L59.4548 10.1889ZM65.6037 15.5276L40.2533 40.5344L66.0837 16.3992C65.9091 16.1038 65.7492 15.8083 65.6037 15.5276ZM63.0302 12.1081L40.246 40.527L63.7498 12.7727C63.5245 12.5438 63.2773 12.3149 63.0302 12.1081ZM55.4438 8.66147L40.2533 40.527L56.294 9.06741C56.0106 8.93456 55.7272 8.80171 55.4438 8.66147ZM52.0208 6.49097C52.0208 6.49097 51.9554 6.43929 51.9263 6.41714L40.2533 40.527L52.7258 7.02998C52.4714 6.84539 52.2389 6.66819 52.0281 6.48358L52.0208 6.49097ZM48.0677 4.73448L40.2533 40.527L49.0196 4.96305C48.7071 4.87455 48.3874 4.79343 48.075 4.73448L48.0677 4.73448ZM70.8523 21.9824L40.246 40.5344L71.5283 22.7209C71.3102 22.4551 71.0849 22.204 70.8523 21.9824ZM67.8939 18.9842L40.2533 40.527L68.5118 19.7154C68.3083 19.479 68.0975 19.2353 67.9012 18.9842L67.8939 18.9842ZM75.9311 37.9091L40.246 40.5344L76.1495 38.8842C76.0912 38.5444 76.0184 38.2193 75.9238 37.9091L75.9311 37.9091ZM73.7912 29.7978L40.246 40.527L73.8861 30.773C73.8423 30.4406 73.8131 30.1081 73.7912 29.7978ZM74.4906 33.8832L40.2533 40.5344L74.7599 34.814C74.6653 34.5111 74.578 34.2008 74.4979 33.8906L74.4906 33.8832ZM73.1425 25.5499L40.2533 40.527L73.4554 26.488C73.3681 26.1704 73.2662 25.8601 73.1425 25.5499ZM44.6095 4.72138C44.3771 4.7806 44.1228 4.82505 43.854 4.86951L40.246 40.527L44.8347 4.66955C44.7548 4.68437 44.6749 4.69918 44.6023 4.71399L44.6095 4.72138ZM8.88833 22.707L40.2533 40.527L9.52002 21.9383C9.30219 22.1748 9.08435 22.4261 8.88106 22.6996L8.88833 22.707ZM4.29009 38.9117L40.2533 40.527L4.47124 37.9289C4.39148 38.2467 4.33351 38.5718 4.29008 38.9043L4.29009 38.9117ZM11.931 19.7058L40.2533 40.527L12.57 18.9963C12.3594 19.2402 12.1415 19.4767 11.931 19.7058ZM7.10297 26.5497L40.2533 40.527L7.37858 25.5891C7.26975 25.9069 7.17546 26.2246 7.10296 26.5423L7.10297 26.5497ZM5.66848 34.8253L40.2533 40.527L5.96591 33.9016C5.87161 34.2193 5.77005 34.5297 5.66848 34.8253ZM14.4577 16.4833L40.246 40.5344L14.9658 15.6482C14.8134 15.9217 14.6392 16.2025 14.4577 16.4833ZM6.66913 30.8277L40.2533 40.527L6.79944 29.8598C6.76326 30.1701 6.71983 30.4952 6.66913 30.8204L6.66913 30.8277ZM20.1506 10.3631L40.2533 40.527L21.0876 10.0302C20.7752 10.119 20.4629 10.23 20.1506 10.3631ZM31.4598 5.00112L40.2533 40.527L32.4041 4.73468C32.0845 4.80872 31.7721 4.89753 31.467 4.99373L31.4598 5.00112ZM16.7517 12.8324L40.2533 40.527L17.4488 12.1376C17.2019 12.3594 16.9695 12.5885 16.7517 12.8324ZM36.3345 4.66628C36.102 4.60729 35.855 4.56308 35.6079 4.53365L40.2533 40.527L36.5961 4.72526C36.5089 4.70314 36.4217 4.6884 36.3345 4.66628ZM27.7847 7.15288L40.246 40.527L28.5908 6.5836C28.3439 6.77581 28.0679 6.96804 27.7847 7.15288ZM39.7639 5.10053L40.2533 40.527L40.7083 5.11485C40.3959 5.115 40.0763 5.11515 39.7639 5.10053ZM24.1603 9.05343L40.246 40.527L25.0247 8.66882C24.7341 8.80195 24.4436 8.92769 24.1603 9.05343Z" fill="url(#paint4_radial_1832_4039)"/>
<path d="M68.7098 29.7231L67.5823 28.3205L65.8162 28.6667L66.7928 27.1356L65.9433 25.5434L67.6736 25.9942L68.915 24.6699L69.0112 26.4826L70.6275 27.2457L68.9494 27.9229L68.7098 29.7231Z" fill="url(#paint5_linear_1832_4039)"/>
<path d="M14.705 28.4025L12.9066 28.3344L12.0104 29.895L11.4944 28.1538L9.73514 27.7516L11.2162 26.737L11.0236 24.9348L12.4555 26.0505L14.0913 25.3302L13.5027 27.0414L14.705 28.4025Z" fill="url(#paint6_linear_1832_4039)"/>
<path d="M35.5762 10.0042L33.7932 10.2485L33.1807 11.9408L32.371 10.3152L30.5687 10.2237L31.8517 8.96793L31.35 7.22639L32.9534 8.07727L34.4398 7.08464L34.1564 8.87189L35.5762 10.0042Z" fill="url(#paint7_linear_1832_4039)"/>
<path d="M23.3126 15.8813L21.5295 16.1257L20.917 17.8179L20.1074 16.1923L18.305 16.1008L19.588 14.8451L19.0863 13.1035L20.6897 13.9544L22.1761 12.9618L21.8927 14.749L23.3126 15.8813Z" fill="url(#paint8_linear_1832_4039)"/>
<path d="M11.3114 41.1611L9.51435 41.0633L8.59238 42.6088L8.10528 40.8593L6.35292 40.428L7.85058 39.4381L7.68784 37.633L9.10106 38.7722L10.7486 38.0791L10.1317 39.7803L11.3114 41.1611Z" fill="url(#paint9_linear_1832_4039)"/>
<path d="M23.6571 66.8517L21.8601 66.7539L20.9381 68.2995L20.451 66.55L18.6986 66.1187L20.1963 65.1287L20.0335 63.3237L21.4468 64.4629L23.0943 63.7698L22.4774 65.471L23.6571 66.8517Z" fill="url(#paint10_linear_1832_4039)"/>
<path d="M62.3576 14.357L60.8178 15.2886L60.9268 17.085L59.5387 15.914L57.848 16.5449L58.5276 14.8833L57.3762 13.4836L59.1856 13.6286L60.1562 12.1278L60.605 13.8809L62.3576 14.357Z" fill="url(#paint11_linear_1832_4039)"/>
<path d="M49.7001 7.74228L48.6094 9.17385L49.3699 10.805L47.649 10.2249L46.3076 11.4321L46.3302 9.63695L44.7456 8.75734L46.482 8.22841L46.8344 6.47613L47.8951 7.9423L49.7001 7.74228Z" fill="url(#paint12_linear_1832_4039)"/>
<path d="M13.7592 55.1068L12.0362 54.587L10.775 55.8709L10.7153 54.0558L9.11451 53.2225L10.8037 52.6146L11.0723 50.8222L12.1762 52.2632L13.9408 51.9792L12.9393 53.4864L13.7592 55.1068Z" fill="url(#paint13_linear_1832_4039)"/>
<path d="M34.4642 73.087L32.9235 72.1569L31.3838 73.0885L31.7752 71.3152L30.4306 70.1115L32.2177 69.9407L32.9216 68.2706L33.6344 69.94L35.4145 70.1017L34.071 71.3141L34.4642 73.087Z" fill="url(#paint14_linear_1832_4039)"/>
<path d="M49.237 71.7164L47.5161 71.1899L46.2499 72.4688L46.1972 70.6535L44.5997 69.814L46.2913 69.2127L46.5668 67.4214L47.6651 68.8666L49.4309 68.5895L48.4235 70.0927L49.237 71.7164Z" fill="url(#paint15_linear_1832_4039)"/>
<path d="M68.3562 56.6439L67.2171 55.2506L65.454 55.6115L66.4179 54.0724L65.5553 52.4872L67.2961 52.9262L68.5197 51.5892L68.6308 53.401L70.2533 54.1507L68.5809 54.8418L68.3562 56.6439Z" fill="url(#paint16_linear_1832_4039)"/>
<path d="M71.8502 42.0527L70.231 41.2672L68.7829 42.3357L69.0106 40.534L67.5616 39.4582L69.3256 39.1248L69.874 37.3974L70.7364 38.9947L72.5237 38.993L71.2967 40.323L71.8502 42.0527Z" fill="url(#paint17_linear_1832_4039)"/>
<path d="M62.5672 66.897L60.7683 66.949L59.978 68.5658L59.3471 66.8629L57.565 66.5787L58.9752 65.4677L58.6629 63.6824L60.166 64.7002L61.7502 63.8725L61.2768 65.6191L62.5672 66.897Z" fill="url(#paint18_linear_1832_4039)"/>
<path d="M20.7431 29.8789C20.7169 27.8283 21.6494 26.7909 23.5405 26.7668C25.4317 26.7427 26.3903 27.7559 26.4165 29.8065L26.4248 30.4559L24.6048 30.4791L24.595 29.7101C24.5848 28.907 24.2578 28.5095 23.6142 28.5177C22.9705 28.5259 22.6538 28.9316 22.664 29.7348C22.6711 30.2873 22.8744 30.8145 23.2739 31.3165C23.4301 31.5082 23.6351 31.7221 23.8888 31.9581L24.4075 32.43C24.4767 32.4918 24.5372 32.5452 24.589 32.5901C24.8772 32.8485 25.108 33.0734 25.2813 33.2649C25.5297 33.5295 25.7353 33.7918 25.8981 34.0518C26.2993 34.6847 26.5049 35.3942 26.5149 36.1803C26.5411 38.2309 25.5972 39.2684 23.6833 39.2929C21.7694 39.3173 20.7993 38.3042 20.7732 36.2536L20.758 35.0659L22.5779 35.0427L22.5946 36.35C22.6048 37.1474 22.9431 37.5419 23.6096 37.5334C24.2703 37.525 24.5956 37.122 24.5854 36.3246C24.5784 35.772 24.378 35.2476 23.9842 34.7513C23.828 34.5596 23.623 34.3429 23.3692 34.1011L22.669 33.4692C22.3808 33.2108 22.1472 32.9859 21.9682 32.7944C21.7255 32.5298 21.5228 32.2703 21.36 32.016C20.9588 31.3774 20.7531 30.665 20.7431 29.8789ZM29.3873 36.2633C29.3976 37.0722 29.736 37.4723 30.4024 37.4638C31.0632 37.4554 31.3884 37.0468 31.3781 36.2379L31.2937 29.6247C31.2835 28.8215 30.948 28.4242 30.2872 28.4326C29.6208 28.4411 29.2927 28.8469 29.3029 29.6501L29.3873 36.2633ZM29.6452 26.3386C29.6329 26.2646 29.6263 26.1935 29.6254 26.1252C29.6221 25.8688 29.6648 25.6433 29.7535 25.4484C29.7866 25.3625 29.8253 25.2738 29.8697 25.182L30.1632 24.7425C30.1964 24.668 30.2325 24.5906 30.2713 24.5103C30.3374 24.3329 30.3691 24.1331 30.3662 23.9109C30.3641 23.7401 30.3089 23.6553 30.2006 23.6567C30.0981 23.658 30.0479 23.7441 30.0501 23.915L30.0588 24.5985L28.9908 24.6121L28.9826 23.9713C28.9713 23.0827 29.3814 22.6331 30.2131 22.6225C31.039 22.612 31.4577 23.051 31.469 23.9396C31.4727 24.2301 31.4305 24.4984 31.3425 24.7445C31.2924 24.8363 31.2396 24.9367 31.184 25.0456C31.1507 25.1144 31.1005 25.1948 31.0333 25.2868C31.022 25.2984 31.0108 25.3156 30.9997 25.3385L30.8736 25.5025C30.8289 25.5714 30.7899 25.6346 30.7564 25.692C30.6899 25.8353 30.6576 25.9838 30.6596 26.1376C30.6601 26.1775 30.6666 26.2401 30.679 26.3254L29.6452 26.3386ZM33.2028 29.2243C33.2162 29.3837 33.224 29.5488 33.2262 29.7197L33.3076 36.0936C33.3337 38.1443 32.3728 39.182 30.4247 39.2069C28.4709 39.2318 27.4809 38.2189 27.4548 36.1683L27.3734 29.7943C27.3473 27.7437 28.3111 26.7059 30.2649 26.681C31.0623 26.6708 31.6997 26.8365 32.1769 27.1779L32.1619 26.0073L33.8195 25.9862L33.8398 27.5754L33.2028 29.2243ZM39.2235 38.9579L37.301 38.9824L37.1447 26.73L39.0671 26.7054L39.1342 31.9601L41.3215 31.9322L41.2545 26.6775L43.2196 26.6525L43.376 38.9049L41.4108 38.9299L41.3439 33.6838L39.1565 33.7117L39.2235 38.9579ZM49.9576 24.2848C49.6904 24.7782 49.4241 25.1177 49.1587 25.3034C48.9329 25.4658 48.6491 25.5492 48.3074 25.5535C48.0225 25.5572 47.6912 25.4816 47.3132 25.3269L46.901 25.1698C46.7522 25.1204 46.618 25.0965 46.4984 25.098C46.1794 25.1021 45.9256 25.2991 45.7369 25.6889L44.7449 24.9666C45.0121 24.4732 45.2783 24.1337 45.5437 23.948C45.7696 23.7913 46.0534 23.7108 46.3952 23.7064C46.68 23.7028 47.0114 23.7755 47.3893 23.9245L47.8015 24.0816C47.9502 24.131 48.0844 24.1549 48.204 24.1534C48.523 24.1493 48.7769 23.9523 48.9656 23.5625L49.9576 24.2848ZM50.2919 29.0575L50.3791 35.8929C50.4053 37.9435 49.4643 38.981 47.5561 39.0054C45.6422 39.0298 44.6721 38.0167 44.646 35.9661L44.5269 26.6358L46.4494 26.6112L46.5699 36.0612C46.5801 36.8586 46.9184 37.2531 47.5849 37.2446C48.2456 37.2362 48.5709 36.8332 48.5607 36.0358L48.4402 26.5858L49.286 26.5751L49.276 25.789L50.9336 25.7678L50.9539 27.3571L50.2919 29.0575ZM53.4215 26.5223L53.542 35.9722C53.5522 36.7697 53.8905 37.1641 54.557 37.1556C55.2234 37.1471 55.5515 36.7442 55.5414 35.9467L55.4208 26.4968L57.2407 26.4736L57.3598 35.8038C57.3859 37.8545 56.4421 38.892 54.5282 38.9164C52.6142 38.9408 51.6442 37.9277 51.618 35.8771L51.499 26.5468L53.4215 26.5223ZM15.531 46.0073L21.4778 45.9314L21.5001 47.683L19.4922 47.7086L19.6262 58.2095L17.7037 58.234L17.5698 47.7331L15.5533 47.7589L15.531 46.0073ZM26.5385 58.1213C26.4733 57.9284 26.4285 57.7637 26.404 57.6273C26.3727 57.4055 26.3541 57.0696 26.3484 56.6197L26.3239 54.6972C26.3106 53.6548 25.8824 53.139 25.0394 53.1497L24.3729 53.1582L24.4366 58.1481L22.5141 58.1726L22.3578 45.9202L25.2628 45.8831C27.1654 45.8588 28.1286 46.7866 28.1526 48.6663L28.1649 49.6318C28.181 50.8906 27.77 51.7248 26.9321 52.1343C27.791 52.4766 28.2293 53.3398 28.247 54.7239L28.2711 56.6122C28.2795 57.273 28.3542 57.7677 28.4951 58.0963L26.5385 58.1213ZM24.3026 47.6472L24.3507 51.4152L25.1026 51.4056C25.8773 51.3957 26.2591 50.9579 26.248 50.0921L26.2327 48.8873C26.2219 48.0443 25.889 47.627 25.2339 47.6353L24.3026 47.6472ZM31.2873 55.2406C31.2976 56.0495 31.636 56.4496 32.3024 56.4411C32.9689 56.4326 33.2969 56.024 33.2866 55.2151L33.2022 48.6019C33.192 47.7987 32.8536 47.4014 32.1872 47.4099C31.5207 47.4184 31.1926 47.8242 31.2029 48.6274L31.2873 55.2406ZM29.282 48.7715C29.2558 46.7209 30.2168 45.6832 32.1648 45.6583C34.1129 45.6335 35.1 46.6463 35.1262 48.697L35.2075 55.071C35.2337 57.1216 34.2727 58.1593 32.3247 58.1842C30.3766 58.209 29.3895 57.1961 29.3633 55.1455L29.282 48.7715ZM33.2232 58.9503L33.246 60.7361L31.4688 60.7588L31.446 58.973L33.2232 58.9503ZM38.0967 49.1034L38.2099 57.9723L36.4754 57.9945L36.3191 45.742L38.7371 45.7112L40.8045 53.0255L40.7108 45.686L42.4282 45.6641L42.5845 57.9165L40.6023 57.9418L38.0967 49.1034ZM46.6176 52.524L45.9854 52.5321L45.9653 50.96L46.5976 50.9519L46.5294 45.6118L49.5712 45.573C51.4851 45.5485 52.4549 46.5474 52.4807 48.5695L52.5598 54.7641C52.5855 56.7805 51.6414 57.801 49.7275 57.8254L46.6858 57.8642L46.6176 52.524ZM48.4742 47.3388L48.52 50.9274L49.7077 50.9122L49.7277 52.4844L48.5401 52.4995L48.5859 56.0881L49.671 56.0743C50.326 56.0659 50.6485 55.6658 50.6384 54.8741L50.5571 48.5001C50.547 47.7083 50.2144 47.3166 49.5593 47.325L48.4742 47.3388ZM55.5614 54.9309C55.5717 55.7397 55.9101 56.1399 56.5766 56.1314C57.2373 56.123 57.5625 55.7143 57.5522 54.9055L57.4678 48.2923C57.4576 47.4891 57.1221 47.0917 56.4613 47.1002C55.7949 47.1087 55.4668 47.5145 55.477 48.3177L55.5614 54.9309ZM56.108 42.849L57.3902 44.8835L55.9376 44.9021L54.0232 42.8756L56.108 42.849ZM59.3769 47.8919C59.3904 48.0512 59.3982 48.2164 59.4004 48.3872L59.4817 54.7612C59.5079 56.8118 58.5469 57.8496 56.5988 57.8744C54.645 57.8994 53.6551 56.8865 53.6289 54.8359L53.5476 48.4619C53.5214 46.4113 54.4852 45.3735 56.439 45.3486C57.2364 45.3384 57.8738 45.5041 58.351 45.8455L58.3361 44.6749L59.9936 44.6538L60.0139 46.243L59.3769 47.8919ZM60.6018 45.4322L62.5242 45.4077L62.6806 57.6601L60.7581 57.6846L60.6018 45.4322Z" fill="url(#paint19_linear_1832_4039)"/>
<defs>
<linearGradient id="paint0_linear_1832_4039" x1="68.9389" y1="69.5206" x2="10.5594" y2="12.1697" gradientUnits="userSpaceOnUse">
<stop stop-color="#EEBE47"/>
<stop offset="0.12" stop-color="#F8DB76"/>
<stop offset="0.21" stop-color="#FFEE96"/>
<stop offset="0.45" stop-color="#A2621E"/>
<stop offset="0.67" stop-color="#EEA54C"/>
<stop offset="1" stop-color="#EEBE47"/>
</linearGradient>
<linearGradient id="paint1_linear_1832_4039" x1="12.0426" y1="11.8594" x2="69.6314" y2="68.4408" gradientUnits="userSpaceOnUse">
<stop stop-color="#EEBE47"/>
<stop offset="0.12" stop-color="#F8DB76"/>
<stop offset="0.21" stop-color="#FFEE96"/>
<stop offset="0.45" stop-color="#A2621E"/>
<stop offset="0.67" stop-color="#EEA54C"/>
<stop offset="1" stop-color="#EEBE47"/>
</linearGradient>
<linearGradient id="paint2_linear_1832_4039" x1="66.7228" y1="13.5841" x2="13.8629" y2="65.6134" gradientUnits="userSpaceOnUse">
<stop stop-color="#EEBE47"/>
<stop offset="0.12" stop-color="#F8DB76"/>
<stop offset="0.21" stop-color="#FFEE96"/>
<stop offset="0.45" stop-color="#A2621E"/>
<stop offset="0.67" stop-color="#EEA54C"/>
<stop offset="1" stop-color="#EEBE47"/>
</linearGradient>
<radialGradient id="paint3_radial_1832_4039" cx="0" cy="0" r="1" gradientUnits="userSpaceOnUse" gradientTransform="translate(3.75206 -9.46636) rotate(-0.0277621) scale(90.4073 91.9396)">
<stop offset="0.1" stop-color="#340658"/>
<stop offset="1" stop-color="#7C0FD1"/>
</radialGradient>
<radialGradient id="paint4_radial_1832_4039" cx="0" cy="0" r="1" gradientUnits="userSpaceOnUse" gradientTransform="translate(-0.369755 -12.0356) rotate(-0.0277621) scale(80.0254 81.3818)">
<stop stop-color="#FFC94C"/>
<stop offset="0.14" stop-color="#A2621E"/>
<stop offset="0.16" stop-color="#955A1B"/>
<stop offset="0.25" stop-color="#6E4214"/>
<stop offset="0.34" stop-color="#4C2E0E"/>
<stop offset="0.44" stop-color="#301D08"/>
<stop offset="0.55" stop-color="#1A1004"/>
<stop offset="0.66" stop-color="#0B0702"/>
<stop offset="0.8" stop-color="#020100"/>
<stop offset="1"/>
</radialGradient>
<linearGradient id="paint5_linear_1832_4039" x1="66.6441" y1="23.8408" x2="70.9747" y2="28.7542" gradientUnits="userSpaceOnUse">
<stop stop-color="#F6D604"/>
<stop offset="0.275" stop-color="#FFAD37"/>
<stop offset="0.345" stop-color="#F8DE36"/>
<stop offset="0.43" stop-color="#FFA21E"/>
<stop offset="0.555" stop-color="#F6D604"/>
<stop offset="0.63" stop-color="#FF9805"/>
<stop offset="1" stop-color="#F6D604"/>
</linearGradient>
<linearGradient id="paint6_linear_1832_4039" x1="8.90881" y1="26.1062" x2="15.4581" y2="26.0569" gradientUnits="userSpaceOnUse">
<stop stop-color="#F6D604"/>
<stop offset="0.275" stop-color="#FFAD37"/>
<stop offset="0.345" stop-color="#F8DE36"/>
<stop offset="0.43" stop-color="#FFA21E"/>
<stop offset="0.555" stop-color="#F6D604"/>
<stop offset="0.63" stop-color="#FF9805"/>
<stop offset="1" stop-color="#F6D604"/>
</linearGradient>
<linearGradient id="paint7_linear_1832_4039" x1="29.4699" y1="8.74628" x2="35.9117" y2="7.56369" gradientUnits="userSpaceOnUse">
<stop stop-color="#F6D604"/>
<stop offset="0.275" stop-color="#FFAD37"/>
<stop offset="0.345" stop-color="#F8DE36"/>
<stop offset="0.43" stop-color="#FFA21E"/>
<stop offset="0.555" stop-color="#F6D604"/>
<stop offset="0.63" stop-color="#FF9805"/>
<stop offset="1" stop-color="#F6D604"/>
</linearGradient>
<linearGradient id="paint8_linear_1832_4039" x1="17.2063" y1="14.6234" x2="23.6481" y2="13.4408" gradientUnits="userSpaceOnUse">
<stop stop-color="#F6D604"/>
<stop offset="0.275" stop-color="#FFAD37"/>
<stop offset="0.345" stop-color="#F8DE36"/>
<stop offset="0.43" stop-color="#FFA21E"/>
<stop offset="0.555" stop-color="#F6D604"/>
<stop offset="0.63" stop-color="#FF9805"/>
<stop offset="1" stop-color="#F6D604"/>
</linearGradient>
<linearGradient id="paint9_linear_1832_4039" x1="5.55393" y1="38.7692" x2="12.1031" y2="38.8283" gradientUnits="userSpaceOnUse">
<stop stop-color="#F6D604"/>
<stop offset="0.275" stop-color="#FFAD37"/>
<stop offset="0.345" stop-color="#F8DE36"/>
<stop offset="0.43" stop-color="#FFA21E"/>
<stop offset="0.555" stop-color="#F6D604"/>
<stop offset="0.63" stop-color="#FF9805"/>
<stop offset="1" stop-color="#F6D604"/>
</linearGradient>
<linearGradient id="paint10_linear_1832_4039" x1="17.8996" y1="64.4599" x2="24.4488" y2="64.519" gradientUnits="userSpaceOnUse">
<stop stop-color="#F6D604"/>
<stop offset="0.275" stop-color="#FFAD37"/>
<stop offset="0.345" stop-color="#F8DE36"/>
<stop offset="0.43" stop-color="#FFA21E"/>
<stop offset="0.555" stop-color="#F6D604"/>
<stop offset="0.63" stop-color="#FF9805"/>
<stop offset="1" stop-color="#F6D604"/>
</linearGradient>
<linearGradient id="paint11_linear_1832_4039" x1="56.2533" y1="15.6246" x2="61.6974" y2="11.9837" gradientUnits="userSpaceOnUse">
<stop stop-color="#F6D604"/>
<stop offset="0.275" stop-color="#FFAD37"/>
<stop offset="0.345" stop-color="#F8DE36"/>
<stop offset="0.43" stop-color="#FFA21E"/>
<stop offset="0.555" stop-color="#F6D604"/>
<stop offset="0.63" stop-color="#FF9805"/>
<stop offset="1" stop-color="#F6D604"/>
</linearGradient>
<linearGradient id="paint12_linear_1832_4039" x1="44.4865" y1="11.161" x2="48.2153" y2="5.7766" gradientUnits="userSpaceOnUse">
<stop stop-color="#F6D604"/>
<stop offset="0.275" stop-color="#FFAD37"/>
<stop offset="0.345" stop-color="#F8DE36"/>
<stop offset="0.43" stop-color="#FFA21E"/>
<stop offset="0.555" stop-color="#F6D604"/>
<stop offset="0.63" stop-color="#FF9805"/>
<stop offset="1" stop-color="#F6D604"/>
</linearGradient>
<linearGradient id="paint13_linear_1832_4039" x1="8.73025" y1="51.4219" x2="15.0799" y2="53.0273" gradientUnits="userSpaceOnUse">
<stop stop-color="#F6D604"/>
<stop offset="0.275" stop-color="#FFAD37"/>
<stop offset="0.345" stop-color="#F8DE36"/>
<stop offset="0.43" stop-color="#FFA21E"/>
<stop offset="0.555" stop-color="#F6D604"/>
<stop offset="0.63" stop-color="#FF9805"/>
<stop offset="1" stop-color="#F6D604"/>
</linearGradient>
<linearGradient id="paint14_linear_1832_4039" x1="30.5041" y1="68.2718" x2="36.2586" y2="71.3992" gradientUnits="userSpaceOnUse">
<stop stop-color="#F6D604"/>
<stop offset="0.275" stop-color="#FFAD37"/>
<stop offset="0.345" stop-color="#F8DE36"/>
<stop offset="0.43" stop-color="#FFA21E"/>
<stop offset="0.555" stop-color="#F6D604"/>
<stop offset="0.63" stop-color="#FF9805"/>
<stop offset="1" stop-color="#F6D604"/>
</linearGradient>
<linearGradient id="paint15_linear_1832_4039" x1="44.2225" y1="68.0119" x2="50.5658" y2="69.6421" gradientUnits="userSpaceOnUse">
<stop stop-color="#F6D604"/>
<stop offset="0.275" stop-color="#FFAD37"/>
<stop offset="0.345" stop-color="#F8DE36"/>
<stop offset="0.43" stop-color="#FFA21E"/>
<stop offset="0.555" stop-color="#F6D604"/>
<stop offset="0.63" stop-color="#FF9805"/>
<stop offset="1" stop-color="#F6D604"/>
</linearGradient>
<linearGradient id="paint16_linear_1832_4039" x1="66.2419" y1="50.7789" x2="70.613" y2="55.6563" gradientUnits="userSpaceOnUse">
<stop stop-color="#F6D604"/>
<stop offset="0.275" stop-color="#FFAD37"/>
<stop offset="0.345" stop-color="#F8DE36"/>
<stop offset="0.43" stop-color="#FFA21E"/>
<stop offset="0.555" stop-color="#F6D604"/>
<stop offset="0.63" stop-color="#FF9805"/>
<stop offset="1" stop-color="#F6D604"/>
</linearGradient>
<linearGradient id="paint17_linear_1832_4039" x1="67.4666" y1="37.6195" x2="73.4829" y2="40.2079" gradientUnits="userSpaceOnUse">
<stop stop-color="#F6D604"/>
<stop offset="0.275" stop-color="#FFAD37"/>
<stop offset="0.345" stop-color="#F8DE36"/>
<stop offset="0.43" stop-color="#FFA21E"/>
<stop offset="0.555" stop-color="#F6D604"/>
<stop offset="0.63" stop-color="#FF9805"/>
<stop offset="1" stop-color="#F6D604"/>
</linearGradient>
<linearGradient id="paint18_linear_1832_4039" x1="56.6309" y1="64.9921" x2="63.1623" y2="64.5066" gradientUnits="userSpaceOnUse">
<stop stop-color="#F6D604"/>
<stop offset="0.275" stop-color="#FFAD37"/>
<stop offset="0.345" stop-color="#F8DE36"/>
<stop offset="0.43" stop-color="#FFA21E"/>
<stop offset="0.555" stop-color="#F6D604"/>
<stop offset="0.63" stop-color="#FF9805"/>
<stop offset="1" stop-color="#F6D604"/>
</linearGradient>
<linearGradient id="paint19_linear_1832_4039" x1="15.7163" y1="22.2564" x2="65.9584" y2="54.7158" gradientUnits="userSpaceOnUse">
<stop stop-color="#F6D604"/>
<stop offset="0.275" stop-color="#FFAD37"/>
<stop offset="0.345" stop-color="#F8DE36"/>
<stop offset="0.43" stop-color="#FFA21E"/>
<stop offset="0.555" stop-color="#F6D604"/>
<stop offset="0.63" stop-color="#FF9805"/>
<stop offset="1" stop-color="#F6D604"/>
</linearGradient>
</defs>
</svg>
