<svg width="80" height="81" viewBox="0 0 80 81" fill="none" xmlns="http://www.w3.org/2000/svg">
<g clip-path="url(#clip0_1832_4171)">
<path d="M46.5375 2.7851C48.6014 4.05587 50.9942 4.69577 53.4186 4.62817C58.1231 4.49749 62.4987 7.02551 64.7384 11.1623C65.892 13.2937 67.6404 15.0422 69.7764 16.2003C73.9131 18.4399 76.4412 22.8155 76.3105 27.5201C76.2429 29.9445 76.8828 32.3328 78.1535 34.4012C80.6185 38.4118 80.6185 43.4633 78.1535 47.4739C76.8828 49.5378 76.2429 51.9306 76.3105 54.355C76.4412 59.0595 73.9131 63.4351 69.7764 65.6748C67.6449 66.8284 65.8965 68.5768 64.7384 70.7128C62.4987 74.8495 58.1231 77.3776 53.4186 77.2469C50.9942 77.1793 48.6059 77.8192 46.5375 79.09C42.5269 81.5549 37.4754 81.5549 33.4648 79.09C31.4009 77.8192 29.0081 77.1793 26.5837 77.2469C21.8791 77.3776 17.5035 74.8495 15.2639 70.7128C14.1103 68.5813 12.3619 66.8329 10.2259 65.6748C6.08911 63.4351 3.56109 59.0595 3.69177 54.355C3.75936 51.9306 3.11947 49.5423 1.8487 47.4739C-0.616234 43.4633 -0.616234 38.4118 1.8487 34.4012C3.11947 32.3373 3.75936 29.9445 3.69177 27.5201C3.56109 22.8155 6.08911 18.4399 10.2259 16.2003C12.3573 15.0467 14.1058 13.2983 15.2639 11.1623C17.5035 7.02551 21.8791 4.49749 26.5837 4.62817C29.0081 4.69577 31.3964 4.05587 33.4648 2.7851C37.4754 0.320168 42.5269 0.320168 46.5375 2.7851Z" fill="url(#paint0_linear_1832_4171)"/>
<path style="mix-blend-mode:multiply" d="M46.5375 2.7851C48.6014 4.05587 50.9942 4.69577 53.4186 4.62817C58.1231 4.49749 62.4987 7.02551 64.7384 11.1623C65.892 13.2937 67.6404 15.0422 69.7764 16.2003C73.9131 18.4399 76.4412 22.8155 76.3105 27.5201C76.2429 29.9445 76.8828 32.3328 78.1535 34.4012C80.6185 38.4118 80.6185 43.4633 78.1535 47.4739C76.8828 49.5378 76.2429 51.9306 76.3105 54.355C76.4412 59.0595 73.9131 63.4351 69.7764 65.6748C67.6449 66.8284 65.8965 68.5768 64.7384 70.7128C62.4987 74.8495 58.1231 77.3776 53.4186 77.2469C50.9942 77.1793 48.6059 77.8192 46.5375 79.09C42.5269 81.5549 37.4754 81.5549 33.4648 79.09C31.4009 77.8192 29.0081 77.1793 26.5837 77.2469C21.8791 77.3776 17.5035 74.8495 15.2639 70.7128C14.1103 68.5813 12.3619 66.8329 10.2259 65.6748C6.08911 63.4351 3.56109 59.0595 3.69177 54.355C3.75936 51.9306 3.11947 49.5423 1.8487 47.4739C-0.616234 43.4633 -0.616234 38.4118 1.8487 34.4012C3.11947 32.3373 3.75936 29.9445 3.69177 27.5201C3.56109 22.8155 6.08911 18.4399 10.2259 16.2003C12.3573 15.0467 14.1058 13.2983 15.2639 11.1623C17.5035 7.02551 21.8791 4.49749 26.5837 4.62817C29.0081 4.69577 31.3964 4.05587 33.4648 2.7851C37.4754 0.320168 42.5269 0.320168 46.5375 2.7851Z" fill="url(#paint1_radial_1832_4171)"/>
<path d="M40.6287 5.68262C43.8687 5.68262 47.1628 6.12874 50.4298 7.06154C69.3337 12.4646 80.2749 32.1705 74.8719 51.0744C70.4016 66.7067 56.1528 76.8954 40.6647 76.8954C37.4247 76.8954 34.1306 76.4492 30.8636 75.5164C11.9597 70.1089 1.01395 50.403 6.42148 31.5036C10.8872 15.8713 25.1406 5.68262 40.6287 5.68262ZM40.6287 5.23199C32.9545 5.23199 25.3163 7.76903 19.1247 12.3699C12.7258 17.1241 8.18344 23.6987 5.98888 31.3774C3.3437 40.6333 4.45675 50.3714 9.13427 58.7891C13.8073 67.2069 21.4815 73.2994 30.7374 75.9491C33.9819 76.8773 37.3211 77.346 40.6647 77.346C48.3389 77.346 55.9771 74.809 62.1687 70.2081C68.5676 65.4539 73.1099 58.8793 75.3045 51.1961C80.7706 32.0849 69.6671 12.0906 50.556 6.62894C47.3115 5.70065 43.9723 5.23199 40.6332 5.23199H40.6287Z" fill="url(#paint2_radial_1832_4171)"/>
<path d="M74.6104 51.9385C80.4924 33.1805 70.0544 13.2058 51.2963 7.32375C32.5383 1.44174 12.5636 11.8798 6.68157 30.6379C0.79956 49.3959 11.2376 69.3706 29.9957 75.2526C48.7537 81.1346 68.7284 70.6965 74.6104 51.9385Z" fill="url(#paint3_linear_1832_4171)"/>
<path d="M69.7769 41.1831C69.7769 42.3773 69.7138 43.5624 69.5787 44.7206C69.4254 46.0229 69.1866 47.3027 68.8621 48.5509C68.727 49.0871 68.5737 49.6144 68.407 50.1371C68.1006 51.1105 67.7401 52.0613 67.3345 52.9851C66.4513 54.9949 65.3518 56.883 64.063 58.6224C62.9679 60.1005 61.7377 61.4704 60.3858 62.7096C55.2216 67.4728 48.3315 70.3883 40.7565 70.4154C33.1724 70.4424 26.2508 67.5719 21.055 62.8358C19.7167 61.6191 18.4955 60.2852 17.4049 58.8387C15.3636 56.144 13.7864 53.0842 12.7815 49.7766C12.3128 48.2309 11.9659 46.6312 11.7541 44.9909C11.6053 43.8148 11.5242 42.6116 11.5197 41.3949C11.4611 25.3075 24.4573 12.2213 40.5447 12.1627C56.6276 12.1041 69.7183 25.0957 69.7769 41.1876V41.1831Z" fill="#000124"/>
<path style="mix-blend-mode:multiply" d="M69.0725 47.8885C65.3233 64.0165 48.952 73.7906 32.9727 69.4465C17.9172 65.3503 8.68384 49.8938 12.2213 34.6941C15.9705 18.5661 32.3418 8.79199 48.3211 13.136C63.3766 17.2323 72.6099 32.6888 69.0725 47.8885Z" fill="url(#paint4_radial_1832_4171)"/>
<g style="mix-blend-mode:plus-lighter">
<path d="M31.5772 68.8613C31.5772 68.8613 31.6301 68.9031 31.6537 68.921L41.0949 41.3326L31.007 68.4253C31.2069 68.5746 31.4009 68.718 31.5714 68.8613L31.5772 68.8613ZM12.2384 43.456L41.1008 41.3386L12.0618 42.6733C12.1089 42.9481 12.1678 43.211 12.2443 43.462L12.2384 43.456ZM41.4966 69.9859L41.1008 41.3326L40.7327 69.9743C40.9854 69.9742 41.2381 69.9741 41.4966 69.9859ZM34.7745 70.282L41.0949 41.3326L34.0047 70.0971C34.2574 70.1687 34.516 70.2343 34.7686 70.282L34.7745 70.282ZM22.6727 64.3241L41.1008 41.3386L22.0907 63.7865C22.273 63.9717 22.4729 64.1569 22.6727 64.3241ZM37.5716 70.2985C37.7654 70.2506 37.9711 70.2147 38.1826 70.1787L41.1008 41.3386L37.3894 70.3404C37.4541 70.3285 37.5187 70.3165 37.5774 70.3045L37.5716 70.2985ZM25.5645 65.8704C25.6057 65.8763 25.6468 65.8942 25.6879 65.9002L41.0949 41.3326L24.9063 65.6735C25.1296 65.7571 25.3471 65.8227 25.5645 65.8704ZM13.9692 50.0105L41.0949 41.3326L13.8865 49.2158C13.9219 49.4847 13.9455 49.7536 13.9633 50.0045L13.9692 50.0105ZM14.4997 53.4523L41.1008 41.3386L14.2466 52.6935C14.3173 52.9444 14.3997 53.2013 14.4997 53.4523ZM13.4035 46.7122L41.0949 41.3326L13.1857 45.9594C13.2622 46.2043 13.3328 46.4553 13.3976 46.7062L13.4035 46.7122ZM18.7389 58.7566L41.1008 41.3326L18.245 58.1653C18.4097 58.3564 18.5802 58.5535 18.7389 58.7566ZM20.5913 61.5583L41.1008 41.3386L20.209 60.8594C20.3501 61.0983 20.4795 61.3313 20.5971 61.5643L20.5913 61.5583ZM16.3462 56.3376L41.1008 41.3326L15.7994 55.7403C15.9758 55.9554 16.1581 56.1584 16.3462 56.3376ZM28.8146 67.1058L41.1008 41.3326L28.127 66.7774C28.3562 66.8849 28.5854 66.9923 28.8146 67.1058ZM67.9131 52.6436L41.1008 41.3386L67.6902 53.4145C67.7782 53.1575 67.8544 52.9005 67.9131 52.6436ZM66.4691 55.7516L41.1008 41.3386L65.9581 56.3674C66.1343 56.1761 66.3105 55.9728 66.4749 55.7516L66.4691 55.7516ZM68.264 49.1775L41.1008 41.3326L68.1586 49.9604C68.1878 49.7034 68.223 49.4464 68.264 49.1775ZM69.0733 45.9442L41.1008 41.3326L68.8327 46.6913C68.909 46.4343 68.9912 46.1833 69.0733 45.9442ZM48.2131 70.0723L41.1008 41.3386L47.4493 70.2878C47.7078 70.2279 47.9604 70.1561 48.2072 70.0782L48.2131 70.0723ZM64.0081 58.173L41.1008 41.3326L63.4913 58.7469C63.6616 58.5496 63.832 58.3583 64.0081 58.173ZM70.1882 42.6391L41.1008 41.3326L70.0416 43.428C70.1003 43.171 70.153 42.9081 70.1882 42.6391ZM54.1111 66.7888L41.1008 41.3326L53.412 67.0939C53.647 66.9862 53.882 66.8845 54.1111 66.7828L54.1111 66.7888ZM61.9587 60.7853L41.0949 41.3326L61.5477 61.4608C61.6709 61.2396 61.8119 61.0125 61.9587 60.7853ZM51.1797 68.3259L41.1008 41.3326L50.5276 68.7864C50.7273 68.6309 50.9506 68.4754 51.1797 68.3259ZM60.1091 63.7382L41.1008 41.3386L59.5453 64.3002C59.745 64.1209 59.9329 63.9355 60.1091 63.7382ZM57.3601 65.7295L41.1008 41.3326L56.6022 65.9988C56.8548 65.9269 57.1074 65.8372 57.3601 65.7295ZM44.2645 70.3371C44.4525 70.3848 44.6523 70.4206 44.858 70.4444L41.1008 41.3326L44.0588 70.2894C44.1293 70.3073 44.1998 70.3192 44.2703 70.3371L44.2645 70.3371ZM56.6312 16.7948C56.5901 16.7889 56.5489 16.771 56.5019 16.765L41.0949 41.3326L57.2836 16.9917C57.0602 16.9082 56.8428 16.8425 56.6253 16.7948L56.6312 16.7948ZM61.6045 21.1129L41.1008 41.3386L61.9927 21.8178C61.8515 21.5788 61.7221 21.3399 61.6045 21.1129ZM59.523 18.3471L41.0949 41.3326L60.105 18.8846C59.9228 18.6995 59.7229 18.5143 59.523 18.3471ZM53.387 15.5594L41.1008 41.3326L54.0747 15.8878C53.8455 15.7803 53.6162 15.6729 53.387 15.5594ZM50.6185 13.8039C50.6185 13.8039 50.5656 13.7621 50.5421 13.7442L41.1008 41.3326L51.1887 14.2399C50.983 14.0906 50.7949 13.9472 50.6244 13.7979L50.6185 13.8039ZM47.4212 12.3833L41.1008 41.3326L48.1911 12.5681C47.9384 12.4965 47.6798 12.4309 47.4271 12.3832L47.4212 12.3833ZM65.8496 26.3336L41.0949 41.3386L66.3963 26.9309C66.22 26.7158 66.0377 26.5127 65.8496 26.3336ZM63.4568 23.9086L41.1008 41.3326L63.9566 24.4999C63.792 24.3088 63.6215 24.1117 63.4627 23.9086L63.4568 23.9086ZM69.9573 39.2152L41.0949 41.3386L70.134 40.0039C70.0869 39.729 70.028 39.4661 69.9515 39.2152L69.9573 39.2152ZM68.2266 32.6547L41.0949 41.3326L68.3034 33.4434C68.268 33.1746 68.2443 32.9057 68.2266 32.6547ZM68.7923 35.959L41.1008 41.3386L69.0101 36.7118C68.9336 36.4668 68.8629 36.2159 68.7982 35.965L68.7923 35.959ZM67.7019 29.2189L41.1008 41.3326L67.955 29.9777C67.8843 29.7208 67.802 29.4699 67.7019 29.2189ZM44.6242 12.3727C44.4362 12.4206 44.2305 12.4565 44.0131 12.4925L41.0949 41.3326L44.8063 12.3307C44.7417 12.3427 44.6771 12.3547 44.6183 12.3667L44.6242 12.3727ZM15.7326 26.9196L41.1008 41.3326L16.2435 26.2978C16.0673 26.4891 15.8911 26.6924 15.7267 26.9136L15.7326 26.9196ZM12.0135 40.0261L41.1008 41.3326L12.16 39.2312C12.0955 39.4882 12.0486 39.7512 12.0135 40.0201L12.0135 40.0261ZM18.1935 24.4922L41.1008 41.3326L18.7103 23.9183C18.54 24.1156 18.3638 24.3069 18.1935 24.4922ZM14.2885 30.0276L41.1008 41.3326L14.5115 29.2507C14.4234 29.5077 14.3472 29.7647 14.2885 30.0216L14.2885 30.0276ZM13.1283 36.721L41.1008 41.3326L13.3689 35.9739C13.2926 36.2309 13.2105 36.4819 13.1283 36.721ZM20.2371 21.8858L41.0949 41.3386L20.6481 21.2104C20.5248 21.4315 20.3839 21.6587 20.2371 21.8858ZM13.9377 33.4877L41.1008 41.3326L14.0431 32.7049C14.0138 32.9558 13.9787 33.2188 13.9377 33.4817L13.9377 33.4877ZM24.8416 16.9357L41.1008 41.3326L25.5995 16.6664C25.3468 16.7383 25.0942 16.828 24.8416 16.9357ZM33.9886 12.5989L41.1008 41.3326L34.7523 12.3834C34.4938 12.4433 34.2412 12.5151 33.9944 12.5929L33.9886 12.5989ZM22.0925 18.9329L41.1008 41.3326L22.6563 18.3709C22.4566 18.5503 22.2687 18.7357 22.0925 18.9329ZM37.9313 12.3281C37.7432 12.2804 37.5434 12.2446 37.3436 12.2208L41.1008 41.3326L38.1429 12.3758C38.0723 12.3579 38.0018 12.346 37.9313 12.3281ZM31.0161 14.3393L41.0949 41.3326L31.6681 13.8788C31.4684 14.0343 31.2452 14.1898 31.0161 14.3393ZM40.705 12.6793L41.1008 41.3326L41.4689 12.6909C41.2162 12.691 40.9577 12.6911 40.705 12.6793ZM28.0847 15.8765L41.0949 41.3326L28.7838 15.5654C28.5488 15.6731 28.3138 15.7748 28.0847 15.8765Z" fill="url(#paint5_radial_1832_4171)" style="mix-blend-mode:screen"/>
</g>
<path d="M69.0725 47.8885C65.3233 64.0165 48.952 73.7906 32.9727 69.4465C17.9172 65.3503 8.68384 49.8938 12.2213 34.6941C15.9705 18.5661 32.3418 8.79199 48.3211 13.136C63.3766 17.2323 72.6099 32.6888 69.0725 47.8885Z" stroke="black" stroke-width="0.225314" stroke-miterlimit="10"/>
<g style="mix-blend-mode:multiply">
<path d="M70.7909 53.4583C70.7279 53.2645 70.6648 53.0707 70.6017 52.877L70.5251 52.6426C70.5251 52.6426 69.8897 52.557 69.6914 52.5255C69.8446 52.4083 70.0023 52.2911 70.151 52.174L70.3493 52.0208L70.2953 51.7729C70.2547 51.5836 70.2096 51.3944 70.1646 51.2096C70.3313 51.3133 70.8811 51.6512 70.8811 51.6512L71.0929 51.5206C71.2641 51.4124 71.4353 51.3043 71.6066 51.1961C71.557 51.3989 71.5074 51.6017 71.4534 51.7954L71.3903 52.0298L71.5705 52.192C71.7328 52.3362 71.895 52.4849 72.0572 52.6336C71.8364 52.6426 71.6201 52.6561 71.3993 52.6606L71.1559 52.6697L71.0523 52.8905C70.9667 53.0752 70.8766 53.2645 70.7864 53.4492L70.7909 53.4583Z" fill="#3A3A3A"/>
<path d="M66.3926 61.1415C66.3881 60.9387 66.379 60.7359 66.37 60.5331L66.3565 60.2853C66.3565 60.2853 65.7662 60.0284 65.5859 59.9473C65.7662 59.8797 65.9464 59.8076 66.1222 59.7355L66.3565 59.6409L66.37 59.3885C66.379 59.1947 66.3881 59.0055 66.3971 58.8117C66.5323 58.9559 66.9649 59.4291 66.9649 59.4291L67.2037 59.3615C67.3975 59.3074 67.5912 59.2488 67.785 59.1857C67.6814 59.366 67.5777 59.5462 67.4786 59.722L67.3569 59.9338L67.4876 60.1411C67.6048 60.3258 67.7219 60.5106 67.8391 60.6953C67.6228 60.6458 67.411 60.5962 67.1992 60.5466L66.9604 60.488L66.8026 60.6728C66.6675 60.826 66.5323 60.9837 66.3926 61.1415Z" fill="#3A3A3A"/>
<path d="M60.0782 67.3466C60.1278 67.1483 60.1728 66.9501 60.2179 66.7518L60.272 66.513C60.272 66.513 59.7718 66.1074 59.623 65.9812C59.8168 65.9632 60.0061 65.9452 60.1999 65.9226L60.4522 65.8956L60.5333 65.6568C60.5964 65.4765 60.655 65.2918 60.7136 65.107C60.8037 65.2827 61.0921 65.855 61.0921 65.855H61.3399C61.5427 65.855 61.7455 65.8505 61.9483 65.846C61.7996 65.9947 61.6509 66.1389 61.5067 66.2786L61.3309 66.4499L61.403 66.6842C61.4661 66.8915 61.5292 67.1033 61.5878 67.3151C61.394 67.2114 61.2002 67.1033 61.0155 66.9951L60.8037 66.8735L60.6009 67.0086C60.4297 67.1213 60.2584 67.234 60.0827 67.3466H60.0782Z" fill="#3A3A3A"/>
<path d="M53.788 71.9926C53.6303 71.8394 53.4726 71.6862 53.3193 71.533L53.1481 71.3617L52.9183 71.4383C52.7245 71.5014 52.5262 71.5645 52.328 71.6231C52.4271 71.4473 52.5262 71.2671 52.6209 71.0913L52.738 70.875C52.738 70.875 52.3685 70.3478 52.2559 70.1856C52.4451 70.2216 52.6344 70.2532 52.8282 70.2847L53.076 70.3253L53.2202 70.118C53.3284 69.9603 53.4365 69.798 53.5447 69.6358C53.5852 69.8296 53.7069 70.4605 53.7069 70.4605L53.9457 70.5235C54.1395 70.5776 54.3378 70.6272 54.536 70.6768C54.3558 70.7804 54.171 70.8795 53.9953 70.9742L53.779 71.0913V71.3347C53.788 71.551 53.7925 71.7718 53.797 71.9926H53.788Z" fill="#3A3A3A"/>
<path d="M45.0184 74.408C44.9057 74.2187 44.7976 74.0249 44.6894 73.8402L44.5677 73.6284L44.3244 73.6374C44.1216 73.6464 43.9143 73.6509 43.707 73.6554C43.8512 73.5112 43.9954 73.367 44.1351 73.2228L44.3064 73.0471C44.3064 73.0471 44.0901 72.4432 44.027 72.254C44.1982 72.3396 44.374 72.4207 44.5497 72.5018L44.7795 72.6055L44.9733 72.4432C45.122 72.3216 45.2662 72.1954 45.4149 72.0692C45.4014 72.2675 45.3518 72.9074 45.3518 72.9074L45.5636 73.0336C45.7349 73.1372 45.9106 73.2408 46.0909 73.34C45.8881 73.3896 45.6853 73.4391 45.487 73.4842L45.2482 73.5383L45.1896 73.7726C45.1355 73.9844 45.0814 74.1962 45.0229 74.408H45.0184Z" fill="#3A3A3A"/>
<path d="M35.9203 74.3539C35.8662 74.1421 35.8122 73.9258 35.7626 73.7185L35.704 73.4797L35.4652 73.4256C35.2669 73.3805 35.0641 73.331 34.8613 73.2769C35.0416 73.1777 35.2173 73.0786 35.3931 72.975L35.6049 72.8488C35.6049 72.8488 35.5598 72.2089 35.5508 72.0106C35.695 72.1413 35.8392 72.2675 35.9879 72.3891L36.1817 72.5514L36.4115 72.4477C36.5872 72.3711 36.763 72.29 36.9387 72.2044C36.8711 72.3891 36.6503 72.993 36.6503 72.993L36.8216 73.1732C36.9613 73.3219 37.101 73.4662 37.2452 73.6104C37.0379 73.6013 36.8306 73.5923 36.6278 73.5833L36.3844 73.5698L36.2628 73.7816C36.1546 73.9708 36.042 74.1601 35.9293 74.3494L35.9203 74.3539Z" fill="#3A3A3A"/>
<path d="M27.1747 71.8529C27.1747 71.6321 27.1837 71.4113 27.1928 71.195L27.2018 70.9516L26.99 70.8344C26.8097 70.7353 26.6295 70.6362 26.4492 70.528C26.6475 70.4784 26.8458 70.4289 27.0395 70.3793L27.2784 70.3162C27.2784 70.3162 27.4091 69.6853 27.4496 69.4916C27.5533 69.6538 27.6614 69.816 27.7696 69.9737L27.9093 70.181L28.1571 70.145C28.3464 70.1179 28.5401 70.0864 28.7294 70.0504C28.6167 70.2126 28.2382 70.7353 28.2382 70.7353L28.3554 70.9516C28.45 71.1319 28.5446 71.3076 28.6438 71.4879C28.4455 71.4248 28.2472 71.3617 28.0535 71.2941L27.8236 71.2175L27.6479 71.3887C27.4947 71.5419 27.337 71.6951 27.1747 71.8439V71.8529Z" fill="#3A3A3A"/>
<path d="M20.9328 67.1393C20.757 67.0267 20.5858 66.9095 20.419 66.7923L20.2163 66.6526L20 66.7698C19.8107 66.8734 19.6169 66.9771 19.4232 67.0807C19.4862 66.8689 19.5538 66.6616 19.6169 66.4544L19.689 66.22L19.5133 66.0488C19.3691 65.9046 19.2204 65.7559 19.0762 65.6072C19.279 65.6162 19.4817 65.6207 19.6845 65.6252H19.9324C19.9324 65.6252 20.2298 65.0574 20.3199 64.8862C20.3785 65.0709 20.4326 65.2557 20.4956 65.4359L20.5723 65.6748L20.8246 65.7063C21.0139 65.7288 21.2076 65.7514 21.3969 65.7739C21.2437 65.9001 20.739 66.2966 20.739 66.2966L20.7931 66.54C20.8336 66.7382 20.8787 66.9365 20.9283 67.1348L20.9328 67.1393Z" fill="#3A3A3A"/>
<path d="M14.6914 60.8576C14.5562 60.6999 14.421 60.5422 14.2904 60.3844L14.1326 60.1997L13.8938 60.2538C13.682 60.3033 13.4702 60.3484 13.2539 60.3979C13.3711 60.2132 13.4927 60.0284 13.6099 59.8482L13.7451 59.6454L13.6234 59.4336C13.5198 59.2579 13.4206 59.0776 13.3215 58.8929C13.5153 58.9559 13.709 59.0145 13.9028 59.0731L14.1371 59.1452C14.1371 59.1452 14.5742 58.6765 14.7139 58.5323C14.7184 58.7261 14.723 58.9199 14.732 59.1092L14.741 59.3615L14.9753 59.4606C15.1511 59.5372 15.3313 59.6094 15.5116 59.6769C15.3313 59.7536 14.7365 60.0059 14.7365 60.0059L14.723 60.2538C14.7094 60.4565 14.7004 60.6593 14.6914 60.8621V60.8576Z" fill="#3A3A3A"/>
<path d="M10.3744 53.1338C10.2843 52.9445 10.1987 52.7598 10.1131 52.5705L10.0139 52.3497L9.7706 52.3407C9.5543 52.3317 9.33349 52.3181 9.11719 52.3046C9.27941 52.1559 9.44615 52.0117 9.60837 51.8675L9.79313 51.7053L9.73455 51.4664C9.68498 51.2682 9.63541 51.0654 9.59035 50.8626C9.76159 50.9753 9.93282 51.0834 10.1041 51.1916L10.3114 51.3222C10.3114 51.3222 10.8611 50.9888 11.0324 50.8851C10.9828 51.0744 10.9377 51.2592 10.8972 51.4484L10.8386 51.6963L11.0369 51.854C11.1901 51.9712 11.3388 52.0928 11.4965 52.21C11.2982 52.237 10.6628 52.3181 10.6628 52.3181L10.5817 52.5525C10.5141 52.7417 10.451 52.9355 10.388 53.1293L10.3744 53.1338Z" fill="#3A3A3A"/>
<path d="M8.29742 44.5268C8.26137 44.324 8.22983 44.1167 8.19828 43.914L8.16223 43.6751L7.93241 43.5985C7.72513 43.5309 7.51784 43.4588 7.31055 43.3867C7.50882 43.2876 7.7071 43.193 7.90087 43.1028L8.12168 42.9992V42.7559C8.1352 42.5531 8.1397 42.3458 8.14872 42.1385C8.2839 42.2917 8.41459 42.4449 8.54977 42.5936L8.71651 42.7784C8.71651 42.7784 9.33387 42.6071 9.52764 42.5531C9.43301 42.7198 9.33837 42.8865 9.24374 43.0578L9.12207 43.2786L9.27078 43.4814C9.38344 43.6346 9.49609 43.7923 9.61326 43.9455C9.41949 43.9185 8.77959 43.8238 8.77959 43.8238L8.6399 44.0266C8.52274 44.1934 8.41008 44.3601 8.29742 44.5313V44.5268Z" fill="#3A3A3A"/>
<path d="M8.62682 35.681C8.64935 35.4737 8.67188 35.2709 8.69442 35.0636L8.72596 34.8203L8.52318 34.6851C8.34292 34.5634 8.16267 34.4417 7.98242 34.3156C8.19872 34.275 8.41502 34.2344 8.62682 34.1984L8.86565 34.1578L8.93775 33.9235C8.99634 33.7297 9.05942 33.5315 9.12702 33.3332C9.21264 33.5179 9.30276 33.7027 9.39289 33.883L9.50104 34.1038C9.50104 34.1038 10.1454 34.1038 10.3437 34.1038C10.204 34.239 10.0688 34.3741 9.93364 34.5138L9.7579 34.6941L9.84352 34.9284C9.91111 35.1087 9.9787 35.2889 10.0508 35.4692C9.87055 35.3881 9.28474 35.1267 9.28474 35.1267L9.09547 35.2844C8.93775 35.4106 8.78454 35.5458 8.62682 35.6765V35.681Z" fill="#3A3A3A"/>
<path d="M12.1048 26.8937L11.8795 26.9929C11.6947 27.074 11.51 27.1596 11.3252 27.2452C11.4018 27.0515 11.4784 26.8577 11.555 26.6684L11.6497 26.4431L11.492 26.2584C11.3523 26.0916 11.2081 25.9249 11.0684 25.7537C11.2892 25.7717 11.5055 25.7942 11.7218 25.8167L11.9651 25.8393L12.0958 25.632C12.2084 25.4608 12.3211 25.285 12.4383 25.1138C12.4743 25.3166 12.5104 25.5148 12.5464 25.7131L12.5915 25.9564C12.5915 25.9564 13.2088 26.1277 13.4026 26.1863C13.2314 26.2809 13.0646 26.3755 12.8979 26.4702L12.6816 26.5963L12.7041 26.8487C12.7222 27.0425 12.7357 27.2317 12.7582 27.4255C12.605 27.2993 12.1093 26.8892 12.1093 26.8892L12.1048 26.8937Z" fill="#3A3A3A"/>
<path d="M17.0484 19.7287L16.805 19.7648C16.6067 19.7918 16.404 19.8234 16.2012 19.8594C16.3273 19.6927 16.4535 19.5305 16.5797 19.3682L16.7329 19.1745L16.6293 18.9536C16.5391 18.7554 16.449 18.5571 16.3589 18.3543C16.5662 18.4309 16.769 18.512 16.9717 18.5931L17.1971 18.6833L17.3818 18.521C17.535 18.3859 17.6928 18.2507 17.8505 18.1155C17.8279 18.3183 17.8099 18.521 17.7919 18.7238L17.7694 18.9717C17.7694 18.9717 18.3191 19.3051 18.4859 19.4088C18.2966 19.4538 18.1118 19.4989 17.9226 19.544L17.6792 19.6071L17.6297 19.8549C17.5936 20.0442 17.5576 20.2334 17.526 20.4227C17.4134 20.2605 17.0484 19.7332 17.0484 19.7332V19.7287Z" fill="#3A3A3A"/>
<path d="M23.7456 14.168L23.5023 14.1365C23.304 14.1094 23.1012 14.0869 22.8984 14.0644C23.0652 13.9382 23.2319 13.8165 23.3941 13.6948L23.5924 13.5506L23.5518 13.3118C23.5158 13.1 23.4843 12.8837 23.4527 12.6629C23.633 12.7936 23.8042 12.9243 23.9799 13.0549L24.1737 13.2037L24.3945 13.0955C24.5793 13.0054 24.764 12.9198 24.9533 12.8296C24.8767 13.0189 24.8046 13.2082 24.7325 13.3974L24.6469 13.6272C24.6469 13.6272 25.084 14.0959 25.2192 14.2446C25.0254 14.2356 24.8316 14.2311 24.6424 14.2266H24.39L24.2774 14.4474C24.1917 14.6186 24.1061 14.7944 24.025 14.9656C23.9574 14.7809 23.7501 14.1725 23.7501 14.1725L23.7456 14.168Z" fill="#3A3A3A"/>
<path d="M31.689 10.608L31.4637 10.5134C31.2789 10.4323 31.0897 10.3557 30.9004 10.279C31.0942 10.2024 31.2879 10.1258 31.4772 10.0582L31.707 9.97262L31.7341 9.72928C31.7566 9.51298 31.7836 9.29667 31.8107 9.07587C31.9458 9.25161 32.081 9.42285 32.2117 9.59409L32.3604 9.78786L32.5993 9.7428C32.802 9.70675 33.0048 9.6707 33.2121 9.63915C33.0904 9.80138 32.9688 9.9636 32.8471 10.1258L32.7029 10.3241C32.7029 10.3241 33.0003 10.8964 33.0904 11.0721C32.9057 11.0136 32.7254 10.955 32.5407 10.8964L32.2973 10.8243L32.1261 11.0091C31.9954 11.1533 31.8692 11.2975 31.7431 11.4417C31.7295 11.2434 31.6935 10.6035 31.6935 10.6035L31.689 10.608Z" fill="#3A3A3A"/>
<path d="M41.5131 10.1529C41.3554 10.0447 41.1932 9.94109 41.031 9.83745L40.8192 9.70226L40.6029 9.83745C40.4406 9.94109 40.2784 10.0447 40.1162 10.1484C40.1567 9.95461 40.2964 9.32824 40.2964 9.32824L40.1027 9.17503C39.9449 9.04885 39.7872 8.92268 39.625 8.7965C39.8323 8.77397 40.0396 8.75594 40.2424 8.73792L40.4857 8.71539L40.5758 8.49007C40.6569 8.28729 40.7426 8.08901 40.8282 7.88623C40.9138 8.08901 40.9949 8.2918 41.0715 8.49458L41.1616 8.71989L41.405 8.74242C41.6078 8.76045 41.8151 8.78298 42.0223 8.80551C41.8601 8.92718 41.6979 9.05336 41.5402 9.17503L41.3464 9.32824C41.3464 9.32824 41.4771 9.95912 41.5131 10.1529Z" fill="#3A3A3A"/>
<path d="M49.3355 10.9189C49.3355 10.9189 48.7181 11.1172 48.5378 11.1758C48.628 11.0046 48.9299 10.4368 48.9299 10.4368C48.9299 10.4368 48.5469 9.90954 48.4297 9.74732L49.2814 9.89602L49.4301 9.70676C49.5653 9.53552 49.7005 9.35978 49.8356 9.18854C49.8627 9.40935 49.8852 9.62565 49.9077 9.84646L49.9303 10.0853L50.7324 10.4097C50.5431 10.4863 50.3539 10.563 50.1691 10.6351L49.9393 10.7297C49.9393 10.7297 49.8942 11.3696 49.8807 11.5633C49.759 11.4191 49.34 10.9189 49.34 10.9189H49.3355Z" fill="#3A3A3A"/>
<path d="M57.5686 15.1368C57.4875 14.9611 57.4063 14.7853 57.3207 14.6141L57.2081 14.3888H56.9557C56.7619 14.3933 56.5727 14.3978 56.3789 14.4068C56.5141 14.2626 56.9557 13.7985 56.9557 13.7985L56.8701 13.5641C56.8025 13.3749 56.7304 13.1856 56.6538 12.9918C56.8431 13.082 57.0278 13.1721 57.2126 13.2622L57.4289 13.3704L57.6226 13.2262C57.7984 13.0955 57.9741 12.9693 58.1544 12.8386C58.1183 13.0549 58.0868 13.2712 58.0462 13.4875L58.0057 13.7264L58.1994 13.8706C58.3662 13.9922 58.5284 14.1184 58.6951 14.2446C58.4924 14.2626 58.2896 14.2851 58.0913 14.3122L57.848 14.3437C57.848 14.3437 57.6317 14.9476 57.5641 15.1368H57.5686Z" fill="#3A3A3A"/>
<path d="M63.9951 20.6751C63.9636 20.4858 63.9321 20.292 63.896 20.1073L63.8509 19.8594L63.6076 19.7963C63.4228 19.7468 63.2336 19.6972 63.0488 19.6521C63.2201 19.5485 63.7698 19.2241 63.7698 19.2241L63.7518 18.9762C63.7383 18.7734 63.7203 18.5706 63.7022 18.3679C63.86 18.503 64.0132 18.6427 64.1664 18.7779L64.3466 18.9402L64.5765 18.8545C64.7792 18.7779 64.9865 18.7013 65.1938 18.6247C65.1037 18.823 65.0091 19.0213 64.9144 19.2195L64.8108 19.4404L64.9595 19.6341C65.0857 19.7964 65.2073 19.9631 65.3335 20.1298C65.1307 20.0938 64.9324 20.0622 64.7342 20.0307L64.4908 19.9946C64.4908 19.9946 64.1213 20.5174 64.0042 20.6796L63.9951 20.6751Z" fill="#3A3A3A"/>
<path d="M68.6862 27.7409C68.7087 27.5472 68.7267 27.3579 68.7448 27.1641L68.7673 26.9118L68.551 26.7856C68.3842 26.6865 68.2175 26.5918 68.0508 26.4972C68.24 26.4431 68.8619 26.2764 68.8619 26.2764L68.9115 26.0331C68.952 25.8348 68.9881 25.6365 69.0241 25.4337C69.1368 25.6095 69.2495 25.7807 69.3576 25.9564L69.4883 26.1637L69.7316 26.1412C69.9479 26.1232 70.1642 26.1052 70.385 26.0871C70.2408 26.2539 70.1011 26.4206 69.9569 26.5873L69.7947 26.7721L69.8848 26.9974C69.9614 27.1867 70.0381 27.3804 70.1102 27.5742C69.9254 27.4841 69.7406 27.3985 69.5604 27.3173L69.3351 27.2137C69.3351 27.2137 68.8349 27.6193 68.6817 27.7409H68.6862Z" fill="#3A3A3A"/>
<path d="M72.7288 36.0325C72.5756 35.8973 72.4223 35.7666 72.2646 35.6359L72.0754 35.4782C72.0754 35.4782 71.485 35.7351 71.3048 35.8117C71.3769 35.6314 71.449 35.4512 71.5166 35.2754L71.6067 35.0411L71.431 34.8608C71.3003 34.7211 71.1651 34.5859 71.0254 34.4463C71.2237 34.4463 71.8681 34.4508 71.8681 34.4508L71.9807 34.23C72.0708 34.0497 72.161 33.8694 72.2511 33.6847C72.3142 33.883 72.3773 34.0812 72.4359 34.275L72.5035 34.5093L72.7423 34.5544C72.9541 34.595 73.1704 34.6355 73.3867 34.6761C73.2019 34.8023 73.0217 34.9239 72.8414 35.0411L72.6386 35.1763L72.6657 35.4196C72.6882 35.6224 72.7107 35.8297 72.7288 36.037V36.0325Z" fill="#3A3A3A"/>
<path d="M72.9578 44.8828C72.8451 44.7115 72.7325 44.5403 72.6198 44.3736L72.4801 44.1708C72.4801 44.1708 71.8448 44.2564 71.6465 44.2834C71.7636 44.1302 71.8808 43.977 71.998 43.8238L72.1467 43.621L72.0295 43.4002C71.9394 43.229 71.8448 43.0622 71.7501 42.8955C71.9394 42.9496 72.5567 43.1298 72.5567 43.1298L72.7235 42.9496C72.8587 42.8009 72.9984 42.6522 73.1336 42.499C73.1426 42.7063 73.1471 42.9135 73.1471 43.1208V43.3642L73.3679 43.4723C73.5617 43.5669 73.7599 43.6661 73.9537 43.7652C73.7419 43.8328 73.5346 43.9004 73.3273 43.968L73.093 44.0401L73.0524 44.2789C73.0209 44.4817 72.9848 44.6845 72.9443 44.8873L72.9578 44.8828Z" fill="#3A3A3A"/>
</g>
<path d="M40.3812 21.2031L38.1806 22.5857L38.8127 20.064L36.8184 18.3975L39.411 18.2184L40.3812 15.8082L41.3513 18.2184L43.944 18.3975L41.9496 20.064L42.5851 22.5857L40.3812 21.2031Z" fill="url(#paint6_linear_1832_4171)"/>
<path d="M48.1895 21.5986L46.6785 22.5485L47.1146 20.8178L45.7422 19.6719L47.5236 19.5502L48.1895 17.8939L48.8554 19.5502L50.6368 19.6719L49.2678 20.8178L49.7005 22.5485L48.1895 21.5986Z" fill="url(#paint7_linear_1832_4171)"/>
<path d="M32.5723 21.5986L31.0613 22.5485L31.4974 20.8178L30.125 19.6719L31.9064 19.5502L32.5723 17.8939L33.2382 19.5502L35.0196 19.6719L33.6506 20.8178L34.0833 22.5485L32.5723 21.5986Z" fill="url(#paint8_linear_1832_4171)"/>
<path d="M40.3812 64.4635L38.1806 65.846L38.8127 63.3243L36.8184 61.6578L39.411 61.4787L40.3812 59.0685L41.3513 61.4787L43.944 61.6578L41.9496 63.3243L42.5851 65.846L40.3812 64.4635Z" fill="url(#paint9_linear_1832_4171)"/>
<path d="M48.1895 64.859L46.6785 65.8088L47.1146 64.0781L45.7422 62.9322L47.5236 62.8105L48.1895 61.1542L48.8554 62.8105L50.6368 62.9322L49.2678 64.0781L49.7005 65.8088L48.1895 64.859Z" fill="url(#paint10_linear_1832_4171)"/>
<path d="M32.5723 64.859L31.0613 65.8088L31.4974 64.0781L30.125 62.9322L31.9064 62.8105L32.5723 61.1542L33.2382 62.8105L35.0196 62.9322L33.6506 64.0781L34.0833 65.8088L32.5723 64.859Z" fill="url(#paint11_linear_1832_4171)"/>
<path d="M28.0965 37.72L26.5723 37.7394L26.4483 28.0253L27.9725 28.0059L28.0257 32.1719L29.7598 32.1498L29.7067 27.9837L31.2647 27.9639L31.3887 37.6779L29.8306 37.6978L29.7776 33.5385L28.0434 33.5606L28.0965 37.72ZM33.8666 35.4105C33.8748 36.0518 34.1431 36.3691 34.6714 36.3623C35.1998 36.3556 35.4599 36.0316 35.4517 35.3903L35.3848 30.1471C35.3767 29.5103 35.1085 29.1953 34.5801 29.2021C34.0517 29.2088 33.7916 29.5306 33.7997 30.1673L33.8666 35.4105ZM32.2767 30.2816C32.256 28.6558 33.0179 27.8331 34.5624 27.8134C36.1069 27.7937 36.8895 28.5967 36.9102 30.2225L36.9747 35.276C36.9954 36.9018 36.2336 37.7245 34.6891 37.7442C33.1446 37.7639 32.3619 36.9609 32.3412 35.3351L32.2767 30.2816ZM36.9388 24.4971C36.727 24.8882 36.5159 25.1574 36.3055 25.3046C36.1264 25.4334 35.9037 25.4995 35.6372 25.5029C35.4114 25.5057 35.1464 25.4459 34.8422 25.3233L34.5154 25.1987C34.402 25.1595 34.2979 25.1405 34.2031 25.1417C33.9456 25.145 33.7444 25.3012 33.5993 25.6102L32.8128 25.0375C33.0246 24.6464 33.2357 24.3772 33.4461 24.23C33.6252 24.1057 33.848 24.0419 34.1145 24.0385C34.3403 24.0356 34.6052 24.0932 34.9094 24.2113L35.2362 24.3359C35.3541 24.375 35.4582 24.394 35.5485 24.3929C35.806 24.3896 36.0072 24.2334 36.1523 23.9244L36.9388 24.4971ZM32.5323 27.4802L33.7987 25.838L35.2619 25.8193L36.5697 27.4287L35.1945 27.4462L34.5339 26.6484L33.9075 27.4626L32.5323 27.4802ZM39.6105 27.8574L44.3253 27.7972L44.343 29.1859L42.7511 29.2062L42.8573 37.5316L41.3331 37.5511L41.2269 29.2257L39.6282 29.2461L39.6105 27.8574ZM48.3375 37.4617C48.2859 37.3088 48.2504 37.1782 48.2309 37.0701C48.2061 36.8943 48.1914 36.6279 48.1869 36.2712L48.1674 34.747C48.1569 33.9206 47.8174 33.5116 47.149 33.5201L46.6206 33.5269L46.6711 37.483L45.1469 37.5024L45.023 27.7883L47.3262 27.7589C48.8346 27.7397 49.5983 28.4752 49.6173 29.9655L49.627 30.731C49.6398 31.729 49.314 32.3904 48.6496 32.7151C49.3306 32.9864 49.6781 33.6708 49.6921 34.7682L49.7112 36.2653C49.7179 36.7891 49.7771 37.1813 49.8888 37.4419L48.3375 37.4617ZM46.5649 29.1576L46.603 32.1449L47.1991 32.1373C47.8133 32.1295 48.116 31.7824 48.1073 31.0959L48.0951 30.1408C48.0866 29.4724 47.8226 29.1415 47.3033 29.1481L46.5649 29.1576ZM52.1093 35.1777C52.1175 35.819 52.3858 36.1363 52.9142 36.1296C53.438 36.1229 53.6959 35.7989 53.6877 35.1576L53.6208 29.9144C53.6127 29.2777 53.3467 28.9626 52.8228 28.9693C52.2944 28.976 52.0343 29.2978 52.0424 29.9346L52.1093 35.1777ZM53.6442 38.1189L53.6622 39.5347L52.2464 39.5528L52.2284 38.137L53.6442 38.1189ZM55.1344 29.597C55.145 29.7233 55.1512 29.8543 55.1529 29.9897L55.2174 35.0432C55.2382 36.669 54.4763 37.4918 52.9318 37.5115C51.3828 37.5312 50.5979 36.7282 50.5771 35.1024L50.5127 30.0489C50.4919 28.4232 51.2561 27.6004 52.8051 27.5806C53.4373 27.5725 53.9426 27.7039 54.321 27.9746L54.3091 27.0465L55.6233 27.0297L55.6394 28.2897L55.1344 29.597Z" fill="url(#paint12_linear_1832_4171)"/>
<path d="M35.0347 57.1953L32.6984 57.2251L32.2629 54.5544L29.4223 54.5906L29.055 57.2716L26.9246 57.2988L29.0931 42.5101L32.4895 42.4667L35.0347 57.1953ZM29.6848 52.58L31.9285 52.5514L30.7115 45.104L29.6848 52.58ZM39.1777 48.712L43.3974 48.6581L43.4243 50.768L39.2046 50.8218L39.1777 48.712ZM54.5863 42.1848L54.6127 44.2535L50.3427 54.8898L54.7477 54.8336L54.7746 56.9435L47.9922 57.03L47.9658 54.9613L52.2358 44.325L48.0367 44.3786L48.0097 42.2687L54.5863 42.1848Z" fill="url(#paint13_linear_1832_4171)"/>
</g>
<defs>
<linearGradient id="paint0_linear_1832_4171" x1="75.2109" y1="7.32293" x2="1.71801" y2="77.4902" gradientUnits="userSpaceOnUse">
<stop stop-color="#FFF5A8"/>
<stop offset="0.31" stop-color="#BD8100"/>
<stop offset="0.76" stop-color="#E0BE58"/>
<stop offset="1" stop-color="#F1DC83"/>
</linearGradient>
<radialGradient id="paint1_radial_1832_4171" cx="0" cy="0" r="1" gradientUnits="userSpaceOnUse" gradientTransform="translate(40.0034 40.9398) scale(40.0023)">
<stop offset="0.83" stop-color="#571600"/>
<stop offset="1" stop-color="white" stop-opacity="0"/>
</radialGradient>
<radialGradient id="paint2_radial_1832_4171" cx="0" cy="0" r="1" gradientUnits="userSpaceOnUse" gradientTransform="translate(40.6377 41.2867) scale(36.0593 36.0593)">
<stop stop-color="#FFF5A8"/>
<stop offset="0.72" stop-color="#FFF5A8"/>
</radialGradient>
<linearGradient id="paint3_linear_1832_4171" x1="5.04122" y1="41.2892" x2="76.254" y2="41.2892" gradientUnits="userSpaceOnUse">
<stop stop-color="#FFF5A8"/>
<stop offset="0.31" stop-color="#BD8100"/>
<stop offset="0.76" stop-color="#E0BE58"/>
<stop offset="1" stop-color="#F1DC83"/>
</linearGradient>
<radialGradient id="paint4_radial_1832_4171" cx="0" cy="0" r="1" gradientUnits="userSpaceOnUse" gradientTransform="translate(40.6456 41.287) rotate(14.36) scale(29.1782 29.1782)">
<stop offset="0.86" stop-color="white" stop-opacity="0"/>
<stop offset="1" stop-color="#571600"/>
</radialGradient>
<radialGradient id="paint5_radial_1832_4171" cx="0" cy="0" r="1" gradientUnits="userSpaceOnUse" gradientTransform="translate(8.24454 -1.18053) rotate(-0.0277621) scale(64.7253 65.8223)">
<stop stop-color="#FFC94C"/>
<stop offset="0.14" stop-color="#A2621E"/>
<stop offset="0.16" stop-color="#955A1B"/>
<stop offset="0.25" stop-color="#6E4214"/>
<stop offset="0.34" stop-color="#4C2E0E"/>
<stop offset="1"/>
</radialGradient>
<linearGradient id="paint6_linear_1832_4171" x1="37.665" y1="16.0622" x2="45.5916" y2="26.1737" gradientUnits="userSpaceOnUse">
<stop stop-color="#DDBF5E"/>
<stop offset="0.03" stop-color="#E6CF72"/>
<stop offset="0.09" stop-color="#F3E991"/>
<stop offset="0.14" stop-color="#FBF9A5"/>
<stop offset="0.18" stop-color="#FFFFAC"/>
<stop offset="0.67" stop-color="#D4AE4C"/>
<stop offset="0.69" stop-color="#DDBF60"/>
<stop offset="0.7" stop-color="#ECDB81"/>
<stop offset="0.72" stop-color="#FFFFAC"/>
<stop offset="0.74" stop-color="#F0E48C"/>
<stop offset="0.79" stop-color="#D1A845"/>
<stop offset="0.81" stop-color="#AB8337"/>
<stop offset="0.86" stop-color="#6E4920"/>
<stop offset="0.88" stop-color="#563218"/>
<stop offset="0.9" stop-color="#5A361A"/>
<stop offset="0.92" stop-color="#684521"/>
<stop offset="0.94" stop-color="#7F5D2D"/>
<stop offset="0.96" stop-color="#9F7E3E"/>
<stop offset="0.99" stop-color="#C8A953"/>
<stop offset="1" stop-color="#DDBF5E"/>
</linearGradient>
<linearGradient id="paint7_linear_1832_4171" x1="46.3238" y1="18.0683" x2="51.7674" y2="25.0137" gradientUnits="userSpaceOnUse">
<stop stop-color="#DDBF5E"/>
<stop offset="0.03" stop-color="#E6CF72"/>
<stop offset="0.09" stop-color="#F3E991"/>
<stop offset="0.14" stop-color="#FBF9A5"/>
<stop offset="0.18" stop-color="#FFFFAC"/>
<stop offset="0.67" stop-color="#D4AE4C"/>
<stop offset="0.69" stop-color="#DDBF60"/>
<stop offset="0.7" stop-color="#ECDB81"/>
<stop offset="0.72" stop-color="#FFFFAC"/>
<stop offset="0.74" stop-color="#F0E48C"/>
<stop offset="0.79" stop-color="#D1A845"/>
<stop offset="0.81" stop-color="#AB8337"/>
<stop offset="0.86" stop-color="#6E4920"/>
<stop offset="0.88" stop-color="#563218"/>
<stop offset="0.9" stop-color="#5A361A"/>
<stop offset="0.92" stop-color="#684521"/>
<stop offset="0.94" stop-color="#7F5D2D"/>
<stop offset="0.96" stop-color="#9F7E3E"/>
<stop offset="0.99" stop-color="#C8A953"/>
<stop offset="1" stop-color="#DDBF5E"/>
</linearGradient>
<linearGradient id="paint8_linear_1832_4171" x1="30.7066" y1="18.0683" x2="36.1502" y2="25.0137" gradientUnits="userSpaceOnUse">
<stop stop-color="#DDBF5E"/>
<stop offset="0.03" stop-color="#E6CF72"/>
<stop offset="0.09" stop-color="#F3E991"/>
<stop offset="0.14" stop-color="#FBF9A5"/>
<stop offset="0.18" stop-color="#FFFFAC"/>
<stop offset="0.67" stop-color="#D4AE4C"/>
<stop offset="0.69" stop-color="#DDBF60"/>
<stop offset="0.7" stop-color="#ECDB81"/>
<stop offset="0.72" stop-color="#FFFFAC"/>
<stop offset="0.74" stop-color="#F0E48C"/>
<stop offset="0.79" stop-color="#D1A845"/>
<stop offset="0.81" stop-color="#AB8337"/>
<stop offset="0.86" stop-color="#6E4920"/>
<stop offset="0.88" stop-color="#563218"/>
<stop offset="0.9" stop-color="#5A361A"/>
<stop offset="0.92" stop-color="#684521"/>
<stop offset="0.94" stop-color="#7F5D2D"/>
<stop offset="0.96" stop-color="#9F7E3E"/>
<stop offset="0.99" stop-color="#C8A953"/>
<stop offset="1" stop-color="#DDBF5E"/>
</linearGradient>
<linearGradient id="paint9_linear_1832_4171" x1="37.665" y1="59.3225" x2="45.5916" y2="69.4341" gradientUnits="userSpaceOnUse">
<stop stop-color="#DDBF5E"/>
<stop offset="0.03" stop-color="#E6CF72"/>
<stop offset="0.09" stop-color="#F3E991"/>
<stop offset="0.14" stop-color="#FBF9A5"/>
<stop offset="0.18" stop-color="#FFFFAC"/>
<stop offset="0.67" stop-color="#D4AE4C"/>
<stop offset="0.69" stop-color="#DDBF60"/>
<stop offset="0.7" stop-color="#ECDB81"/>
<stop offset="0.72" stop-color="#FFFFAC"/>
<stop offset="0.74" stop-color="#F0E48C"/>
<stop offset="0.79" stop-color="#D1A845"/>
<stop offset="0.81" stop-color="#AB8337"/>
<stop offset="0.86" stop-color="#6E4920"/>
<stop offset="0.88" stop-color="#563218"/>
<stop offset="0.9" stop-color="#5A361A"/>
<stop offset="0.92" stop-color="#684521"/>
<stop offset="0.94" stop-color="#7F5D2D"/>
<stop offset="0.96" stop-color="#9F7E3E"/>
<stop offset="0.99" stop-color="#C8A953"/>
<stop offset="1" stop-color="#DDBF5E"/>
</linearGradient>
<linearGradient id="paint10_linear_1832_4171" x1="46.3238" y1="61.3286" x2="51.7674" y2="68.274" gradientUnits="userSpaceOnUse">
<stop stop-color="#DDBF5E"/>
<stop offset="0.03" stop-color="#E6CF72"/>
<stop offset="0.09" stop-color="#F3E991"/>
<stop offset="0.14" stop-color="#FBF9A5"/>
<stop offset="0.18" stop-color="#FFFFAC"/>
<stop offset="0.67" stop-color="#D4AE4C"/>
<stop offset="0.69" stop-color="#DDBF60"/>
<stop offset="0.7" stop-color="#ECDB81"/>
<stop offset="0.72" stop-color="#FFFFAC"/>
<stop offset="0.74" stop-color="#F0E48C"/>
<stop offset="0.79" stop-color="#D1A845"/>
<stop offset="0.81" stop-color="#AB8337"/>
<stop offset="0.86" stop-color="#6E4920"/>
<stop offset="0.88" stop-color="#563218"/>
<stop offset="0.9" stop-color="#5A361A"/>
<stop offset="0.92" stop-color="#684521"/>
<stop offset="0.94" stop-color="#7F5D2D"/>
<stop offset="0.96" stop-color="#9F7E3E"/>
<stop offset="0.99" stop-color="#C8A953"/>
<stop offset="1" stop-color="#DDBF5E"/>
</linearGradient>
<linearGradient id="paint11_linear_1832_4171" x1="30.7066" y1="61.3286" x2="36.1502" y2="68.274" gradientUnits="userSpaceOnUse">
<stop stop-color="#DDBF5E"/>
<stop offset="0.03" stop-color="#E6CF72"/>
<stop offset="0.09" stop-color="#F3E991"/>
<stop offset="0.14" stop-color="#FBF9A5"/>
<stop offset="0.18" stop-color="#FFFFAC"/>
<stop offset="0.67" stop-color="#D4AE4C"/>
<stop offset="0.69" stop-color="#DDBF60"/>
<stop offset="0.7" stop-color="#ECDB81"/>
<stop offset="0.72" stop-color="#FFFFAC"/>
<stop offset="0.74" stop-color="#F0E48C"/>
<stop offset="0.79" stop-color="#D1A845"/>
<stop offset="0.81" stop-color="#AB8337"/>
<stop offset="0.86" stop-color="#6E4920"/>
<stop offset="0.88" stop-color="#563218"/>
<stop offset="0.9" stop-color="#5A361A"/>
<stop offset="0.92" stop-color="#684521"/>
<stop offset="0.94" stop-color="#7F5D2D"/>
<stop offset="0.96" stop-color="#9F7E3E"/>
<stop offset="0.99" stop-color="#C8A953"/>
<stop offset="1" stop-color="#DDBF5E"/>
</linearGradient>
<linearGradient id="paint12_linear_1832_4171" x1="29.2585" y1="25.2288" x2="40.9314" y2="54.4592" gradientUnits="userSpaceOnUse">
<stop stop-color="#DDBF5E"/>
<stop offset="0.03" stop-color="#E6CF72"/>
<stop offset="0.09" stop-color="#F3E991"/>
<stop offset="0.14" stop-color="#FBF9A5"/>
<stop offset="0.18" stop-color="#FFFFAC"/>
<stop offset="0.67" stop-color="#D4AE4C"/>
<stop offset="0.69" stop-color="#DDBF60"/>
<stop offset="0.7" stop-color="#ECDB81"/>
<stop offset="0.72" stop-color="#FFFFAC"/>
<stop offset="0.74" stop-color="#F0E48C"/>
<stop offset="0.79" stop-color="#D1A845"/>
<stop offset="0.81" stop-color="#AB8337"/>
<stop offset="0.86" stop-color="#6E4920"/>
<stop offset="0.88" stop-color="#563218"/>
<stop offset="0.9" stop-color="#5A361A"/>
<stop offset="0.92" stop-color="#684521"/>
<stop offset="0.94" stop-color="#7F5D2D"/>
<stop offset="0.96" stop-color="#9F7E3E"/>
<stop offset="0.99" stop-color="#C8A953"/>
<stop offset="1" stop-color="#DDBF5E"/>
</linearGradient>
<linearGradient id="paint13_linear_1832_4171" x1="29.706" y1="38.0862" x2="54.0114" y2="75.8781" gradientUnits="userSpaceOnUse">
<stop stop-color="#DDBF5E"/>
<stop offset="0.03" stop-color="#E6CF72"/>
<stop offset="0.09" stop-color="#F3E991"/>
<stop offset="0.14" stop-color="#FBF9A5"/>
<stop offset="0.18" stop-color="#FFFFAC"/>
<stop offset="0.67" stop-color="#D4AE4C"/>
<stop offset="0.69" stop-color="#DDBF60"/>
<stop offset="0.7" stop-color="#ECDB81"/>
<stop offset="0.72" stop-color="#FFFFAC"/>
<stop offset="0.74" stop-color="#F0E48C"/>
<stop offset="0.79" stop-color="#D1A845"/>
<stop offset="0.81" stop-color="#AB8337"/>
<stop offset="0.86" stop-color="#6E4920"/>
<stop offset="0.88" stop-color="#563218"/>
<stop offset="0.9" stop-color="#5A361A"/>
<stop offset="0.92" stop-color="#684521"/>
<stop offset="0.94" stop-color="#7F5D2D"/>
<stop offset="0.96" stop-color="#9F7E3E"/>
<stop offset="0.99" stop-color="#C8A953"/>
<stop offset="1" stop-color="#DDBF5E"/>
</linearGradient>
<clipPath id="clip0_1832_4171">
<rect width="80" height="80" fill="white" transform="translate(0 0.9375)"/>
</clipPath>
</defs>
</svg>
