<svg width="14" height="15" viewBox="0 0 14 15" fill="none" xmlns="http://www.w3.org/2000/svg">
<path d="M7.00363 0.450195C3.21668 0.450195 0.146484 3.52039 0.146484 7.30734C0.146484 11.0943 3.21668 14.1645 7.00363 14.1645C10.7906 14.1645 13.8608 11.0943 13.8608 7.30734C13.8608 3.52039 10.7906 0.450195 7.00363 0.450195ZM8.97329 10.0107C8.67417 10.3747 8.28476 10.6202 7.83043 10.7444C7.6329 10.798 7.5426 10.9024 7.55389 11.1084C7.56236 11.3116 7.55389 11.5119 7.55107 11.7151C7.55107 11.8957 7.45795 11.9916 7.28017 11.9973C7.16447 12.0001 7.04878 12.0029 6.93308 12.0029C6.83149 12.0029 6.72991 12.0029 6.62832 12.0001C6.43643 11.9973 6.34613 11.8872 6.34613 11.701C6.34331 11.5543 6.34331 11.4047 6.34331 11.258C6.34049 10.9306 6.3292 10.9193 6.01597 10.8685C5.61527 10.8036 5.22021 10.7133 4.85336 10.5356C4.56553 10.3945 4.53449 10.3239 4.61633 10.0192C4.67841 9.79341 4.74049 9.56766 4.81103 9.34473C4.86183 9.18106 4.9098 9.10769 4.99728 9.10769C5.04807 9.10769 5.11297 9.13309 5.20045 9.17824C5.6068 9.38988 6.03855 9.5084 6.49287 9.56483C6.56906 9.5733 6.64525 9.57894 6.72144 9.57894C6.93308 9.57894 7.13908 9.53944 7.33943 9.45196C7.84454 9.23185 7.92356 8.64773 7.49745 8.29781C7.35354 8.1793 7.18705 8.09182 7.01491 8.01563C6.57188 7.82092 6.11192 7.67418 5.69428 7.42303C5.01703 7.01669 4.58811 6.46078 4.6389 5.63679C4.69534 4.70557 5.22303 4.12427 6.07805 3.81386C6.43079 3.68688 6.43361 3.6897 6.43361 3.32286C6.43361 3.1987 6.43079 3.07453 6.43643 2.94755C6.4449 2.67101 6.49005 2.62303 6.76659 2.61457C6.79763 2.61457 6.83149 2.61457 6.86253 2.61457C6.91615 2.61457 6.96976 2.61457 7.02338 2.61457C7.04596 2.61457 7.06853 2.61457 7.08828 2.61457C7.61315 2.61457 7.61315 2.63714 7.61597 3.20434C7.61879 3.62198 7.61879 3.62198 8.03361 3.68688C8.35248 3.73767 8.65442 3.83079 8.9479 3.9606C9.10874 4.03115 9.17082 4.14402 9.12003 4.31616C9.04666 4.57012 8.97611 4.82691 8.8971 5.07806C8.84631 5.23044 8.79834 5.30099 8.70804 5.30099C8.65724 5.30099 8.59516 5.28124 8.51615 5.24173C8.1098 5.0442 7.6837 4.94826 7.23784 4.94826C7.18141 4.94826 7.12215 4.95108 7.06571 4.9539C6.93308 4.96236 6.80327 4.9793 6.67911 5.03291C6.2389 5.2248 6.16835 5.71016 6.54366 6.00928C6.73273 6.16166 6.95001 6.26889 7.17294 6.36201C7.56236 6.52286 7.95178 6.67806 8.32144 6.88124C9.48405 7.53027 9.8001 9.0061 8.97329 10.0107Z" fill="white"/>
</svg>
