<svg width="40" height="41" viewBox="0 0 40 41" fill="none" xmlns="http://www.w3.org/2000/svg">
<rect y="0.9375" width="40" height="40" rx="20" fill="#7C0FD1"/>
<g clip-path="url(#clip0_2496_7117)">
<path d="M28.5801 20.5555L23.3912 14.8416C23.2805 14.7204 23.126 14.6519 22.9622 14.6519H19.503C19.2758 14.6519 19.0694 14.7844 18.976 14.9901C18.8838 15.197 18.9218 15.4381 19.074 15.6049L23.9159 20.9372L19.074 26.2684C18.9218 26.4364 18.8826 26.6775 18.976 26.8832C19.0694 27.09 19.2758 27.2226 19.503 27.2226H22.9622C23.126 27.2226 23.2805 27.1529 23.3912 27.034L28.5801 21.3201C28.7773 21.1029 28.7773 20.7715 28.5801 20.5555Z" fill="white"/>
<path d="M21.084 20.5555L15.8951 14.8416C15.7844 14.7204 15.6299 14.6519 15.4662 14.6519H12.0069C11.7797 14.6519 11.5733 14.7844 11.4799 14.9901C11.3877 15.197 11.4257 15.4381 11.5779 15.6049L16.4198 20.9372L11.5779 26.2684C11.4257 26.4364 11.3865 26.6775 11.4799 26.8832C11.5733 27.09 11.7797 27.2226 12.0069 27.2226H15.4662C15.6299 27.2226 15.7844 27.1529 15.8951 27.034L21.084 21.3201C21.2812 21.1029 21.2812 20.7715 21.084 20.5555Z" fill="white"/>
</g>
<defs>
<clipPath id="clip0_2496_7117">
<rect width="17.2973" height="17.1429" fill="white" transform="translate(11.4297 12.366)"/>
</clipPath>
</defs>
</svg>
