<svg width="25" height="24" viewBox="0 0 25 24" fill="none" xmlns="http://www.w3.org/2000/svg">
<g clip-path="url(#clip0_5801_20208)">
<path d="M1.31445 7.104V14.688H8.03445L15.5225 4.32H4.09845C2.56245 4.32 1.31445 5.568 1.31445 7.104ZM3.23445 7.68C3.23445 7.296 3.52245 7.008 3.90645 7.008H6.69045C7.07445 7.008 7.36245 7.296 7.36245 7.68V10.464C7.36245 10.848 7.07445 11.136 6.69045 11.136H3.90645C3.52245 11.136 3.23445 10.848 3.23445 10.464V7.68Z" fill="#7C0FD1"/>
<path d="M21.5698 4.32H20.3218L21.9538 2.016C22.2418 1.632 22.1458 0.959999 21.7618 0.671999C21.3778 0.383999 20.7058 0.479999 20.4178 0.863999C20.2258 1.152 5.05778 22.08 5.15378 21.984C4.86578 22.368 4.96178 23.04 5.34578 23.328C5.72978 23.616 6.40178 23.52 6.68978 23.136L8.41778 20.736H21.4738C23.0098 20.736 24.2578 19.488 24.2578 17.952V17.856H10.6258L12.8338 14.784H24.3538V7.104C24.3538 5.568 23.1058 4.32 21.5698 4.32Z" fill="#7C0FD1"/>
<path d="M1.31445 17.856C1.31445 19.296 2.37045 20.448 3.71445 20.64L5.82645 17.76H1.31445V17.856Z" fill="#7C0FD1"/>
</g>
<defs>
<clipPath id="clip0_5801_20208">
<rect width="24" height="24" fill="white" transform="translate(0.833984)"/>
</clipPath>
</defs>
</svg>
