<svg width="25" height="24" viewBox="0 0 25 24" fill="none" xmlns="http://www.w3.org/2000/svg">
<rect x="16.168" y="2" width="1.6" height="22" rx="0.8" transform="rotate(30 16.168 2)" fill="#7C0FD1"/>
<path fill-rule="evenodd" clip-rule="evenodd" d="M16.1576 4.75H4.66799C4.21087 4.752 3.76491 4.89137 3.38799 5.15L11.318 11.09C11.5628 11.2749 11.8612 11.375 12.168 11.375C12.2253 11.375 12.2822 11.3715 12.3386 11.3646L16.1576 4.75ZM11.5124 12.7957C11.1188 12.7054 10.7457 12.534 10.418 12.29L2.50799 6.36C2.44735 6.56789 2.41704 6.78345 2.41799 7V17C2.41799 17.5967 2.65504 18.169 3.077 18.591C3.49896 19.0129 4.07125 19.25 4.66799 19.25H7.78603L11.5124 12.7957ZM9.63355 19.25L13.5028 12.5483C13.6474 12.4743 13.7864 12.388 13.918 12.29L21.828 6.36C21.8886 6.56789 21.9189 6.78345 21.918 7V17C21.918 17.5967 21.6809 18.169 21.259 18.591C20.837 19.0129 20.2647 19.25 19.668 19.25H9.63355ZM15.3557 9.33892L18.0051 4.75H19.668C20.1251 4.752 20.5711 4.89137 20.948 5.15L15.3557 9.33892Z" fill="#7C0FD1"/>
</svg>
