<svg width="25" height="24" viewBox="0 0 25 24" fill="none" xmlns="http://www.w3.org/2000/svg">
<g clip-path="url(#clip0_5801_20217)">
<path d="M18.4735 6.015C17.602 6.00924 16.7397 6.19385 15.9469 6.55592C15.1541 6.91799 14.4499 7.4488 13.8835 8.11125L12.9948 9.135L14.9785 11.4262L16.1485 10.0763C16.4357 9.74106 16.7924 9.47247 17.194 9.28919C17.5955 9.10592 18.0321 9.01235 18.4735 9.015C18.8695 9.00872 19.2628 9.08129 19.6304 9.22849C19.9981 9.37568 20.3328 9.59455 20.615 9.87236C20.8973 10.1502 21.1214 10.4813 21.2744 10.8466C21.4274 11.2119 21.5062 11.604 21.5062 12C21.5062 12.396 21.4274 12.7881 21.2744 13.1534C21.1214 13.5187 20.8973 13.8498 20.615 14.1276C20.3328 14.4054 19.9981 14.6243 19.6304 14.7715C19.2628 14.9187 18.8695 14.9913 18.4735 14.985C18.0336 14.9879 17.5983 14.8948 17.198 14.7121C16.7977 14.5295 16.4421 14.2617 16.156 13.9275C11.8113 8.91075 13.8756 11.3025 11.116 8.1075C10.5489 7.4462 9.84447 6.91643 9.05178 6.55506C8.25909 6.19368 7.39717 6.00939 6.52602 6.015C4.9387 6.015 3.41639 6.64556 2.29398 7.76797C1.17158 8.89037 0.541016 10.4127 0.541016 12C0.541016 13.5873 1.17158 15.1096 2.29398 16.232C3.41639 17.3544 4.9387 17.985 6.52602 17.985C7.39756 17.9908 8.25986 17.8062 9.05266 17.4441C9.84546 17.082 10.5496 16.5512 11.116 15.8888L12.0048 14.865L10.021 12.5737L8.85102 13.9238C8.56386 14.2589 8.20709 14.5275 7.80556 14.7108C7.40404 14.8941 6.96739 14.9877 6.52602 14.985C6.13004 14.9913 5.73677 14.9187 5.36911 14.7715C5.00146 14.6243 4.66676 14.4054 4.38452 14.1276C4.10227 13.8498 3.87812 13.5187 3.72512 13.1534C3.57212 12.7881 3.49332 12.396 3.49332 12C3.49332 11.604 3.57212 11.2119 3.72512 10.8466C3.87812 10.4813 4.10227 10.1502 4.38452 9.87236C4.66676 9.59455 5.00146 9.37568 5.36911 9.22849C5.73677 9.08129 6.13004 9.00872 6.52602 9.015C6.96597 9.01209 7.40127 9.10521 7.80154 9.28785C8.2018 9.4705 8.5574 9.73827 8.84352 10.0725C13.1883 15.0893 11.1239 12.6975 13.8835 15.8925C14.5338 16.6672 15.3691 17.2652 16.3119 17.6313C17.2548 17.9974 18.2748 18.1197 19.2774 17.9869C20.2801 17.8541 21.2331 17.4705 22.0481 16.8716C22.8632 16.2726 23.5139 15.4778 23.9402 14.5605C24.3664 13.6433 24.5543 12.6333 24.4866 11.6242C24.4188 10.615 24.0975 9.63926 23.5525 8.78724C23.0074 7.93522 22.2562 7.23449 21.3684 6.7499C20.4807 6.26532 19.485 6.01255 18.4735 6.015Z" fill="#7C0FD1"/>
</g>
<defs>
<clipPath id="clip0_5801_20217">
<rect width="24" height="24" fill="white" transform="translate(0.5)"/>
</clipPath>
</defs>
</svg>
