<svg width="20" height="20" viewBox="0 0 20 20" fill="none" xmlns="http://www.w3.org/2000/svg">
<g id="dollar (1) 1" clip-path="url(#clip0_1841_5829)">
<g id="Currency">
<g id="Dollar">
<g id="Coin">
<g id="Bottom">
<path id="Vector" d="M10.5 20.3228C15.7855 20.3228 20.0703 15.8456 20.0703 10.3228C20.0703 4.79991 15.7855 0.322754 10.5 0.322754C5.21446 0.322754 0.929688 4.79991 0.929688 10.3228C0.929688 15.8456 5.21446 20.3228 10.5 20.3228Z" fill="#E88102"/>
<path id="Vector_2" d="M10.5 19.2681C15.7316 19.2681 19.9727 15.027 19.9727 9.79541C19.9727 4.56381 15.7316 0.322754 10.5 0.322754C5.2684 0.322754 1.02734 4.56381 1.02734 9.79541C1.02734 15.027 5.2684 19.2681 10.5 19.2681Z" fill="#FDD835"/>
</g>
<g id="Shade">
<path id="Vector_3" opacity="0.5" d="M14.2812 1.10791L1.8125 13.5728C1.39453 12.6157 1.13281 11.5767 1.05469 10.4868L11.1914 0.346191C12.2812 0.428223 13.3203 0.689941 14.2812 1.10791Z" fill="white"/>
<path id="Vector_4" opacity="0.5" d="M18.7539 5.14697L5.85156 18.0493C5.04687 17.5962 4.32031 17.0298 3.68359 16.3696L17.0781 2.979C17.7344 3.61182 18.3008 4.34229 18.7539 5.14697Z" fill="white"/>
<path id="Vector_5" opacity="0.5" d="M16.6914 2.62354L3.33203 15.9829C3.125 15.7407 2.92578 15.4868 2.74219 15.2251L15.9336 2.03369C16.1953 2.21729 16.4492 2.4165 16.6914 2.62354Z" fill="white"/>
<path id="Vector_6" opacity="0.5" d="M19.6758 7.43213L8.13672 18.9712C7.78906 18.8813 7.44922 18.772 7.11719 18.647L19.3516 6.4126C19.4766 6.74463 19.5859 7.08447 19.6758 7.43213Z" fill="white"/>
<path id="Vector_7" opacity="0.5" d="M19.9727 9.79541C19.9727 9.86182 19.9727 9.92432 19.9688 9.99072C19.8672 4.8501 15.668 0.713379 10.5 0.713379C5.33203 0.713379 1.13281 4.8501 1.03125 9.99072C1.03125 9.92432 1.02734 9.86182 1.02734 9.79541C1.02734 4.56494 5.26953 0.322754 10.5 0.322754C15.7305 0.322754 19.9727 4.56494 19.9727 9.79541Z" fill="white"/>
<path id="Vector_8" opacity="0.5" d="M18.1953 10.2056C18.1953 14.3032 14.8711 17.6274 10.7734 17.6274C8.47266 17.6274 6.41406 16.5767 5.05078 14.9321C6.40625 16.397 8.34375 17.3149 10.5 17.3149C14.5977 17.3149 17.9219 13.9907 17.9219 9.89307C17.9219 8.09619 17.2852 6.45166 16.2227 5.1665C17.4453 6.49072 18.1953 8.26025 18.1953 10.2056Z" fill="white"/>
</g>
<g id="Top">
<path id="Vector_9" d="M10.5 17.3149C14.599 17.3149 17.9219 13.9921 17.9219 9.89307C17.9219 5.79408 14.599 2.47119 10.5 2.47119C6.40101 2.47119 3.07812 5.79408 3.07812 9.89307C3.07812 13.9921 6.40101 17.3149 10.5 17.3149Z" fill="#F39E09"/>
<path id="Vector_10" d="M16.125 5.04932C14.8242 3.92822 13.1328 3.25244 11.2812 3.25244C7.18359 3.25244 3.85938 6.57666 3.85938 10.6743C3.85938 12.5259 4.53516 14.2173 5.65625 15.5181C4.07812 14.1548 3.07812 12.1431 3.07812 9.89307C3.07812 5.79541 6.40234 2.47119 10.5 2.47119C12.7461 2.47119 14.7617 3.47119 16.125 5.04932Z" fill="#E88102"/>
</g>
</g>
<g id="Icon">
<path id="Bottom-2" d="M10.0352 8.00244C9.90234 8.15479 9.83203 8.36572 9.83203 8.63525C9.83203 8.90479 9.91016 9.12744 10.0664 9.2876C10.2227 9.44775 10.4727 9.6001 10.8164 9.74854C11.1602 9.89307 11.4844 10.0454 11.7891 10.2017C12.0938 10.3579 12.3555 10.5376 12.5781 10.7368C12.8008 10.936 12.9727 11.1704 13.0977 11.436C13.1445 11.5376 13.2852 11.729 13.2852 11.729C13.2852 11.729 13.2852 12.3774 13.2852 12.397C13.2852 13.0298 13.0859 13.5454 12.6836 13.9438C12.2812 14.3423 11.7383 14.5767 11.0469 14.6431V15.7524H10.1641V14.6313C9.35938 14.5454 8.74219 14.272 8.30859 13.8032C7.87891 13.3345 7.66406 12.7212 7.66406 11.9556V11.3696L9.53125 11.9556C9.53125 12.3774 9.625 12.6978 9.8125 12.9165C10 13.1353 10.2656 13.2446 10.6094 13.2446C10.8594 13.2446 11.0586 13.1704 11.2031 13.0181C11.3477 12.8657 11.418 12.6626 11.418 12.4009C11.418 12.1079 11.3477 11.8813 11.2031 11.7134C11.0586 11.5454 10.8047 11.3892 10.4453 11.2407C10.082 11.0923 9.75 10.9438 9.44141 10.7915C9.13281 10.6392 8.87109 10.4634 8.64844 10.2642C8.42578 10.0649 8.25781 9.83447 8.13672 9.57275C8.01953 9.31104 7.96094 8.99463 7.96094 8.61963V7.99854C7.96094 7.99854 8.30859 7.34619 8.59375 7.07666C9.01563 6.67041 9.57813 6.43604 10.2773 6.36963V5.20557H11.1602V6.39697C11.8359 6.49854 12.3672 6.77588 12.7539 7.23291C13.0195 7.54541 13.332 8.38525 13.332 8.38525V8.97119H11.457C11.457 8.58838 11.3828 8.2915 11.2344 8.08447C11.0859 7.87744 10.875 7.77588 10.6016 7.77588C10.3594 7.77197 10.1719 7.8501 10.0352 8.00244Z" fill="#DB6704"/>
<path id="Top-2" d="M11.418 11.8188C11.418 11.5259 11.3477 11.2993 11.2031 11.1313C11.0586 10.9634 10.8047 10.8071 10.4453 10.6587C10.082 10.5103 9.75 10.3618 9.44141 10.2095C9.13281 10.0571 8.87109 9.88135 8.64844 9.68213C8.42578 9.48291 8.25781 9.25244 8.13672 8.99072C8.01953 8.729 7.96094 8.40869 7.96094 8.0376C7.96094 7.4126 8.17187 6.89697 8.59375 6.49463C9.01562 6.09229 9.57812 5.854 10.2773 5.7876V4.61963H11.1602V5.81104C11.8359 5.9126 12.3672 6.18994 12.7539 6.64697C13.1406 7.104 13.332 7.68213 13.332 8.38525H11.457C11.457 8.00244 11.3828 7.70557 11.2344 7.49854C11.0859 7.2915 10.875 7.18994 10.6016 7.18994C10.3594 7.18994 10.168 7.26807 10.0352 7.42041C9.90234 7.57275 9.83203 7.78369 9.83203 8.05322C9.83203 8.32275 9.91016 8.54541 10.0664 8.70557C10.2227 8.86572 10.4727 9.01807 10.8125 9.1665C11.1562 9.31104 11.4805 9.46338 11.7852 9.61963C12.0898 9.77588 12.3516 9.95557 12.5742 10.1548C12.7969 10.354 12.9687 10.5884 13.0937 10.854C13.2187 11.1196 13.2813 11.4399 13.2813 11.811C13.2813 12.4438 13.082 12.9595 12.6797 13.3579C12.2773 13.7563 11.7344 13.9907 11.043 14.0571V15.1665H10.1602V14.0454C9.35547 13.9595 8.73828 13.686 8.30469 13.2173C7.875 12.7485 7.66016 12.1353 7.66016 11.3696H9.52734C9.52734 11.7915 9.62109 12.1118 9.80859 12.3306C9.99609 12.5493 10.2617 12.6587 10.6055 12.6587C10.8555 12.6587 11.0547 12.5845 11.1992 12.4321C11.3437 12.2798 11.418 12.0806 11.418 11.8188Z" fill="#FDD835"/>
<g id="Shade-2">
<path id="Vector_11" opacity="0.5" d="M8.59375 6.49463C8.82031 6.27588 9.08984 6.10791 9.39844 5.98682L8.07422 7.31494C8.17578 7.00244 8.34766 6.73291 8.59375 6.49463Z" fill="white"/>
<path id="Vector_12" opacity="0.5" d="M10.7656 4.61963L10.2773 5.10791V4.61963H10.7656Z" fill="white"/>
<path id="Vector_13" opacity="0.5" d="M13.082 10.8188L9.89062 14.0103C9.21875 13.897 8.69141 13.6313 8.3125 13.2212C8.06641 12.9517 7.89062 12.6353 7.78516 12.272L8.68359 11.3735H9.53516C9.53516 11.7954 9.62891 12.1157 9.81641 12.3345C10.0039 12.5532 10.2695 12.6626 10.6133 12.6626C10.8633 12.6626 11.0625 12.5884 11.207 12.436C11.3516 12.2837 11.4219 12.0806 11.4219 11.8188C11.4219 11.5259 11.3516 11.2993 11.207 11.1313C11.0625 10.9634 10.8086 10.8071 10.4492 10.6587C10.1914 10.5532 9.94922 10.4478 9.71875 10.3384L10.875 9.18213C11.1992 9.32275 11.5039 9.46338 11.793 9.61182C12.0977 9.76807 12.3594 9.94775 12.582 10.147C12.793 10.3423 12.9609 10.5649 13.082 10.8188Z" fill="white"/>
<path id="Vector_14" opacity="0.5" d="M13.332 8.38135H11.6719L13.0195 7.03369C13.2266 7.4165 13.332 7.86572 13.332 8.38135Z" fill="white"/>
<path id="Vector_15" opacity="0.5" d="M7.66797 11.3696H7.94531L7.67969 11.6353C7.67188 11.5493 7.66797 11.4595 7.66797 11.3696Z" fill="white"/>
<path id="Vector_16" opacity="0.5" d="M10.0664 8.70166C10.1445 8.78369 10.2461 8.86182 10.375 8.93994L9.21875 10.0962C9.00391 9.9751 8.8125 9.83838 8.64844 9.68604C8.58203 9.62744 8.52344 9.56494 8.46875 9.50244L9.83984 8.13135C9.85156 8.36572 9.92969 8.55713 10.0664 8.70166Z" fill="white"/>
<path id="Vector_17" opacity="0.5" d="M12.7148 6.6001L11.4102 7.90479C11.375 7.74463 11.3164 7.60791 11.2383 7.49854C11.1211 7.33447 10.9648 7.23682 10.7695 7.20166L11.9375 6.03369C12.2383 6.17041 12.4961 6.35791 12.7148 6.6001Z" fill="white"/>
<path id="Vector_18" opacity="0.5" d="M10.5938 15.1665L11.0469 14.7134V15.1665H10.5938Z" fill="white"/>
<path id="Vector_19" opacity="0.5" d="M13.1641 12.5962C13.0664 12.8853 12.9063 13.1353 12.6875 13.354C12.4688 13.5728 12.207 13.7407 11.9023 13.8579L13.1641 12.5962Z" fill="white"/>
<path id="Vector_20" opacity="0.25" d="M16.6914 5.79541C11.8867 7.48291 8.02734 11.1899 6.13672 15.897C5.97266 15.7759 5.8125 15.6509 5.65625 15.5142C4.53516 14.2134 3.85938 12.522 3.85938 10.6743C3.85938 6.57666 7.18359 3.25244 11.2812 3.25244C13.1328 3.25244 14.8242 3.92822 16.1211 5.04932C16.3281 5.2876 16.5156 5.5376 16.6914 5.79541Z" fill="white"/>
</g>
</g>
</g>
</g>
</g>
<defs>
<clipPath id="clip0_1841_5829">
<rect width="20" height="20" fill="white" transform="translate(0.5 0.322754)"/>
</clipPath>
</defs>
</svg>
