<svg width="16" height="13" viewBox="0 0 16 13" fill="none" xmlns="http://www.w3.org/2000/svg">
<path d="M13.6474 2.69083C13.9074 2.95083 13.9074 3.36416 13.6474 3.62416L6.08745 11.1842C5.82745 11.4442 5.41411 11.4442 5.15411 11.1842L2.35411 8.38416C2.09411 8.12416 2.09411 7.71083 2.35411 7.45083C2.61411 7.19083 3.02745 7.19083 3.28745 7.45083L5.62078 9.78416L12.7141 2.69083C12.9741 2.43083 13.3874 2.43083 13.6474 2.69083ZM12.2408 1.2775L5.62078 7.8975L3.76078 6.0375C3.24078 5.5175 2.39411 5.5175 1.87411 6.0375L0.940781 6.97083C0.420781 7.49083 0.420781 8.3375 0.940781 8.8575L4.67411 12.5908C5.19411 13.1108 6.04078 13.1108 6.56078 12.5908L15.0608 4.0975C15.5808 3.5775 15.5808 2.73083 15.0608 2.21083L14.1274 1.2775C13.6008 0.757497 12.7608 0.757497 12.2408 1.2775Z" fill="#41C588"/>
<path d="M13.6474 2.69083C13.9074 2.95083 13.9074 3.36416 13.6474 3.62416L6.08745 11.1842C5.82745 11.4442 5.41411 11.4442 5.15411 11.1842L2.35411 8.38416C2.09411 8.12416 2.09411 7.71083 2.35411 7.45083C2.61411 7.19083 3.02745 7.19083 3.28745 7.45083L5.62078 9.78416L12.7141 2.69083C12.9741 2.43083 13.3874 2.43083 13.6474 2.69083Z" fill="#41C588"/>
</svg>
