<svg width="60" height="60" viewBox="0 0 60 60" fill="none" xmlns="http://www.w3.org/2000/svg">
<g clip-path="url(#clip0_56_3142)">
<path d="M30 60C46.5685 60 60 46.5685 60 30C60 13.4315 46.5685 0 30 0C13.4315 0 0 13.4315 0 30C0 46.5685 13.4315 60 30 60Z" fill="#4CAF50"/>
<path d="M29.9904 11C26.4905 11.0013 23.059 11.9696 20.0745 13.798C17.09 15.6263 14.6685 18.2437 13.0772 21.3614C11.4859 24.479 10.7866 27.9757 11.0566 31.4656C11.3266 34.9555 12.5553 38.303 14.6071 41.1388L12.2324 48.1973L19.5417 45.8603C22.0145 47.4916 24.8344 48.5219 27.7762 48.8691C30.7181 49.2163 33.7003 48.8706 36.4848 47.8597C39.2693 46.8487 41.7788 45.2006 43.8129 43.0469C45.847 40.8932 47.3494 38.2936 48.2 35.4557C49.0506 32.6179 49.2258 29.6204 48.7117 26.7027C48.1977 23.7851 47.0085 21.0281 45.2393 18.6519C43.47 16.2758 41.1697 14.3463 38.522 13.0177C35.8743 11.6891 32.9527 10.9981 29.9904 11ZM40.0877 37.8708L38.0644 39.8943C35.9367 42.0223 30.2944 39.6805 25.2933 34.6693C20.2921 29.658 18.0504 24.0293 20.0737 21.925L22.0969 19.9015C22.4887 19.5413 23.0014 19.3414 23.5336 19.3414C24.0658 19.3414 24.5785 19.5413 24.9703 19.9015L27.9529 22.875C28.1961 23.1115 28.3746 23.4064 28.4711 23.7317C28.5676 24.0569 28.579 24.4014 28.5041 24.7323C28.4293 25.0632 28.2707 25.3693 28.0436 25.6213C27.8166 25.8733 27.5286 26.0628 27.2073 26.1715C26.7333 26.323 26.3359 26.6514 26.0979 27.0885C25.86 27.5256 25.7997 28.0376 25.9297 28.518C26.4616 30.7505 29.335 33.5198 31.4675 34.0518C31.9453 34.152 32.4432 34.0766 32.8698 33.8392C33.2964 33.6019 33.6231 33.2186 33.7899 32.7598C33.8974 32.4337 34.0876 32.1412 34.3419 31.9106C34.5962 31.6801 34.9059 31.5194 35.2408 31.4442C35.5758 31.3691 35.9244 31.3821 36.2528 31.482C36.5812 31.5818 36.8781 31.7651 37.1145 32.014L40.0924 34.997C40.4519 35.3894 40.6509 35.9026 40.65 36.4348C40.6491 36.967 40.4484 37.4795 40.0877 37.8708Z" fill="white"/>
</g>
<defs>
<clipPath id="clip0_56_3142">
<rect width="60" height="60" fill="white"/>
</clipPath>
</defs>
</svg>
