<svg width="25" height="24" viewBox="0 0 25 24" fill="none" xmlns="http://www.w3.org/2000/svg">
<path fill-rule="evenodd" clip-rule="evenodd" d="M6.66986 18.6567C6.92795 18.2108 7.41046 17.9104 7.96246 17.9104C8.51446 17.9104 8.99678 18.2108 9.25505 18.6567H22.1414C22.5534 18.6567 22.8878 18.9911 22.8878 19.4029C22.8878 19.8148 22.5534 20.1492 22.1414 20.1492H9.25505C8.99678 20.5952 8.51446 20.8956 7.96246 20.8956C7.41046 20.8956 6.92795 20.5952 6.66986 20.1492H2.73852C2.32658 20.1492 1.99219 19.8148 1.99219 19.4029C1.99219 18.9911 2.32658 18.6567 2.73852 18.6567H6.66986ZM22.8878 5.22391C22.8878 3.98738 21.8855 2.98511 20.649 2.98511C17.0348 2.98511 7.84532 2.98511 4.23099 2.98511C2.99464 2.98511 1.99219 3.98738 1.99219 5.22391V14.1791C1.99219 15.4155 2.99464 16.4179 4.23099 16.4179H20.649C21.8855 16.4179 22.8878 15.4155 22.8878 14.1791V5.22391ZM14.3803 10.2985C14.5682 10.1575 14.6789 9.93633 14.6789 9.70152C14.6789 9.46654 14.5682 9.24535 14.3803 9.10439L11.3952 6.86558C11.1691 6.69597 10.8666 6.66875 10.6137 6.7952C10.3608 6.92164 10.2013 7.17991 10.2013 7.46272V11.9403C10.2013 12.223 10.3608 12.4814 10.6137 12.6077C10.8666 12.7341 11.1691 12.7069 11.3952 12.5373L14.3803 10.2985Z" fill="#7C0FD1"/>
</svg>
