<?xml version="1.0" encoding="iso-8859-1"?>
<!-- Uploaded to: SVG Repo, www.svgrepo.com, Generator: SVG Repo Mixer Tools -->
<svg fill="#7C0FD1" height="800px" width="800px" version="1.1" id="Layer_1" xmlns="http://www.w3.org/2000/svg" xmlns:xlink="http://www.w3.org/1999/xlink" 
	 viewBox="0 0 512 512" xml:space="preserve">
<g>
	<g>
		<path d="M395.13,306.087c-9.206,0-16.696,7.49-16.696,16.696c0,9.206,7.49,16.696,16.696,16.696s16.696-7.49,16.696-16.696
			C411.826,313.577,404.336,306.087,395.13,306.087z"/>
	</g>
</g>
<g>
	<g>
		<path d="M261.565,172.522c-9.206,0-16.696,7.49-16.696,16.696s7.49,16.696,16.696,16.696c9.206,0,16.696-7.49,16.696-16.696
			S270.771,172.522,261.565,172.522z"/>
	</g>
</g>
<g>
	<g>
		<path d="M495.304,72.348H144.696v50.087c0,9.217-7.479,16.696-16.696,16.696s-16.696-7.479-16.696-16.696V72.348H16.696
			C7.479,72.348,0,79.826,0,89.044v333.913c0,9.217,7.479,16.696,16.696,16.696h94.609v-50.087c0-9.217,7.479-16.696,16.696-16.696
			s16.696,7.479,16.696,16.696v50.087h350.609c9.217,0,16.696-7.479,16.696-16.696V89.044C512,79.826,504.521,72.348,495.304,72.348
			z M144.696,322.783c0,9.217-7.479,16.696-16.696,16.696s-16.696-7.479-16.696-16.696v-33.391c0-9.217,7.479-16.696,16.696-16.696
			s16.696,7.479,16.696,16.696V322.783z M144.696,222.609c0,9.217-7.479,16.696-16.696,16.696s-16.696-7.479-16.696-16.696v-33.391
			c0-9.217,7.479-16.696,16.696-16.696s16.696,7.479,16.696,16.696V222.609z M211.478,189.217c0-27.619,22.468-50.087,50.087-50.087
			c27.619,0,50.087,22.468,50.087,50.087c0,27.619-22.468,50.087-50.087,50.087C233.946,239.304,211.478,216.836,211.478,189.217z
			 M257.512,343.544c-4.271,0-8.544-1.631-11.804-4.892c-6.521-6.521-6.521-17.087,0-23.609L387.37,173.37
			c6.521-6.522,17.086-6.522,23.608,0c6.521,6.521,6.521,17.087,0,23.609L269.315,338.652
			C266.054,341.914,261.782,343.544,257.512,343.544z M395.13,372.87c-27.619,0-50.087-22.468-50.087-50.087
			c0-27.619,22.468-50.087,50.087-50.087s50.087,22.468,50.087,50.087C445.217,350.402,422.75,372.87,395.13,372.87z"/>
	</g>
</g>
</svg>