<svg width="25" height="24" viewBox="0 0 25 24" fill="none" xmlns="http://www.w3.org/2000/svg">
<g clip-path="url(#clip0_3804_19896)">
<path d="M24.2314 9.79968C24.0003 8.52186 22.8298 7.40905 21.5487 7.20796C20.9605 7.11093 19.3719 6.99889 18.0097 6.95624C18.0355 7.41046 18.0486 7.87874 18.0495 8.36249V8.36483C18.0495 9.70264 17.9516 10.9083 17.7547 12.0497V12.0548V12.0595C17.5934 12.9501 17.1172 13.8108 16.4136 14.4872C15.7189 15.1551 14.8475 15.6 13.9583 15.7406C13.1431 15.8747 10.9227 16.0158 9.35469 16.0397L9.34766 16.0509C9.36266 16.1489 9.37813 16.2436 9.39453 16.3322C9.62609 17.61 10.7966 18.7228 12.0772 18.9234C12.8511 19.0514 15.3538 19.2047 16.797 19.192L18.4466 21.8123C18.5184 21.9262 18.6178 22.02 18.7357 22.0851C18.8536 22.1501 18.986 22.1842 19.1206 22.1842C19.2552 22.1842 19.3877 22.1501 19.5055 22.0851C19.6234 22.02 19.7229 21.9262 19.7947 21.8123L21.6228 18.9108C22.8758 18.6811 24.0083 17.5865 24.2352 16.3326C24.3683 15.5597 24.4934 14.5045 24.4953 13.0641C24.4972 11.6236 24.3645 10.5722 24.2314 9.79968Z" fill="#7C0FD1"/>
<path d="M16.6447 4.87077C16.3972 3.50437 15.1447 2.31468 13.7759 2.09952C12.9453 1.96218 10.2509 1.79765 8.71016 1.81218C7.16984 1.79765 4.47547 1.96218 3.64484 2.09952C2.27516 2.31468 1.02312 3.50577 0.776094 4.87077C0.633594 5.69718 0.5 6.82499 0.5 8.36624C0.5 9.90749 0.633594 11.0348 0.776094 11.8594C1.01891 13.2005 2.22922 14.3714 3.56938 14.617L5.52313 17.7201C5.59992 17.8419 5.7063 17.9421 5.83232 18.0116C5.95834 18.0811 6.09991 18.1176 6.24383 18.1176C6.38774 18.1176 6.52931 18.0811 6.65534 18.0116C6.78136 17.9421 6.88773 17.8419 6.96453 17.7201L8.72891 14.918C10.2725 14.9311 12.9477 14.7675 13.7759 14.6306C15.1456 14.4155 16.3972 13.2244 16.6447 11.8594C16.7853 11.033 16.9212 9.90515 16.9231 8.36437C16.925 6.82358 16.7872 5.69718 16.6447 4.87077ZM9.5075 10.177C9.50981 10.28 9.49156 10.3823 9.45382 10.4781C9.41609 10.574 9.35962 10.6613 9.28773 10.735C9.21585 10.8087 9.12998 10.8674 9.03515 10.9075C8.94032 10.9476 8.83844 10.9685 8.73547 10.9687C7.36891 10.955 6.0025 10.9245 4.63625 10.8773C4.42418 10.8657 4.22351 10.7776 4.0714 10.6293C3.91929 10.4811 3.82604 10.2828 3.80891 10.0711C3.78359 9.64218 4.12156 9.30374 4.55891 9.31358C5.94391 9.34483 7.32922 9.3653 8.71484 9.37499C8.92594 9.37782 9.12748 9.46348 9.27601 9.6135C9.42455 9.76353 9.50819 9.96591 9.50891 10.177H9.5075ZM12.7147 7.50515C9.98906 7.52015 7.26328 7.50952 4.53734 7.47327C4.09859 7.46671 3.73297 7.11327 3.72594 6.68437C3.71891 6.25546 4.07516 5.90858 4.51578 5.90905C7.25172 5.91499 9.98766 5.91687 12.7236 5.91468C12.8279 5.91406 12.9313 5.93411 13.0278 5.97368C13.1243 6.01325 13.212 6.07155 13.2858 6.14521C13.3596 6.21887 13.4181 6.30643 13.4579 6.40283C13.4977 6.49924 13.518 6.60257 13.5177 6.70687C13.5153 6.91889 13.4299 7.12153 13.2798 7.27125C13.1296 7.42096 12.9267 7.50578 12.7147 7.50749V7.50515Z" fill="#2686EC"/>
</g>
<defs>
<clipPath id="clip0_3804_19896">
<rect width="24" height="24" fill="white" transform="translate(0.5)"/>
</clipPath>
</defs>
</svg>
