<svg width="24" height="24" viewBox="0 0 24 24" fill="none" xmlns="http://www.w3.org/2000/svg">
<path d="M17.2333 15.328C17.0671 14.1985 16.5015 13.166 15.6392 12.4178C14.7769 11.6696 13.675 11.2553 12.5333 11.25H11.4693C10.3277 11.2553 9.22576 11.6696 8.36344 12.4178C7.50113 13.166 6.93556 14.1985 6.76933 15.328L6.25933 18.894C6.24304 19.0093 6.25381 19.1267 6.29078 19.2371C6.32775 19.3475 6.38991 19.4478 6.47233 19.53C6.67233 19.73 7.89933 20.75 12.0023 20.75C16.1053 20.75 17.3293 19.734 17.5323 19.53C17.6148 19.4478 17.6769 19.3475 17.7139 19.2371C17.7509 19.1267 17.7616 19.0093 17.7453 18.894L17.2333 15.328Z" fill="#F41E92"/>
<path d="M7.56083 11.8C6.59436 12.691 5.96553 13.8886 5.78083 15.19L5.41083 17.75C2.44083 17.73 1.54083 16.65 1.39083 16.43C1.33285 16.3501 1.29147 16.2593 1.26914 16.1632C1.24681 16.067 1.24399 15.9673 1.26083 15.87L1.48083 14.63C1.59545 13.982 1.86465 13.3711 2.2656 12.8492C2.66655 12.3274 3.18743 11.9099 3.78408 11.6322C4.38072 11.3544 5.03553 11.2247 5.69299 11.2539C6.35045 11.2831 6.99117 11.4705 7.56083 11.8Z" fill="#F41E92"/>
<path d="M22.7395 15.87C22.7563 15.9673 22.7535 16.067 22.7311 16.1632C22.7088 16.2593 22.6674 16.3501 22.6095 16.43C22.4595 16.65 21.5595 17.73 18.5895 17.75L18.2195 15.19C18.0348 13.8886 17.4059 12.691 16.4395 11.8C17.0091 11.4705 17.6498 11.2831 18.3073 11.2539C18.9647 11.2247 19.6196 11.3544 20.2162 11.6322C20.8128 11.9099 21.3337 12.3274 21.7347 12.8492C22.1356 13.3711 22.4048 13.982 22.5195 14.63L22.7395 15.87Z" fill="#F41E92"/>
<path d="M7.73 9.6C7.47828 9.957 7.14411 10.248 6.75587 10.4482C6.36764 10.6484 5.93681 10.7519 5.5 10.75C5.06426 10.75 4.63475 10.6465 4.24688 10.4479C3.85901 10.2493 3.52387 9.96145 3.26908 9.60795C3.0143 9.25446 2.84717 8.84548 2.78145 8.41472C2.71574 7.98396 2.75333 7.54376 2.89112 7.13037C3.02892 6.71699 3.26297 6.34227 3.574 6.03709C3.88502 5.73191 4.26412 5.50501 4.68004 5.37509C5.09596 5.24516 5.5368 5.21594 5.96624 5.28981C6.39567 5.36369 6.80141 5.53855 7.15 5.8C7.04974 6.1921 6.99934 6.59528 7 7C7.00076 7.91715 7.25327 8.81649 7.73 9.6Z" fill="#F41E92"/>
<path d="M21.2495 8C21.2498 8.36121 21.1788 8.71893 21.0407 9.05269C20.9026 9.38646 20.7001 9.68972 20.4447 9.94513C20.1892 10.2005 19.886 10.4031 19.5522 10.5412C19.2185 10.6793 18.8607 10.7503 18.4995 10.75C18.0627 10.7519 17.6319 10.6484 17.2437 10.4482C16.8554 10.248 16.5213 9.957 16.2695 9.6C16.7463 8.81649 16.9988 7.91715 16.9995 7C17.0002 6.59529 16.9498 6.1921 16.8495 5.8C17.2581 5.49358 17.7439 5.30698 18.2526 5.26111C18.7612 5.21525 19.2726 5.31193 19.7294 5.54033C20.1862 5.76872 20.5703 6.11981 20.8388 6.55424C21.1073 6.98867 21.2495 7.48929 21.2495 8Z" fill="#F41E92"/>
<path d="M12 10.75C14.0711 10.75 15.75 9.07107 15.75 7C15.75 4.92893 14.0711 3.25 12 3.25C9.92893 3.25 8.25 4.92893 8.25 7C8.25 9.07107 9.92893 10.75 12 10.75Z" fill="#F41E92"/>
</svg>
