<?xml version="1.0" encoding="iso-8859-1"?>
<!-- Uploaded to: SVG Repo, www.svgrepo.com, Generator: SVG Repo Mixer Tools -->
<svg height="800px" width="800px" version="1.1" id="Layer_1" xmlns="http://www.w3.org/2000/svg" xmlns:xlink="http://www.w3.org/1999/xlink" 
	 viewBox="0 0 512 512" xml:space="preserve">
<g>
	<path style="fill:#7C0FD1;" d="M310.586,238.358c1.795,5.558,2.764,11.487,2.764,17.642c0,31.674-25.675,57.35-57.349,57.35
		s-57.349-25.675-57.349-57.35c0-31.673,25.675-57.35,57.349-57.35c15.724,0,29.971,6.329,40.332,16.578"/>
	<path style="fill:#7C0FD1;" d="M490.981,216.217h-21.79c-2.059-11.112-4.97-21.923-8.654-32.37l18.855-10.886
		c6.185-3.572,8.305-11.482,4.735-17.669l-26.848-46.503c-3.572-6.187-11.482-8.306-17.67-4.734l-18.897,10.912
		c-7.276-8.487-15.192-16.404-23.68-23.678l10.911-18.899c3.572-6.186,1.453-14.097-4.735-17.669l-46.5-26.847
		c-6.187-3.572-14.097-1.453-17.67,4.734l-10.887,18.855c-10.446-3.685-21.257-6.596-32.368-8.655V21.019
		c0-7.143-5.792-12.935-12.935-12.935h-53.696c-7.143,0-12.935,5.792-12.935,12.935v21.789c-11.112,2.061-21.922,4.97-32.368,8.655
		l-10.887-18.855c-3.571-6.186-11.482-8.306-17.67-4.734l-46.5,26.848c-6.187,3.571-8.307,11.483-4.735,17.669l10.912,18.898
		c-8.488,7.274-16.404,15.191-23.678,23.678l-18.899-10.91c-6.185-3.571-14.097-1.452-17.669,4.735l-26.846,46.503
		c-3.572,6.186-1.453,14.098,4.733,17.669l18.855,10.886c-3.684,10.447-6.596,21.258-8.654,32.369H21.019
		c-7.143,0.001-12.935,5.792-12.935,12.936v53.694c0,7.145,5.792,12.935,12.935,12.935h21.79c2.059,11.112,4.97,21.924,8.654,32.37
		l-18.855,10.885c-6.185,3.572-8.305,11.484-4.733,17.669l26.846,46.504c3.572,6.187,11.484,8.305,17.669,4.735l18.899-10.911
		c7.274,8.486,15.19,16.404,23.676,23.678l-10.909,18.897c-3.571,6.187-1.453,14.099,4.735,17.67l46.501,26.848
		c6.187,3.572,14.099,1.453,17.67-4.735l10.887-18.852c10.446,3.684,21.257,6.593,32.368,8.654v21.787
		c0,7.143,5.792,12.935,12.935,12.935h53.696c7.143,0,12.935-5.792,12.935-12.935v-21.79c11.112-2.061,21.922-4.97,32.37-8.654
		l10.885,18.852c3.573,6.187,11.482,8.307,17.67,4.735l46.501-26.848c6.187-3.571,8.307-11.482,4.735-17.668l-10.909-18.899
		c8.486-7.274,16.404-15.192,23.678-23.678l18.897,10.911c6.187,3.571,14.097,1.451,17.67-4.735l26.848-46.504
		c3.571-6.185,1.451-14.097-4.735-17.668l-18.855-10.887c3.684-10.446,6.596-21.259,8.654-32.37h21.789
		c7.143,0,12.935-5.789,12.935-12.935v-53.694C503.916,222.008,498.124,216.217,490.981,216.217z M373.899,329.333l-16.017,20.954
		c-25.385,27.409-61.664,44.592-101.88,44.592c-76.579,0-138.88-62.301-138.88-138.88s62.301-138.88,138.88-138.88
		S394.88,179.421,394.88,256C394.88,282.901,387.193,308.039,373.899,329.333z"/>
</g>
<path style="fill:#7C0FD1;" d="M256,427.217c-94.408,0-171.217-76.809-171.217-171.217c0-94.41,76.809-171.217,171.217-171.217
	c94.411,0,171.217,76.808,171.217,171.217C427.217,350.408,350.411,427.217,256,427.217z M373.899,329.333
	c13.294-21.295,20.981-46.432,20.981-73.333c0-76.579-62.301-138.88-138.88-138.88S117.12,179.421,117.12,256
	S179.421,394.88,256,394.88c40.216,0,76.496-17.184,101.88-44.592"/>
<g style="opacity:0.1;">
	<path style="fill:#7C0FD1;" d="M486.985,217.567h-21.79c-2.059-11.112-4.97-21.923-8.654-32.37l18.855-10.886
		c6.185-3.572,8.305-11.482,4.735-17.669l-26.848-46.503c-3.573-6.187-11.482-8.306-17.67-4.734l-18.897,10.91
		c-7.276-8.487-15.192-16.404-23.68-23.678l10.911-18.899c3.573-6.186,1.453-14.097-4.734-17.669l-46.501-26.848
		c-6.187-3.572-14.097-1.453-17.67,4.734L324.155,52.81c-10.446-3.685-21.257-6.596-32.368-8.655V22.368
		c0-0.106-0.013-0.207-0.016-0.312c-53.48,23.46-96.167,66.956-118.564,120.998c22.403-15.494,49.557-24.586,78.798-24.586
		c76.579,0,138.88,62.301,138.88,138.881c0,26.9-7.688,52.038-20.981,73.332l-16.017,20.954
		c-25.385,27.409-61.664,44.592-101.88,44.592c-8.836,0-17.476-0.839-25.859-2.424c40.713,38.896,95.882,62.785,156.632,62.785
		c6.7,0,13.328-0.308,19.881-0.877c3.384-4.046,4.08-9.924,1.288-14.755l-10.909-18.899c8.486-7.274,16.404-15.192,23.678-23.678
		l18.897,10.912c6.187,3.571,14.097,1.451,17.67-4.735l26.848-46.504c3.571-6.185,1.451-14.097-4.735-17.668l-18.855-10.887
		c3.684-10.447,6.596-21.259,8.654-32.37h21.79c7.143,0,12.935-5.789,12.935-12.935V230.5
		C499.92,223.357,494.129,217.567,486.985,217.567z"/>
</g>
<path style="fill:#7C0FD1;" d="M228.551,255.999c0-0.899,0.027-1.791,0.068-2.68c0.013-0.272,0.031-0.541,0.047-0.812
	c0.038-0.633,0.086-1.263,0.144-1.89c0.026-0.289,0.054-0.577,0.085-0.863c0.073-0.68,0.16-1.355,0.257-2.028
	c0.029-0.196,0.053-0.395,0.082-0.59c0.134-0.861,0.287-1.716,0.458-2.564c0.039-0.193,0.085-0.384,0.126-0.576
	c0.14-0.661,0.291-1.318,0.455-1.97c0.067-0.267,0.137-0.532,0.207-0.798c0.161-0.607,0.333-1.208,0.514-1.807
	c0.071-0.236,0.139-0.472,0.212-0.707c0.038-0.119,0.069-0.239,0.108-0.357l0.029-0.046c2.856-8.814,7.78-16.693,14.211-23.062
	l0.015-0.022c0.296-0.294,0.609-0.575,0.914-0.862c0.322-0.305,0.639-0.615,0.968-0.913c0.342-0.309,0.696-0.605,1.047-0.907
	c0.343-0.296,0.682-0.598,1.034-0.887c0.354-0.29,0.718-0.565,1.078-0.847c0.36-0.282,0.717-0.57,1.084-0.844
	c0.368-0.274,0.746-0.531,1.119-0.797c0.376-0.265,0.744-0.537,1.125-0.793c0.377-0.252,0.764-0.49,1.147-0.735
	c0.391-0.25,0.778-0.507,1.177-0.748c0.383-0.232,0.778-0.448,1.167-0.672c0.41-0.234,0.814-0.475,1.229-0.701
	c0.395-0.213,0.8-0.41,1.2-0.614c0.421-0.216,0.838-0.438,1.265-0.644c0.411-0.197,0.83-0.376,1.245-0.563
	c0.428-0.194,0.854-0.395,1.287-0.578c0.421-0.178,0.853-0.336,1.281-0.504c0.438-0.172,0.874-0.354,1.318-0.515
	c0.435-0.158,0.88-0.299,1.32-0.447c0.444-0.15,0.884-0.309,1.334-0.448c0.455-0.141,0.921-0.262,1.381-0.392
	c0.443-0.125,0.882-0.26,1.33-0.375c0.476-0.123,0.963-0.223,1.444-0.333c0.44-0.101,0.876-0.212,1.32-0.303
	c0.245-0.05,0.49-0.089,0.737-0.132c-0.261-0.045-0.52-0.094-0.781-0.14c-0.432-0.075-0.861-0.163-1.297-0.23
	c-0.545-0.083-1.098-0.142-1.651-0.21c-0.402-0.05-0.801-0.111-1.205-0.152c-0.636-0.065-1.278-0.102-1.918-0.147
	c-0.33-0.023-0.654-0.057-0.985-0.074c-0.974-0.049-1.954-0.074-2.942-0.074c-0.985,0-1.966,0.025-2.942,0.074
	c-0.33,0.017-0.654,0.052-0.983,0.074c-0.641,0.043-1.284,0.082-1.918,0.147c-0.405,0.041-0.804,0.102-1.206,0.152
	c-0.552,0.068-1.105,0.127-1.652,0.21c-0.435,0.067-0.863,0.154-1.295,0.23c-0.508,0.089-1.016,0.169-1.52,0.272
	c-0.444,0.091-0.88,0.202-1.32,0.303c-0.482,0.11-0.967,0.21-1.444,0.333c-0.448,0.114-0.887,0.249-1.33,0.375
	c-0.461,0.13-0.926,0.251-1.381,0.392c-0.451,0.139-0.89,0.298-1.334,0.448c-0.44,0.149-0.884,0.288-1.32,0.447
	c-0.444,0.162-0.88,0.343-1.318,0.515c-0.428,0.168-0.859,0.327-1.281,0.504c-0.433,0.183-0.859,0.384-1.287,0.578
	c-0.416,0.186-0.834,0.365-1.245,0.563c-0.427,0.205-0.844,0.428-1.265,0.644c-0.4,0.204-0.805,0.401-1.2,0.614
	c-0.415,0.224-0.819,0.467-1.229,0.701c-0.389,0.223-0.784,0.44-1.167,0.672c-0.399,0.241-0.786,0.498-1.177,0.748
	c-0.383,0.245-0.771,0.482-1.147,0.735c-0.382,0.257-0.749,0.528-1.125,0.793c-0.374,0.265-0.751,0.523-1.119,0.797
	c-0.368,0.274-0.724,0.562-1.084,0.844c-0.36,0.281-0.724,0.557-1.078,0.847c-0.351,0.289-0.691,0.591-1.034,0.887
	c-0.349,0.302-0.704,0.597-1.047,0.907c-0.33,0.298-0.647,0.608-0.968,0.913c-0.304,0.289-0.617,0.568-0.914,0.862l-0.015,0.022
	c-6.431,6.368-11.355,14.248-14.211,23.062l-0.029,0.046c-0.038,0.117-0.069,0.238-0.108,0.357
	c-0.073,0.235-0.142,0.472-0.212,0.707c-0.181,0.598-0.352,1.201-0.514,1.807c-0.07,0.265-0.141,0.53-0.207,0.798
	c-0.163,0.652-0.315,1.31-0.455,1.97c-0.041,0.192-0.087,0.383-0.126,0.576c-0.171,0.848-0.324,1.703-0.458,2.564
	c-0.029,0.196-0.053,0.393-0.082,0.59c-0.097,0.673-0.183,1.348-0.257,2.028c-0.031,0.287-0.059,0.575-0.085,0.863
	c-0.058,0.626-0.107,1.258-0.144,1.89c-0.016,0.271-0.034,0.54-0.047,0.812c-0.041,0.889-0.068,1.781-0.068,2.68
	c0,31.675,25.675,57.35,57.349,57.35c3.686,0,7.287-0.362,10.779-1.027C248.605,307.279,228.551,283.988,228.551,255.999z"/>
<g>
	<path style="fill:#7C0FD1;" d="M490.981,208.133h-15.17c-1.504-6.932-3.346-13.82-5.506-20.59l13.13-7.581
		c10.035-5.795,13.487-18.673,7.694-28.712l-26.848-46.503c-3.745-6.484-10.723-10.511-18.214-10.511
		c-3.673,0-7.304,0.974-10.498,2.819l-13.174,7.607c-4.777-5.246-9.813-10.283-15.055-15.054l7.607-13.174
		c2.807-4.862,3.554-10.527,2.1-15.95c-1.453-5.423-4.931-9.955-9.794-12.762L360.75,20.873c-3.194-1.843-6.824-2.819-10.498-2.819
		c-7.491,0-14.471,4.027-18.214,10.512l-7.581,13.129c-6.766-2.159-13.653-4-20.589-5.506v-15.17C303.868,9.429,294.439,0,282.849,0
		h-53.696c-11.59,0-21.019,9.429-21.019,21.019v15.17c-6.936,1.506-13.822,3.347-20.589,5.506l-7.58-13.128
		c-3.744-6.485-10.722-10.513-18.215-10.513c-3.673,0-7.304,0.974-10.498,2.819l-46.5,26.847c-4.863,2.808-8.342,7.34-9.795,12.763
		c-1.454,5.423-0.707,11.088,2.1,15.95l7.607,13.174c-5.242,4.772-10.278,9.808-15.054,15.054l-13.176-7.606
		c-3.193-1.843-6.822-2.818-10.497-2.818c-7.491,0-14.472,4.027-18.215,10.512l-26.847,46.5c-2.807,4.862-3.554,10.527-2.101,15.95
		c1.453,5.423,4.93,9.955,9.793,12.763l13.13,7.58c-2.16,6.771-4.002,13.658-5.506,20.59H21.018C9.428,208.134,0,217.562,0,229.152
		v53.694c0,11.59,9.429,21.019,21.019,21.019h15.17c1.505,6.933,3.346,13.821,5.506,20.591l-13.131,7.58
		c-10.037,5.797-13.487,18.678-7.691,28.712l26.846,46.504c3.745,6.485,10.723,10.512,18.215,10.512
		c3.673,0,7.303-0.974,10.497-2.818l13.176-7.608c4.775,5.246,9.81,10.282,15.052,15.054l-7.607,13.175
		c-2.806,4.863-3.552,10.527-2.099,15.95c1.454,5.424,4.931,9.957,9.794,12.762l46.501,26.848c3.194,1.844,6.824,2.819,10.498,2.819
		c7.494,0,14.474-4.028,18.214-10.513l7.58-13.128c6.766,2.158,13.654,4,20.59,5.505v15.171c0,11.59,9.429,21.019,21.019,21.019
		h53.696c11.59,0,21.019-9.429,21.019-21.019V475.81c6.936-1.505,13.823-3.348,20.59-5.505l7.579,13.128
		c3.745,6.485,10.723,10.513,18.214,10.513c3.675,0,7.304-0.974,10.498-2.819l46.5-26.847c4.863-2.807,8.341-7.339,9.795-12.762
		c1.454-5.424,0.707-11.088-2.1-15.95l-7.606-13.175c5.244-4.775,10.279-9.81,15.054-15.054l13.175,7.608
		c3.194,1.842,6.822,2.815,10.495,2.815c7.491,0,14.471-4.026,18.215-10.511l26.848-46.504c5.795-10.038,2.343-22.917-7.694-28.711
		l-13.13-7.581c2.16-6.769,4.002-13.658,5.506-20.591h15.176c11.59,0,21.019-9.429,21.019-21.019v-53.694
		C512,217.562,502.571,208.133,490.981,208.133z M495.832,282.847c0,2.675-2.176,4.851-4.851,4.851h-21.79
		c-3.897,0-7.239,2.78-7.948,6.612c-1.952,10.536-4.756,21.018-8.33,31.154c-1.295,3.67,0.21,7.744,3.582,9.689l18.855,10.887
		c2.315,1.337,3.113,4.308,1.776,6.625l-26.847,46.503c-0.866,1.498-2.48,2.427-4.215,2.427c-0.853,0-1.664-0.219-2.412-0.651
		l-18.897-10.912c-3.373-1.949-7.651-1.215-10.18,1.74c-6.984,8.148-14.655,15.818-22.801,22.801
		c-2.954,2.532-3.685,6.809-1.74,10.18l10.91,18.9c0.648,1.121,0.819,2.427,0.484,3.679c-0.336,1.25-1.138,2.296-2.261,2.945
		l-46.501,26.848c-0.749,0.432-1.562,0.652-2.413,0.652c-1.733,0-3.347-0.93-4.212-2.428l-10.885-18.852
		c-1.948-3.372-6.02-4.875-9.689-3.582c-10.13,3.571-20.612,6.375-31.157,8.33c-3.831,0.71-6.61,4.053-6.61,7.948v21.79
		c0,2.674-2.176,4.851-4.851,4.851h-53.696c-2.675,0-4.851-2.176-4.851-4.851v-21.79c0-3.896-2.779-7.238-6.61-7.948
		c-10.546-1.956-21.029-4.759-31.154-8.33c-0.884-0.311-1.791-0.461-2.686-0.461c-2.822,0-5.525,1.484-7.003,4.043l-10.888,18.853
		c-0.863,1.497-2.477,2.427-4.211,2.427c-0.852,0-1.664-0.22-2.413-0.652l-46.503-26.849c-1.122-0.648-1.923-1.692-2.259-2.943
		c-0.335-1.253-0.163-2.56,0.484-3.682l10.909-18.897c1.946-3.371,1.215-7.649-1.74-10.18c-8.142-6.979-15.813-14.65-22.799-22.801
		c-2.533-2.954-6.811-3.689-10.18-1.74l-18.902,10.909c-0.748,0.432-1.561,0.652-2.412,0.652c-1.734,0-3.349-0.93-4.213-2.427
		l-26.847-46.504c-1.337-2.315-0.54-5.287,1.774-6.625l18.856-10.885c3.371-1.947,4.876-6.019,3.582-9.689
		c-3.574-10.137-6.378-20.619-8.331-31.154c-0.709-3.832-4.052-6.612-7.948-6.612h-21.79c-2.675,0-4.851-2.175-4.851-4.851v-53.694
		c0-2.674,2.175-4.851,4.851-4.851h21.79c3.897,0,7.239-2.78,7.948-6.611c1.953-10.534,4.755-21.016,8.331-31.154
		c1.295-3.671-0.21-7.744-3.582-9.689l-18.855-10.886c-1.121-0.648-1.923-1.693-2.259-2.945c-0.334-1.251-0.163-2.559,0.485-3.681
		l26.846-46.501c0.864-1.498,2.479-2.427,4.213-2.427c0.852,0,1.663,0.219,2.412,0.651l18.899,10.912
		c3.372,1.946,7.65,1.213,10.18-1.74c6.987-8.152,14.658-15.823,22.8-22.8c2.956-2.533,3.687-6.811,1.741-10.181l-10.91-18.902
		c-0.648-1.122-0.82-2.428-0.485-3.68c0.336-1.251,1.138-2.297,2.261-2.945l46.501-26.848c0.749-0.432,1.562-0.652,2.413-0.652
		c1.734,0,3.348,0.93,4.212,2.427l10.887,18.855c1.948,3.372,6.02,4.877,9.69,3.582c10.127-3.572,20.608-6.376,31.152-8.33
		c3.832-0.71,6.611-4.053,6.611-7.949v-21.79c0-2.674,2.175-4.851,4.851-4.851h53.696c2.674,0,4.851,2.176,4.851,4.851v21.789
		c0,3.897,2.779,7.238,6.611,7.949c10.544,1.955,21.025,4.758,31.152,8.33c3.67,1.296,7.744-0.21,9.69-3.582l10.887-18.855
		c0.878-1.521,2.452-2.427,4.212-2.427c0.852,0,1.664,0.22,2.413,0.652l46.501,26.848c1.123,0.649,1.925,1.694,2.261,2.945
		c0.335,1.251,0.163,2.558-0.485,3.68l-10.912,18.899c-1.947,3.371-1.215,7.649,1.741,10.181
		c8.14,6.975,15.812,14.646,22.802,22.801c2.532,2.953,6.809,3.685,10.18,1.74l18.897-10.912c0.749-0.432,1.562-0.652,2.413-0.652
		c1.733,0,3.348,0.93,4.212,2.427l26.847,46.501c1.337,2.316,0.541,5.289-1.774,6.626l-18.855,10.886
		c-3.372,1.947-4.876,6.018-3.582,9.689c3.575,10.138,6.378,20.62,8.33,31.154c0.709,3.832,4.052,6.612,7.948,6.612h21.791
		c2.674,0,4.851,2.176,4.851,4.851V282.847z"/>
	<path style="fill:#7C0FD1;" d="M256,76.699c-98.868,0-179.301,80.435-179.301,179.301S157.132,435.301,256,435.301
		S435.301,354.867,435.301,256C435.301,157.132,354.868,76.699,256,76.699z M256,419.133c-89.951,0-163.133-73.18-163.133-163.133
		S166.049,92.867,256,92.867S419.133,166.048,419.133,256S345.951,419.133,256,419.133z"/>
	<path style="fill:#7C0FD1;" d="M256,109.036c-81.037,0-146.964,65.927-146.964,146.964c0,81.036,65.927,146.964,146.964,146.964
		c40.744,0,80.04-17.198,107.812-47.183c3.033-3.276,2.838-8.39-0.438-11.426c-3.276-3.032-8.39-2.838-11.426,0.438
		c-24.721,26.693-59.695,42.002-95.95,42.002c-72.121,0-130.796-58.675-130.796-130.796s58.675-130.796,130.796-130.796
		S386.796,183.879,386.796,256c0,24.473-6.831,48.35-19.755,69.052c-2.364,3.788-1.21,8.775,2.577,11.139
		c3.788,2.365,8.775,1.21,11.139-2.577c14.528-23.273,22.207-50.111,22.207-77.614C402.964,174.963,337.037,109.036,256,109.036z"/>
	<path style="fill:#7C0FD1;" d="M256,206.734c13.058,0,25.362,5.057,34.647,14.241c3.173,3.14,8.292,3.113,11.432-0.063
		c3.14-3.174,3.112-8.292-0.063-11.432c-12.331-12.197-28.674-18.915-46.016-18.915c-36.08,0-65.434,29.354-65.434,65.435
		S219.92,321.435,256,321.435s65.434-29.353,65.434-65.435c0-6.872-1.062-13.643-3.156-20.126
		c-1.372-4.249-5.931-6.581-10.176-5.209c-4.248,1.372-6.581,5.928-5.208,10.177c1.575,4.876,2.372,9.976,2.372,15.158
		c0,27.165-22.1,49.266-49.265,49.266S206.735,283.165,206.735,256C206.735,228.835,228.835,206.734,256,206.734z"/>
</g>
</svg>