<svg width="16" height="16" viewBox="0 0 16 16" fill="none" xmlns="http://www.w3.org/2000/svg">
<g clip-path="url(#clip0_2353_88819)">
<path d="M13.5885 0.0507604C13.3395 -0.0523961 13.0526 0.00457279 12.8619 0.195292L12 1.0572L11.1381 0.195292C10.8778 -0.0650524 10.4556 -0.0650524 10.1953 0.195292L9.33333 1.0572L8.47142 0.195292C8.21111 -0.0650524 7.78898 -0.0650524 7.52864 0.195292L6.66667 1.0572L5.80476 0.195292C5.54444 -0.0650524 5.12232 -0.0650524 4.86197 0.195292L4 1.0572L3.1381 0.195292C2.94747 0.00457279 2.66069 -0.0523961 2.41156 0.0507604C2.16244 0.153979 2 0.397042 2 0.666668V15.3333C2 15.7015 2.2985 16 2.66666 16H13.3333C13.7015 16 14 15.7015 14 15.3333V0.666668C14 0.397042 13.8376 0.153979 13.5885 0.0507604ZM9.33333 13.3334H5.33332C4.96513 13.3334 4.66666 13.0348 4.66666 12.6667C4.66666 12.2985 4.96516 12.0001 5.33332 12.0001H9.33333C9.70152 12.0001 9.99998 12.2985 9.99998 12.6667C9.99998 13.0348 9.70148 13.3334 9.33333 13.3334ZM10.6666 10.6667H5.33332C4.96513 10.6667 4.66666 10.3682 4.66666 10.0001C4.66666 9.63184 4.96516 9.3334 5.33332 9.3334H10.6666C11.0348 9.3334 11.3333 9.63184 11.3333 10.0001C11.3333 10.3682 11.0348 10.6667 10.6666 10.6667ZM4.66666 7.33337C4.66666 6.96515 4.96516 6.66671 5.33332 6.66671H9.33333C9.70152 6.66671 9.99998 6.96515 9.99998 7.33337C9.99998 7.70149 9.70148 8.00003 9.33333 8.00003H5.33332C4.96516 8.00006 4.66666 7.70153 4.66666 7.33337ZM10.6666 5.3334H5.33332C4.96513 5.3334 4.66666 5.03486 4.66666 4.66674C4.66666 4.29852 4.96516 4.00008 5.33332 4.00008H10.6666C11.0348 4.00008 11.3333 4.29852 11.3333 4.66674C11.3333 5.03486 11.0349 5.3334 10.6666 5.3334Z" fill="#7C0FD1"/>
</g>
<defs>
<clipPath id="clip0_2353_88819">
<rect width="16" height="16" fill="white"/>
</clipPath>
</defs>
</svg>
