<svg width="16" height="16" viewBox="0 0 16 16" fill="none" xmlns="http://www.w3.org/2000/svg">
<g clip-path="url(#clip0_2148_62763)">
<path d="M15.8825 1.32335L15.0824 0.523422C14.9264 0.367294 14.6732 0.367172 14.5171 0.523178C14.517 0.5233 14.5169 0.5233 14.5169 0.523422L9.7168 5.32335C9.64185 5.39843 9.59961 5.50011 9.59961 5.60619V6.40624C9.59961 6.62707 9.77869 6.80614 9.99963 6.80614H10.7997C10.9058 6.80614 11.0074 6.76403 11.0824 6.68908L15.8825 1.88902C16.0386 1.7329 16.0387 1.47984 15.8827 1.32359C15.8826 1.32359 15.8825 1.32347 15.8825 1.32335Z" fill="#7C0FD1"/>
<path d="M10.8001 7.60621H10C9.33753 7.60547 8.80067 7.06861 8.79994 6.40625V5.6062C8.7992 5.28785 8.92579 4.9823 9.1515 4.75782L11.9031 2.00623H2C0.895875 2.00745 0.0012207 2.9021 0 4.00623V11.2062C0.0012207 12.3103 0.895875 13.2051 2 13.2062H5.59998V15.2062C5.59998 15.4271 5.77906 15.6062 6.00001 15.6062C6.08655 15.6062 6.17078 15.5781 6.24 15.5261L9.33375 13.2062H13.2C14.3041 13.205 15.1989 12.3102 15.2 11.2062V3.70313L11.6484 7.25464C11.4238 7.48047 11.1184 7.60694 10.8001 7.60621ZM2.80005 4.40625H6.80006C7.02088 4.40625 7.19996 4.58533 7.19996 4.80628C7.19996 5.0271 7.02088 5.20618 6.80006 5.20618H2.80005C2.5791 5.20618 2.40003 5.02723 2.40003 4.80628C2.40003 4.58533 2.5791 4.40625 2.80005 4.40625ZM2.80005 6.80616H6.80006C7.02088 6.80616 7.19996 6.98523 7.19996 7.20618C7.19996 7.42713 7.02088 7.60621 6.80006 7.60621H2.80005C2.5791 7.60621 2.40003 7.42713 2.40003 7.20618C2.40003 6.98536 2.5791 6.80616 2.80005 6.80616ZM12.7999 9.60621C12.7999 9.82716 12.6209 10.0062 12.4 10.0062H2.80005C2.5791 10.0062 2.40003 9.82716 2.40003 9.60621C2.40003 9.38538 2.5791 9.20618 2.80005 9.20618H12.4C12.6209 9.20618 12.7999 9.38526 12.7999 9.60621Z" fill="#7C0FD1"/>
</g>
<defs>
<clipPath id="clip0_2148_62763">
<rect width="16" height="16" fill="white"/>
</clipPath>
</defs>
</svg>
