<svg width="16" height="16" viewBox="0 0 16 16" fill="none" xmlns="http://www.w3.org/2000/svg">
<g clip-path="url(#clip0_2801_9654)">
<path d="M12.0742 11.0625C12.2565 11.0623 12.4312 10.9898 12.5601 10.8609C12.689 10.732 12.7615 10.5573 12.7617 10.375V8.875C12.7617 8.69266 12.6893 8.5178 12.5604 8.38886C12.4314 8.25993 12.2566 8.1875 12.0742 8.1875C11.8919 8.1875 11.717 8.25993 11.5881 8.38886C11.4592 8.5178 11.3867 8.69266 11.3867 8.875V10.375C11.3869 10.5573 11.4594 10.732 11.5883 10.8609C11.7172 10.9898 11.8919 11.0623 12.0742 11.0625Z" fill="#7C0FD1"/>
<path d="M0 14.3125C0.00151567 14.7596 0.179792 15.1879 0.495932 15.5041C0.812071 15.8202 1.24041 15.9985 1.6875 16H14.3125C14.7596 15.9985 15.1879 15.8202 15.5041 15.5041C15.8202 15.1879 15.9985 14.7596 16 14.3125V3.75H0V14.3125ZM10.5125 8.875C10.5125 8.4606 10.6771 8.06317 10.9701 7.77015C11.2632 7.47712 11.6606 7.3125 12.075 7.3125C12.4894 7.3125 12.8868 7.47712 13.1799 7.77015C13.4729 8.06317 13.6375 8.4606 13.6375 8.875V10.375C13.6375 10.7894 13.4729 11.1868 13.1799 11.4799C12.8868 11.7729 12.4894 11.9375 12.075 11.9375C11.6606 11.9375 11.2632 11.7729 10.9701 11.4799C10.6771 11.1868 10.5125 10.7894 10.5125 10.375V8.875ZM6.4375 8.5C6.43786 8.18517 6.56309 7.88333 6.78571 7.66071C7.00833 7.43809 7.31017 7.31286 7.625 7.3125H9.125C9.24103 7.3125 9.35231 7.35859 9.43436 7.44064C9.51641 7.52269 9.5625 7.63397 9.5625 7.75C9.5625 7.86603 9.51641 7.97731 9.43436 8.05936C9.35231 8.14141 9.24103 8.1875 9.125 8.1875H7.625C7.54212 8.1875 7.46263 8.22042 7.40403 8.27903C7.34542 8.33763 7.3125 8.41712 7.3125 8.5V9.1875H9.125C9.24103 9.1875 9.35231 9.23359 9.43436 9.31564C9.51641 9.39769 9.5625 9.50897 9.5625 9.625C9.5625 9.74103 9.51641 9.85231 9.43436 9.93436C9.35231 10.0164 9.24103 10.0625 9.125 10.0625H7.3125V10.75C7.3125 10.8329 7.34542 10.9124 7.40403 10.971C7.46263 11.0296 7.54212 11.0625 7.625 11.0625H9.125C9.24103 11.0625 9.35231 11.1086 9.43436 11.1906C9.51641 11.2727 9.5625 11.384 9.5625 11.5C9.5625 11.616 9.51641 11.7273 9.43436 11.8094C9.35231 11.8914 9.24103 11.9375 9.125 11.9375H7.625C7.31017 11.9371 7.00833 11.8119 6.78571 11.5893C6.56309 11.3667 6.43786 11.0648 6.4375 10.75V8.5ZM4.1125 10.0625H3.7375C3.37283 10.0625 3.02309 9.91763 2.76523 9.65977C2.50737 9.40191 2.3625 9.05217 2.3625 8.6875C2.3625 8.32283 2.50737 7.97309 2.76523 7.71523C3.02309 7.45737 3.37283 7.3125 3.7375 7.3125H4.3C4.61483 7.31286 4.91667 7.43809 5.13929 7.66071C5.36191 7.88333 5.48714 8.18517 5.4875 8.5C5.4875 8.61603 5.44141 8.72731 5.35936 8.80936C5.27731 8.89141 5.16603 8.9375 5.05 8.9375C4.93397 8.9375 4.82269 8.89141 4.74064 8.80936C4.65859 8.72731 4.6125 8.61603 4.6125 8.5C4.6125 8.41712 4.57958 8.33763 4.52097 8.27903C4.46237 8.22042 4.38288 8.1875 4.3 8.1875H3.7375C3.60489 8.1875 3.47771 8.24018 3.38395 8.33395C3.29018 8.42771 3.2375 8.55489 3.2375 8.6875C3.2375 8.82011 3.29018 8.94729 3.38395 9.04105C3.47771 9.13482 3.60489 9.1875 3.7375 9.1875H4.1125C4.47717 9.1875 4.82691 9.33237 5.08477 9.59023C5.34263 9.84809 5.4875 10.1978 5.4875 10.5625C5.4875 10.9272 5.34263 11.2769 5.08477 11.5348C4.82691 11.7926 4.47717 11.9375 4.1125 11.9375H3.55C3.23517 11.9371 2.93333 11.8119 2.71071 11.5893C2.48809 11.3667 2.36286 11.0648 2.3625 10.75C2.3625 10.6925 2.37382 10.6357 2.3958 10.5826C2.41779 10.5295 2.45002 10.4813 2.49064 10.4406C2.53127 10.4 2.5795 10.3678 2.63258 10.3458C2.68566 10.3238 2.74255 10.3125 2.8 10.3125C2.85745 10.3125 2.91434 10.3238 2.96742 10.3458C3.0205 10.3678 3.06873 10.4 3.10936 10.4406C3.14998 10.4813 3.18221 10.5295 3.2042 10.5826C3.22618 10.6357 3.2375 10.6925 3.2375 10.75C3.2375 10.8329 3.27042 10.9124 3.32903 10.971C3.38763 11.0296 3.46712 11.0625 3.55 11.0625H4.1125C4.24511 11.0625 4.37229 11.0098 4.46605 10.9161C4.55982 10.8223 4.6125 10.6951 4.6125 10.5625C4.6125 10.4299 4.55982 10.3027 4.46605 10.2089C4.37229 10.1152 4.24511 10.0625 4.1125 10.0625Z" fill="#7C0FD1"/>
<path d="M14.3125 0H1.6875C1.24035 0.00131903 0.811897 0.179532 0.495714 0.495714C0.179532 0.811897 0.00131903 1.24035 0 1.6875L0 3.375H16V1.6875C15.9987 1.24035 15.8205 0.811897 15.5043 0.495714C15.1881 0.179532 14.7596 0.00131903 14.3125 0ZM1.9375 2.3125C1.86333 2.3125 1.79083 2.29051 1.72916 2.2493C1.66749 2.2081 1.61943 2.14953 1.59105 2.08101C1.56266 2.01248 1.55524 1.93708 1.56971 1.86434C1.58417 1.7916 1.61989 1.72478 1.67233 1.67233C1.72478 1.61989 1.7916 1.58417 1.86434 1.56971C1.93708 1.55524 2.01248 1.56266 2.08101 1.59105C2.14953 1.61943 2.2081 1.66749 2.2493 1.72916C2.29051 1.79083 2.3125 1.86333 2.3125 1.9375C2.3125 2.03696 2.27299 2.13234 2.20267 2.20267C2.13234 2.27299 2.03696 2.3125 1.9375 2.3125ZM3.9375 2.3125C3.86333 2.3125 3.79083 2.29051 3.72916 2.2493C3.66749 2.2081 3.61943 2.14953 3.59105 2.08101C3.56266 2.01248 3.55524 1.93708 3.56971 1.86434C3.58417 1.7916 3.61989 1.72478 3.67233 1.67233C3.72478 1.61989 3.7916 1.58417 3.86434 1.56971C3.93708 1.55524 4.01248 1.56266 4.08101 1.59105C4.14953 1.61943 4.2081 1.66749 4.2493 1.72916C4.29051 1.79083 4.3125 1.86333 4.3125 1.9375C4.3125 2.03696 4.27299 2.13234 4.20266 2.20267C4.13234 2.27299 4.03696 2.3125 3.9375 2.3125ZM5.9375 2.3125C5.86333 2.3125 5.79083 2.29051 5.72916 2.2493C5.66749 2.2081 5.61943 2.14953 5.59105 2.08101C5.56266 2.01248 5.55524 1.93708 5.56971 1.86434C5.58418 1.7916 5.61989 1.72478 5.67234 1.67233C5.72478 1.61989 5.7916 1.58417 5.86434 1.56971C5.93708 1.55524 6.01248 1.56266 6.08101 1.59105C6.14953 1.61943 6.2081 1.66749 6.2493 1.72916C6.29051 1.79083 6.3125 1.86333 6.3125 1.9375C6.3125 2.03696 6.27299 2.13234 6.20266 2.20267C6.13234 2.27299 6.03696 2.3125 5.9375 2.3125ZM13.9375 2.3125H11.9375C11.838 2.3125 11.7427 2.27299 11.6723 2.20267C11.602 2.13234 11.5625 2.03696 11.5625 1.9375C11.5625 1.83804 11.602 1.74266 11.6723 1.67233C11.7427 1.60201 11.838 1.5625 11.9375 1.5625H13.9375C14.037 1.5625 14.1323 1.60201 14.2027 1.67233C14.273 1.74266 14.3125 1.83804 14.3125 1.9375C14.3125 2.03696 14.273 2.13234 14.2027 2.20267C14.1323 2.27299 14.037 2.3125 13.9375 2.3125Z" fill="#7C0FD1"/>
</g>
<defs>
<clipPath id="clip0_2801_9654">
<rect width="16" height="16" fill="white"/>
</clipPath>
</defs>
</svg>
