<svg width="25" height="24" viewBox="0 0 25 24" fill="none" xmlns="http://www.w3.org/2000/svg">
<path d="M20.85 6.70997C20.8497 7.50015 20.5961 8.26943 20.1263 8.9048C19.6565 9.54017 18.9954 10.0081 18.24 10.24C18.413 9.6762 18.5006 9.08971 18.5 8.49998C18.5001 7.46122 18.23 6.44029 17.7163 5.53742C17.2026 4.63455 16.463 3.88078 15.57 3.35011C16.0651 3.12029 16.6042 3.00083 17.15 3C18.1325 3.00171 19.0741 3.39345 19.7679 4.08912C20.4617 4.78479 20.8509 5.72747 20.85 6.70997ZM20.1 11.3001C19.6799 11.1824 19.2303 11.2363 18.85 11.4501C18.4224 11.6871 17.9478 11.8271 17.46 11.8599C17.2581 12.1678 17.0234 12.4528 16.76 12.7101C17.7047 13.0209 18.5458 13.5855 19.1913 14.3421C19.8368 15.0987 20.2618 16.0182 20.42 17.0001H21.11C21.3316 17.0032 21.5499 16.9463 21.7418 16.8354C21.9337 16.7245 22.0921 16.5638 22.2 16.3702C22.3986 15.9978 22.5016 15.582 22.5 15.16V14.45C22.5 12.96 21.51 11.6699 20.1 11.3001ZM9.43002 3.35011C8.93494 3.12029 8.39582 3.00083 7.85 3C6.96401 3.00062 6.10761 3.31893 5.43631 3.89714C4.765 4.47536 4.3233 5.27513 4.19141 6.15125C4.05951 7.02737 4.24617 7.92175 4.71748 8.67198C5.1888 9.4222 5.91352 9.97855 6.76007 10.24C6.58706 9.67621 6.49941 9.08971 6.5 8.49998C6.49995 7.46122 6.77002 6.44029 7.28371 5.53742C7.79739 4.63455 8.53703 3.88078 9.43002 3.35011ZM8.24 12.71C7.97665 12.4527 7.74194 12.1677 7.53997 11.8598C7.05217 11.827 6.57761 11.6871 6.15003 11.45C5.76973 11.2362 5.3201 11.1823 4.90002 11.3C3.48997 11.6698 2.50002 12.9599 2.50002 14.45V15.1599C2.49841 15.5819 2.60149 15.9977 2.80002 16.3701C2.90683 16.5625 3.06351 16.7225 3.25357 16.8333C3.44363 16.9442 3.66005 17.0018 3.88007 17H4.58C4.73819 16.0181 5.16325 15.0986 5.80874 14.342C6.45423 13.5854 7.2953 13.0208 8.24 12.71ZM16.08 14.07C15.9066 14.0265 15.7288 14.003 15.55 14C15.2032 14.0007 14.8624 14.0903 14.56 14.26C13.9291 14.6077 13.2204 14.79 12.5 14.79C11.7796 14.79 11.0709 14.6077 10.44 14.26C10.1376 14.0903 9.79681 14.0007 9.45003 14C9.27125 14.003 9.09339 14.0265 8.91997 14.07C8.07957 14.2979 7.33785 14.7968 6.80989 15.4892C6.28194 16.1817 5.99725 17.029 5.99999 17.8997V18.7698C6.00032 19.2796 6.12748 19.7814 6.37002 20.2298C6.62 20.7097 7.12002 20.9998 7.67999 20.9998H17.32C17.88 20.9998 18.38 20.7097 18.63 20.2298C18.8725 19.7814 18.9997 19.2796 19 18.7698V17.8999C19.0028 17.0291 18.7181 16.1818 18.1902 15.4893C17.6622 14.7968 16.9205 14.2979 16.08 14.07ZM17 8.49998C17 7.60997 16.7361 6.73994 16.2416 5.99992C15.7471 5.2599 15.0443 4.68312 14.2221 4.34253C13.3998 4.00193 12.495 3.91282 11.6221 4.08645C10.7492 4.26008 9.94736 4.68867 9.31802 5.318C8.68869 5.94734 8.2601 6.74916 8.08647 7.62208C7.91284 8.49499 8.00195 9.39979 8.34255 10.2221C8.68314 11.0443 9.25992 11.7471 9.99994 12.2416C10.74 12.7361 11.61 13 12.5 13C13.6935 13 14.8381 12.5259 15.682 11.682C16.5259 10.8381 17 9.69346 17 8.49998Z" fill="#7C0FD1"/>
</svg>
