<svg width="420" height="27" viewBox="0 0 420 27" fill="none" xmlns="http://www.w3.org/2000/svg">
<g clip-path="url(#clip0_3841_17571)">
<path d="M30.8 24.2C30.8 22.6562 29.5437 21.4 28 21.4C26.4563 21.4 25.2 22.6562 25.2 24.2C25.2 25.7437 26.4563 27 28 27C29.5437 27 30.8 25.7437 30.8 24.2ZM27.0667 24.2C27.0667 23.6848 27.4848 23.2667 28 23.2667C28.5152 23.2667 28.9333 23.6848 28.9333 24.2C28.9333 24.7152 28.5152 25.1333 28 25.1333C27.4848 25.1333 27.0667 24.7152 27.0667 24.2Z" fill="#FAB55A"/>
<path d="M27.0667 24.2C27.0667 23.6848 27.4848 23.2667 28 23.2667C28.5152 23.2667 28.9333 23.6848 28.9333 24.2C28.9333 24.7152 28.5152 25.1333 28 25.1333C27.4848 25.1333 27.0667 24.7152 27.0667 24.2Z" fill="#FAB55A"/>
<path d="M39.2 19.5333C39.2 17.9896 37.9437 16.7333 36.4 16.7333C34.8563 16.7333 33.6 17.9896 33.6 19.5333C33.6 21.0771 34.8563 22.3333 36.4 22.3333C37.9437 22.3333 39.2 21.0771 39.2 19.5333ZM35.4667 19.5333C35.4667 19.0181 35.8848 18.6 36.4 18.6C36.9152 18.6 37.3333 19.0181 37.3333 19.5333C37.3333 20.0485 36.9152 20.4667 36.4 20.4667C35.8848 20.4667 35.4667 20.0485 35.4667 19.5333Z" fill="#FAB55A"/>
<path d="M35.4667 19.5333C35.4667 19.0181 35.8848 18.6 36.4 18.6C36.9152 18.6 37.3333 19.0181 37.3333 19.5333C37.3333 20.0485 36.9152 20.4667 36.4 20.4667C35.8848 20.4667 35.4667 20.0485 35.4667 19.5333Z" fill="#FAB55A"/>
<path d="M47.6 14.8667C47.6 13.3229 46.3437 12.0667 44.8 12.0667C43.2563 12.0667 42 13.3229 42 14.8667C42 16.4104 43.2563 17.6667 44.8 17.6667C46.3437 17.6667 47.6 16.4104 47.6 14.8667ZM43.8667 14.8667C43.8667 14.3515 44.2848 13.9333 44.8 13.9333C45.3152 13.9333 45.7333 14.3515 45.7333 14.8667C45.7333 15.3819 45.3152 15.8 44.8 15.8C44.2848 15.8 43.8667 15.3819 43.8667 14.8667Z" fill="#FAB55A"/>
<path d="M43.8667 14.8667C43.8667 14.3515 44.2848 13.9333 44.8 13.9333C45.3152 13.9333 45.7333 14.3515 45.7333 14.8667C45.7333 15.3819 45.3152 15.8 44.8 15.8C44.2848 15.8 43.8667 15.3819 43.8667 14.8667Z" fill="#FAB55A"/>
<path d="M56 10.2C56 8.65626 54.7437 7.39999 53.2 7.39999C51.6562 7.39999 50.4 8.65626 50.4 10.2C50.4 11.7437 51.6562 13 53.2 13C54.7437 13 56 11.7437 56 10.2ZM52.2666 10.2C52.2666 9.68479 52.6848 9.26666 53.2 9.26666C53.7152 9.26666 54.1333 9.68479 54.1333 10.2C54.1333 10.7152 53.7152 11.1333 53.2 11.1333C52.6848 11.1333 52.2666 10.7152 52.2666 10.2Z" fill="#FAB55A"/>
<path d="M52.2666 10.2C52.2666 9.68479 52.6848 9.26666 53.2 9.26666C53.7152 9.26666 54.1333 9.68479 54.1333 10.2C54.1333 10.7152 53.7152 11.1333 53.2 11.1333C52.6848 11.1333 52.2666 10.7152 52.2666 10.2Z" fill="#FAB55A"/>
<path d="M22.4 19.5333C22.4 17.9896 21.1437 16.7333 19.6 16.7333C18.0563 16.7333 16.8 17.9896 16.8 19.5333C16.8 21.0771 18.0563 22.3333 19.6 22.3333C21.1437 22.3333 22.4 21.0771 22.4 19.5333ZM18.6667 19.5333C18.6667 19.0181 19.0848 18.6 19.6 18.6C20.1152 18.6 20.5333 19.0181 20.5333 19.5333C20.5333 20.0485 20.1152 20.4667 19.6 20.4667C19.0848 20.4667 18.6667 20.0485 18.6667 19.5333Z" fill="#FAB55A"/>
<path d="M18.6667 19.5333C18.6667 19.0181 19.0848 18.6 19.6 18.6C20.1152 18.6 20.5333 19.0181 20.5333 19.5333C20.5333 20.0485 20.1152 20.4667 19.6 20.4667C19.0848 20.4667 18.6667 20.0485 18.6667 19.5333Z" fill="#FAB55A"/>
<path d="M14 14.8667C14 13.3229 12.7437 12.0667 11.2 12.0667C9.65626 12.0667 8.4 13.3229 8.4 14.8667C8.4 16.4104 9.65626 17.6667 11.2 17.6667C12.7437 17.6667 14 16.4104 14 14.8667ZM10.2667 14.8667C10.2667 14.3515 10.6848 13.9333 11.2 13.9333C11.7152 13.9333 12.1333 14.3515 12.1333 14.8667C12.1333 15.3819 11.7152 15.8 11.2 15.8C10.6848 15.8 10.2667 15.3819 10.2667 14.8667Z" fill="#FAB55A"/>
<path d="M10.2667 14.8667C10.2667 14.3515 10.6848 13.9333 11.2 13.9333C11.7152 13.9333 12.1333 14.3515 12.1333 14.8667C12.1333 15.3819 11.7152 15.8 11.2 15.8C10.6848 15.8 10.2667 15.3819 10.2667 14.8667Z" fill="#FAB55A"/>
<path d="M5.6 10.2C5.6 8.65625 4.34373 7.39999 2.8 7.39999C1.25627 7.39999 6.74787e-08 8.65625 0 10.2C-6.74787e-08 11.7437 1.25627 13 2.8 13C4.34373 13 5.6 11.7437 5.6 10.2ZM1.86667 10.2C1.86667 9.68479 2.2848 9.26665 2.8 9.26665C3.3152 9.26665 3.73333 9.68479 3.73333 10.2C3.73333 10.7152 3.3152 11.1333 2.8 11.1333C2.2848 11.1333 1.86667 10.7152 1.86667 10.2Z" fill="#FAB55A"/>
<path d="M1.86667 10.2C1.86667 9.68479 2.2848 9.26665 2.8 9.26665C3.3152 9.26665 3.73333 9.68479 3.73333 10.2C3.73333 10.7152 3.3152 11.1333 2.8 11.1333C2.2848 11.1333 1.86667 10.7152 1.86667 10.2Z" fill="#FAB55A"/>
<path d="M30.8 16.7333C30.8 15.1896 29.5437 13.9333 28 13.9333C26.4563 13.9333 25.2 15.1896 25.2 16.7333C25.2 18.2771 26.4563 19.5333 28 19.5333C29.5437 19.5333 30.8 18.2771 30.8 16.7333ZM27.0667 16.7333C27.0667 16.2181 27.4848 15.8 28 15.8C28.5152 15.8 28.9333 16.2181 28.9333 16.7333C28.9333 17.2485 28.5152 17.6666 28 17.6666C27.4848 17.6666 27.0667 17.2485 27.0667 16.7333Z" fill="#FAB55A"/>
<path d="M27.0667 16.7333C27.0667 16.2181 27.4848 15.8 28 15.8C28.5152 15.8 28.9333 16.2181 28.9333 16.7333C28.9333 17.2485 28.5152 17.6666 28 17.6666C27.4848 17.6666 27.0667 17.2485 27.0667 16.7333Z" fill="#FAB55A"/>
<path d="M39.2 12.0667C39.2 10.5229 37.9437 9.26666 36.4 9.26666C34.8563 9.26666 33.6 10.5229 33.6 12.0667C33.6 13.6104 34.8563 14.8667 36.4 14.8667C37.9437 14.8667 39.2 13.6104 39.2 12.0667ZM35.4667 12.0667C35.4667 11.5515 35.8848 11.1333 36.4 11.1333C36.9152 11.1333 37.3333 11.5515 37.3333 12.0667C37.3333 12.5819 36.9152 13 36.4 13C35.8848 13 35.4667 12.5819 35.4667 12.0667Z" fill="#FAB55A"/>
<path d="M35.4667 12.0667C35.4667 11.5515 35.8848 11.1333 36.4 11.1333C36.9152 11.1333 37.3333 11.5515 37.3333 12.0667C37.3333 12.5819 36.9152 13 36.4 13C35.8848 13 35.4667 12.5819 35.4667 12.0667Z" fill="#FAB55A"/>
<path d="M47.6 7.39999C47.6 5.85626 46.3437 4.59999 44.8 4.59999C43.2563 4.59999 42 5.85626 42 7.39999C42 8.94372 43.2563 10.2 44.8 10.2C46.3437 10.2 47.6 8.94372 47.6 7.39999ZM43.8667 7.39999C43.8667 6.88479 44.2848 6.46665 44.8 6.46665C45.3152 6.46665 45.7333 6.88479 45.7333 7.39999C45.7333 7.91519 45.3152 8.33332 44.8 8.33332C44.2848 8.33332 43.8667 7.91519 43.8667 7.39999Z" fill="#FAB55A"/>
<path d="M43.8667 7.39999C43.8667 6.88479 44.2848 6.46665 44.8 6.46665C45.3152 6.46665 45.7333 6.88479 45.7333 7.39999C45.7333 7.91519 45.3152 8.33332 44.8 8.33332C44.2848 8.33332 43.8667 7.91519 43.8667 7.39999Z" fill="#FAB55A"/>
<path d="M56 2.73332C56 1.18959 54.7437 -0.0666752 53.2 -0.0666752C51.6562 -0.0666753 50.4 1.18959 50.4 2.73332C50.4 4.27706 51.6562 5.53332 53.2 5.53332C54.7437 5.53332 56 4.27706 56 2.73332ZM52.2666 2.73332C52.2666 2.21812 52.6848 1.79999 53.2 1.79999C53.7152 1.79999 54.1333 2.21812 54.1333 2.73332C54.1333 3.24852 53.7152 3.66666 53.2 3.66666C52.6848 3.66666 52.2666 3.24852 52.2666 2.73332Z" fill="#FAB55A"/>
<path d="M52.2666 2.73332C52.2666 2.21812 52.6848 1.79999 53.2 1.79999C53.7152 1.79999 54.1333 2.21812 54.1333 2.73332C54.1333 3.24852 53.7152 3.66666 53.2 3.66666C52.6848 3.66666 52.2666 3.24852 52.2666 2.73332Z" fill="#FAB55A"/>
<path d="M22.4 12.0667C22.4 10.5229 21.1437 9.26665 19.6 9.26665C18.0563 9.26665 16.8 10.5229 16.8 12.0667C16.8 13.6104 18.0563 14.8667 19.6 14.8667C21.1437 14.8667 22.4 13.6104 22.4 12.0667ZM18.6667 12.0667C18.6667 11.5515 19.0848 11.1333 19.6 11.1333C20.1152 11.1333 20.5333 11.5515 20.5333 12.0667C20.5333 12.5819 20.1152 13 19.6 13C19.0848 13 18.6667 12.5819 18.6667 12.0667Z" fill="#FAB55A"/>
<path d="M18.6667 12.0667C18.6667 11.5515 19.0848 11.1333 19.6 11.1333C20.1152 11.1333 20.5333 11.5515 20.5333 12.0667C20.5333 12.5819 20.1152 13 19.6 13C19.0848 13 18.6667 12.5819 18.6667 12.0667Z" fill="#FAB55A"/>
<path d="M14 7.39999C14 5.85625 12.7437 4.59999 11.2 4.59999C9.65626 4.59999 8.4 5.85625 8.4 7.39999C8.4 8.94372 9.65626 10.2 11.2 10.2C12.7437 10.2 14 8.94372 14 7.39999ZM10.2667 7.39999C10.2667 6.88479 10.6848 6.46665 11.2 6.46665C11.7152 6.46665 12.1333 6.88479 12.1333 7.39999C12.1333 7.91519 11.7152 8.33332 11.2 8.33332C10.6848 8.33332 10.2667 7.91519 10.2667 7.39999Z" fill="#FAB55A"/>
<path d="M10.2667 7.39999C10.2667 6.88479 10.6848 6.46665 11.2 6.46665C11.7152 6.46665 12.1333 6.88479 12.1333 7.39999C12.1333 7.91519 11.7152 8.33332 11.2 8.33332C10.6848 8.33332 10.2667 7.91519 10.2667 7.39999Z" fill="#FAB55A"/>
<path d="M5.6 2.73332C5.6 1.18959 4.34373 -0.0666778 2.8 -0.0666779C1.25627 -0.066678 3.93857e-07 1.18959 3.26378e-07 2.73332C2.58899e-07 4.27705 1.25627 5.53332 2.8 5.53332C4.34373 5.53332 5.6 4.27705 5.6 2.73332ZM1.86667 2.73332C1.86667 2.21812 2.2848 1.79999 2.8 1.79999C3.3152 1.79999 3.73333 2.21812 3.73333 2.73332C3.73333 3.24852 3.3152 3.66665 2.8 3.66665C2.2848 3.66665 1.86667 3.24852 1.86667 2.73332Z" fill="#FAB55A"/>
<path d="M1.86667 2.73332C1.86667 2.21812 2.2848 1.79999 2.8 1.79999C3.3152 1.79999 3.73333 2.21812 3.73333 2.73332C3.73333 3.24852 3.3152 3.66665 2.8 3.66665C2.2848 3.66665 1.86667 3.24852 1.86667 2.73332Z" fill="#FAB55A"/>
<path d="M30.8 -4.73334C30.8 -6.27707 29.5437 -7.53334 28 -7.53334C26.4563 -7.53334 25.2 -6.27707 25.2 -4.73334C25.2 -3.18961 26.4563 -1.93334 28 -1.93334C29.5437 -1.93334 30.8 -3.18961 30.8 -4.73334ZM27.0667 -4.73334C27.0667 -5.24854 27.4848 -5.66667 28 -5.66667C28.5152 -5.66667 28.9333 -5.24854 28.9333 -4.73334C28.9333 -4.21814 28.5152 -3.80001 28 -3.80001C27.4848 -3.80001 27.0667 -4.21814 27.0667 -4.73334Z" fill="#FAB55A"/>
<path d="M27.0667 -4.73334C27.0667 -5.24854 27.4848 -5.66667 28 -5.66667C28.5152 -5.66667 28.9333 -5.24854 28.9333 -4.73334C28.9333 -4.21814 28.5152 -3.80001 28 -3.80001C27.4848 -3.80001 27.0667 -4.21814 27.0667 -4.73334Z" fill="#FAB55A"/>
<path d="M39.2 -9.40001C39.2 -10.9437 37.9437 -12.2 36.4 -12.2C34.8563 -12.2 33.6 -10.9437 33.6 -9.40001C33.6 -7.85627 34.8563 -6.60001 36.4 -6.60001C37.9437 -6.60001 39.2 -7.85627 39.2 -9.40001ZM35.4667 -9.40001C35.4667 -9.91521 35.8848 -10.3333 36.4 -10.3333C36.9152 -10.3333 37.3333 -9.91521 37.3333 -9.40001C37.3333 -8.88481 36.9152 -8.46667 36.4 -8.46667C35.8848 -8.46667 35.4667 -8.88481 35.4667 -9.40001Z" fill="#FAB55A"/>
<path d="M35.4667 -9.40001C35.4667 -9.91521 35.8848 -10.3333 36.4 -10.3333C36.9152 -10.3333 37.3333 -9.91521 37.3333 -9.40001C37.3333 -8.88481 36.9152 -8.46667 36.4 -8.46667C35.8848 -8.46667 35.4667 -8.88481 35.4667 -9.40001Z" fill="#FAB55A"/>
<path d="M47.6 -14.0667C47.6 -15.6104 46.3437 -16.8667 44.8 -16.8667C43.2563 -16.8667 42 -15.6104 42 -14.0667C42 -12.5229 43.2563 -11.2667 44.8 -11.2667C46.3437 -11.2667 47.6 -12.5229 47.6 -14.0667ZM43.8667 -14.0667C43.8667 -14.5819 44.2848 -15 44.8 -15C45.3152 -15 45.7333 -14.5819 45.7333 -14.0667C45.7333 -13.5515 45.3152 -13.1333 44.8 -13.1333C44.2848 -13.1333 43.8667 -13.5515 43.8667 -14.0667Z" fill="#FAB55A"/>
<path d="M43.8667 -14.0667C43.8667 -14.5819 44.2848 -15 44.8 -15C45.3152 -15 45.7333 -14.5819 45.7333 -14.0667C45.7333 -13.5515 45.3152 -13.1333 44.8 -13.1333C44.2848 -13.1333 43.8667 -13.5515 43.8667 -14.0667Z" fill="#FAB55A"/>
<path d="M56 -18.7333C56 -20.2771 54.7437 -21.5333 53.2 -21.5333C51.6562 -21.5333 50.4 -20.2771 50.4 -18.7333C50.4 -17.1896 51.6562 -15.9333 53.2 -15.9333C54.7437 -15.9333 56 -17.1896 56 -18.7333ZM52.2667 -18.7333C52.2667 -19.2485 52.6848 -19.6667 53.2 -19.6667C53.7152 -19.6667 54.1333 -19.2485 54.1333 -18.7333C54.1333 -18.2181 53.7152 -17.8 53.2 -17.8C52.6848 -17.8 52.2667 -18.2181 52.2667 -18.7333Z" fill="#FAB55A"/>
<path d="M52.2667 -18.7333C52.2667 -19.2485 52.6848 -19.6667 53.2 -19.6667C53.7152 -19.6667 54.1333 -19.2485 54.1333 -18.7333C54.1333 -18.2181 53.7152 -17.8 53.2 -17.8C52.6848 -17.8 52.2667 -18.2181 52.2667 -18.7333Z" fill="#FAB55A"/>
<path d="M22.4 -9.40001C22.4 -10.9437 21.1437 -12.2 19.6 -12.2C18.0563 -12.2 16.8 -10.9437 16.8 -9.40001C16.8 -7.85627 18.0563 -6.60001 19.6 -6.60001C21.1437 -6.60001 22.4 -7.85627 22.4 -9.40001ZM18.6667 -9.40001C18.6667 -9.91521 19.0848 -10.3333 19.6 -10.3333C20.1152 -10.3333 20.5333 -9.91521 20.5333 -9.40001C20.5333 -8.88481 20.1152 -8.46667 19.6 -8.46667C19.0848 -8.46667 18.6667 -8.88481 18.6667 -9.40001Z" fill="#FAB55A"/>
<path d="M18.6667 -9.40001C18.6667 -9.91521 19.0848 -10.3333 19.6 -10.3333C20.1152 -10.3333 20.5333 -9.91521 20.5333 -9.40001C20.5333 -8.88481 20.1152 -8.46667 19.6 -8.46667C19.0848 -8.46667 18.6667 -8.88481 18.6667 -9.40001Z" fill="#FAB55A"/>
<path d="M14 -14.0667C14 -15.6104 12.7437 -16.8667 11.2 -16.8667C9.65626 -16.8667 8.4 -15.6104 8.4 -14.0667C8.4 -12.5229 9.65626 -11.2667 11.2 -11.2667C12.7437 -11.2667 14 -12.5229 14 -14.0667ZM10.2667 -14.0667C10.2667 -14.5819 10.6848 -15 11.2 -15C11.7152 -15 12.1333 -14.5819 12.1333 -14.0667C12.1333 -13.5515 11.7152 -13.1333 11.2 -13.1333C10.6848 -13.1333 10.2667 -13.5515 10.2667 -14.0667Z" fill="#FAB55A"/>
<path d="M10.2667 -14.0667C10.2667 -14.5819 10.6848 -15 11.2 -15C11.7152 -15 12.1333 -14.5819 12.1333 -14.0667C12.1333 -13.5515 11.7152 -13.1333 11.2 -13.1333C10.6848 -13.1333 10.2667 -13.5515 10.2667 -14.0667Z" fill="#FAB55A"/>
<path d="M5.6 -18.7333C5.6 -20.2771 4.34373 -21.5333 2.8 -21.5333C1.25627 -21.5333 1.33219e-06 -20.2771 1.26472e-06 -18.7333C1.19724e-06 -17.1896 1.25627 -15.9333 2.8 -15.9333C4.34373 -15.9333 5.6 -17.1896 5.6 -18.7333ZM1.86667 -18.7333C1.86667 -19.2485 2.2848 -19.6667 2.8 -19.6667C3.3152 -19.6667 3.73333 -19.2485 3.73333 -18.7333C3.73333 -18.2181 3.3152 -17.8 2.8 -17.8C2.2848 -17.8 1.86667 -18.2181 1.86667 -18.7333Z" fill="#FAB55A"/>
<path d="M1.86667 -18.7333C1.86667 -19.2485 2.2848 -19.6667 2.8 -19.6667C3.3152 -19.6667 3.73333 -19.2485 3.73333 -18.7333C3.73333 -18.2181 3.3152 -17.8 2.8 -17.8C2.2848 -17.8 1.86667 -18.2181 1.86667 -18.7333Z" fill="#FAB55A"/>
<path d="M30.8 -12.2C30.8 -13.7437 29.5437 -15 28 -15C26.4563 -15 25.2 -13.7437 25.2 -12.2C25.2 -10.6563 26.4563 -9.40001 28 -9.40001C29.5437 -9.40001 30.8 -10.6563 30.8 -12.2ZM27.0667 -12.2C27.0667 -12.7152 27.4848 -13.1333 28 -13.1333C28.5152 -13.1333 28.9333 -12.7152 28.9333 -12.2C28.9333 -11.6848 28.5152 -11.2667 28 -11.2667C27.4848 -11.2667 27.0667 -11.6848 27.0667 -12.2Z" fill="#FAB55A"/>
<path d="M27.0667 -12.2C27.0667 -12.7152 27.4848 -13.1333 28 -13.1333C28.5152 -13.1333 28.9333 -12.7152 28.9333 -12.2C28.9333 -11.6848 28.5152 -11.2667 28 -11.2667C27.4848 -11.2667 27.0667 -11.6848 27.0667 -12.2Z" fill="#FAB55A"/>
<path d="M39.2 -16.8667C39.2 -18.4104 37.9437 -19.6667 36.4 -19.6667C34.8563 -19.6667 33.6 -18.4104 33.6 -16.8667C33.6 -15.3229 34.8563 -14.0667 36.4 -14.0667C37.9437 -14.0667 39.2 -15.3229 39.2 -16.8667ZM35.4667 -16.8667C35.4667 -17.3819 35.8848 -17.8 36.4 -17.8C36.9152 -17.8 37.3333 -17.3819 37.3333 -16.8667C37.3333 -16.3515 36.9152 -15.9333 36.4 -15.9333C35.8848 -15.9333 35.4667 -16.3515 35.4667 -16.8667Z" fill="#FAB55A"/>
<path d="M35.4667 -16.8667C35.4667 -17.3819 35.8848 -17.8 36.4 -17.8C36.9152 -17.8 37.3333 -17.3819 37.3333 -16.8667C37.3333 -16.3515 36.9152 -15.9333 36.4 -15.9333C35.8848 -15.9333 35.4667 -16.3515 35.4667 -16.8667Z" fill="#FAB55A"/>
<path d="M47.6 -21.5333C47.6 -23.0771 46.3437 -24.3333 44.8 -24.3333C43.2563 -24.3333 42 -23.0771 42 -21.5333C42 -19.9896 43.2563 -18.7333 44.8 -18.7333C46.3437 -18.7333 47.6 -19.9896 47.6 -21.5333ZM43.8667 -21.5333C43.8667 -22.0485 44.2848 -22.4667 44.8 -22.4667C45.3152 -22.4667 45.7333 -22.0485 45.7333 -21.5333C45.7333 -21.0181 45.3152 -20.6 44.8 -20.6C44.2848 -20.6 43.8667 -21.0181 43.8667 -21.5333Z" fill="#FAB55A"/>
<path d="M43.8667 -21.5333C43.8667 -22.0485 44.2848 -22.4667 44.8 -22.4667C45.3152 -22.4667 45.7333 -22.0485 45.7333 -21.5333C45.7333 -21.0181 45.3152 -20.6 44.8 -20.6C44.2848 -20.6 43.8667 -21.0181 43.8667 -21.5333Z" fill="#FAB55A"/>
<path d="M56 -26.2C56 -27.7437 54.7437 -29 53.2 -29C51.6562 -29 50.4 -27.7437 50.4 -26.2C50.4 -24.6563 51.6562 -23.4 53.2 -23.4C54.7437 -23.4 56 -24.6563 56 -26.2ZM52.2667 -26.2C52.2667 -26.7152 52.6848 -27.1333 53.2 -27.1333C53.7152 -27.1333 54.1333 -26.7152 54.1333 -26.2C54.1333 -25.6848 53.7152 -25.2667 53.2 -25.2667C52.6848 -25.2667 52.2667 -25.6848 52.2667 -26.2Z" fill="#FAB55A"/>
<path d="M52.2667 -26.2C52.2667 -26.7152 52.6848 -27.1333 53.2 -27.1333C53.7152 -27.1333 54.1333 -26.7152 54.1333 -26.2C54.1333 -25.6848 53.7152 -25.2667 53.2 -25.2667C52.6848 -25.2667 52.2667 -25.6848 52.2667 -26.2Z" fill="#FAB55A"/>
<path d="M22.4 -16.8667C22.4 -18.4104 21.1437 -19.6667 19.6 -19.6667C18.0563 -19.6667 16.8 -18.4104 16.8 -16.8667C16.8 -15.3229 18.0563 -14.0667 19.6 -14.0667C21.1437 -14.0667 22.4 -15.3229 22.4 -16.8667ZM18.6667 -16.8667C18.6667 -17.3819 19.0848 -17.8 19.6 -17.8C20.1152 -17.8 20.5333 -17.3819 20.5333 -16.8667C20.5333 -16.3515 20.1152 -15.9333 19.6 -15.9333C19.0848 -15.9333 18.6667 -16.3515 18.6667 -16.8667Z" fill="#FAB55A"/>
<path d="M18.6667 -16.8667C18.6667 -17.3819 19.0848 -17.8 19.6 -17.8C20.1152 -17.8 20.5333 -17.3819 20.5333 -16.8667C20.5333 -16.3515 20.1152 -15.9333 19.6 -15.9333C19.0848 -15.9333 18.6667 -16.3515 18.6667 -16.8667Z" fill="#FAB55A"/>
<path d="M14 -21.5333C14 -23.0771 12.7437 -24.3333 11.2 -24.3333C9.65626 -24.3333 8.4 -23.0771 8.4 -21.5333C8.4 -19.9896 9.65626 -18.7333 11.2 -18.7333C12.7437 -18.7333 14 -19.9896 14 -21.5333ZM10.2667 -21.5333C10.2667 -22.0485 10.6848 -22.4667 11.2 -22.4667C11.7152 -22.4667 12.1333 -22.0485 12.1333 -21.5333C12.1333 -21.0181 11.7152 -20.6 11.2 -20.6C10.6848 -20.6 10.2667 -21.0181 10.2667 -21.5333Z" fill="#FAB55A"/>
<path d="M10.2667 -21.5333C10.2667 -22.0485 10.6848 -22.4667 11.2 -22.4667C11.7152 -22.4667 12.1333 -22.0485 12.1333 -21.5333C12.1333 -21.0181 11.7152 -20.6 11.2 -20.6C10.6848 -20.6 10.2667 -21.0181 10.2667 -21.5333Z" fill="#FAB55A"/>
<path d="M5.6 -26.2C5.6 -27.7437 4.34373 -29 2.8 -29C1.25627 -29 1.65857e-06 -27.7437 1.59109e-06 -26.2C1.52362e-06 -24.6563 1.25627 -23.4 2.8 -23.4C4.34373 -23.4 5.6 -24.6563 5.6 -26.2ZM1.86667 -26.2C1.86667 -26.7152 2.2848 -27.1333 2.8 -27.1333C3.3152 -27.1333 3.73333 -26.7152 3.73333 -26.2C3.73333 -25.6848 3.3152 -25.2667 2.8 -25.2667C2.2848 -25.2667 1.86667 -25.6848 1.86667 -26.2Z" fill="#FAB55A"/>
<path d="M1.86667 -26.2C1.86667 -26.7152 2.2848 -27.1333 2.8 -27.1333C3.3152 -27.1333 3.73333 -26.7152 3.73333 -26.2C3.73333 -25.6848 3.3152 -25.2667 2.8 -25.2667C2.2848 -25.2667 1.86667 -25.6848 1.86667 -26.2Z" fill="#FAB55A"/>
<path d="M121.8 24.2C121.8 22.6562 120.544 21.4 119 21.4C117.456 21.4 116.2 22.6562 116.2 24.2C116.2 25.7437 117.456 27 119 27C120.544 27 121.8 25.7437 121.8 24.2ZM118.067 24.2C118.067 23.6848 118.485 23.2667 119 23.2667C119.515 23.2667 119.933 23.6848 119.933 24.2C119.933 24.7152 119.515 25.1333 119 25.1333C118.485 25.1333 118.067 24.7152 118.067 24.2Z" fill="#FAB55A"/>
<path d="M118.067 24.2C118.067 23.6848 118.485 23.2667 119 23.2667C119.515 23.2667 119.933 23.6848 119.933 24.2C119.933 24.7152 119.515 25.1333 119 25.1333C118.485 25.1333 118.067 24.7152 118.067 24.2Z" fill="#FAB55A"/>
<path d="M130.2 19.5333C130.2 17.9896 128.944 16.7333 127.4 16.7333C125.856 16.7333 124.6 17.9896 124.6 19.5333C124.6 21.0771 125.856 22.3333 127.4 22.3333C128.944 22.3333 130.2 21.0771 130.2 19.5333ZM126.467 19.5333C126.467 19.0181 126.885 18.6 127.4 18.6C127.915 18.6 128.333 19.0181 128.333 19.5333C128.333 20.0485 127.915 20.4667 127.4 20.4667C126.885 20.4667 126.467 20.0485 126.467 19.5333Z" fill="#FAB55A"/>
<path d="M126.467 19.5333C126.467 19.0181 126.885 18.6 127.4 18.6C127.915 18.6 128.333 19.0181 128.333 19.5333C128.333 20.0485 127.915 20.4667 127.4 20.4667C126.885 20.4667 126.467 20.0485 126.467 19.5333Z" fill="#FAB55A"/>
<path d="M138.6 14.8667C138.6 13.3229 137.344 12.0667 135.8 12.0667C134.256 12.0667 133 13.3229 133 14.8667C133 16.4104 134.256 17.6667 135.8 17.6667C137.344 17.6667 138.6 16.4104 138.6 14.8667ZM134.867 14.8667C134.867 14.3515 135.285 13.9333 135.8 13.9333C136.315 13.9333 136.733 14.3515 136.733 14.8667C136.733 15.3819 136.315 15.8 135.8 15.8C135.285 15.8 134.867 15.3819 134.867 14.8667Z" fill="#FAB55A"/>
<path d="M134.867 14.8667C134.867 14.3515 135.285 13.9333 135.8 13.9333C136.315 13.9333 136.733 14.3515 136.733 14.8667C136.733 15.3819 136.315 15.8 135.8 15.8C135.285 15.8 134.867 15.3819 134.867 14.8667Z" fill="#FAB55A"/>
<path d="M147 10.2C147 8.65626 145.744 7.39999 144.2 7.39999C142.656 7.39999 141.4 8.65626 141.4 10.2C141.4 11.7437 142.656 13 144.2 13C145.744 13 147 11.7437 147 10.2ZM143.267 10.2C143.267 9.68479 143.685 9.26666 144.2 9.26666C144.715 9.26666 145.133 9.68479 145.133 10.2C145.133 10.7152 144.715 11.1333 144.2 11.1333C143.685 11.1333 143.267 10.7152 143.267 10.2Z" fill="#FAB55A"/>
<path d="M143.267 10.2C143.267 9.68479 143.685 9.26666 144.2 9.26666C144.715 9.26666 145.133 9.68479 145.133 10.2C145.133 10.7152 144.715 11.1333 144.2 11.1333C143.685 11.1333 143.267 10.7152 143.267 10.2Z" fill="#FAB55A"/>
<path d="M113.4 19.5333C113.4 17.9896 112.144 16.7333 110.6 16.7333C109.056 16.7333 107.8 17.9896 107.8 19.5333C107.8 21.0771 109.056 22.3333 110.6 22.3333C112.144 22.3333 113.4 21.0771 113.4 19.5333ZM109.667 19.5333C109.667 19.0181 110.085 18.6 110.6 18.6C111.115 18.6 111.533 19.0181 111.533 19.5333C111.533 20.0485 111.115 20.4667 110.6 20.4667C110.085 20.4667 109.667 20.0485 109.667 19.5333Z" fill="#FAB55A"/>
<path d="M109.667 19.5333C109.667 19.0181 110.085 18.6 110.6 18.6C111.115 18.6 111.533 19.0181 111.533 19.5333C111.533 20.0485 111.115 20.4667 110.6 20.4667C110.085 20.4667 109.667 20.0485 109.667 19.5333Z" fill="#FAB55A"/>
<path d="M105 14.8667C105 13.3229 103.744 12.0667 102.2 12.0667C100.656 12.0667 99.4 13.3229 99.4 14.8667C99.4 16.4104 100.656 17.6667 102.2 17.6667C103.744 17.6667 105 16.4104 105 14.8667ZM101.267 14.8667C101.267 14.3515 101.685 13.9333 102.2 13.9333C102.715 13.9333 103.133 14.3515 103.133 14.8667C103.133 15.3819 102.715 15.8 102.2 15.8C101.685 15.8 101.267 15.3819 101.267 14.8667Z" fill="#FAB55A"/>
<path d="M101.267 14.8667C101.267 14.3515 101.685 13.9333 102.2 13.9333C102.715 13.9333 103.133 14.3515 103.133 14.8667C103.133 15.3819 102.715 15.8 102.2 15.8C101.685 15.8 101.267 15.3819 101.267 14.8667Z" fill="#FAB55A"/>
<path d="M96.6 10.2C96.6 8.65625 95.3437 7.39999 93.8 7.39999C92.2562 7.39999 91 8.65625 91 10.2C91 11.7437 92.2562 13 93.8 13C95.3437 13 96.6 11.7437 96.6 10.2ZM92.8666 10.2C92.8666 9.68479 93.2848 9.26665 93.8 9.26665C94.3152 9.26665 94.7333 9.68479 94.7333 10.2C94.7333 10.7152 94.3152 11.1333 93.8 11.1333C93.2848 11.1333 92.8666 10.7152 92.8666 10.2Z" fill="#FAB55A"/>
<path d="M92.8666 10.2C92.8666 9.68479 93.2848 9.26665 93.8 9.26665C94.3152 9.26665 94.7333 9.68479 94.7333 10.2C94.7333 10.7152 94.3152 11.1333 93.8 11.1333C93.2848 11.1333 92.8666 10.7152 92.8666 10.2Z" fill="#FAB55A"/>
<path d="M121.8 16.7333C121.8 15.1896 120.544 13.9333 119 13.9333C117.456 13.9333 116.2 15.1896 116.2 16.7333C116.2 18.2771 117.456 19.5333 119 19.5333C120.544 19.5333 121.8 18.2771 121.8 16.7333ZM118.067 16.7333C118.067 16.2181 118.485 15.8 119 15.8C119.515 15.8 119.933 16.2181 119.933 16.7333C119.933 17.2485 119.515 17.6666 119 17.6666C118.485 17.6666 118.067 17.2485 118.067 16.7333Z" fill="#FAB55A"/>
<path d="M118.067 16.7333C118.067 16.2181 118.485 15.8 119 15.8C119.515 15.8 119.933 16.2181 119.933 16.7333C119.933 17.2485 119.515 17.6666 119 17.6666C118.485 17.6666 118.067 17.2485 118.067 16.7333Z" fill="#FAB55A"/>
<path d="M130.2 12.0667C130.2 10.5229 128.944 9.26666 127.4 9.26666C125.856 9.26666 124.6 10.5229 124.6 12.0667C124.6 13.6104 125.856 14.8667 127.4 14.8667C128.944 14.8667 130.2 13.6104 130.2 12.0667ZM126.467 12.0667C126.467 11.5515 126.885 11.1333 127.4 11.1333C127.915 11.1333 128.333 11.5515 128.333 12.0667C128.333 12.5819 127.915 13 127.4 13C126.885 13 126.467 12.5819 126.467 12.0667Z" fill="#FAB55A"/>
<path d="M126.467 12.0667C126.467 11.5515 126.885 11.1333 127.4 11.1333C127.915 11.1333 128.333 11.5515 128.333 12.0667C128.333 12.5819 127.915 13 127.4 13C126.885 13 126.467 12.5819 126.467 12.0667Z" fill="#FAB55A"/>
<path d="M138.6 7.39999C138.6 5.85626 137.344 4.59999 135.8 4.59999C134.256 4.59999 133 5.85626 133 7.39999C133 8.94372 134.256 10.2 135.8 10.2C137.344 10.2 138.6 8.94372 138.6 7.39999ZM134.867 7.39999C134.867 6.88479 135.285 6.46665 135.8 6.46665C136.315 6.46665 136.733 6.88479 136.733 7.39999C136.733 7.91519 136.315 8.33332 135.8 8.33332C135.285 8.33332 134.867 7.91519 134.867 7.39999Z" fill="#FAB55A"/>
<path d="M134.867 7.39999C134.867 6.88479 135.285 6.46665 135.8 6.46665C136.315 6.46665 136.733 6.88479 136.733 7.39999C136.733 7.91519 136.315 8.33332 135.8 8.33332C135.285 8.33332 134.867 7.91519 134.867 7.39999Z" fill="#FAB55A"/>
<path d="M147 2.73332C147 1.18959 145.744 -0.0666752 144.2 -0.0666752C142.656 -0.0666753 141.4 1.18959 141.4 2.73332C141.4 4.27706 142.656 5.53332 144.2 5.53332C145.744 5.53332 147 4.27706 147 2.73332ZM143.267 2.73332C143.267 2.21812 143.685 1.79999 144.2 1.79999C144.715 1.79999 145.133 2.21812 145.133 2.73332C145.133 3.24852 144.715 3.66666 144.2 3.66666C143.685 3.66666 143.267 3.24852 143.267 2.73332Z" fill="#FAB55A"/>
<path d="M143.267 2.73332C143.267 2.21812 143.685 1.79999 144.2 1.79999C144.715 1.79999 145.133 2.21812 145.133 2.73332C145.133 3.24852 144.715 3.66666 144.2 3.66666C143.685 3.66666 143.267 3.24852 143.267 2.73332Z" fill="#FAB55A"/>
<path d="M113.4 12.0667C113.4 10.5229 112.144 9.26665 110.6 9.26665C109.056 9.26665 107.8 10.5229 107.8 12.0667C107.8 13.6104 109.056 14.8667 110.6 14.8667C112.144 14.8667 113.4 13.6104 113.4 12.0667ZM109.667 12.0667C109.667 11.5515 110.085 11.1333 110.6 11.1333C111.115 11.1333 111.533 11.5515 111.533 12.0667C111.533 12.5819 111.115 13 110.6 13C110.085 13 109.667 12.5819 109.667 12.0667Z" fill="#FAB55A"/>
<path d="M109.667 12.0667C109.667 11.5515 110.085 11.1333 110.6 11.1333C111.115 11.1333 111.533 11.5515 111.533 12.0667C111.533 12.5819 111.115 13 110.6 13C110.085 13 109.667 12.5819 109.667 12.0667Z" fill="#FAB55A"/>
<path d="M105 7.39999C105 5.85625 103.744 4.59999 102.2 4.59999C100.656 4.59999 99.4 5.85625 99.4 7.39999C99.4 8.94372 100.656 10.2 102.2 10.2C103.744 10.2 105 8.94372 105 7.39999ZM101.267 7.39999C101.267 6.88479 101.685 6.46665 102.2 6.46665C102.715 6.46665 103.133 6.88479 103.133 7.39999C103.133 7.91519 102.715 8.33332 102.2 8.33332C101.685 8.33332 101.267 7.91519 101.267 7.39999Z" fill="#FAB55A"/>
<path d="M101.267 7.39999C101.267 6.88479 101.685 6.46665 102.2 6.46665C102.715 6.46665 103.133 6.88479 103.133 7.39999C103.133 7.91519 102.715 8.33332 102.2 8.33332C101.685 8.33332 101.267 7.91519 101.267 7.39999Z" fill="#FAB55A"/>
<path d="M96.6 2.73332C96.6 1.18959 95.3437 -0.0666778 93.8 -0.0666779C92.2562 -0.066678 91 1.18959 91 2.73332C91 4.27705 92.2562 5.53332 93.8 5.53332C95.3437 5.53332 96.6 4.27705 96.6 2.73332ZM92.8666 2.73332C92.8666 2.21812 93.2848 1.79999 93.8 1.79999C94.3152 1.79999 94.7333 2.21812 94.7333 2.73332C94.7333 3.24852 94.3152 3.66665 93.8 3.66665C93.2848 3.66665 92.8666 3.24852 92.8666 2.73332Z" fill="#FAB55A"/>
<path d="M92.8666 2.73332C92.8666 2.21812 93.2848 1.79999 93.8 1.79999C94.3152 1.79999 94.7333 2.21812 94.7333 2.73332C94.7333 3.24852 94.3152 3.66665 93.8 3.66665C93.2848 3.66665 92.8666 3.24852 92.8666 2.73332Z" fill="#FAB55A"/>
<path d="M121.8 -4.73334C121.8 -6.27707 120.544 -7.53334 119 -7.53334C117.456 -7.53334 116.2 -6.27707 116.2 -4.73334C116.2 -3.18961 117.456 -1.93334 119 -1.93334C120.544 -1.93334 121.8 -3.18961 121.8 -4.73334ZM118.067 -4.73334C118.067 -5.24854 118.485 -5.66667 119 -5.66667C119.515 -5.66667 119.933 -5.24854 119.933 -4.73334C119.933 -4.21814 119.515 -3.80001 119 -3.80001C118.485 -3.80001 118.067 -4.21814 118.067 -4.73334Z" fill="#FAB55A"/>
<path d="M118.067 -4.73334C118.067 -5.24854 118.485 -5.66667 119 -5.66667C119.515 -5.66667 119.933 -5.24854 119.933 -4.73334C119.933 -4.21814 119.515 -3.80001 119 -3.80001C118.485 -3.80001 118.067 -4.21814 118.067 -4.73334Z" fill="#FAB55A"/>
<path d="M130.2 -9.40001C130.2 -10.9437 128.944 -12.2 127.4 -12.2C125.856 -12.2 124.6 -10.9437 124.6 -9.40001C124.6 -7.85627 125.856 -6.60001 127.4 -6.60001C128.944 -6.60001 130.2 -7.85627 130.2 -9.40001ZM126.467 -9.40001C126.467 -9.91521 126.885 -10.3333 127.4 -10.3333C127.915 -10.3333 128.333 -9.91521 128.333 -9.40001C128.333 -8.88481 127.915 -8.46667 127.4 -8.46667C126.885 -8.46667 126.467 -8.88481 126.467 -9.40001Z" fill="#FAB55A"/>
<path d="M126.467 -9.40001C126.467 -9.91521 126.885 -10.3333 127.4 -10.3333C127.915 -10.3333 128.333 -9.91521 128.333 -9.40001C128.333 -8.88481 127.915 -8.46667 127.4 -8.46667C126.885 -8.46667 126.467 -8.88481 126.467 -9.40001Z" fill="#FAB55A"/>
<path d="M138.6 -14.0667C138.6 -15.6104 137.344 -16.8667 135.8 -16.8667C134.256 -16.8667 133 -15.6104 133 -14.0667C133 -12.5229 134.256 -11.2667 135.8 -11.2667C137.344 -11.2667 138.6 -12.5229 138.6 -14.0667ZM134.867 -14.0667C134.867 -14.5819 135.285 -15 135.8 -15C136.315 -15 136.733 -14.5819 136.733 -14.0667C136.733 -13.5515 136.315 -13.1333 135.8 -13.1333C135.285 -13.1333 134.867 -13.5515 134.867 -14.0667Z" fill="#FAB55A"/>
<path d="M134.867 -14.0667C134.867 -14.5819 135.285 -15 135.8 -15C136.315 -15 136.733 -14.5819 136.733 -14.0667C136.733 -13.5515 136.315 -13.1333 135.8 -13.1333C135.285 -13.1333 134.867 -13.5515 134.867 -14.0667Z" fill="#FAB55A"/>
<path d="M147 -18.7333C147 -20.2771 145.744 -21.5333 144.2 -21.5333C142.656 -21.5333 141.4 -20.2771 141.4 -18.7333C141.4 -17.1896 142.656 -15.9333 144.2 -15.9333C145.744 -15.9333 147 -17.1896 147 -18.7333ZM143.267 -18.7333C143.267 -19.2485 143.685 -19.6667 144.2 -19.6667C144.715 -19.6667 145.133 -19.2485 145.133 -18.7333C145.133 -18.2181 144.715 -17.8 144.2 -17.8C143.685 -17.8 143.267 -18.2181 143.267 -18.7333Z" fill="#FAB55A"/>
<path d="M143.267 -18.7333C143.267 -19.2485 143.685 -19.6667 144.2 -19.6667C144.715 -19.6667 145.133 -19.2485 145.133 -18.7333C145.133 -18.2181 144.715 -17.8 144.2 -17.8C143.685 -17.8 143.267 -18.2181 143.267 -18.7333Z" fill="#FAB55A"/>
<path d="M113.4 -9.40001C113.4 -10.9437 112.144 -12.2 110.6 -12.2C109.056 -12.2 107.8 -10.9437 107.8 -9.40001C107.8 -7.85627 109.056 -6.60001 110.6 -6.60001C112.144 -6.60001 113.4 -7.85627 113.4 -9.40001ZM109.667 -9.40001C109.667 -9.91521 110.085 -10.3333 110.6 -10.3333C111.115 -10.3333 111.533 -9.91521 111.533 -9.40001C111.533 -8.88481 111.115 -8.46667 110.6 -8.46667C110.085 -8.46667 109.667 -8.88481 109.667 -9.40001Z" fill="#FAB55A"/>
<path d="M109.667 -9.40001C109.667 -9.91521 110.085 -10.3333 110.6 -10.3333C111.115 -10.3333 111.533 -9.91521 111.533 -9.40001C111.533 -8.88481 111.115 -8.46667 110.6 -8.46667C110.085 -8.46667 109.667 -8.88481 109.667 -9.40001Z" fill="#FAB55A"/>
<path d="M105 -14.0667C105 -15.6104 103.744 -16.8667 102.2 -16.8667C100.656 -16.8667 99.4 -15.6104 99.4 -14.0667C99.4 -12.5229 100.656 -11.2667 102.2 -11.2667C103.744 -11.2667 105 -12.5229 105 -14.0667ZM101.267 -14.0667C101.267 -14.5819 101.685 -15 102.2 -15C102.715 -15 103.133 -14.5819 103.133 -14.0667C103.133 -13.5515 102.715 -13.1333 102.2 -13.1333C101.685 -13.1333 101.267 -13.5515 101.267 -14.0667Z" fill="#FAB55A"/>
<path d="M101.267 -14.0667C101.267 -14.5819 101.685 -15 102.2 -15C102.715 -15 103.133 -14.5819 103.133 -14.0667C103.133 -13.5515 102.715 -13.1333 102.2 -13.1333C101.685 -13.1333 101.267 -13.5515 101.267 -14.0667Z" fill="#FAB55A"/>
<path d="M96.6 -18.7333C96.6 -20.2771 95.3437 -21.5333 93.8 -21.5333C92.2562 -21.5333 91 -20.2771 91 -18.7333C91 -17.1896 92.2562 -15.9333 93.8 -15.9333C95.3437 -15.9333 96.6 -17.1896 96.6 -18.7333ZM92.8666 -18.7333C92.8666 -19.2485 93.2848 -19.6667 93.8 -19.6667C94.3152 -19.6667 94.7333 -19.2485 94.7333 -18.7333C94.7333 -18.2181 94.3152 -17.8 93.8 -17.8C93.2848 -17.8 92.8666 -18.2181 92.8666 -18.7333Z" fill="#FAB55A"/>
<path d="M92.8666 -18.7333C92.8666 -19.2485 93.2848 -19.6667 93.8 -19.6667C94.3152 -19.6667 94.7333 -19.2485 94.7333 -18.7333C94.7333 -18.2181 94.3152 -17.8 93.8 -17.8C93.2848 -17.8 92.8666 -18.2181 92.8666 -18.7333Z" fill="#FAB55A"/>
<path d="M121.8 -12.2C121.8 -13.7437 120.544 -15 119 -15C117.456 -15 116.2 -13.7437 116.2 -12.2C116.2 -10.6563 117.456 -9.40001 119 -9.40001C120.544 -9.40001 121.8 -10.6563 121.8 -12.2ZM118.067 -12.2C118.067 -12.7152 118.485 -13.1333 119 -13.1333C119.515 -13.1333 119.933 -12.7152 119.933 -12.2C119.933 -11.6848 119.515 -11.2667 119 -11.2667C118.485 -11.2667 118.067 -11.6848 118.067 -12.2Z" fill="#FAB55A"/>
<path d="M118.067 -12.2C118.067 -12.7152 118.485 -13.1333 119 -13.1333C119.515 -13.1333 119.933 -12.7152 119.933 -12.2C119.933 -11.6848 119.515 -11.2667 119 -11.2667C118.485 -11.2667 118.067 -11.6848 118.067 -12.2Z" fill="#FAB55A"/>
<path d="M130.2 -16.8667C130.2 -18.4104 128.944 -19.6667 127.4 -19.6667C125.856 -19.6667 124.6 -18.4104 124.6 -16.8667C124.6 -15.3229 125.856 -14.0667 127.4 -14.0667C128.944 -14.0667 130.2 -15.3229 130.2 -16.8667ZM126.467 -16.8667C126.467 -17.3819 126.885 -17.8 127.4 -17.8C127.915 -17.8 128.333 -17.3819 128.333 -16.8667C128.333 -16.3515 127.915 -15.9333 127.4 -15.9333C126.885 -15.9333 126.467 -16.3515 126.467 -16.8667Z" fill="#FAB55A"/>
<path d="M126.467 -16.8667C126.467 -17.3819 126.885 -17.8 127.4 -17.8C127.915 -17.8 128.333 -17.3819 128.333 -16.8667C128.333 -16.3515 127.915 -15.9333 127.4 -15.9333C126.885 -15.9333 126.467 -16.3515 126.467 -16.8667Z" fill="#FAB55A"/>
<path d="M138.6 -21.5333C138.6 -23.0771 137.344 -24.3333 135.8 -24.3333C134.256 -24.3333 133 -23.0771 133 -21.5333C133 -19.9896 134.256 -18.7333 135.8 -18.7333C137.344 -18.7333 138.6 -19.9896 138.6 -21.5333ZM134.867 -21.5333C134.867 -22.0485 135.285 -22.4667 135.8 -22.4667C136.315 -22.4667 136.733 -22.0485 136.733 -21.5333C136.733 -21.0181 136.315 -20.6 135.8 -20.6C135.285 -20.6 134.867 -21.0181 134.867 -21.5333Z" fill="#FAB55A"/>
<path d="M134.867 -21.5333C134.867 -22.0485 135.285 -22.4667 135.8 -22.4667C136.315 -22.4667 136.733 -22.0485 136.733 -21.5333C136.733 -21.0181 136.315 -20.6 135.8 -20.6C135.285 -20.6 134.867 -21.0181 134.867 -21.5333Z" fill="#FAB55A"/>
<path d="M147 -26.2C147 -27.7437 145.744 -29 144.2 -29C142.656 -29 141.4 -27.7437 141.4 -26.2C141.4 -24.6563 142.656 -23.4 144.2 -23.4C145.744 -23.4 147 -24.6563 147 -26.2ZM143.267 -26.2C143.267 -26.7152 143.685 -27.1333 144.2 -27.1333C144.715 -27.1333 145.133 -26.7152 145.133 -26.2C145.133 -25.6848 144.715 -25.2667 144.2 -25.2667C143.685 -25.2667 143.267 -25.6848 143.267 -26.2Z" fill="#FAB55A"/>
<path d="M143.267 -26.2C143.267 -26.7152 143.685 -27.1333 144.2 -27.1333C144.715 -27.1333 145.133 -26.7152 145.133 -26.2C145.133 -25.6848 144.715 -25.2667 144.2 -25.2667C143.685 -25.2667 143.267 -25.6848 143.267 -26.2Z" fill="#FAB55A"/>
<path d="M113.4 -16.8667C113.4 -18.4104 112.144 -19.6667 110.6 -19.6667C109.056 -19.6667 107.8 -18.4104 107.8 -16.8667C107.8 -15.3229 109.056 -14.0667 110.6 -14.0667C112.144 -14.0667 113.4 -15.3229 113.4 -16.8667ZM109.667 -16.8667C109.667 -17.3819 110.085 -17.8 110.6 -17.8C111.115 -17.8 111.533 -17.3819 111.533 -16.8667C111.533 -16.3515 111.115 -15.9333 110.6 -15.9333C110.085 -15.9333 109.667 -16.3515 109.667 -16.8667Z" fill="#FAB55A"/>
<path d="M109.667 -16.8667C109.667 -17.3819 110.085 -17.8 110.6 -17.8C111.115 -17.8 111.533 -17.3819 111.533 -16.8667C111.533 -16.3515 111.115 -15.9333 110.6 -15.9333C110.085 -15.9333 109.667 -16.3515 109.667 -16.8667Z" fill="#FAB55A"/>
<path d="M105 -21.5333C105 -23.0771 103.744 -24.3333 102.2 -24.3333C100.656 -24.3333 99.4 -23.0771 99.4 -21.5333C99.4 -19.9896 100.656 -18.7333 102.2 -18.7333C103.744 -18.7333 105 -19.9896 105 -21.5333ZM101.267 -21.5333C101.267 -22.0485 101.685 -22.4667 102.2 -22.4667C102.715 -22.4667 103.133 -22.0485 103.133 -21.5333C103.133 -21.0181 102.715 -20.6 102.2 -20.6C101.685 -20.6 101.267 -21.0181 101.267 -21.5333Z" fill="#FAB55A"/>
<path d="M101.267 -21.5333C101.267 -22.0485 101.685 -22.4667 102.2 -22.4667C102.715 -22.4667 103.133 -22.0485 103.133 -21.5333C103.133 -21.0181 102.715 -20.6 102.2 -20.6C101.685 -20.6 101.267 -21.0181 101.267 -21.5333Z" fill="#FAB55A"/>
<path d="M96.6 -26.2C96.6 -27.7437 95.3437 -29 93.8 -29C92.2562 -29 91 -27.7437 91 -26.2C91 -24.6563 92.2562 -23.4 93.8 -23.4C95.3437 -23.4 96.6 -24.6563 96.6 -26.2ZM92.8666 -26.2C92.8666 -26.7152 93.2848 -27.1333 93.8 -27.1333C94.3152 -27.1333 94.7333 -26.7152 94.7333 -26.2C94.7333 -25.6848 94.3152 -25.2667 93.8 -25.2667C93.2848 -25.2667 92.8666 -25.6848 92.8666 -26.2Z" fill="#FAB55A"/>
<path d="M92.8666 -26.2C92.8666 -26.7152 93.2848 -27.1333 93.8 -27.1333C94.3152 -27.1333 94.7333 -26.7152 94.7333 -26.2C94.7333 -25.6848 94.3152 -25.2667 93.8 -25.2667C93.2848 -25.2667 92.8666 -25.6848 92.8666 -26.2Z" fill="#FAB55A"/>
<path d="M212.8 24.2C212.8 22.6562 211.544 21.4 210 21.4C208.456 21.4 207.2 22.6562 207.2 24.2C207.2 25.7437 208.456 27 210 27C211.544 27 212.8 25.7437 212.8 24.2ZM209.067 24.2C209.067 23.6848 209.485 23.2667 210 23.2667C210.515 23.2667 210.933 23.6848 210.933 24.2C210.933 24.7152 210.515 25.1333 210 25.1333C209.485 25.1333 209.067 24.7152 209.067 24.2Z" fill="#FAB55A"/>
<path d="M209.067 24.2C209.067 23.6848 209.485 23.2667 210 23.2667C210.515 23.2667 210.933 23.6848 210.933 24.2C210.933 24.7152 210.515 25.1333 210 25.1333C209.485 25.1333 209.067 24.7152 209.067 24.2Z" fill="#FAB55A"/>
<path d="M221.2 19.5333C221.2 17.9896 219.944 16.7333 218.4 16.7333C216.856 16.7333 215.6 17.9896 215.6 19.5333C215.6 21.0771 216.856 22.3333 218.4 22.3333C219.944 22.3333 221.2 21.0771 221.2 19.5333ZM217.467 19.5333C217.467 19.0181 217.885 18.6 218.4 18.6C218.915 18.6 219.333 19.0181 219.333 19.5333C219.333 20.0485 218.915 20.4667 218.4 20.4667C217.885 20.4667 217.467 20.0485 217.467 19.5333Z" fill="#FAB55A"/>
<path d="M217.467 19.5333C217.467 19.0181 217.885 18.6 218.4 18.6C218.915 18.6 219.333 19.0181 219.333 19.5333C219.333 20.0485 218.915 20.4667 218.4 20.4667C217.885 20.4667 217.467 20.0485 217.467 19.5333Z" fill="#FAB55A"/>
<path d="M229.6 14.8667C229.6 13.3229 228.344 12.0667 226.8 12.0667C225.256 12.0667 224 13.3229 224 14.8667C224 16.4104 225.256 17.6667 226.8 17.6667C228.344 17.6667 229.6 16.4104 229.6 14.8667ZM225.867 14.8667C225.867 14.3515 226.285 13.9333 226.8 13.9333C227.315 13.9333 227.733 14.3515 227.733 14.8667C227.733 15.3819 227.315 15.8 226.8 15.8C226.285 15.8 225.867 15.3819 225.867 14.8667Z" fill="#FAB55A"/>
<path d="M225.867 14.8667C225.867 14.3515 226.285 13.9333 226.8 13.9333C227.315 13.9333 227.733 14.3515 227.733 14.8667C227.733 15.3819 227.315 15.8 226.8 15.8C226.285 15.8 225.867 15.3819 225.867 14.8667Z" fill="#FAB55A"/>
<path d="M238 10.2C238 8.65626 236.744 7.39999 235.2 7.39999C233.656 7.39999 232.4 8.65626 232.4 10.2C232.4 11.7437 233.656 13 235.2 13C236.744 13 238 11.7437 238 10.2ZM234.267 10.2C234.267 9.68479 234.685 9.26666 235.2 9.26666C235.715 9.26666 236.133 9.68479 236.133 10.2C236.133 10.7152 235.715 11.1333 235.2 11.1333C234.685 11.1333 234.267 10.7152 234.267 10.2Z" fill="#FAB55A"/>
<path d="M234.267 10.2C234.267 9.68479 234.685 9.26666 235.2 9.26666C235.715 9.26666 236.133 9.68479 236.133 10.2C236.133 10.7152 235.715 11.1333 235.2 11.1333C234.685 11.1333 234.267 10.7152 234.267 10.2Z" fill="#FAB55A"/>
<path d="M204.4 19.5333C204.4 17.9896 203.144 16.7333 201.6 16.7333C200.056 16.7333 198.8 17.9896 198.8 19.5333C198.8 21.0771 200.056 22.3333 201.6 22.3333C203.144 22.3333 204.4 21.0771 204.4 19.5333ZM200.667 19.5333C200.667 19.0181 201.085 18.6 201.6 18.6C202.115 18.6 202.533 19.0181 202.533 19.5333C202.533 20.0485 202.115 20.4667 201.6 20.4667C201.085 20.4667 200.667 20.0485 200.667 19.5333Z" fill="#FAB55A"/>
<path d="M200.667 19.5333C200.667 19.0181 201.085 18.6 201.6 18.6C202.115 18.6 202.533 19.0181 202.533 19.5333C202.533 20.0485 202.115 20.4667 201.6 20.4667C201.085 20.4667 200.667 20.0485 200.667 19.5333Z" fill="#FAB55A"/>
<path d="M196 14.8667C196 13.3229 194.744 12.0667 193.2 12.0667C191.656 12.0667 190.4 13.3229 190.4 14.8667C190.4 16.4104 191.656 17.6667 193.2 17.6667C194.744 17.6667 196 16.4104 196 14.8667ZM192.267 14.8667C192.267 14.3515 192.685 13.9333 193.2 13.9333C193.715 13.9333 194.133 14.3515 194.133 14.8667C194.133 15.3819 193.715 15.8 193.2 15.8C192.685 15.8 192.267 15.3819 192.267 14.8667Z" fill="#FAB55A"/>
<path d="M192.267 14.8667C192.267 14.3515 192.685 13.9333 193.2 13.9333C193.715 13.9333 194.133 14.3515 194.133 14.8667C194.133 15.3819 193.715 15.8 193.2 15.8C192.685 15.8 192.267 15.3819 192.267 14.8667Z" fill="#FAB55A"/>
<path d="M187.6 10.2C187.6 8.65625 186.344 7.39999 184.8 7.39999C183.256 7.39999 182 8.65625 182 10.2C182 11.7437 183.256 13 184.8 13C186.344 13 187.6 11.7437 187.6 10.2ZM183.867 10.2C183.867 9.68479 184.285 9.26665 184.8 9.26665C185.315 9.26665 185.733 9.68479 185.733 10.2C185.733 10.7152 185.315 11.1333 184.8 11.1333C184.285 11.1333 183.867 10.7152 183.867 10.2Z" fill="#FAB55A"/>
<path d="M183.867 10.2C183.867 9.68479 184.285 9.26665 184.8 9.26665C185.315 9.26665 185.733 9.68479 185.733 10.2C185.733 10.7152 185.315 11.1333 184.8 11.1333C184.285 11.1333 183.867 10.7152 183.867 10.2Z" fill="#FAB55A"/>
<path d="M212.8 16.7333C212.8 15.1896 211.544 13.9333 210 13.9333C208.456 13.9333 207.2 15.1896 207.2 16.7333C207.2 18.2771 208.456 19.5333 210 19.5333C211.544 19.5333 212.8 18.2771 212.8 16.7333ZM209.067 16.7333C209.067 16.2181 209.485 15.8 210 15.8C210.515 15.8 210.933 16.2181 210.933 16.7333C210.933 17.2485 210.515 17.6666 210 17.6666C209.485 17.6666 209.067 17.2485 209.067 16.7333Z" fill="#FAB55A"/>
<path d="M209.067 16.7333C209.067 16.2181 209.485 15.8 210 15.8C210.515 15.8 210.933 16.2181 210.933 16.7333C210.933 17.2485 210.515 17.6666 210 17.6666C209.485 17.6666 209.067 17.2485 209.067 16.7333Z" fill="#FAB55A"/>
<path d="M221.2 12.0667C221.2 10.5229 219.944 9.26666 218.4 9.26666C216.856 9.26666 215.6 10.5229 215.6 12.0667C215.6 13.6104 216.856 14.8667 218.4 14.8667C219.944 14.8667 221.2 13.6104 221.2 12.0667ZM217.467 12.0667C217.467 11.5515 217.885 11.1333 218.4 11.1333C218.915 11.1333 219.333 11.5515 219.333 12.0667C219.333 12.5819 218.915 13 218.4 13C217.885 13 217.467 12.5819 217.467 12.0667Z" fill="#FAB55A"/>
<path d="M217.467 12.0667C217.467 11.5515 217.885 11.1333 218.4 11.1333C218.915 11.1333 219.333 11.5515 219.333 12.0667C219.333 12.5819 218.915 13 218.4 13C217.885 13 217.467 12.5819 217.467 12.0667Z" fill="#FAB55A"/>
<path d="M229.6 7.39999C229.6 5.85626 228.344 4.59999 226.8 4.59999C225.256 4.59999 224 5.85626 224 7.39999C224 8.94372 225.256 10.2 226.8 10.2C228.344 10.2 229.6 8.94372 229.6 7.39999ZM225.867 7.39999C225.867 6.88479 226.285 6.46665 226.8 6.46665C227.315 6.46665 227.733 6.88479 227.733 7.39999C227.733 7.91519 227.315 8.33332 226.8 8.33332C226.285 8.33332 225.867 7.91519 225.867 7.39999Z" fill="#FAB55A"/>
<path d="M225.867 7.39999C225.867 6.88479 226.285 6.46665 226.8 6.46665C227.315 6.46665 227.733 6.88479 227.733 7.39999C227.733 7.91519 227.315 8.33332 226.8 8.33332C226.285 8.33332 225.867 7.91519 225.867 7.39999Z" fill="#FAB55A"/>
<path d="M238 2.73332C238 1.18959 236.744 -0.0666752 235.2 -0.0666752C233.656 -0.0666753 232.4 1.18959 232.4 2.73332C232.4 4.27706 233.656 5.53332 235.2 5.53332C236.744 5.53332 238 4.27706 238 2.73332ZM234.267 2.73332C234.267 2.21812 234.685 1.79999 235.2 1.79999C235.715 1.79999 236.133 2.21812 236.133 2.73332C236.133 3.24852 235.715 3.66666 235.2 3.66666C234.685 3.66666 234.267 3.24852 234.267 2.73332Z" fill="#FAB55A"/>
<path d="M234.267 2.73332C234.267 2.21812 234.685 1.79999 235.2 1.79999C235.715 1.79999 236.133 2.21812 236.133 2.73332C236.133 3.24852 235.715 3.66666 235.2 3.66666C234.685 3.66666 234.267 3.24852 234.267 2.73332Z" fill="#FAB55A"/>
<path d="M204.4 12.0667C204.4 10.5229 203.144 9.26665 201.6 9.26665C200.056 9.26665 198.8 10.5229 198.8 12.0667C198.8 13.6104 200.056 14.8667 201.6 14.8667C203.144 14.8667 204.4 13.6104 204.4 12.0667ZM200.667 12.0667C200.667 11.5515 201.085 11.1333 201.6 11.1333C202.115 11.1333 202.533 11.5515 202.533 12.0667C202.533 12.5819 202.115 13 201.6 13C201.085 13 200.667 12.5819 200.667 12.0667Z" fill="#FAB55A"/>
<path d="M200.667 12.0667C200.667 11.5515 201.085 11.1333 201.6 11.1333C202.115 11.1333 202.533 11.5515 202.533 12.0667C202.533 12.5819 202.115 13 201.6 13C201.085 13 200.667 12.5819 200.667 12.0667Z" fill="#FAB55A"/>
<path d="M196 7.39999C196 5.85625 194.744 4.59999 193.2 4.59999C191.656 4.59999 190.4 5.85625 190.4 7.39999C190.4 8.94372 191.656 10.2 193.2 10.2C194.744 10.2 196 8.94372 196 7.39999ZM192.267 7.39999C192.267 6.88479 192.685 6.46665 193.2 6.46665C193.715 6.46665 194.133 6.88479 194.133 7.39999C194.133 7.91519 193.715 8.33332 193.2 8.33332C192.685 8.33332 192.267 7.91519 192.267 7.39999Z" fill="#FAB55A"/>
<path d="M192.267 7.39999C192.267 6.88479 192.685 6.46665 193.2 6.46665C193.715 6.46665 194.133 6.88479 194.133 7.39999C194.133 7.91519 193.715 8.33332 193.2 8.33332C192.685 8.33332 192.267 7.91519 192.267 7.39999Z" fill="#FAB55A"/>
<path d="M187.6 2.73332C187.6 1.18959 186.344 -0.0666778 184.8 -0.0666779C183.256 -0.066678 182 1.18959 182 2.73332C182 4.27705 183.256 5.53332 184.8 5.53332C186.344 5.53332 187.6 4.27705 187.6 2.73332ZM183.867 2.73332C183.867 2.21812 184.285 1.79999 184.8 1.79999C185.315 1.79999 185.733 2.21812 185.733 2.73332C185.733 3.24852 185.315 3.66665 184.8 3.66665C184.285 3.66665 183.867 3.24852 183.867 2.73332Z" fill="#FAB55A"/>
<path d="M183.867 2.73332C183.867 2.21812 184.285 1.79999 184.8 1.79999C185.315 1.79999 185.733 2.21812 185.733 2.73332C185.733 3.24852 185.315 3.66665 184.8 3.66665C184.285 3.66665 183.867 3.24852 183.867 2.73332Z" fill="#FAB55A"/>
<path d="M212.8 -4.73334C212.8 -6.27707 211.544 -7.53334 210 -7.53334C208.456 -7.53334 207.2 -6.27707 207.2 -4.73334C207.2 -3.18961 208.456 -1.93334 210 -1.93334C211.544 -1.93334 212.8 -3.18961 212.8 -4.73334ZM209.067 -4.73334C209.067 -5.24854 209.485 -5.66667 210 -5.66667C210.515 -5.66667 210.933 -5.24854 210.933 -4.73334C210.933 -4.21814 210.515 -3.80001 210 -3.80001C209.485 -3.80001 209.067 -4.21814 209.067 -4.73334Z" fill="#FAB55A"/>
<path d="M209.067 -4.73334C209.067 -5.24854 209.485 -5.66667 210 -5.66667C210.515 -5.66667 210.933 -5.24854 210.933 -4.73334C210.933 -4.21814 210.515 -3.80001 210 -3.80001C209.485 -3.80001 209.067 -4.21814 209.067 -4.73334Z" fill="#FAB55A"/>
<path d="M221.2 -9.40001C221.2 -10.9437 219.944 -12.2 218.4 -12.2C216.856 -12.2 215.6 -10.9437 215.6 -9.40001C215.6 -7.85627 216.856 -6.60001 218.4 -6.60001C219.944 -6.60001 221.2 -7.85627 221.2 -9.40001ZM217.467 -9.40001C217.467 -9.91521 217.885 -10.3333 218.4 -10.3333C218.915 -10.3333 219.333 -9.91521 219.333 -9.40001C219.333 -8.88481 218.915 -8.46667 218.4 -8.46667C217.885 -8.46667 217.467 -8.88481 217.467 -9.40001Z" fill="#FAB55A"/>
<path d="M217.467 -9.40001C217.467 -9.91521 217.885 -10.3333 218.4 -10.3333C218.915 -10.3333 219.333 -9.91521 219.333 -9.40001C219.333 -8.88481 218.915 -8.46667 218.4 -8.46667C217.885 -8.46667 217.467 -8.88481 217.467 -9.40001Z" fill="#FAB55A"/>
<path d="M229.6 -14.0667C229.6 -15.6104 228.344 -16.8667 226.8 -16.8667C225.256 -16.8667 224 -15.6104 224 -14.0667C224 -12.5229 225.256 -11.2667 226.8 -11.2667C228.344 -11.2667 229.6 -12.5229 229.6 -14.0667ZM225.867 -14.0667C225.867 -14.5819 226.285 -15 226.8 -15C227.315 -15 227.733 -14.5819 227.733 -14.0667C227.733 -13.5515 227.315 -13.1333 226.8 -13.1333C226.285 -13.1333 225.867 -13.5515 225.867 -14.0667Z" fill="#FAB55A"/>
<path d="M225.867 -14.0667C225.867 -14.5819 226.285 -15 226.8 -15C227.315 -15 227.733 -14.5819 227.733 -14.0667C227.733 -13.5515 227.315 -13.1333 226.8 -13.1333C226.285 -13.1333 225.867 -13.5515 225.867 -14.0667Z" fill="#FAB55A"/>
<path d="M238 -18.7333C238 -20.2771 236.744 -21.5333 235.2 -21.5333C233.656 -21.5333 232.4 -20.2771 232.4 -18.7333C232.4 -17.1896 233.656 -15.9333 235.2 -15.9333C236.744 -15.9333 238 -17.1896 238 -18.7333ZM234.267 -18.7333C234.267 -19.2485 234.685 -19.6667 235.2 -19.6667C235.715 -19.6667 236.133 -19.2485 236.133 -18.7333C236.133 -18.2181 235.715 -17.8 235.2 -17.8C234.685 -17.8 234.267 -18.2181 234.267 -18.7333Z" fill="#FAB55A"/>
<path d="M234.267 -18.7333C234.267 -19.2485 234.685 -19.6667 235.2 -19.6667C235.715 -19.6667 236.133 -19.2485 236.133 -18.7333C236.133 -18.2181 235.715 -17.8 235.2 -17.8C234.685 -17.8 234.267 -18.2181 234.267 -18.7333Z" fill="#FAB55A"/>
<path d="M204.4 -9.40001C204.4 -10.9437 203.144 -12.2 201.6 -12.2C200.056 -12.2 198.8 -10.9437 198.8 -9.40001C198.8 -7.85627 200.056 -6.60001 201.6 -6.60001C203.144 -6.60001 204.4 -7.85627 204.4 -9.40001ZM200.667 -9.40001C200.667 -9.91521 201.085 -10.3333 201.6 -10.3333C202.115 -10.3333 202.533 -9.91521 202.533 -9.40001C202.533 -8.88481 202.115 -8.46667 201.6 -8.46667C201.085 -8.46667 200.667 -8.88481 200.667 -9.40001Z" fill="#FAB55A"/>
<path d="M200.667 -9.40001C200.667 -9.91521 201.085 -10.3333 201.6 -10.3333C202.115 -10.3333 202.533 -9.91521 202.533 -9.40001C202.533 -8.88481 202.115 -8.46667 201.6 -8.46667C201.085 -8.46667 200.667 -8.88481 200.667 -9.40001Z" fill="#FAB55A"/>
<path d="M196 -14.0667C196 -15.6104 194.744 -16.8667 193.2 -16.8667C191.656 -16.8667 190.4 -15.6104 190.4 -14.0667C190.4 -12.5229 191.656 -11.2667 193.2 -11.2667C194.744 -11.2667 196 -12.5229 196 -14.0667ZM192.267 -14.0667C192.267 -14.5819 192.685 -15 193.2 -15C193.715 -15 194.133 -14.5819 194.133 -14.0667C194.133 -13.5515 193.715 -13.1333 193.2 -13.1333C192.685 -13.1333 192.267 -13.5515 192.267 -14.0667Z" fill="#FAB55A"/>
<path d="M192.267 -14.0667C192.267 -14.5819 192.685 -15 193.2 -15C193.715 -15 194.133 -14.5819 194.133 -14.0667C194.133 -13.5515 193.715 -13.1333 193.2 -13.1333C192.685 -13.1333 192.267 -13.5515 192.267 -14.0667Z" fill="#FAB55A"/>
<path d="M187.6 -18.7333C187.6 -20.2771 186.344 -21.5333 184.8 -21.5333C183.256 -21.5333 182 -20.2771 182 -18.7333C182 -17.1896 183.256 -15.9333 184.8 -15.9333C186.344 -15.9333 187.6 -17.1896 187.6 -18.7333ZM183.867 -18.7333C183.867 -19.2485 184.285 -19.6667 184.8 -19.6667C185.315 -19.6667 185.733 -19.2485 185.733 -18.7333C185.733 -18.2181 185.315 -17.8 184.8 -17.8C184.285 -17.8 183.867 -18.2181 183.867 -18.7333Z" fill="#FAB55A"/>
<path d="M183.867 -18.7333C183.867 -19.2485 184.285 -19.6667 184.8 -19.6667C185.315 -19.6667 185.733 -19.2485 185.733 -18.7333C185.733 -18.2181 185.315 -17.8 184.8 -17.8C184.285 -17.8 183.867 -18.2181 183.867 -18.7333Z" fill="#FAB55A"/>
<path d="M212.8 -12.2C212.8 -13.7437 211.544 -15 210 -15C208.456 -15 207.2 -13.7437 207.2 -12.2C207.2 -10.6563 208.456 -9.40001 210 -9.40001C211.544 -9.40001 212.8 -10.6563 212.8 -12.2ZM209.067 -12.2C209.067 -12.7152 209.485 -13.1333 210 -13.1333C210.515 -13.1333 210.933 -12.7152 210.933 -12.2C210.933 -11.6848 210.515 -11.2667 210 -11.2667C209.485 -11.2667 209.067 -11.6848 209.067 -12.2Z" fill="#FAB55A"/>
<path d="M209.067 -12.2C209.067 -12.7152 209.485 -13.1333 210 -13.1333C210.515 -13.1333 210.933 -12.7152 210.933 -12.2C210.933 -11.6848 210.515 -11.2667 210 -11.2667C209.485 -11.2667 209.067 -11.6848 209.067 -12.2Z" fill="#FAB55A"/>
<path d="M221.2 -16.8667C221.2 -18.4104 219.944 -19.6667 218.4 -19.6667C216.856 -19.6667 215.6 -18.4104 215.6 -16.8667C215.6 -15.3229 216.856 -14.0667 218.4 -14.0667C219.944 -14.0667 221.2 -15.3229 221.2 -16.8667ZM217.467 -16.8667C217.467 -17.3819 217.885 -17.8 218.4 -17.8C218.915 -17.8 219.333 -17.3819 219.333 -16.8667C219.333 -16.3515 218.915 -15.9333 218.4 -15.9333C217.885 -15.9333 217.467 -16.3515 217.467 -16.8667Z" fill="#FAB55A"/>
<path d="M217.467 -16.8667C217.467 -17.3819 217.885 -17.8 218.4 -17.8C218.915 -17.8 219.333 -17.3819 219.333 -16.8667C219.333 -16.3515 218.915 -15.9333 218.4 -15.9333C217.885 -15.9333 217.467 -16.3515 217.467 -16.8667Z" fill="#FAB55A"/>
<path d="M229.6 -21.5333C229.6 -23.0771 228.344 -24.3333 226.8 -24.3333C225.256 -24.3333 224 -23.0771 224 -21.5333C224 -19.9896 225.256 -18.7333 226.8 -18.7333C228.344 -18.7333 229.6 -19.9896 229.6 -21.5333ZM225.867 -21.5333C225.867 -22.0485 226.285 -22.4667 226.8 -22.4667C227.315 -22.4667 227.733 -22.0485 227.733 -21.5333C227.733 -21.0181 227.315 -20.6 226.8 -20.6C226.285 -20.6 225.867 -21.0181 225.867 -21.5333Z" fill="#FAB55A"/>
<path d="M225.867 -21.5333C225.867 -22.0485 226.285 -22.4667 226.8 -22.4667C227.315 -22.4667 227.733 -22.0485 227.733 -21.5333C227.733 -21.0181 227.315 -20.6 226.8 -20.6C226.285 -20.6 225.867 -21.0181 225.867 -21.5333Z" fill="#FAB55A"/>
<path d="M238 -26.2C238 -27.7437 236.744 -29 235.2 -29C233.656 -29 232.4 -27.7437 232.4 -26.2C232.4 -24.6563 233.656 -23.4 235.2 -23.4C236.744 -23.4 238 -24.6563 238 -26.2ZM234.267 -26.2C234.267 -26.7152 234.685 -27.1333 235.2 -27.1333C235.715 -27.1333 236.133 -26.7152 236.133 -26.2C236.133 -25.6848 235.715 -25.2667 235.2 -25.2667C234.685 -25.2667 234.267 -25.6848 234.267 -26.2Z" fill="#FAB55A"/>
<path d="M234.267 -26.2C234.267 -26.7152 234.685 -27.1333 235.2 -27.1333C235.715 -27.1333 236.133 -26.7152 236.133 -26.2C236.133 -25.6848 235.715 -25.2667 235.2 -25.2667C234.685 -25.2667 234.267 -25.6848 234.267 -26.2Z" fill="#FAB55A"/>
<path d="M204.4 -16.8667C204.4 -18.4104 203.144 -19.6667 201.6 -19.6667C200.056 -19.6667 198.8 -18.4104 198.8 -16.8667C198.8 -15.3229 200.056 -14.0667 201.6 -14.0667C203.144 -14.0667 204.4 -15.3229 204.4 -16.8667ZM200.667 -16.8667C200.667 -17.3819 201.085 -17.8 201.6 -17.8C202.115 -17.8 202.533 -17.3819 202.533 -16.8667C202.533 -16.3515 202.115 -15.9333 201.6 -15.9333C201.085 -15.9333 200.667 -16.3515 200.667 -16.8667Z" fill="#FAB55A"/>
<path d="M200.667 -16.8667C200.667 -17.3819 201.085 -17.8 201.6 -17.8C202.115 -17.8 202.533 -17.3819 202.533 -16.8667C202.533 -16.3515 202.115 -15.9333 201.6 -15.9333C201.085 -15.9333 200.667 -16.3515 200.667 -16.8667Z" fill="#FAB55A"/>
<path d="M196 -21.5333C196 -23.0771 194.744 -24.3333 193.2 -24.3333C191.656 -24.3333 190.4 -23.0771 190.4 -21.5333C190.4 -19.9896 191.656 -18.7333 193.2 -18.7333C194.744 -18.7333 196 -19.9896 196 -21.5333ZM192.267 -21.5333C192.267 -22.0485 192.685 -22.4667 193.2 -22.4667C193.715 -22.4667 194.133 -22.0485 194.133 -21.5333C194.133 -21.0181 193.715 -20.6 193.2 -20.6C192.685 -20.6 192.267 -21.0181 192.267 -21.5333Z" fill="#FAB55A"/>
<path d="M192.267 -21.5333C192.267 -22.0485 192.685 -22.4667 193.2 -22.4667C193.715 -22.4667 194.133 -22.0485 194.133 -21.5333C194.133 -21.0181 193.715 -20.6 193.2 -20.6C192.685 -20.6 192.267 -21.0181 192.267 -21.5333Z" fill="#FAB55A"/>
<path d="M187.6 -26.2C187.6 -27.7437 186.344 -29 184.8 -29C183.256 -29 182 -27.7437 182 -26.2C182 -24.6563 183.256 -23.4 184.8 -23.4C186.344 -23.4 187.6 -24.6563 187.6 -26.2ZM183.867 -26.2C183.867 -26.7152 184.285 -27.1333 184.8 -27.1333C185.315 -27.1333 185.733 -26.7152 185.733 -26.2C185.733 -25.6848 185.315 -25.2667 184.8 -25.2667C184.285 -25.2667 183.867 -25.6848 183.867 -26.2Z" fill="#FAB55A"/>
<path d="M183.867 -26.2C183.867 -26.7152 184.285 -27.1333 184.8 -27.1333C185.315 -27.1333 185.733 -26.7152 185.733 -26.2C185.733 -25.6848 185.315 -25.2667 184.8 -25.2667C184.285 -25.2667 183.867 -25.6848 183.867 -26.2Z" fill="#FAB55A"/>
<path d="M303.8 24.2C303.8 22.6562 302.544 21.4 301 21.4C299.456 21.4 298.2 22.6562 298.2 24.2C298.2 25.7437 299.456 27 301 27C302.544 27 303.8 25.7437 303.8 24.2ZM300.067 24.2C300.067 23.6848 300.485 23.2667 301 23.2667C301.515 23.2667 301.933 23.6848 301.933 24.2C301.933 24.7152 301.515 25.1333 301 25.1333C300.485 25.1333 300.067 24.7152 300.067 24.2Z" fill="#FAB55A"/>
<path d="M300.067 24.2C300.067 23.6848 300.485 23.2667 301 23.2667C301.515 23.2667 301.933 23.6848 301.933 24.2C301.933 24.7152 301.515 25.1333 301 25.1333C300.485 25.1333 300.067 24.7152 300.067 24.2Z" fill="#FAB55A"/>
<path d="M312.2 19.5333C312.2 17.9896 310.944 16.7333 309.4 16.7333C307.856 16.7333 306.6 17.9896 306.6 19.5333C306.6 21.0771 307.856 22.3333 309.4 22.3333C310.944 22.3333 312.2 21.0771 312.2 19.5333ZM308.467 19.5333C308.467 19.0181 308.885 18.6 309.4 18.6C309.915 18.6 310.333 19.0181 310.333 19.5333C310.333 20.0485 309.915 20.4667 309.4 20.4667C308.885 20.4667 308.467 20.0485 308.467 19.5333Z" fill="#FAB55A"/>
<path d="M308.467 19.5333C308.467 19.0181 308.885 18.6 309.4 18.6C309.915 18.6 310.333 19.0181 310.333 19.5333C310.333 20.0485 309.915 20.4667 309.4 20.4667C308.885 20.4667 308.467 20.0485 308.467 19.5333Z" fill="#FAB55A"/>
<path d="M320.6 14.8667C320.6 13.3229 319.344 12.0667 317.8 12.0667C316.256 12.0667 315 13.3229 315 14.8667C315 16.4104 316.256 17.6667 317.8 17.6667C319.344 17.6667 320.6 16.4104 320.6 14.8667ZM316.867 14.8667C316.867 14.3515 317.285 13.9333 317.8 13.9333C318.315 13.9333 318.733 14.3515 318.733 14.8667C318.733 15.3819 318.315 15.8 317.8 15.8C317.285 15.8 316.867 15.3819 316.867 14.8667Z" fill="#FAB55A"/>
<path d="M316.867 14.8667C316.867 14.3515 317.285 13.9333 317.8 13.9333C318.315 13.9333 318.733 14.3515 318.733 14.8667C318.733 15.3819 318.315 15.8 317.8 15.8C317.285 15.8 316.867 15.3819 316.867 14.8667Z" fill="#FAB55A"/>
<path d="M329 10.2C329 8.65626 327.744 7.39999 326.2 7.39999C324.656 7.39999 323.4 8.65626 323.4 10.2C323.4 11.7437 324.656 13 326.2 13C327.744 13 329 11.7437 329 10.2ZM325.267 10.2C325.267 9.68479 325.685 9.26666 326.2 9.26666C326.715 9.26666 327.133 9.68479 327.133 10.2C327.133 10.7152 326.715 11.1333 326.2 11.1333C325.685 11.1333 325.267 10.7152 325.267 10.2Z" fill="#FAB55A"/>
<path d="M325.267 10.2C325.267 9.68479 325.685 9.26666 326.2 9.26666C326.715 9.26666 327.133 9.68479 327.133 10.2C327.133 10.7152 326.715 11.1333 326.2 11.1333C325.685 11.1333 325.267 10.7152 325.267 10.2Z" fill="#FAB55A"/>
<path d="M295.4 19.5333C295.4 17.9896 294.144 16.7333 292.6 16.7333C291.056 16.7333 289.8 17.9896 289.8 19.5333C289.8 21.0771 291.056 22.3333 292.6 22.3333C294.144 22.3333 295.4 21.0771 295.4 19.5333ZM291.667 19.5333C291.667 19.0181 292.085 18.6 292.6 18.6C293.115 18.6 293.533 19.0181 293.533 19.5333C293.533 20.0485 293.115 20.4667 292.6 20.4667C292.085 20.4667 291.667 20.0485 291.667 19.5333Z" fill="#FAB55A"/>
<path d="M291.667 19.5333C291.667 19.0181 292.085 18.6 292.6 18.6C293.115 18.6 293.533 19.0181 293.533 19.5333C293.533 20.0485 293.115 20.4667 292.6 20.4667C292.085 20.4667 291.667 20.0485 291.667 19.5333Z" fill="#FAB55A"/>
<path d="M287 14.8667C287 13.3229 285.744 12.0667 284.2 12.0667C282.656 12.0667 281.4 13.3229 281.4 14.8667C281.4 16.4104 282.656 17.6667 284.2 17.6667C285.744 17.6667 287 16.4104 287 14.8667ZM283.267 14.8667C283.267 14.3515 283.685 13.9333 284.2 13.9333C284.715 13.9333 285.133 14.3515 285.133 14.8667C285.133 15.3819 284.715 15.8 284.2 15.8C283.685 15.8 283.267 15.3819 283.267 14.8667Z" fill="#FAB55A"/>
<path d="M283.267 14.8667C283.267 14.3515 283.685 13.9333 284.2 13.9333C284.715 13.9333 285.133 14.3515 285.133 14.8667C285.133 15.3819 284.715 15.8 284.2 15.8C283.685 15.8 283.267 15.3819 283.267 14.8667Z" fill="#FAB55A"/>
<path d="M278.6 10.2C278.6 8.65625 277.344 7.39999 275.8 7.39999C274.256 7.39999 273 8.65625 273 10.2C273 11.7437 274.256 13 275.8 13C277.344 13 278.6 11.7437 278.6 10.2ZM274.867 10.2C274.867 9.68479 275.285 9.26665 275.8 9.26665C276.315 9.26665 276.733 9.68479 276.733 10.2C276.733 10.7152 276.315 11.1333 275.8 11.1333C275.285 11.1333 274.867 10.7152 274.867 10.2Z" fill="#FAB55A"/>
<path d="M274.867 10.2C274.867 9.68479 275.285 9.26665 275.8 9.26665C276.315 9.26665 276.733 9.68479 276.733 10.2C276.733 10.7152 276.315 11.1333 275.8 11.1333C275.285 11.1333 274.867 10.7152 274.867 10.2Z" fill="#FAB55A"/>
<path d="M303.8 16.7333C303.8 15.1896 302.544 13.9333 301 13.9333C299.456 13.9333 298.2 15.1896 298.2 16.7333C298.2 18.2771 299.456 19.5333 301 19.5333C302.544 19.5333 303.8 18.2771 303.8 16.7333ZM300.067 16.7333C300.067 16.2181 300.485 15.8 301 15.8C301.515 15.8 301.933 16.2181 301.933 16.7333C301.933 17.2485 301.515 17.6666 301 17.6666C300.485 17.6666 300.067 17.2485 300.067 16.7333Z" fill="#FAB55A"/>
<path d="M300.067 16.7333C300.067 16.2181 300.485 15.8 301 15.8C301.515 15.8 301.933 16.2181 301.933 16.7333C301.933 17.2485 301.515 17.6666 301 17.6666C300.485 17.6666 300.067 17.2485 300.067 16.7333Z" fill="#FAB55A"/>
<path d="M312.2 12.0667C312.2 10.5229 310.944 9.26666 309.4 9.26666C307.856 9.26666 306.6 10.5229 306.6 12.0667C306.6 13.6104 307.856 14.8667 309.4 14.8667C310.944 14.8667 312.2 13.6104 312.2 12.0667ZM308.467 12.0667C308.467 11.5515 308.885 11.1333 309.4 11.1333C309.915 11.1333 310.333 11.5515 310.333 12.0667C310.333 12.5819 309.915 13 309.4 13C308.885 13 308.467 12.5819 308.467 12.0667Z" fill="#FAB55A"/>
<path d="M308.467 12.0667C308.467 11.5515 308.885 11.1333 309.4 11.1333C309.915 11.1333 310.333 11.5515 310.333 12.0667C310.333 12.5819 309.915 13 309.4 13C308.885 13 308.467 12.5819 308.467 12.0667Z" fill="#FAB55A"/>
<path d="M320.6 7.39999C320.6 5.85626 319.344 4.59999 317.8 4.59999C316.256 4.59999 315 5.85626 315 7.39999C315 8.94372 316.256 10.2 317.8 10.2C319.344 10.2 320.6 8.94372 320.6 7.39999ZM316.867 7.39999C316.867 6.88479 317.285 6.46665 317.8 6.46665C318.315 6.46665 318.733 6.88479 318.733 7.39999C318.733 7.91519 318.315 8.33332 317.8 8.33332C317.285 8.33332 316.867 7.91519 316.867 7.39999Z" fill="#FAB55A"/>
<path d="M316.867 7.39999C316.867 6.88479 317.285 6.46665 317.8 6.46665C318.315 6.46665 318.733 6.88479 318.733 7.39999C318.733 7.91519 318.315 8.33332 317.8 8.33332C317.285 8.33332 316.867 7.91519 316.867 7.39999Z" fill="#FAB55A"/>
<path d="M329 2.73332C329 1.18959 327.744 -0.0666752 326.2 -0.0666752C324.656 -0.0666753 323.4 1.18959 323.4 2.73332C323.4 4.27706 324.656 5.53332 326.2 5.53332C327.744 5.53332 329 4.27706 329 2.73332ZM325.267 2.73332C325.267 2.21812 325.685 1.79999 326.2 1.79999C326.715 1.79999 327.133 2.21812 327.133 2.73332C327.133 3.24852 326.715 3.66666 326.2 3.66666C325.685 3.66666 325.267 3.24852 325.267 2.73332Z" fill="#FAB55A"/>
<path d="M325.267 2.73332C325.267 2.21812 325.685 1.79999 326.2 1.79999C326.715 1.79999 327.133 2.21812 327.133 2.73332C327.133 3.24852 326.715 3.66666 326.2 3.66666C325.685 3.66666 325.267 3.24852 325.267 2.73332Z" fill="#FAB55A"/>
<path d="M295.4 12.0667C295.4 10.5229 294.144 9.26665 292.6 9.26665C291.056 9.26665 289.8 10.5229 289.8 12.0667C289.8 13.6104 291.056 14.8667 292.6 14.8667C294.144 14.8667 295.4 13.6104 295.4 12.0667ZM291.667 12.0667C291.667 11.5515 292.085 11.1333 292.6 11.1333C293.115 11.1333 293.533 11.5515 293.533 12.0667C293.533 12.5819 293.115 13 292.6 13C292.085 13 291.667 12.5819 291.667 12.0667Z" fill="#FAB55A"/>
<path d="M291.667 12.0667C291.667 11.5515 292.085 11.1333 292.6 11.1333C293.115 11.1333 293.533 11.5515 293.533 12.0667C293.533 12.5819 293.115 13 292.6 13C292.085 13 291.667 12.5819 291.667 12.0667Z" fill="#FAB55A"/>
<path d="M287 7.39999C287 5.85625 285.744 4.59999 284.2 4.59999C282.656 4.59999 281.4 5.85625 281.4 7.39999C281.4 8.94372 282.656 10.2 284.2 10.2C285.744 10.2 287 8.94372 287 7.39999ZM283.267 7.39999C283.267 6.88479 283.685 6.46665 284.2 6.46665C284.715 6.46665 285.133 6.88479 285.133 7.39999C285.133 7.91519 284.715 8.33332 284.2 8.33332C283.685 8.33332 283.267 7.91519 283.267 7.39999Z" fill="#FAB55A"/>
<path d="M283.267 7.39999C283.267 6.88479 283.685 6.46665 284.2 6.46665C284.715 6.46665 285.133 6.88479 285.133 7.39999C285.133 7.91519 284.715 8.33332 284.2 8.33332C283.685 8.33332 283.267 7.91519 283.267 7.39999Z" fill="#FAB55A"/>
<path d="M278.6 2.73332C278.6 1.18959 277.344 -0.0666778 275.8 -0.0666779C274.256 -0.066678 273 1.18959 273 2.73332C273 4.27705 274.256 5.53332 275.8 5.53332C277.344 5.53332 278.6 4.27705 278.6 2.73332ZM274.867 2.73332C274.867 2.21812 275.285 1.79999 275.8 1.79999C276.315 1.79999 276.733 2.21812 276.733 2.73332C276.733 3.24852 276.315 3.66665 275.8 3.66665C275.285 3.66665 274.867 3.24852 274.867 2.73332Z" fill="#FAB55A"/>
<path d="M274.867 2.73332C274.867 2.21812 275.285 1.79999 275.8 1.79999C276.315 1.79999 276.733 2.21812 276.733 2.73332C276.733 3.24852 276.315 3.66665 275.8 3.66665C275.285 3.66665 274.867 3.24852 274.867 2.73332Z" fill="#FAB55A"/>
<path d="M303.8 -4.73334C303.8 -6.27707 302.544 -7.53334 301 -7.53334C299.456 -7.53334 298.2 -6.27707 298.2 -4.73334C298.2 -3.18961 299.456 -1.93334 301 -1.93334C302.544 -1.93334 303.8 -3.18961 303.8 -4.73334ZM300.067 -4.73334C300.067 -5.24854 300.485 -5.66667 301 -5.66667C301.515 -5.66667 301.933 -5.24854 301.933 -4.73334C301.933 -4.21814 301.515 -3.80001 301 -3.80001C300.485 -3.80001 300.067 -4.21814 300.067 -4.73334Z" fill="#FAB55A"/>
<path d="M300.067 -4.73334C300.067 -5.24854 300.485 -5.66667 301 -5.66667C301.515 -5.66667 301.933 -5.24854 301.933 -4.73334C301.933 -4.21814 301.515 -3.80001 301 -3.80001C300.485 -3.80001 300.067 -4.21814 300.067 -4.73334Z" fill="#FAB55A"/>
<path d="M312.2 -9.40001C312.2 -10.9437 310.944 -12.2 309.4 -12.2C307.856 -12.2 306.6 -10.9437 306.6 -9.40001C306.6 -7.85627 307.856 -6.60001 309.4 -6.60001C310.944 -6.60001 312.2 -7.85627 312.2 -9.40001ZM308.467 -9.40001C308.467 -9.91521 308.885 -10.3333 309.4 -10.3333C309.915 -10.3333 310.333 -9.91521 310.333 -9.40001C310.333 -8.88481 309.915 -8.46667 309.4 -8.46667C308.885 -8.46667 308.467 -8.88481 308.467 -9.40001Z" fill="#FAB55A"/>
<path d="M308.467 -9.40001C308.467 -9.91521 308.885 -10.3333 309.4 -10.3333C309.915 -10.3333 310.333 -9.91521 310.333 -9.40001C310.333 -8.88481 309.915 -8.46667 309.4 -8.46667C308.885 -8.46667 308.467 -8.88481 308.467 -9.40001Z" fill="#FAB55A"/>
<path d="M320.6 -14.0667C320.6 -15.6104 319.344 -16.8667 317.8 -16.8667C316.256 -16.8667 315 -15.6104 315 -14.0667C315 -12.5229 316.256 -11.2667 317.8 -11.2667C319.344 -11.2667 320.6 -12.5229 320.6 -14.0667ZM316.867 -14.0667C316.867 -14.5819 317.285 -15 317.8 -15C318.315 -15 318.733 -14.5819 318.733 -14.0667C318.733 -13.5515 318.315 -13.1333 317.8 -13.1333C317.285 -13.1333 316.867 -13.5515 316.867 -14.0667Z" fill="#FAB55A"/>
<path d="M316.867 -14.0667C316.867 -14.5819 317.285 -15 317.8 -15C318.315 -15 318.733 -14.5819 318.733 -14.0667C318.733 -13.5515 318.315 -13.1333 317.8 -13.1333C317.285 -13.1333 316.867 -13.5515 316.867 -14.0667Z" fill="#FAB55A"/>
<path d="M329 -18.7333C329 -20.2771 327.744 -21.5333 326.2 -21.5333C324.656 -21.5333 323.4 -20.2771 323.4 -18.7333C323.4 -17.1896 324.656 -15.9333 326.2 -15.9333C327.744 -15.9333 329 -17.1896 329 -18.7333ZM325.267 -18.7333C325.267 -19.2485 325.685 -19.6667 326.2 -19.6667C326.715 -19.6667 327.133 -19.2485 327.133 -18.7333C327.133 -18.2181 326.715 -17.8 326.2 -17.8C325.685 -17.8 325.267 -18.2181 325.267 -18.7333Z" fill="#FAB55A"/>
<path d="M325.267 -18.7333C325.267 -19.2485 325.685 -19.6667 326.2 -19.6667C326.715 -19.6667 327.133 -19.2485 327.133 -18.7333C327.133 -18.2181 326.715 -17.8 326.2 -17.8C325.685 -17.8 325.267 -18.2181 325.267 -18.7333Z" fill="#FAB55A"/>
<path d="M295.4 -9.40001C295.4 -10.9437 294.144 -12.2 292.6 -12.2C291.056 -12.2 289.8 -10.9437 289.8 -9.40001C289.8 -7.85627 291.056 -6.60001 292.6 -6.60001C294.144 -6.60001 295.4 -7.85627 295.4 -9.40001ZM291.667 -9.40001C291.667 -9.91521 292.085 -10.3333 292.6 -10.3333C293.115 -10.3333 293.533 -9.91521 293.533 -9.40001C293.533 -8.88481 293.115 -8.46667 292.6 -8.46667C292.085 -8.46667 291.667 -8.88481 291.667 -9.40001Z" fill="#FAB55A"/>
<path d="M291.667 -9.40001C291.667 -9.91521 292.085 -10.3333 292.6 -10.3333C293.115 -10.3333 293.533 -9.91521 293.533 -9.40001C293.533 -8.88481 293.115 -8.46667 292.6 -8.46667C292.085 -8.46667 291.667 -8.88481 291.667 -9.40001Z" fill="#FAB55A"/>
<path d="M287 -14.0667C287 -15.6104 285.744 -16.8667 284.2 -16.8667C282.656 -16.8667 281.4 -15.6104 281.4 -14.0667C281.4 -12.5229 282.656 -11.2667 284.2 -11.2667C285.744 -11.2667 287 -12.5229 287 -14.0667ZM283.267 -14.0667C283.267 -14.5819 283.685 -15 284.2 -15C284.715 -15 285.133 -14.5819 285.133 -14.0667C285.133 -13.5515 284.715 -13.1333 284.2 -13.1333C283.685 -13.1333 283.267 -13.5515 283.267 -14.0667Z" fill="#FAB55A"/>
<path d="M283.267 -14.0667C283.267 -14.5819 283.685 -15 284.2 -15C284.715 -15 285.133 -14.5819 285.133 -14.0667C285.133 -13.5515 284.715 -13.1333 284.2 -13.1333C283.685 -13.1333 283.267 -13.5515 283.267 -14.0667Z" fill="#FAB55A"/>
<path d="M278.6 -18.7333C278.6 -20.2771 277.344 -21.5333 275.8 -21.5333C274.256 -21.5333 273 -20.2771 273 -18.7333C273 -17.1896 274.256 -15.9333 275.8 -15.9333C277.344 -15.9333 278.6 -17.1896 278.6 -18.7333ZM274.867 -18.7333C274.867 -19.2485 275.285 -19.6667 275.8 -19.6667C276.315 -19.6667 276.733 -19.2485 276.733 -18.7333C276.733 -18.2181 276.315 -17.8 275.8 -17.8C275.285 -17.8 274.867 -18.2181 274.867 -18.7333Z" fill="#FAB55A"/>
<path d="M274.867 -18.7333C274.867 -19.2485 275.285 -19.6667 275.8 -19.6667C276.315 -19.6667 276.733 -19.2485 276.733 -18.7333C276.733 -18.2181 276.315 -17.8 275.8 -17.8C275.285 -17.8 274.867 -18.2181 274.867 -18.7333Z" fill="#FAB55A"/>
<path d="M303.8 -12.2C303.8 -13.7437 302.544 -15 301 -15C299.456 -15 298.2 -13.7437 298.2 -12.2C298.2 -10.6563 299.456 -9.40001 301 -9.40001C302.544 -9.40001 303.8 -10.6563 303.8 -12.2ZM300.067 -12.2C300.067 -12.7152 300.485 -13.1333 301 -13.1333C301.515 -13.1333 301.933 -12.7152 301.933 -12.2C301.933 -11.6848 301.515 -11.2667 301 -11.2667C300.485 -11.2667 300.067 -11.6848 300.067 -12.2Z" fill="#FAB55A"/>
<path d="M300.067 -12.2C300.067 -12.7152 300.485 -13.1333 301 -13.1333C301.515 -13.1333 301.933 -12.7152 301.933 -12.2C301.933 -11.6848 301.515 -11.2667 301 -11.2667C300.485 -11.2667 300.067 -11.6848 300.067 -12.2Z" fill="#FAB55A"/>
<path d="M312.2 -16.8667C312.2 -18.4104 310.944 -19.6667 309.4 -19.6667C307.856 -19.6667 306.6 -18.4104 306.6 -16.8667C306.6 -15.3229 307.856 -14.0667 309.4 -14.0667C310.944 -14.0667 312.2 -15.3229 312.2 -16.8667ZM308.467 -16.8667C308.467 -17.3819 308.885 -17.8 309.4 -17.8C309.915 -17.8 310.333 -17.3819 310.333 -16.8667C310.333 -16.3515 309.915 -15.9333 309.4 -15.9333C308.885 -15.9333 308.467 -16.3515 308.467 -16.8667Z" fill="#FAB55A"/>
<path d="M308.467 -16.8667C308.467 -17.3819 308.885 -17.8 309.4 -17.8C309.915 -17.8 310.333 -17.3819 310.333 -16.8667C310.333 -16.3515 309.915 -15.9333 309.4 -15.9333C308.885 -15.9333 308.467 -16.3515 308.467 -16.8667Z" fill="#FAB55A"/>
<path d="M320.6 -21.5333C320.6 -23.0771 319.344 -24.3333 317.8 -24.3333C316.256 -24.3333 315 -23.0771 315 -21.5333C315 -19.9896 316.256 -18.7333 317.8 -18.7333C319.344 -18.7333 320.6 -19.9896 320.6 -21.5333ZM316.867 -21.5333C316.867 -22.0485 317.285 -22.4667 317.8 -22.4667C318.315 -22.4667 318.733 -22.0485 318.733 -21.5333C318.733 -21.0181 318.315 -20.6 317.8 -20.6C317.285 -20.6 316.867 -21.0181 316.867 -21.5333Z" fill="#FAB55A"/>
<path d="M316.867 -21.5333C316.867 -22.0485 317.285 -22.4667 317.8 -22.4667C318.315 -22.4667 318.733 -22.0485 318.733 -21.5333C318.733 -21.0181 318.315 -20.6 317.8 -20.6C317.285 -20.6 316.867 -21.0181 316.867 -21.5333Z" fill="#FAB55A"/>
<path d="M329 -26.2C329 -27.7437 327.744 -29 326.2 -29C324.656 -29 323.4 -27.7437 323.4 -26.2C323.4 -24.6563 324.656 -23.4 326.2 -23.4C327.744 -23.4 329 -24.6563 329 -26.2ZM325.267 -26.2C325.267 -26.7152 325.685 -27.1333 326.2 -27.1333C326.715 -27.1333 327.133 -26.7152 327.133 -26.2C327.133 -25.6848 326.715 -25.2667 326.2 -25.2667C325.685 -25.2667 325.267 -25.6848 325.267 -26.2Z" fill="#FAB55A"/>
<path d="M325.267 -26.2C325.267 -26.7152 325.685 -27.1333 326.2 -27.1333C326.715 -27.1333 327.133 -26.7152 327.133 -26.2C327.133 -25.6848 326.715 -25.2667 326.2 -25.2667C325.685 -25.2667 325.267 -25.6848 325.267 -26.2Z" fill="#FAB55A"/>
<path d="M295.4 -16.8667C295.4 -18.4104 294.144 -19.6667 292.6 -19.6667C291.056 -19.6667 289.8 -18.4104 289.8 -16.8667C289.8 -15.3229 291.056 -14.0667 292.6 -14.0667C294.144 -14.0667 295.4 -15.3229 295.4 -16.8667ZM291.667 -16.8667C291.667 -17.3819 292.085 -17.8 292.6 -17.8C293.115 -17.8 293.533 -17.3819 293.533 -16.8667C293.533 -16.3515 293.115 -15.9333 292.6 -15.9333C292.085 -15.9333 291.667 -16.3515 291.667 -16.8667Z" fill="#FAB55A"/>
<path d="M291.667 -16.8667C291.667 -17.3819 292.085 -17.8 292.6 -17.8C293.115 -17.8 293.533 -17.3819 293.533 -16.8667C293.533 -16.3515 293.115 -15.9333 292.6 -15.9333C292.085 -15.9333 291.667 -16.3515 291.667 -16.8667Z" fill="#FAB55A"/>
<path d="M287 -21.5333C287 -23.0771 285.744 -24.3333 284.2 -24.3333C282.656 -24.3333 281.4 -23.0771 281.4 -21.5333C281.4 -19.9896 282.656 -18.7333 284.2 -18.7333C285.744 -18.7333 287 -19.9896 287 -21.5333ZM283.267 -21.5333C283.267 -22.0485 283.685 -22.4667 284.2 -22.4667C284.715 -22.4667 285.133 -22.0485 285.133 -21.5333C285.133 -21.0181 284.715 -20.6 284.2 -20.6C283.685 -20.6 283.267 -21.0181 283.267 -21.5333Z" fill="#FAB55A"/>
<path d="M283.267 -21.5333C283.267 -22.0485 283.685 -22.4667 284.2 -22.4667C284.715 -22.4667 285.133 -22.0485 285.133 -21.5333C285.133 -21.0181 284.715 -20.6 284.2 -20.6C283.685 -20.6 283.267 -21.0181 283.267 -21.5333Z" fill="#FAB55A"/>
<path d="M278.6 -26.2C278.6 -27.7437 277.344 -29 275.8 -29C274.256 -29 273 -27.7437 273 -26.2C273 -24.6563 274.256 -23.4 275.8 -23.4C277.344 -23.4 278.6 -24.6563 278.6 -26.2ZM274.867 -26.2C274.867 -26.7152 275.285 -27.1333 275.8 -27.1333C276.315 -27.1333 276.733 -26.7152 276.733 -26.2C276.733 -25.6848 276.315 -25.2667 275.8 -25.2667C275.285 -25.2667 274.867 -25.6848 274.867 -26.2Z" fill="#FAB55A"/>
<path d="M274.867 -26.2C274.867 -26.7152 275.285 -27.1333 275.8 -27.1333C276.315 -27.1333 276.733 -26.7152 276.733 -26.2C276.733 -25.6848 276.315 -25.2667 275.8 -25.2667C275.285 -25.2667 274.867 -25.6848 274.867 -26.2Z" fill="#FAB55A"/>
<path d="M394.8 24.2C394.8 22.6562 393.544 21.4 392 21.4C390.456 21.4 389.2 22.6562 389.2 24.2C389.2 25.7437 390.456 27 392 27C393.544 27 394.8 25.7437 394.8 24.2ZM391.067 24.2C391.067 23.6848 391.485 23.2667 392 23.2667C392.515 23.2667 392.933 23.6848 392.933 24.2C392.933 24.7152 392.515 25.1333 392 25.1333C391.485 25.1333 391.067 24.7152 391.067 24.2Z" fill="#FAB55A"/>
<path d="M391.067 24.2C391.067 23.6848 391.485 23.2667 392 23.2667C392.515 23.2667 392.933 23.6848 392.933 24.2C392.933 24.7152 392.515 25.1333 392 25.1333C391.485 25.1333 391.067 24.7152 391.067 24.2Z" fill="#FAB55A"/>
<path d="M403.2 19.5333C403.2 17.9896 401.944 16.7333 400.4 16.7333C398.856 16.7333 397.6 17.9896 397.6 19.5333C397.6 21.0771 398.856 22.3333 400.4 22.3333C401.944 22.3333 403.2 21.0771 403.2 19.5333ZM399.467 19.5333C399.467 19.0181 399.885 18.6 400.4 18.6C400.915 18.6 401.333 19.0181 401.333 19.5333C401.333 20.0485 400.915 20.4667 400.4 20.4667C399.885 20.4667 399.467 20.0485 399.467 19.5333Z" fill="#FAB55A"/>
<path d="M399.467 19.5333C399.467 19.0181 399.885 18.6 400.4 18.6C400.915 18.6 401.333 19.0181 401.333 19.5333C401.333 20.0485 400.915 20.4667 400.4 20.4667C399.885 20.4667 399.467 20.0485 399.467 19.5333Z" fill="#FAB55A"/>
<path d="M411.6 14.8667C411.6 13.3229 410.344 12.0667 408.8 12.0667C407.256 12.0667 406 13.3229 406 14.8667C406 16.4104 407.256 17.6667 408.8 17.6667C410.344 17.6667 411.6 16.4104 411.6 14.8667ZM407.867 14.8667C407.867 14.3515 408.285 13.9333 408.8 13.9333C409.315 13.9333 409.733 14.3515 409.733 14.8667C409.733 15.3819 409.315 15.8 408.8 15.8C408.285 15.8 407.867 15.3819 407.867 14.8667Z" fill="#FAB55A"/>
<path d="M407.867 14.8667C407.867 14.3515 408.285 13.9333 408.8 13.9333C409.315 13.9333 409.733 14.3515 409.733 14.8667C409.733 15.3819 409.315 15.8 408.8 15.8C408.285 15.8 407.867 15.3819 407.867 14.8667Z" fill="#FAB55A"/>
<path d="M420 10.2C420 8.65626 418.744 7.39999 417.2 7.39999C415.656 7.39999 414.4 8.65626 414.4 10.2C414.4 11.7437 415.656 13 417.2 13C418.744 13 420 11.7437 420 10.2ZM416.267 10.2C416.267 9.68479 416.685 9.26666 417.2 9.26666C417.715 9.26666 418.133 9.68479 418.133 10.2C418.133 10.7152 417.715 11.1333 417.2 11.1333C416.685 11.1333 416.267 10.7152 416.267 10.2Z" fill="#FAB55A"/>
<path d="M416.267 10.2C416.267 9.68479 416.685 9.26666 417.2 9.26666C417.715 9.26666 418.133 9.68479 418.133 10.2C418.133 10.7152 417.715 11.1333 417.2 11.1333C416.685 11.1333 416.267 10.7152 416.267 10.2Z" fill="#FAB55A"/>
<path d="M386.4 19.5333C386.4 17.9896 385.144 16.7333 383.6 16.7333C382.056 16.7333 380.8 17.9896 380.8 19.5333C380.8 21.0771 382.056 22.3333 383.6 22.3333C385.144 22.3333 386.4 21.0771 386.4 19.5333ZM382.667 19.5333C382.667 19.0181 383.085 18.6 383.6 18.6C384.115 18.6 384.533 19.0181 384.533 19.5333C384.533 20.0485 384.115 20.4667 383.6 20.4667C383.085 20.4667 382.667 20.0485 382.667 19.5333Z" fill="#FAB55A"/>
<path d="M382.667 19.5333C382.667 19.0181 383.085 18.6 383.6 18.6C384.115 18.6 384.533 19.0181 384.533 19.5333C384.533 20.0485 384.115 20.4667 383.6 20.4667C383.085 20.4667 382.667 20.0485 382.667 19.5333Z" fill="#FAB55A"/>
<path d="M378 14.8667C378 13.3229 376.744 12.0667 375.2 12.0667C373.656 12.0667 372.4 13.3229 372.4 14.8667C372.4 16.4104 373.656 17.6667 375.2 17.6667C376.744 17.6667 378 16.4104 378 14.8667ZM374.267 14.8667C374.267 14.3515 374.685 13.9333 375.2 13.9333C375.715 13.9333 376.133 14.3515 376.133 14.8667C376.133 15.3819 375.715 15.8 375.2 15.8C374.685 15.8 374.267 15.3819 374.267 14.8667Z" fill="#FAB55A"/>
<path d="M374.267 14.8667C374.267 14.3515 374.685 13.9333 375.2 13.9333C375.715 13.9333 376.133 14.3515 376.133 14.8667C376.133 15.3819 375.715 15.8 375.2 15.8C374.685 15.8 374.267 15.3819 374.267 14.8667Z" fill="#FAB55A"/>
<path d="M369.6 10.2C369.6 8.65625 368.344 7.39999 366.8 7.39999C365.256 7.39999 364 8.65625 364 10.2C364 11.7437 365.256 13 366.8 13C368.344 13 369.6 11.7437 369.6 10.2ZM365.867 10.2C365.867 9.68479 366.285 9.26665 366.8 9.26665C367.315 9.26665 367.733 9.68479 367.733 10.2C367.733 10.7152 367.315 11.1333 366.8 11.1333C366.285 11.1333 365.867 10.7152 365.867 10.2Z" fill="#FAB55A"/>
<path d="M365.867 10.2C365.867 9.68479 366.285 9.26665 366.8 9.26665C367.315 9.26665 367.733 9.68479 367.733 10.2C367.733 10.7152 367.315 11.1333 366.8 11.1333C366.285 11.1333 365.867 10.7152 365.867 10.2Z" fill="#FAB55A"/>
<path d="M394.8 16.7333C394.8 15.1896 393.544 13.9333 392 13.9333C390.456 13.9333 389.2 15.1896 389.2 16.7333C389.2 18.2771 390.456 19.5333 392 19.5333C393.544 19.5333 394.8 18.2771 394.8 16.7333ZM391.067 16.7333C391.067 16.2181 391.485 15.8 392 15.8C392.515 15.8 392.933 16.2181 392.933 16.7333C392.933 17.2485 392.515 17.6666 392 17.6666C391.485 17.6666 391.067 17.2485 391.067 16.7333Z" fill="#FAB55A"/>
<path d="M391.067 16.7333C391.067 16.2181 391.485 15.8 392 15.8C392.515 15.8 392.933 16.2181 392.933 16.7333C392.933 17.2485 392.515 17.6666 392 17.6666C391.485 17.6666 391.067 17.2485 391.067 16.7333Z" fill="#FAB55A"/>
<path d="M403.2 12.0667C403.2 10.5229 401.944 9.26666 400.4 9.26666C398.856 9.26666 397.6 10.5229 397.6 12.0667C397.6 13.6104 398.856 14.8667 400.4 14.8667C401.944 14.8667 403.2 13.6104 403.2 12.0667ZM399.467 12.0667C399.467 11.5515 399.885 11.1333 400.4 11.1333C400.915 11.1333 401.333 11.5515 401.333 12.0667C401.333 12.5819 400.915 13 400.4 13C399.885 13 399.467 12.5819 399.467 12.0667Z" fill="#FAB55A"/>
<path d="M399.467 12.0667C399.467 11.5515 399.885 11.1333 400.4 11.1333C400.915 11.1333 401.333 11.5515 401.333 12.0667C401.333 12.5819 400.915 13 400.4 13C399.885 13 399.467 12.5819 399.467 12.0667Z" fill="#FAB55A"/>
<path d="M411.6 7.39999C411.6 5.85626 410.344 4.59999 408.8 4.59999C407.256 4.59999 406 5.85626 406 7.39999C406 8.94372 407.256 10.2 408.8 10.2C410.344 10.2 411.6 8.94372 411.6 7.39999ZM407.867 7.39999C407.867 6.88479 408.285 6.46665 408.8 6.46665C409.315 6.46665 409.733 6.88479 409.733 7.39999C409.733 7.91519 409.315 8.33332 408.8 8.33332C408.285 8.33332 407.867 7.91519 407.867 7.39999Z" fill="#FAB55A"/>
<path d="M407.867 7.39999C407.867 6.88479 408.285 6.46665 408.8 6.46665C409.315 6.46665 409.733 6.88479 409.733 7.39999C409.733 7.91519 409.315 8.33332 408.8 8.33332C408.285 8.33332 407.867 7.91519 407.867 7.39999Z" fill="#FAB55A"/>
<path d="M420 2.73332C420 1.18959 418.744 -0.0666752 417.2 -0.0666752C415.656 -0.0666753 414.4 1.18959 414.4 2.73332C414.4 4.27706 415.656 5.53332 417.2 5.53332C418.744 5.53332 420 4.27706 420 2.73332ZM416.267 2.73332C416.267 2.21812 416.685 1.79999 417.2 1.79999C417.715 1.79999 418.133 2.21812 418.133 2.73332C418.133 3.24852 417.715 3.66666 417.2 3.66666C416.685 3.66666 416.267 3.24852 416.267 2.73332Z" fill="#FAB55A"/>
<path d="M416.267 2.73332C416.267 2.21812 416.685 1.79999 417.2 1.79999C417.715 1.79999 418.133 2.21812 418.133 2.73332C418.133 3.24852 417.715 3.66666 417.2 3.66666C416.685 3.66666 416.267 3.24852 416.267 2.73332Z" fill="#FAB55A"/>
<path d="M386.4 12.0667C386.4 10.5229 385.144 9.26665 383.6 9.26665C382.056 9.26665 380.8 10.5229 380.8 12.0667C380.8 13.6104 382.056 14.8667 383.6 14.8667C385.144 14.8667 386.4 13.6104 386.4 12.0667ZM382.667 12.0667C382.667 11.5515 383.085 11.1333 383.6 11.1333C384.115 11.1333 384.533 11.5515 384.533 12.0667C384.533 12.5819 384.115 13 383.6 13C383.085 13 382.667 12.5819 382.667 12.0667Z" fill="#FAB55A"/>
<path d="M382.667 12.0667C382.667 11.5515 383.085 11.1333 383.6 11.1333C384.115 11.1333 384.533 11.5515 384.533 12.0667C384.533 12.5819 384.115 13 383.6 13C383.085 13 382.667 12.5819 382.667 12.0667Z" fill="#FAB55A"/>
<path d="M378 7.39999C378 5.85625 376.744 4.59999 375.2 4.59999C373.656 4.59999 372.4 5.85625 372.4 7.39999C372.4 8.94372 373.656 10.2 375.2 10.2C376.744 10.2 378 8.94372 378 7.39999ZM374.267 7.39999C374.267 6.88479 374.685 6.46665 375.2 6.46665C375.715 6.46665 376.133 6.88479 376.133 7.39999C376.133 7.91519 375.715 8.33332 375.2 8.33332C374.685 8.33332 374.267 7.91519 374.267 7.39999Z" fill="#FAB55A"/>
<path d="M374.267 7.39999C374.267 6.88479 374.685 6.46665 375.2 6.46665C375.715 6.46665 376.133 6.88479 376.133 7.39999C376.133 7.91519 375.715 8.33332 375.2 8.33332C374.685 8.33332 374.267 7.91519 374.267 7.39999Z" fill="#FAB55A"/>
<path d="M369.6 2.73332C369.6 1.18959 368.344 -0.0666778 366.8 -0.0666779C365.256 -0.066678 364 1.18959 364 2.73332C364 4.27705 365.256 5.53332 366.8 5.53332C368.344 5.53332 369.6 4.27705 369.6 2.73332ZM365.867 2.73332C365.867 2.21812 366.285 1.79999 366.8 1.79999C367.315 1.79999 367.733 2.21812 367.733 2.73332C367.733 3.24852 367.315 3.66665 366.8 3.66665C366.285 3.66665 365.867 3.24852 365.867 2.73332Z" fill="#FAB55A"/>
<path d="M365.867 2.73332C365.867 2.21812 366.285 1.79999 366.8 1.79999C367.315 1.79999 367.733 2.21812 367.733 2.73332C367.733 3.24852 367.315 3.66665 366.8 3.66665C366.285 3.66665 365.867 3.24852 365.867 2.73332Z" fill="#FAB55A"/>
<path d="M394.8 -4.73334C394.8 -6.27707 393.544 -7.53334 392 -7.53334C390.456 -7.53334 389.2 -6.27707 389.2 -4.73334C389.2 -3.18961 390.456 -1.93334 392 -1.93334C393.544 -1.93334 394.8 -3.18961 394.8 -4.73334ZM391.067 -4.73334C391.067 -5.24854 391.485 -5.66667 392 -5.66667C392.515 -5.66667 392.933 -5.24854 392.933 -4.73334C392.933 -4.21814 392.515 -3.80001 392 -3.80001C391.485 -3.80001 391.067 -4.21814 391.067 -4.73334Z" fill="#FAB55A"/>
<path d="M391.067 -4.73334C391.067 -5.24854 391.485 -5.66667 392 -5.66667C392.515 -5.66667 392.933 -5.24854 392.933 -4.73334C392.933 -4.21814 392.515 -3.80001 392 -3.80001C391.485 -3.80001 391.067 -4.21814 391.067 -4.73334Z" fill="#FAB55A"/>
<path d="M403.2 -9.40001C403.2 -10.9437 401.944 -12.2 400.4 -12.2C398.856 -12.2 397.6 -10.9437 397.6 -9.40001C397.6 -7.85627 398.856 -6.60001 400.4 -6.60001C401.944 -6.60001 403.2 -7.85627 403.2 -9.40001ZM399.467 -9.40001C399.467 -9.91521 399.885 -10.3333 400.4 -10.3333C400.915 -10.3333 401.333 -9.91521 401.333 -9.40001C401.333 -8.88481 400.915 -8.46667 400.4 -8.46667C399.885 -8.46667 399.467 -8.88481 399.467 -9.40001Z" fill="#FAB55A"/>
<path d="M399.467 -9.40001C399.467 -9.91521 399.885 -10.3333 400.4 -10.3333C400.915 -10.3333 401.333 -9.91521 401.333 -9.40001C401.333 -8.88481 400.915 -8.46667 400.4 -8.46667C399.885 -8.46667 399.467 -8.88481 399.467 -9.40001Z" fill="#FAB55A"/>
<path d="M411.6 -14.0667C411.6 -15.6104 410.344 -16.8667 408.8 -16.8667C407.256 -16.8667 406 -15.6104 406 -14.0667C406 -12.5229 407.256 -11.2667 408.8 -11.2667C410.344 -11.2667 411.6 -12.5229 411.6 -14.0667ZM407.867 -14.0667C407.867 -14.5819 408.285 -15 408.8 -15C409.315 -15 409.733 -14.5819 409.733 -14.0667C409.733 -13.5515 409.315 -13.1333 408.8 -13.1333C408.285 -13.1333 407.867 -13.5515 407.867 -14.0667Z" fill="#FAB55A"/>
<path d="M407.867 -14.0667C407.867 -14.5819 408.285 -15 408.8 -15C409.315 -15 409.733 -14.5819 409.733 -14.0667C409.733 -13.5515 409.315 -13.1333 408.8 -13.1333C408.285 -13.1333 407.867 -13.5515 407.867 -14.0667Z" fill="#FAB55A"/>
<path d="M420 -18.7333C420 -20.2771 418.744 -21.5333 417.2 -21.5333C415.656 -21.5333 414.4 -20.2771 414.4 -18.7333C414.4 -17.1896 415.656 -15.9333 417.2 -15.9333C418.744 -15.9333 420 -17.1896 420 -18.7333ZM416.267 -18.7333C416.267 -19.2485 416.685 -19.6667 417.2 -19.6667C417.715 -19.6667 418.133 -19.2485 418.133 -18.7333C418.133 -18.2181 417.715 -17.8 417.2 -17.8C416.685 -17.8 416.267 -18.2181 416.267 -18.7333Z" fill="#FAB55A"/>
<path d="M416.267 -18.7333C416.267 -19.2485 416.685 -19.6667 417.2 -19.6667C417.715 -19.6667 418.133 -19.2485 418.133 -18.7333C418.133 -18.2181 417.715 -17.8 417.2 -17.8C416.685 -17.8 416.267 -18.2181 416.267 -18.7333Z" fill="#FAB55A"/>
<path d="M386.4 -9.40001C386.4 -10.9437 385.144 -12.2 383.6 -12.2C382.056 -12.2 380.8 -10.9437 380.8 -9.40001C380.8 -7.85627 382.056 -6.60001 383.6 -6.60001C385.144 -6.60001 386.4 -7.85627 386.4 -9.40001ZM382.667 -9.40001C382.667 -9.91521 383.085 -10.3333 383.6 -10.3333C384.115 -10.3333 384.533 -9.91521 384.533 -9.40001C384.533 -8.88481 384.115 -8.46667 383.6 -8.46667C383.085 -8.46667 382.667 -8.88481 382.667 -9.40001Z" fill="#FAB55A"/>
<path d="M382.667 -9.40001C382.667 -9.91521 383.085 -10.3333 383.6 -10.3333C384.115 -10.3333 384.533 -9.91521 384.533 -9.40001C384.533 -8.88481 384.115 -8.46667 383.6 -8.46667C383.085 -8.46667 382.667 -8.88481 382.667 -9.40001Z" fill="#FAB55A"/>
<path d="M378 -14.0667C378 -15.6104 376.744 -16.8667 375.2 -16.8667C373.656 -16.8667 372.4 -15.6104 372.4 -14.0667C372.4 -12.5229 373.656 -11.2667 375.2 -11.2667C376.744 -11.2667 378 -12.5229 378 -14.0667ZM374.267 -14.0667C374.267 -14.5819 374.685 -15 375.2 -15C375.715 -15 376.133 -14.5819 376.133 -14.0667C376.133 -13.5515 375.715 -13.1333 375.2 -13.1333C374.685 -13.1333 374.267 -13.5515 374.267 -14.0667Z" fill="#FAB55A"/>
<path d="M374.267 -14.0667C374.267 -14.5819 374.685 -15 375.2 -15C375.715 -15 376.133 -14.5819 376.133 -14.0667C376.133 -13.5515 375.715 -13.1333 375.2 -13.1333C374.685 -13.1333 374.267 -13.5515 374.267 -14.0667Z" fill="#FAB55A"/>
<path d="M369.6 -18.7333C369.6 -20.2771 368.344 -21.5333 366.8 -21.5333C365.256 -21.5333 364 -20.2771 364 -18.7333C364 -17.1896 365.256 -15.9333 366.8 -15.9333C368.344 -15.9333 369.6 -17.1896 369.6 -18.7333ZM365.867 -18.7333C365.867 -19.2485 366.285 -19.6667 366.8 -19.6667C367.315 -19.6667 367.733 -19.2485 367.733 -18.7333C367.733 -18.2181 367.315 -17.8 366.8 -17.8C366.285 -17.8 365.867 -18.2181 365.867 -18.7333Z" fill="#FAB55A"/>
<path d="M365.867 -18.7333C365.867 -19.2485 366.285 -19.6667 366.8 -19.6667C367.315 -19.6667 367.733 -19.2485 367.733 -18.7333C367.733 -18.2181 367.315 -17.8 366.8 -17.8C366.285 -17.8 365.867 -18.2181 365.867 -18.7333Z" fill="#FAB55A"/>
<path d="M394.8 -12.2C394.8 -13.7437 393.544 -15 392 -15C390.456 -15 389.2 -13.7437 389.2 -12.2C389.2 -10.6563 390.456 -9.40001 392 -9.40001C393.544 -9.40001 394.8 -10.6563 394.8 -12.2ZM391.067 -12.2C391.067 -12.7152 391.485 -13.1333 392 -13.1333C392.515 -13.1333 392.933 -12.7152 392.933 -12.2C392.933 -11.6848 392.515 -11.2667 392 -11.2667C391.485 -11.2667 391.067 -11.6848 391.067 -12.2Z" fill="#FAB55A"/>
<path d="M391.067 -12.2C391.067 -12.7152 391.485 -13.1333 392 -13.1333C392.515 -13.1333 392.933 -12.7152 392.933 -12.2C392.933 -11.6848 392.515 -11.2667 392 -11.2667C391.485 -11.2667 391.067 -11.6848 391.067 -12.2Z" fill="#FAB55A"/>
<path d="M403.2 -16.8667C403.2 -18.4104 401.944 -19.6667 400.4 -19.6667C398.856 -19.6667 397.6 -18.4104 397.6 -16.8667C397.6 -15.3229 398.856 -14.0667 400.4 -14.0667C401.944 -14.0667 403.2 -15.3229 403.2 -16.8667ZM399.467 -16.8667C399.467 -17.3819 399.885 -17.8 400.4 -17.8C400.915 -17.8 401.333 -17.3819 401.333 -16.8667C401.333 -16.3515 400.915 -15.9333 400.4 -15.9333C399.885 -15.9333 399.467 -16.3515 399.467 -16.8667Z" fill="#FAB55A"/>
<path d="M399.467 -16.8667C399.467 -17.3819 399.885 -17.8 400.4 -17.8C400.915 -17.8 401.333 -17.3819 401.333 -16.8667C401.333 -16.3515 400.915 -15.9333 400.4 -15.9333C399.885 -15.9333 399.467 -16.3515 399.467 -16.8667Z" fill="#FAB55A"/>
<path d="M411.6 -21.5333C411.6 -23.0771 410.344 -24.3333 408.8 -24.3333C407.256 -24.3333 406 -23.0771 406 -21.5333C406 -19.9896 407.256 -18.7333 408.8 -18.7333C410.344 -18.7333 411.6 -19.9896 411.6 -21.5333ZM407.867 -21.5333C407.867 -22.0485 408.285 -22.4667 408.8 -22.4667C409.315 -22.4667 409.733 -22.0485 409.733 -21.5333C409.733 -21.0181 409.315 -20.6 408.8 -20.6C408.285 -20.6 407.867 -21.0181 407.867 -21.5333Z" fill="#FAB55A"/>
<path d="M407.867 -21.5333C407.867 -22.0485 408.285 -22.4667 408.8 -22.4667C409.315 -22.4667 409.733 -22.0485 409.733 -21.5333C409.733 -21.0181 409.315 -20.6 408.8 -20.6C408.285 -20.6 407.867 -21.0181 407.867 -21.5333Z" fill="#FAB55A"/>
<path d="M420 -26.2C420 -27.7437 418.744 -29 417.2 -29C415.656 -29 414.4 -27.7437 414.4 -26.2C414.4 -24.6563 415.656 -23.4 417.2 -23.4C418.744 -23.4 420 -24.6563 420 -26.2ZM416.267 -26.2C416.267 -26.7152 416.685 -27.1333 417.2 -27.1333C417.715 -27.1333 418.133 -26.7152 418.133 -26.2C418.133 -25.6848 417.715 -25.2667 417.2 -25.2667C416.685 -25.2667 416.267 -25.6848 416.267 -26.2Z" fill="#FAB55A"/>
<path d="M416.267 -26.2C416.267 -26.7152 416.685 -27.1333 417.2 -27.1333C417.715 -27.1333 418.133 -26.7152 418.133 -26.2C418.133 -25.6848 417.715 -25.2667 417.2 -25.2667C416.685 -25.2667 416.267 -25.6848 416.267 -26.2Z" fill="#FAB55A"/>
<path d="M386.4 -16.8667C386.4 -18.4104 385.144 -19.6667 383.6 -19.6667C382.056 -19.6667 380.8 -18.4104 380.8 -16.8667C380.8 -15.3229 382.056 -14.0667 383.6 -14.0667C385.144 -14.0667 386.4 -15.3229 386.4 -16.8667ZM382.667 -16.8667C382.667 -17.3819 383.085 -17.8 383.6 -17.8C384.115 -17.8 384.533 -17.3819 384.533 -16.8667C384.533 -16.3515 384.115 -15.9333 383.6 -15.9333C383.085 -15.9333 382.667 -16.3515 382.667 -16.8667Z" fill="#FAB55A"/>
<path d="M382.667 -16.8667C382.667 -17.3819 383.085 -17.8 383.6 -17.8C384.115 -17.8 384.533 -17.3819 384.533 -16.8667C384.533 -16.3515 384.115 -15.9333 383.6 -15.9333C383.085 -15.9333 382.667 -16.3515 382.667 -16.8667Z" fill="#FAB55A"/>
<path d="M378 -21.5333C378 -23.0771 376.744 -24.3333 375.2 -24.3333C373.656 -24.3333 372.4 -23.0771 372.4 -21.5333C372.4 -19.9896 373.656 -18.7333 375.2 -18.7333C376.744 -18.7333 378 -19.9896 378 -21.5333ZM374.267 -21.5333C374.267 -22.0485 374.685 -22.4667 375.2 -22.4667C375.715 -22.4667 376.133 -22.0485 376.133 -21.5333C376.133 -21.0181 375.715 -20.6 375.2 -20.6C374.685 -20.6 374.267 -21.0181 374.267 -21.5333Z" fill="#FAB55A"/>
<path d="M374.267 -21.5333C374.267 -22.0485 374.685 -22.4667 375.2 -22.4667C375.715 -22.4667 376.133 -22.0485 376.133 -21.5333C376.133 -21.0181 375.715 -20.6 375.2 -20.6C374.685 -20.6 374.267 -21.0181 374.267 -21.5333Z" fill="#FAB55A"/>
<path d="M369.6 -26.2C369.6 -27.7437 368.344 -29 366.8 -29C365.256 -29 364 -27.7437 364 -26.2C364 -24.6563 365.256 -23.4 366.8 -23.4C368.344 -23.4 369.6 -24.6563 369.6 -26.2ZM365.867 -26.2C365.867 -26.7152 366.285 -27.1333 366.8 -27.1333C367.315 -27.1333 367.733 -26.7152 367.733 -26.2C367.733 -25.6848 367.315 -25.2667 366.8 -25.2667C366.285 -25.2667 365.867 -25.6848 365.867 -26.2Z" fill="#FAB55A"/>
<path d="M365.867 -26.2C365.867 -26.7152 366.285 -27.1333 366.8 -27.1333C367.315 -27.1333 367.733 -26.7152 367.733 -26.2C367.733 -25.6848 367.315 -25.2667 366.8 -25.2667C366.285 -25.2667 365.867 -25.6848 365.867 -26.2Z" fill="#FAB55A"/>
</g>
<defs>
<clipPath id="clip0_3841_17571">
<rect width="420" height="27" fill="white"/>
</clipPath>
</defs>
</svg>
