<svg width="24" height="24" viewBox="0 0 24 24" fill="none" xmlns="http://www.w3.org/2000/svg">
<g clip-path="url(#clip0_2123_25215)">
<path d="M23.5962 16.0965C23.3272 15.8273 23 15.6926 22.6156 15.6926H15.9231L13.9615 17.6541C13.4038 18.1925 12.75 18.4618 12 18.4618C11.2502 18.4618 10.5962 18.1928 10.0385 17.6541L8.09139 15.6926H1.3846C1.00006 15.6926 0.673154 15.8275 0.403842 16.0965C0.13458 16.3656 0 16.6926 0 17.0774V21.6926C0 22.0773 0.13458 22.4042 0.403842 22.6734C0.673104 22.9425 1.00001 23.077 1.3846 23.077H22.6157C23.0001 23.077 23.3273 22.9425 23.5962 22.6734C23.8656 22.4042 24.0001 22.0773 24.0001 21.6926V17.0774C24.0001 16.6926 23.8656 16.3656 23.5962 16.0965ZM18.1878 20.957C18.0049 21.1397 17.7884 21.231 17.5384 21.231C17.2884 21.231 17.0723 21.1397 16.8894 20.957C16.7069 20.7743 16.6156 20.558 16.6156 20.3082C16.6156 20.0582 16.7069 19.8416 16.8894 19.6592C17.0723 19.4763 17.2884 19.3848 17.5384 19.3848C17.7884 19.3848 18.0048 19.4763 18.1878 19.6592C18.3703 19.8415 18.4616 20.0582 18.4616 20.3082C18.4616 20.558 18.3703 20.7743 18.1878 20.957ZM21.8799 20.957C21.6973 21.1397 21.4809 21.231 21.2308 21.231C20.9808 21.231 20.7646 21.1397 20.5818 20.957C20.3993 20.7743 20.308 20.558 20.308 20.3082C20.308 20.0582 20.3993 19.8416 20.5818 19.6592C20.7645 19.4763 20.9808 19.3848 21.2308 19.3848C21.4808 19.3848 21.6972 19.4763 21.8799 19.6592C22.0626 19.8415 22.154 20.0582 22.154 20.3082C22.154 20.558 22.0627 20.7743 21.8799 20.957Z" fill="#F41E92"/>
<path d="M11.352 16.3416C11.5252 16.5241 11.7415 16.6154 12.0011 16.6154C12.2608 16.6154 12.4768 16.5241 12.6501 16.3416L19.1117 9.87989C19.4097 9.60108 19.4771 9.26448 19.3136 8.87023C19.1504 8.49534 18.8667 8.30786 18.4627 8.30766H14.7703V1.84609C14.7703 1.59613 14.6788 1.37976 14.4964 1.19708C14.3135 1.01436 14.0973 0.922974 13.8474 0.922974H10.1547C9.90486 0.922974 9.68849 1.01436 9.50571 1.19708C9.32309 1.37976 9.2317 1.59608 9.2317 1.84609V8.30771H5.53938C5.13534 8.30771 4.85183 8.49539 4.68835 8.87028C4.52498 9.26437 4.59222 9.60113 4.89038 9.87994L11.352 16.3416Z" fill="#F41E92"/>
</g>
<defs>
<clipPath id="clip0_2123_25215">
<rect width="24.0001" height="24" fill="white"/>
</clipPath>
</defs>
</svg>
