<svg width="24" height="24" viewBox="0 0 24 24" fill="none" xmlns="http://www.w3.org/2000/svg">
<path d="M12 7.96875C14.2005 7.96875 15.9844 6.18488 15.9844 3.98438C15.9844 1.78387 14.2005 0 12 0C9.79949 0 8.01562 1.78387 8.01562 3.98438C8.01562 6.18488 9.79949 7.96875 12 7.96875Z" fill="#7C0FD1"/>
<path d="M4.05365 19.7344H19.9443L21.5849 13.5877C21.6127 13.4836 21.6162 13.3745 21.5951 13.2688C21.5741 13.1631 21.529 13.0637 21.4634 12.9782C21.3978 12.8927 21.3134 12.8235 21.2168 12.7758C21.1202 12.7281 21.0139 12.7032 20.9062 12.7031H3.09365C2.98586 12.7031 2.87951 12.7279 2.78283 12.7756C2.68615 12.8233 2.60172 12.8925 2.53607 12.978C2.47042 13.0635 2.42531 13.163 2.40422 13.2687C2.38313 13.3744 2.38662 13.4835 2.41443 13.5877L4.05365 19.7344Z" fill="#7C0FD1"/>
<path d="M2.15625 21.1406V22.3594C2.15625 22.7945 2.3291 23.2118 2.63678 23.5195C2.94445 23.8271 3.36175 24 3.79688 24H20.2031C20.6382 24 21.0555 23.8271 21.3632 23.5195C21.6709 23.2118 21.8438 22.7945 21.8438 22.3594V21.1406H2.15625Z" fill="#7C0FD1"/>
<path d="M16.3322 7.18872C15.8315 7.86669 15.1787 8.41769 14.4263 8.79739C13.6738 9.1771 12.8428 9.3749 12 9.3749C11.1572 9.3749 10.3262 9.1771 9.57372 8.79739C8.8213 8.41769 8.16849 7.86669 7.66781 7.18872C6.40983 8.22896 5.56823 9.68719 5.29688 11.2968H18.7031C18.4318 9.68719 17.5902 8.22896 16.3322 7.18872Z" fill="#7C0FD1"/>
</svg>
