<svg width="25" height="24" viewBox="0 0 25 24" fill="none" xmlns="http://www.w3.org/2000/svg">
<path d="M21.1208 5.25H20.0042C20.0031 5.25 20.002 5.25044 20.0012 5.25124C20.0004 5.25203 20 5.2531 20 5.25422V19.5C20 19.8978 20.158 20.2794 20.4393 20.5607C20.7206 20.842 21.1022 21 21.5 21C21.8978 21 22.2794 20.842 22.5607 20.5607C22.842 20.2794 23 19.8978 23 19.5V7.12922C23 6.63082 22.802 6.15283 22.4496 5.80041C22.0972 5.44799 21.6192 5.25 21.1208 5.25Z" fill="#F5851E"/>
<path d="M18.5 19.5V3.375C18.5 3.12877 18.4515 2.88495 18.3573 2.65747C18.263 2.42998 18.1249 2.22328 17.9508 2.04917C17.7767 1.87506 17.57 1.73695 17.3425 1.64273C17.115 1.5485 16.8712 1.5 16.625 1.5H3.875C3.37772 1.5 2.90081 1.69754 2.54917 2.04917C2.19754 2.40081 2 2.87772 2 3.375V19.875C2 20.5712 2.27656 21.2389 2.76884 21.7312C3.26113 22.2234 3.92881 22.5 4.625 22.5H20.6961C20.7032 22.5001 20.7102 22.4987 20.7168 22.496C20.7234 22.4933 20.7293 22.4894 20.7344 22.4844C20.7394 22.4793 20.7433 22.4734 20.746 22.4668C20.7487 22.4602 20.7501 22.4532 20.75 22.4461C20.75 22.4343 20.7461 22.4229 20.7388 22.4135C20.7316 22.4042 20.7216 22.3975 20.7102 22.3945C20.0757 22.2205 19.5159 21.8431 19.1167 21.3202C18.7174 20.7973 18.5008 20.1579 18.5 19.5ZM5 6C5 5.80109 5.07902 5.61032 5.21967 5.46967C5.36032 5.32902 5.55109 5.25 5.75 5.25H8.75C8.94891 5.25 9.13968 5.32902 9.28033 5.46967C9.42098 5.61032 9.5 5.80109 9.5 6V9C9.5 9.19891 9.42098 9.38968 9.28033 9.53033C9.13968 9.67098 8.94891 9.75 8.75 9.75H5.75C5.55109 9.75 5.36032 9.67098 5.21967 9.53033C5.07902 9.38968 5 9.19891 5 9V6ZM14.75 18.75H5.77109C5.3675 18.75 5.02109 18.4397 5.00094 18.0361C4.99605 17.9347 5.01181 17.8333 5.04724 17.7382C5.08268 17.6431 5.13707 17.5561 5.2071 17.4826C5.27714 17.4091 5.36137 17.3506 5.45469 17.3106C5.54801 17.2706 5.64848 17.25 5.75 17.25H14.7289C15.1325 17.25 15.4789 17.5603 15.4991 17.9639C15.5039 18.0653 15.4882 18.1667 15.4528 18.2618C15.4173 18.3569 15.3629 18.4439 15.2929 18.5174C15.2229 18.5909 15.1386 18.6494 15.0453 18.6894C14.952 18.7294 14.8515 18.75 14.75 18.75ZM14.75 15.75H5.77109C5.3675 15.75 5.02109 15.4397 5.00094 15.0361C4.99605 14.9347 5.01181 14.8333 5.04724 14.7382C5.08268 14.6431 5.13707 14.5561 5.2071 14.4826C5.27714 14.4091 5.36137 14.3506 5.45469 14.3106C5.54801 14.2706 5.64848 14.25 5.75 14.25H14.7289C15.1325 14.25 15.4789 14.5603 15.4991 14.9639C15.5039 15.0653 15.4882 15.1667 15.4528 15.2618C15.4173 15.3569 15.3629 15.4439 15.2929 15.5174C15.2229 15.5909 15.1386 15.6494 15.0453 15.6894C14.952 15.7294 14.8515 15.75 14.75 15.75ZM14.75 12.75H5.77109C5.3675 12.75 5.02109 12.4397 5.00094 12.0361C4.99605 11.9347 5.01181 11.8333 5.04724 11.7382C5.08268 11.6431 5.13707 11.5561 5.2071 11.4826C5.27714 11.4091 5.36137 11.3506 5.45469 11.3106C5.54801 11.2706 5.64848 11.25 5.75 11.25H14.7289C15.1325 11.25 15.4789 11.5603 15.4991 11.9639C15.5039 12.0653 15.4882 12.1667 15.4528 12.2618C15.4173 12.3569 15.3629 12.4439 15.2929 12.5174C15.2229 12.5909 15.1386 12.6494 15.0453 12.6894C14.952 12.7294 14.8515 12.75 14.75 12.75ZM14.75 9.75H11.7711C11.3675 9.75 11.0211 9.43969 11.0009 9.03609C10.9961 8.93469 11.0118 8.83334 11.0472 8.7382C11.0827 8.64307 11.1371 8.55611 11.2071 8.48261C11.2771 8.40911 11.3614 8.3506 11.4547 8.31062C11.548 8.27063 11.6485 8.25001 11.75 8.25H14.7289C15.1325 8.25 15.4789 8.56031 15.4991 8.96391C15.5039 9.06531 15.4882 9.16666 15.4528 9.2618C15.4173 9.35693 15.3629 9.44389 15.2929 9.51739C15.2229 9.59089 15.1386 9.6494 15.0453 9.68938C14.952 9.72937 14.8515 9.74999 14.75 9.75ZM14.75 6.75H11.7711C11.3675 6.75 11.0211 6.43969 11.0009 6.03609C10.9961 5.93469 11.0118 5.83334 11.0472 5.7382C11.0827 5.64307 11.1371 5.55611 11.2071 5.48261C11.2771 5.40911 11.3614 5.3506 11.4547 5.31062C11.548 5.27063 11.6485 5.25001 11.75 5.25H14.7289C15.1325 5.25 15.4789 5.56031 15.4991 5.96391C15.5039 6.06531 15.4882 6.16666 15.4528 6.2618C15.4173 6.35693 15.3629 6.44389 15.2929 6.51739C15.2229 6.59089 15.1386 6.6494 15.0453 6.68938C14.952 6.72937 14.8515 6.74999 14.75 6.75Z" fill="#F5851E"/>
</svg>
