<svg width="25" height="24" viewBox="0 0 25 24" fill="none" xmlns="http://www.w3.org/2000/svg">
<path d="M20.2396 6.98776C20.2351 6.70876 20.0753 6.45976 19.8263 6.33376L12.8363 2.82151C12.6248 2.71501 12.3751 2.71501 12.1628 2.82151L5.17285 6.33376C4.9231 6.45976 4.7641 6.70876 4.7596 6.98776C4.72735 9.00001 5.05585 17.1128 12.2468 19.5563C12.4073 19.611 12.5911 19.611 12.7516 19.5563C19.9433 17.1128 20.2718 9.00001 20.2396 6.98776ZM15.7358 10.4948L14.6123 11.5898C14.5066 11.6933 14.4578 11.8418 14.4833 11.9873L14.7488 13.533C14.8118 13.8998 14.4271 14.1795 14.0971 14.0063L12.7088 13.2765C12.5783 13.2075 12.4216 13.2075 12.2911 13.2765L10.9028 14.0063C10.5736 14.1795 10.1888 13.8998 10.2511 13.533L10.5166 11.9873C10.5413 11.8418 10.4933 11.6933 10.3876 11.5898L9.2641 10.4948C8.99785 10.2353 9.14485 9.78226 9.51309 9.72901L11.0656 9.50326C11.2118 9.48226 11.3386 9.39001 11.4038 9.25726L12.0983 7.85101C12.2633 7.51726 12.7388 7.51726 12.9038 7.85101L13.5983 9.25726C13.6636 9.39001 13.7903 9.48151 13.9366 9.50326L15.4891 9.72901C15.8551 9.78301 16.0021 10.2353 15.7358 10.4948Z" fill="#7C0FD1"/>
<path d="M19.966 14.7112C19.2408 16.2097 18.247 17.583 16.9375 18.7027L19.489 21.2542L20.4415 18.7042L22.9998 17.745L19.966 14.7112Z" fill="#7C0FD1"/>
<path d="M5.03375 14.7112L2 17.745L4.5575 18.705L5.51 21.255L8.0615 18.7035C6.75275 17.5837 5.759 16.2105 5.03375 14.7112Z" fill="#7C0FD1"/>
</svg>
