<svg width="16" height="16" viewBox="0 0 16 16" fill="none" xmlns="http://www.w3.org/2000/svg">
<path d="M8.00131 0.666687C6.55091 0.666687 5.13308 1.09678 3.92712 1.90258C2.72116 2.70837 1.78123 3.85368 1.22619 5.19368C0.671146 6.53367 0.525922 8.00816 0.80888 9.43068C1.09184 10.8532 1.79027 12.1599 2.81586 13.1855C3.84144 14.2111 5.14812 14.9095 6.57064 15.1924C7.99317 15.4754 9.46766 15.3302 10.8077 14.7751C12.1476 14.2201 13.293 13.2802 14.0988 12.0742C14.9045 10.8682 15.3346 9.45042 15.3346 8.00002C15.3323 6.0558 14.559 4.19187 13.1842 2.8171C11.8095 1.44233 9.94552 0.668981 8.00131 0.666687ZM10.4726 10.4714C10.3476 10.5963 10.1781 10.6665 10.0013 10.6665C9.82453 10.6665 9.65499 10.5963 9.52997 10.4714L7.52997 8.47135C7.40494 8.34636 7.33468 8.17682 7.33464 8.00002V4.00002C7.33464 3.82321 7.40488 3.65364 7.5299 3.52862C7.65493 3.40359 7.82449 3.33335 8.00131 3.33335C8.17812 3.33335 8.34769 3.40359 8.47271 3.52862C8.59773 3.65364 8.66797 3.82321 8.66797 4.00002V7.72402L10.4726 9.52869C10.5976 9.65371 10.6678 9.82324 10.6678 10C10.6678 10.1768 10.5976 10.3463 10.4726 10.4714Z" fill="#7C0FD1"/>
</svg>
