<svg width="16" height="16" viewBox="0 0 16 16" fill="none" xmlns="http://www.w3.org/2000/svg">
<g clip-path="url(#clip0_1672_24434)">
<path d="M0.510213 14.5735L4.31824 10.6129C3.33913 9.44901 2.80267 7.98455 2.80267 6.45999C2.80267 2.89801 5.70068 0 9.26266 0C12.8246 0 15.7227 2.89801 15.7227 6.45999C15.7227 10.022 12.8246 12.92 9.26266 12.92C7.92544 12.92 6.65114 12.5167 5.56165 11.751L1.72469 15.7416C1.56432 15.9082 1.34861 16 1.11745 16C0.898655 16 0.691093 15.9166 0.533525 15.7649C0.19873 15.4428 0.188056 14.9085 0.510213 14.5735ZM9.26266 1.68522C6.62979 1.68522 4.48788 3.82713 4.48788 6.45999C4.48788 9.09286 6.62979 11.2348 9.26266 11.2348C11.8955 11.2348 14.0374 9.09286 14.0374 6.45999C14.0374 3.82713 11.8955 1.68522 9.26266 1.68522Z" fill="white"/>
</g>
<defs>
<clipPath id="clip0_1672_24434">
<rect width="16" height="16" fill="white" transform="matrix(-1 0 0 1 16 0)"/>
</clipPath>
</defs>
</svg>
