<svg width="12" height="12" viewBox="0 0 12 12" fill="none" xmlns="http://www.w3.org/2000/svg">
<path d="M11.8725 4.75771L9.24294 7.32098L9.86391 10.9413C9.89093 11.0996 9.82592 11.2596 9.6959 11.3542C9.62245 11.4078 9.53506 11.4348 9.44768 11.4348C9.38056 11.4348 9.31301 11.4188 9.25138 11.3863L6 9.67699L2.74904 11.3858C2.6072 11.461 2.43454 11.4487 2.30452 11.3538C2.1745 11.2592 2.10949 11.0992 2.13651 10.9409L2.75749 7.32056L0.127509 4.75771C0.0126845 4.64541 -0.0291081 4.4774 0.0207053 4.32501C0.0705187 4.17261 0.202651 4.06074 0.3618 4.03752L3.99607 3.50984L5.62133 0.216245C5.7636 -0.0720817 6.2364 -0.0720817 6.37867 0.216245L8.00393 3.50984L11.6382 4.03752C11.7973 4.06074 11.9295 4.17219 11.9793 4.32501C12.0291 4.47782 11.9873 4.64499 11.8725 4.75771Z" fill="white"/>
</svg>
