<svg width="12" height="12" viewBox="0 0 12 12" fill="none" xmlns="http://www.w3.org/2000/svg">
<path d="M6 0C2.68642 0 0 2.68642 0 6C0 9.31358 2.68642 12 6 12C9.31358 12 12 9.31358 12 6C12 2.68642 9.31358 0 6 0ZM7.72346 8.36543C7.46173 8.68395 7.12099 8.89877 6.72346 9.00741C6.55062 9.05432 6.47161 9.14568 6.48148 9.32593C6.48889 9.5037 6.48148 9.67901 6.47901 9.85679C6.47901 10.0148 6.39753 10.0988 6.24198 10.1037C6.14074 10.1062 6.03951 10.1086 5.93827 10.1086C5.84938 10.1086 5.76049 10.1086 5.67161 10.1062C5.5037 10.1037 5.42469 10.0074 5.42469 9.84445C5.42222 9.71605 5.42222 9.58519 5.42222 9.45679C5.41975 9.17037 5.40988 9.16049 5.1358 9.11605C4.78518 9.05926 4.43951 8.98025 4.11852 8.82469C3.86667 8.70123 3.83951 8.63951 3.91111 8.37284C3.96543 8.17531 4.01975 7.97778 4.08148 7.78272C4.12593 7.63951 4.1679 7.57531 4.24444 7.57531C4.28889 7.57531 4.34568 7.59753 4.42222 7.63704C4.77778 7.82222 5.15556 7.92593 5.55309 7.97531C5.61975 7.98272 5.68642 7.98765 5.75309 7.98765C5.93827 7.98765 6.11852 7.95309 6.29383 7.87654C6.7358 7.68395 6.80494 7.17284 6.4321 6.86667C6.30617 6.76296 6.16049 6.68642 6.00988 6.61975C5.62222 6.44938 5.21975 6.32099 4.85432 6.10123C4.26173 5.74568 3.88642 5.25926 3.93086 4.53827C3.98025 3.72346 4.44198 3.21481 5.19012 2.94321C5.49877 2.8321 5.50123 2.83457 5.50123 2.51358C5.50123 2.40494 5.49877 2.2963 5.5037 2.18519C5.51111 1.94321 5.55062 1.90123 5.79259 1.89383C5.81975 1.89383 5.84938 1.89383 5.87654 1.89383C5.92346 1.89383 5.97037 1.89383 6.01728 1.89383C6.03704 1.89383 6.05679 1.89383 6.07407 1.89383C6.53333 1.89383 6.53333 1.91358 6.5358 2.40988C6.53827 2.77531 6.53827 2.77531 6.90123 2.8321C7.18025 2.87654 7.44444 2.95802 7.70123 3.0716C7.84198 3.13333 7.8963 3.2321 7.85185 3.38272C7.78765 3.60494 7.72593 3.82963 7.65679 4.04938C7.61235 4.18272 7.57037 4.24444 7.49136 4.24444C7.44691 4.24444 7.39259 4.22716 7.32346 4.19259C6.9679 4.01975 6.59506 3.9358 6.20494 3.9358C6.15556 3.9358 6.1037 3.93827 6.05432 3.94074C5.93827 3.94815 5.82469 3.96296 5.71605 4.00988C5.33086 4.17778 5.26914 4.60247 5.59753 4.8642C5.76296 4.99753 5.95309 5.09136 6.14815 5.17284C6.48889 5.31358 6.82963 5.44938 7.15309 5.62716C8.17037 6.19506 8.44691 7.48642 7.72346 8.36543Z" fill="white"/>
</svg>
