<svg width="16" height="16" viewBox="0 0 16 16" fill="none" xmlns="http://www.w3.org/2000/svg">
<path d="M10.4582 5.56968C9.43305 5.56968 8.60043 4.73706 8.60043 3.7119V0.399994H3.07101C2.60487 0.399994 2.22656 0.778303 2.22656 1.24444V14.7555C2.22656 15.2217 2.60487 15.6 3.07101 15.6H12.9274C13.3935 15.6 13.7718 15.2217 13.7718 14.7555V5.56968H10.4582ZM4.59101 3.15457H6.52479C6.75785 3.15457 6.94701 3.34204 6.94701 3.57679C6.94701 3.80986 6.75785 3.99902 6.52479 3.99902H4.59101C4.35794 3.99902 4.16878 3.80986 4.16878 3.57679C4.16878 3.34204 4.35794 3.15457 4.59101 3.15457ZM11.4074 13.1714H4.59101C4.35794 13.1714 4.16878 12.9822 4.16878 12.7491C4.16878 12.5161 4.35794 12.3269 4.59101 12.3269H11.4074C11.6404 12.3269 11.8296 12.5161 11.8296 12.7491C11.8296 12.9822 11.6404 13.1714 11.4074 13.1714ZM11.4074 10.5012H4.59101C4.35794 10.5012 4.16878 10.3121 4.16878 10.079C4.16878 9.84426 4.35794 9.65679 4.59101 9.65679H11.4074C11.6404 9.65679 11.8296 9.84426 11.8296 10.079C11.8296 10.3121 11.6404 10.5012 11.4074 10.5012ZM11.4074 7.82941H4.59101C4.35794 7.82941 4.16878 7.64026 4.16878 7.40719C4.16878 7.17412 4.35794 6.98497 4.59101 6.98497H11.4074C11.6404 6.98497 11.8296 7.17412 11.8296 7.40719C11.8296 7.64026 11.6404 7.82941 11.4074 7.82941Z" fill="#7C0FD1"/>
<path d="M13.7717 4.55642H10.4577C9.99135 4.55642 9.61328 4.17835 9.61328 3.71198V0.399994L13.7717 4.55642Z" fill="#7C0FD1"/>
</svg>
