<svg width="16" height="16" viewBox="0 0 16 16" fill="none" xmlns="http://www.w3.org/2000/svg">
<g clip-path="url(#clip0_2801_9593)">
<path d="M2.02097 4.57819C0.865969 5.87653 0.108031 7.55062 0 9.39437H1.89875C2.00059 8.06662 2.52725 6.85809 3.34625 5.90347L2.02097 4.57819Z" fill="#7C0FD1"/>
<path d="M7.79078 10.3809C7.631 10.4615 7.53125 10.6223 7.53125 10.8006C7.53172 11.1943 8.08697 11.4081 8.34972 11.1128L9.98806 9.28131L7.79078 10.3809Z" fill="#7C0FD1"/>
<path d="M2.68359 3.91537L4.00887 5.24065C4.9635 4.42165 6.20328 3.895 7.53103 3.79315V1.91815C5.68728 2.02615 3.98197 2.76037 2.68359 3.91537Z" fill="#7C0FD1"/>
<path d="M8.46875 1.91815V3.79315C9.7965 3.895 11.0363 4.42165 11.9909 5.24065L13.3162 3.91537C12.0178 2.76037 10.3125 2.02615 8.46875 1.91815Z" fill="#7C0FD1"/>
<path d="M13.9796 4.57819L12.6543 5.90347C13.4733 6.85806 14 8.06662 14.1018 9.39437H16.0005C15.8925 7.55062 15.1346 5.87653 13.9796 4.57819Z" fill="#7C0FD1"/>
<path d="M14.0853 10.3318C14.0445 10.8634 13.9559 11.389 13.778 11.8937C13.692 12.1367 13.4268 12.2662 13.1802 12.1803C12.9357 12.0942 12.8075 11.8264 12.8936 11.5824C13.0886 11.029 13.1875 10.4508 13.1875 9.86307C13.1875 8.4416 12.6093 7.15266 11.6757 6.21897C11.6757 6.21891 11.6755 6.21885 11.6755 6.21885C11.6755 6.21885 11.6754 6.21857 11.6753 6.2185C10.7417 5.28497 9.42147 4.70685 8 4.70685C6.57853 4.70685 5.25834 5.285 4.32466 6.21857C4.32459 6.21863 4.32453 6.21879 4.32453 6.21879C4.32453 6.21879 4.32425 6.21894 4.32419 6.219C3.39066 7.15266 2.8125 8.44163 2.8125 9.8631C2.8125 10.4509 2.91138 11.029 3.10637 11.5825C3.19244 11.8265 3.06425 12.0943 2.81981 12.1803C2.57766 12.2659 2.3085 12.1378 2.22197 11.8938C2.04406 11.3891 1.9555 10.8635 1.91463 10.3319H0C0.0670625 11.4766 0.365625 12.4455 0.784594 13.3151C1.00891 13.7807 1.50144 14.0819 2.03931 14.0819H13.9602C14.4985 14.0819 14.9911 13.7807 15.2158 13.3147C15.6296 12.4535 15.9356 11.4317 16 10.3319H14.0853V10.3318ZM12.3562 8.07507L9.04828 11.7381C8.19672 12.6906 6.59375 12.0947 6.59375 10.8006C6.59375 10.2655 6.89141 9.78385 7.36994 9.54341C7.37056 9.54313 7.37084 9.5425 7.37147 9.54222L11.7972 7.34313C11.7988 7.34238 11.8004 7.34263 11.8019 7.34188C12.2553 7.12088 12.7016 7.67788 12.3562 8.07507Z" fill="#7C0FD1"/>
</g>
<defs>
<clipPath id="clip0_2801_9593">
<rect width="16" height="16" fill="white"/>
</clipPath>
</defs>
</svg>
