<svg width="16" height="16" viewBox="0 0 16 16" fill="none" xmlns="http://www.w3.org/2000/svg">
<path d="M13.5 7.5H2.5C2.5 6.675 3.175 6 4 6H12C12.825 6 13.5 6.675 13.5 7.5Z" fill="#7C0FD1"/>
<path d="M13.5 14.5C13.5 15.325 12.825 16 12 16H4C3.175 16 2.5 15.325 2.5 14.5H13.5Z" fill="#7C0FD1"/>
<path d="M6.5 6.5V3.5C6.5 2.67155 7.17155 2 8 2C8.82845 2 9.5 2.67155 9.5 3.5V6.5H11.5V3.5C11.5 1.567 9.933 0 8 0C6.067 0 4.5 1.567 4.5 3.5V6.5H6.5Z" fill="#7C0FD1"/>
<path d="M14 8.5H2C1.45 8.5 1 8.95 1 9.5V12.5C1 13.05 1.45 13.5 2 13.5H14C14.55 13.5 15 13.05 15 12.5V9.5C15 8.95 14.55 8.5 14 8.5ZM3.5 12C2.95 12 2.5 11.55 2.5 11C2.5 10.45 2.95 10 3.5 10C4.05 10 4.5 10.45 4.5 11C4.5 11.55 4.05 12 3.5 12ZM6.5 12C5.95 12 5.5 11.55 5.5 11C5.5 10.45 5.95 10 6.5 10C7.05 10 7.5 10.45 7.5 11C7.5 11.55 7.05 12 6.5 12ZM9.5 12C8.95 12 8.5 11.55 8.5 11C8.5 10.45 8.95 10 9.5 10C10.05 10 10.5 10.45 10.5 11C10.5 11.55 10.05 12 9.5 12ZM12.5 12C11.95 12 11.5 11.55 11.5 11C11.5 10.45 11.95 10 12.5 10C13.05 10 13.5 10.45 13.5 11C13.5 11.55 13.05 12 12.5 12Z" fill="#7C0FD1"/>
</svg>
