<svg width="16" height="16" viewBox="0 0 16 16" fill="none" xmlns="http://www.w3.org/2000/svg">
<g clip-path="url(#clip0_2801_9665)">
<path d="M10.7817 4.78177C9.66332 5.08724 9.12491 6.37246 9.70444 7.38305L10.7817 6.30583V4.78177Z" fill="#7C0FD1"/>
<path d="M11 14.5312H10.3971L10.2096 13.4062H5.79041L5.60291 14.5312H5C4.74112 14.5312 4.53125 14.7411 4.53125 15C4.53125 15.2589 4.74112 15.4688 5 15.4688H11C11.2589 15.4688 11.4688 15.2589 11.4688 15C11.4688 14.7411 11.2589 14.5312 11 14.5312Z" fill="#7C0FD1"/>
<path d="M10.3672 8.04597C11.3764 8.62472 12.6625 8.08875 12.9685 6.96875H11.4444L10.3672 8.04597Z" fill="#7C0FD1"/>
<path d="M14.5938 0.53125H8.46875V2C8.46875 2.25888 8.25887 2.46875 8 2.46875C7.74113 2.46875 7.53125 2.25888 7.53125 2V0.53125H1.40625C0.630844 0.53125 0 1.16209 0 1.9375V11.0625C0 11.8379 0.630844 12.4688 1.40625 12.4688H14.5938C15.3692 12.4688 16 11.8379 16 11.0625V1.9375C16 1.16209 15.3692 0.53125 14.5938 0.53125ZM6.96875 9C6.96875 9.25887 6.75887 9.46875 6.5 9.46875H2.5C2.24113 9.46875 2.03125 9.25887 2.03125 9V4C2.03125 3.74113 2.24113 3.53125 2.5 3.53125C2.75887 3.53125 2.96875 3.74113 2.96875 4V8.53125H4.03125V5.5C4.03125 5.24113 4.24113 5.03125 4.5 5.03125C4.75887 5.03125 4.96875 5.24113 4.96875 5.5V8.53125H6.03125V7C6.03125 6.74113 6.24113 6.53125 6.5 6.53125C6.75887 6.53125 6.96875 6.74113 6.96875 7V9ZM11.25 9.21875C9.75125 9.21875 8.53125 7.99875 8.53125 6.5C8.53125 5.00087 9.75088 3.78125 11.25 3.78125C12.7491 3.78125 13.9688 5.00087 13.9688 6.5C13.9688 7.99913 12.7491 9.21875 11.25 9.21875Z" fill="#7C0FD1"/>
<path d="M11.7188 4.78178V6.03125H12.9682C12.8027 5.42528 12.3247 4.94728 11.7188 4.78178Z" fill="#7C0FD1"/>
</g>
<defs>
<clipPath id="clip0_2801_9665">
<rect width="16" height="16" fill="white"/>
</clipPath>
</defs>
</svg>
