<svg width="73" height="72" viewBox="0 0 73 72" fill="none" xmlns="http://www.w3.org/2000/svg">
<g clip-path="url(#clip0_7802_27454)">
<g filter="url(#filter0_d_7802_27454)">
<path d="M71.2809 44.0892C75.6563 25.0156 63.7412 6.00651 44.6676 1.63108C25.5941 -2.74435 6.58496 9.1708 2.20953 28.2443C-2.1659 47.3179 9.74927 66.327 28.8228 70.7024C47.8963 75.0779 66.9055 63.1627 71.2809 44.0892Z" fill="#BD811E"/>
<path opacity="0.4" d="M60.2375 10.2981C60.2375 29.869 44.3703 45.7253 24.7994 45.7253C15.7885 45.7253 7.55755 42.3653 1.31755 36.8072C1.30664 36.5944 1.30664 36.3708 1.30664 36.1635C1.30664 16.5926 17.1739 0.725342 36.7448 0.725342C45.7557 0.725342 53.9757 4.08534 60.2321 9.63261C60.243 9.85625 60.243 10.0744 60.243 10.2981H60.2375Z" fill="#ECD289"/>
<path d="M65.1299 36.1635C65.1299 51.8399 52.4208 64.5544 36.7444 64.5544C21.0681 64.5544 8.35352 51.8453 8.35352 36.1635C8.35352 20.4817 21.0626 7.77258 36.7444 7.77258C52.4262 7.77258 65.1299 20.4871 65.1299 36.1635Z" fill="black"/>
<path d="M71.2809 44.0892C75.6563 25.0156 63.7412 6.00651 44.6676 1.63108C25.5941 -2.74435 6.58496 9.1708 2.20953 28.2443C-2.1659 47.3179 9.74927 66.327 28.8228 70.7024C47.8963 75.0779 66.9055 63.1627 71.2809 44.0892Z" stroke="#FFFCD9" stroke-width="0.501818" stroke-miterlimit="10"/>
<path d="M65.1062 36.1636C65.1062 51.829 52.408 64.5272 36.7425 64.5272C21.0771 64.5272 8.37891 51.829 8.37891 36.1636C8.37891 20.4981 21.0771 7.79993 36.7425 7.79993C52.408 7.79993 65.1062 20.4981 65.1062 36.1636Z" stroke="#FFFCD9" stroke-width="0.376364" stroke-miterlimit="10"/>
<path d="M36.9148 64.3636C52.5043 64.3636 65.142 51.7503 65.142 36.1909C65.142 20.6315 52.5043 8.01819 36.9148 8.01819C21.3253 8.01819 8.6875 20.6315 8.6875 36.1909C8.6875 51.7503 21.3253 64.3636 36.9148 64.3636Z" fill="#0B0B0B"/>
<path style="mix-blend-mode:screen" d="M24.1045 61.5228L36.5026 35.9999L23.4206 61.1704C23.651 61.2927 23.8742 61.4078 24.1045 61.5228ZM21.2318 59.9047L36.5098 35.9999L20.591 59.4876C20.7998 59.6314 21.023 59.7681 21.239 59.9047H21.2318ZM36.5026 64.3635C36.6322 64.3635 36.7546 64.3563 36.8842 64.3563L36.5026 35.9999L36.121 64.3563C36.2506 64.3563 36.373 64.3635 36.5026 64.3635ZM27.1573 62.7814L36.5026 35.9999L26.4373 62.5225C26.6749 62.616 26.9197 62.7023 27.1573 62.7814ZM18.5535 57.9702L36.5026 35.9999L17.9631 57.474C18.1575 57.6394 18.3519 57.812 18.5463 57.9702H18.5535ZM30.3396 63.6875L36.5098 35.9999L29.5908 63.5149C29.8356 63.5796 30.0876 63.63 30.3396 63.6875ZM33.5867 64.2125L36.5026 35.9999L32.8235 64.119C33.0755 64.155 33.3275 64.1909 33.5867 64.2125ZM8.61777 41.3073L36.5098 35.9999L8.48097 40.5521C8.52417 40.8039 8.56737 41.0556 8.61777 41.3073ZM9.40974 44.5003L36.5098 35.9999L9.19375 43.7596C9.26575 44.0041 9.33055 44.2558 9.40974 44.5003ZM12.1097 50.5125L36.5098 36.0071L11.7281 49.8437C11.8505 50.0666 11.9801 50.2896 12.1097 50.5053V50.5125ZM13.96 53.2381L36.5026 35.9999L13.5064 52.6196C13.6576 52.8282 13.8088 53.0296 13.9672 53.2381H13.96ZM10.5833 47.5783L36.5026 35.9999L10.2809 46.8807C10.3817 47.1181 10.4825 47.3482 10.5905 47.5855L10.5833 47.5783ZM43.4216 63.5149L36.5026 35.9999L42.6729 63.6875C42.9248 63.63 43.1696 63.5796 43.4216 63.5149ZM63.8187 43.7596L36.5098 35.9999L63.6099 44.5003C63.6891 44.2558 63.7539 44.0113 63.8259 43.7668L63.8187 43.7596ZM62.7387 46.8807L36.5098 35.9999L62.4291 47.5783C62.5299 47.3482 62.6379 47.1109 62.7387 46.8736V46.8807ZM61.2915 49.8437L36.5098 35.9999L60.91 50.5053C61.0396 50.2896 61.1692 50.0666 61.2915 49.8437ZM64.8195 38.0279C64.8411 37.7762 64.8555 37.5173 64.8699 37.2656L36.5026 35.9999L64.8195 38.0279ZM59.506 52.6196L36.5026 35.9999L59.0452 53.2381C59.2036 53.0368 59.3548 52.8282 59.506 52.6196ZM64.5315 40.5521L36.5026 35.9999L64.3947 41.3073C64.4451 41.0556 64.4883 40.8039 64.5315 40.5521ZM57.4253 55.1727L36.5026 35.9999L56.8925 55.7264C57.0725 55.5466 57.2525 55.3596 57.4181 55.1727H57.4253ZM46.5751 62.5225L36.5098 35.9999L45.8552 62.7814C46.1 62.6951 46.3376 62.6088 46.5751 62.5225ZM40.1889 64.119L36.5098 35.9999L39.4257 64.2125C39.6849 64.1837 39.9369 64.1478 40.1889 64.119ZM8.19298 38.0279L36.5098 35.9999L8.14258 37.2656C8.15698 37.5245 8.17138 37.7762 8.19298 38.0279ZM49.5919 61.1704L36.5098 35.9999L48.9079 61.5228C49.1383 61.4078 49.3615 61.2927 49.5919 61.1704ZM52.4286 59.4876L36.5098 35.9999L51.7878 59.9047C52.0038 59.7681 52.2198 59.6314 52.4358 59.4876H52.4286ZM55.0421 57.474L36.5026 35.9999L54.4517 57.9702C54.6533 57.812 54.8405 57.6394 55.0349 57.474H55.0421ZM16.1128 55.7336L36.5026 36.0071L15.5872 55.1798C15.76 55.3668 15.94 55.5538 16.1128 55.7336ZM56.8997 16.2661L36.5098 35.9999L57.4253 16.8199C57.2525 16.6329 57.0725 16.4531 56.8997 16.2661ZM48.9079 10.4769L36.5098 35.9999L49.5919 10.8293C49.3615 10.707 49.1383 10.592 48.9079 10.4769ZM54.4589 14.0224L36.5098 35.9999L55.0493 14.5186C54.8549 14.3532 54.6605 14.1878 54.4661 14.0224H54.4589ZM51.7806 12.095L36.5026 35.9999L52.4286 12.5121C52.2198 12.3683 51.9966 12.2317 51.7806 12.095ZM42.6729 8.31224L36.5026 35.9999L43.4216 8.48484C43.1768 8.42011 42.9248 8.36977 42.6729 8.31224ZM45.8552 9.21838L36.5098 35.9999L46.5751 9.47728C46.3376 9.38379 46.0928 9.29749 45.8552 9.21838ZM64.4019 30.6925L36.5098 35.9999L64.5387 31.4476C64.4955 31.1959 64.4523 30.9442 64.4019 30.6925ZM39.4257 7.78725L36.5098 35.9999L40.1889 7.88074C39.9369 7.84479 39.6849 7.80883 39.4257 7.78725ZM64.8195 33.9718L36.5026 35.9999L64.8699 34.7341C64.8555 34.4753 64.8411 34.2235 64.8195 33.9718ZM59.0524 18.7616L36.5098 35.9999L59.5132 19.3729C59.362 19.1644 59.2108 18.963 59.0524 18.7616ZM63.6027 27.4994L36.5026 35.9999L63.8115 28.2401C63.7395 27.9956 63.6747 27.7439 63.5955 27.5066L63.6027 27.4994ZM60.9028 21.4872L36.5026 35.9999L61.2843 22.1561C61.162 21.9331 61.0324 21.7102 60.9028 21.4944V21.4872ZM62.4291 24.4214L36.5098 35.9999L62.7387 25.119C62.6379 24.8817 62.5371 24.6515 62.4291 24.4142V24.4214ZM11.7281 22.1561L36.5098 35.9999L12.1097 21.4872C11.9801 21.7102 11.8505 21.9259 11.7281 22.1489V22.1561ZM15.5872 16.8199L36.5026 35.9999L16.12 16.2661C15.94 16.4459 15.7672 16.6329 15.5944 16.8199H15.5872ZM10.2809 25.119L36.5098 35.9999L10.5833 24.4214C10.4825 24.6515 10.3745 24.8889 10.2737 25.1262L10.2809 25.119ZM13.5064 19.3729L36.5098 35.9999L13.96 18.7616C13.8016 18.963 13.6504 19.1715 13.4992 19.3801L13.5064 19.3729ZM8.14258 34.7341L36.5026 35.9999L8.19298 33.9718C8.17858 34.2235 8.15698 34.4824 8.14258 34.7341ZM8.48097 31.4476L36.5098 35.9999L8.61777 30.6925C8.56737 30.9442 8.52417 31.1959 8.48097 31.4476ZM9.19375 28.2401L36.5026 35.9999L9.40974 27.4994C9.33055 27.7439 9.26575 27.9884 9.19375 28.2329V28.2401ZM17.9703 14.5186L36.5026 35.9999L18.5535 14.0224C18.3519 14.1878 18.1647 14.3532 17.9703 14.5186ZM26.4373 9.47728L36.5026 35.9999L27.1573 9.21838C26.9125 9.30468 26.6749 9.39098 26.4373 9.47728ZM29.5908 8.48484L36.5098 35.9999L30.3396 8.31224C30.0876 8.36977 29.8428 8.42011 29.5908 8.48484ZM36.5026 7.63623C36.373 7.63623 36.2506 7.64342 36.121 7.64342L36.5026 35.9999L36.8914 7.64342C36.7618 7.64342 36.6394 7.63623 36.5098 7.63623H36.5026ZM32.8235 7.88074L36.5026 35.9999L33.5867 7.78725C33.3275 7.81602 33.0755 7.85198 32.8235 7.88074ZM20.5838 12.5121L36.5026 35.9999L21.2318 12.095C21.0158 12.2317 20.7998 12.3683 20.5838 12.5121ZM23.4206 10.8293L36.5026 35.9999L24.1045 10.4769C23.8742 10.592 23.651 10.707 23.4206 10.8293Z" fill="url(#paint0_radial_7802_27454)"/>
<path d="M36.8886 7.63623C24.7243 7.63623 14.3534 15.2935 10.3242 26.0537C14.3534 36.8081 24.7243 44.4653 36.8886 44.4653C49.0529 44.4653 59.4178 36.8081 63.4529 26.0537C59.4237 15.2994 49.0529 7.63623 36.8886 7.63623Z" fill="url(#paint1_linear_7802_27454)"/>
<g style="mix-blend-mode:plus-lighter">
<g filter="url(#filter1_f_7802_27454)">
<path d="M67.1338 33.7926C67.9765 32.8903 69.4045 32.8287 70.3153 33.6681C71.2262 34.5075 71.2812 35.9158 70.4385 36.8181C69.5958 37.7203 68.1734 37.776 67.257 36.9425C66.3463 36.1089 66.2913 34.7006 67.134 33.7983L67.1338 33.7926Z" fill="url(#paint2_radial_7802_27454)"/>
</g>
<g style="mix-blend-mode:overlay">
<path d="M67.353 33.9823C68.0782 33.2059 69.3071 33.1528 70.0909 33.8752C70.8748 34.5976 70.9222 35.8095 70.197 36.5859C69.4718 37.3624 68.2477 37.4103 67.4591 36.693C66.6754 35.9756 66.628 34.7637 67.3532 33.9872L67.353 33.9823Z" fill="white"/>
</g>
</g>
<g style="mix-blend-mode:plus-lighter">
<g filter="url(#filter2_f_7802_27454)">
<path d="M56.8779 11.9273C57.7206 11.0251 59.1486 10.9635 60.0595 11.8029C60.9703 12.6423 61.0254 14.0506 60.1827 14.9529C59.3399 15.8551 57.9175 15.9108 57.0011 15.0773C56.0905 14.2436 56.0354 12.8353 56.8781 11.9331L56.8779 11.9273Z" fill="url(#paint3_radial_7802_27454)"/>
</g>
<g style="mix-blend-mode:overlay">
<path d="M57.0972 12.1171C57.8224 11.3406 59.0512 11.2876 59.8351 12.01C60.6189 12.7323 60.6663 13.9443 59.9411 14.7207C59.2159 15.4971 57.9918 15.545 57.2032 14.8278C56.4196 14.1104 56.3722 12.8985 57.0974 12.122L57.0972 12.1171Z" fill="white"/>
</g>
</g>
<g style="mix-blend-mode:plus-lighter">
<g filter="url(#filter3_f_7802_27454)">
<path d="M33.2705 2.79048C34.1132 1.88822 35.5412 1.82661 36.452 2.66604C37.3629 3.50546 37.418 4.91375 36.5752 5.81601C35.7325 6.71827 34.3101 6.77391 33.3937 5.94046C32.4831 5.10678 32.428 3.69849 33.2707 2.79623L33.2705 2.79048Z" fill="url(#paint4_radial_7802_27454)"/>
</g>
<g style="mix-blend-mode:overlay">
<path d="M33.4897 2.98023C34.215 2.20378 35.4438 2.15076 36.2277 2.87313C37.0115 3.5955 37.0589 4.80741 36.3337 5.58386C35.6085 6.3603 34.3844 6.40818 33.5958 5.69095C32.8121 4.97353 32.7647 3.76161 33.4899 2.98517L33.4897 2.98023Z" fill="white"/>
</g>
</g>
<g style="mix-blend-mode:plus-lighter">
<g filter="url(#filter4_f_7802_27454)">
<path d="M11.1806 13.6862C12.0233 12.784 13.4513 12.7224 14.3622 13.5618C15.273 14.4012 15.3281 15.8095 14.4854 16.7118C13.6427 17.614 12.2203 17.6697 11.3038 16.8362C10.3932 16.0025 10.3381 14.5942 11.1809 13.692L11.1806 13.6862Z" fill="url(#paint5_radial_7802_27454)"/>
</g>
<g style="mix-blend-mode:overlay">
<path d="M11.3999 13.876C12.1251 13.0995 13.354 13.0465 14.1378 13.7689C14.9216 14.4913 14.969 15.7032 14.2438 16.4796C13.5186 17.2561 12.2946 17.3039 11.5059 16.5867C10.7223 15.8693 10.6749 14.6574 11.4001 13.8809L11.3999 13.876Z" fill="white"/>
</g>
</g>
<g style="mix-blend-mode:plus-lighter">
<g filter="url(#filter5_f_7802_27454)">
<path d="M3.21383 36.2989C4.05655 35.3966 5.48454 35.335 6.39539 36.1745C7.30624 37.0139 7.36132 38.4222 6.5186 39.3244C5.67588 40.2267 4.25347 40.2823 3.33705 39.4489C2.42642 38.6152 2.37134 37.2069 3.21406 36.3047L3.21383 36.2989Z" fill="url(#paint6_radial_7802_27454)"/>
</g>
<g style="mix-blend-mode:overlay">
<path d="M3.43311 36.4886C4.15831 35.7122 5.38718 35.6592 6.17101 36.3816C6.95485 37.1039 7.00225 38.3158 6.27704 39.0923C5.55184 39.8687 4.32778 39.9166 3.53914 39.1994C2.7555 38.482 2.70809 37.27 3.4333 36.4936L3.43311 36.4886Z" fill="white"/>
</g>
</g>
<g style="mix-blend-mode:plus-lighter">
<g filter="url(#filter6_f_7802_27454)">
<path d="M13.0029 58.2061C13.8456 57.3039 15.2736 57.2423 16.1845 58.0817C17.0953 58.9211 17.1504 60.3294 16.3077 61.2317C15.4649 62.1339 14.0425 62.1896 13.1261 61.3561C12.2155 60.5224 12.1604 59.1141 13.0031 58.2119L13.0029 58.2061Z" fill="url(#paint7_radial_7802_27454)"/>
</g>
<g style="mix-blend-mode:overlay">
<path d="M13.2222 58.3959C13.9474 57.6194 15.1762 57.5664 15.9601 58.2888C16.7439 59.0112 16.7913 60.2231 16.0661 60.9995C15.3409 61.776 14.1168 61.8238 13.3282 61.1066C12.5446 60.3892 12.4972 59.1773 13.2224 58.4008L13.2222 58.3959Z" fill="white"/>
</g>
</g>
<g style="mix-blend-mode:plus-lighter">
<g filter="url(#filter7_f_7802_27454)">
<path d="M35.7529 66.6156C36.5956 65.7133 38.0236 65.6517 38.9345 66.4911C39.8453 67.3305 39.9004 68.7388 39.0577 69.6411C38.2149 70.5433 36.7925 70.599 35.8761 69.7655C34.9655 68.9319 34.9104 67.5236 35.7531 66.6213L35.7529 66.6156Z" fill="url(#paint8_radial_7802_27454)"/>
</g>
<g style="mix-blend-mode:overlay">
<path d="M35.9722 66.8053C36.6974 66.0289 37.9262 65.9758 38.7101 66.6982C39.4939 67.4206 39.5413 68.6325 38.8161 69.4089C38.0909 70.1854 36.8668 70.2333 36.0782 69.516C35.2946 68.7986 35.2472 67.5867 35.9724 66.8102L35.9722 66.8053Z" fill="white"/>
</g>
</g>
<g style="mix-blend-mode:plus-lighter">
<g filter="url(#filter8_f_7802_27454)">
<path d="M57.8857 56.4472C58.7284 55.545 60.1564 55.4833 61.0673 56.3228C61.9781 57.1622 62.0332 58.5705 61.1905 59.4728C60.3478 60.375 58.9253 60.4307 58.0089 59.5972C57.0983 58.7635 57.0432 57.3552 57.8859 56.453L57.8857 56.4472Z" fill="url(#paint9_radial_7802_27454)"/>
</g>
<g style="mix-blend-mode:overlay">
<path d="M58.105 56.637C58.8302 55.8605 60.0591 55.8075 60.8429 56.5299C61.6267 57.2522 61.6741 58.4642 60.9489 59.2406C60.2237 60.017 58.9997 60.0649 58.211 59.3477C57.4274 58.6303 57.38 57.4184 58.1052 56.6419L58.105 56.637Z" fill="white"/>
</g>
</g>
<g style="mix-blend-mode:plus-lighter">
<g filter="url(#filter9_f_7802_27454)">
<path d="M46.1845 4.74056C47.0273 3.8383 48.4552 3.77668 49.3661 4.61611C50.2769 5.45553 50.332 6.86383 49.4893 7.76609C48.6466 8.66835 47.2242 8.72399 46.3077 7.89054C45.3971 7.05686 45.342 5.64856 46.1848 4.7463L46.1845 4.74056Z" fill="url(#paint10_radial_7802_27454)"/>
</g>
<g style="mix-blend-mode:overlay">
<path d="M46.4038 4.9303C47.129 4.15385 48.3579 4.10083 49.1417 4.8232C49.9255 5.54558 49.973 6.75749 49.2477 7.53393C48.5225 8.31038 47.2985 8.35826 46.5098 7.64103C45.7262 6.9236 45.6788 5.71169 46.404 4.93524L46.4038 4.9303Z" fill="white"/>
</g>
</g>
<g style="mix-blend-mode:plus-lighter">
<g filter="url(#filter10_f_7802_27454)">
<path d="M20.3095 6.42806C21.1523 5.5258 22.5802 5.46418 23.4911 6.30361C24.4019 7.14303 24.457 8.55133 23.6143 9.45359C22.7716 10.3558 21.3492 10.4115 20.4327 9.57804C19.5221 8.74436 19.467 7.33606 20.3098 6.4338L20.3095 6.42806Z" fill="url(#paint11_radial_7802_27454)"/>
</g>
<g style="mix-blend-mode:overlay">
<path d="M20.5288 6.6178C21.254 5.84135 22.4829 5.78833 23.2667 6.5107C24.0505 7.23308 24.098 8.44499 23.3727 9.22143C22.6475 9.99788 21.4235 10.0458 20.6348 9.32853C19.8512 8.6111 19.8038 7.39919 20.529 6.62274L20.5288 6.6178Z" fill="white"/>
</g>
</g>
<g style="mix-blend-mode:plus-lighter">
<g filter="url(#filter11_f_7802_27454)">
<path d="M5.1279 23.9685C5.97061 23.0662 7.3986 23.0046 8.30945 23.844C9.2203 24.6834 9.27538 26.0917 8.43266 26.994C7.58995 27.8963 6.16754 27.9519 5.25111 27.1184C4.34049 26.2848 4.2854 24.8765 5.12812 23.9742L5.1279 23.9685Z" fill="url(#paint12_radial_7802_27454)"/>
</g>
<g style="mix-blend-mode:overlay">
<path d="M5.34717 24.1582C6.07238 23.3818 7.30124 23.3287 8.08507 24.0511C8.86891 24.7735 8.91631 25.9854 8.19111 26.7618C7.4659 27.5383 6.24184 27.5862 5.4532 26.8689C4.66956 26.1515 4.62216 24.9396 5.34736 24.1631L5.34717 24.1582Z" fill="white"/>
</g>
</g>
<g style="mix-blend-mode:plus-lighter">
<g filter="url(#filter12_f_7802_27454)">
<path d="M6.2529 48.4537C7.09561 47.5514 8.5236 47.4898 9.43445 48.3292C10.3453 49.1687 10.4004 50.577 9.55766 51.4792C8.71495 52.3815 7.29254 52.4371 6.37611 51.6037C5.46549 50.77 5.4104 49.3617 6.25312 48.4594L6.2529 48.4537Z" fill="url(#paint13_radial_7802_27454)"/>
</g>
<g style="mix-blend-mode:overlay">
<path d="M6.47217 48.6434C7.19738 47.867 8.42624 47.814 9.21007 48.5363C9.99391 49.2587 10.0413 50.4706 9.31611 51.2471C8.5909 52.0235 7.36684 52.0714 6.5782 51.3542C5.79456 50.6367 5.74716 49.4248 6.47236 48.6484L6.47217 48.6434Z" fill="white"/>
</g>
</g>
<g style="mix-blend-mode:plus-lighter">
<g filter="url(#filter13_f_7802_27454)">
<path d="M23.2978 64.4871C24.1405 63.5849 25.5685 63.5233 26.4794 64.3627C27.3902 65.2021 27.4453 66.6104 26.6026 67.5127C25.7599 68.4149 24.3375 68.4706 23.421 67.6371C22.5104 66.8034 22.4553 65.3951 23.298 64.4929L23.2978 64.4871Z" fill="url(#paint14_radial_7802_27454)"/>
</g>
<g style="mix-blend-mode:overlay">
<path d="M23.5171 64.6769C24.2423 63.9004 25.4712 63.8474 26.255 64.5698C27.0388 65.2922 27.0862 66.5041 26.361 67.2805C25.6358 68.057 24.4118 68.1048 23.6231 67.3876C22.8395 66.6702 22.7921 65.4583 23.5173 64.6818L23.5171 64.6769Z" fill="white"/>
</g>
</g>
<g style="mix-blend-mode:plus-lighter">
<g filter="url(#filter14_f_7802_27454)">
<path d="M48.0302 63.5199C48.873 62.6176 50.3009 62.556 51.2118 63.3954C52.1226 64.2348 52.1777 65.6431 51.335 66.5454C50.4923 67.4476 49.0699 67.5033 48.1535 66.6698C47.2428 65.8362 47.1877 64.4279 48.0305 63.5256L48.0302 63.5199Z" fill="url(#paint15_radial_7802_27454)"/>
</g>
<g style="mix-blend-mode:overlay">
<path d="M48.2495 63.7096C48.9747 62.9332 50.2036 62.8801 50.9874 63.6025C51.7713 64.3249 51.8187 65.5368 51.0935 66.3132C50.3682 67.0897 49.1442 67.1376 48.3555 66.4203C47.5719 65.7029 47.5245 64.491 48.2497 63.7145L48.2495 63.7096Z" fill="white"/>
</g>
</g>
<g style="mix-blend-mode:plus-lighter">
<g filter="url(#filter15_f_7802_27454)">
<path d="M64.7529 46.1231C65.5956 45.2209 67.0236 45.1593 67.9345 45.9987C68.8453 46.8381 68.9004 48.2464 68.0577 49.1487C67.2149 50.0509 65.7925 50.1066 64.8761 49.2731C63.9655 48.4394 63.9104 47.0311 64.7531 46.1289L64.7529 46.1231Z" fill="url(#paint16_radial_7802_27454)"/>
</g>
<g style="mix-blend-mode:overlay">
<path d="M64.9722 46.3129C65.6974 45.5364 66.9262 45.4834 67.7101 46.2058C68.4939 46.9281 68.5413 48.1401 67.8161 48.9165C67.0909 49.6929 65.8668 49.7408 65.0782 49.0236C64.2946 48.3062 64.2472 47.0943 64.9724 46.3178L64.9722 46.3129Z" fill="white"/>
</g>
</g>
<g style="mix-blend-mode:plus-lighter">
<g filter="url(#filter16_f_7802_27454)">
<path d="M64.4072 21.638C65.2499 20.7358 66.6779 20.6741 67.5887 21.5136C68.4996 22.353 68.5547 23.7613 67.712 24.6635C66.8692 25.5658 65.4468 25.6214 64.5304 24.788C63.6198 23.9543 63.5647 22.546 64.4074 21.6438L64.4072 21.638Z" fill="url(#paint17_radial_7802_27454)"/>
</g>
<g style="mix-blend-mode:overlay">
<path d="M64.6265 21.8278C65.3517 21.0513 66.5805 20.9983 67.3644 21.7207C68.1482 22.443 68.1956 23.6549 67.4704 24.4314C66.7452 25.2078 65.5211 25.2557 64.7325 24.5385C63.9489 23.8211 63.9015 22.6091 64.6267 21.8327L64.6265 21.8278Z" fill="white"/>
</g>
</g>
</g>
</g>
<defs>
<filter id="filter0_d_7802_27454" x="-25.9473" y="-26.5248" width="125.385" height="125.383" filterUnits="userSpaceOnUse" color-interpolation-filters="sRGB">
<feFlood flood-opacity="0" result="BackgroundImageFix"/>
<feColorMatrix in="SourceAlpha" type="matrix" values="0 0 0 0 0 0 0 0 0 0 0 0 0 0 0 0 0 0 127 0" result="hardAlpha"/>
<feOffset/>
<feGaussianBlur stdDeviation="13.5"/>
<feComposite in2="hardAlpha" operator="out"/>
<feColorMatrix type="matrix" values="0 0 0 0 0.992157 0 0 0 0 0.913725 0 0 0 0 0.168627 0 0 0 1 0"/>
<feBlend mode="normal" in2="BackgroundImageFix" result="effect1_dropShadow_7802_27454"/>
<feBlend mode="normal" in="SourceGraphic" in2="effect1_dropShadow_7802_27454" result="shape"/>
</filter>
<filter id="filter1_f_7802_27454" x="62.1735" y="28.7117" width="13.2273" height="13.1849" filterUnits="userSpaceOnUse" color-interpolation-filters="sRGB">
<feFlood flood-opacity="0" result="BackgroundImageFix"/>
<feBlend mode="normal" in="SourceGraphic" in2="BackgroundImageFix" result="shape"/>
<feGaussianBlur stdDeviation="2.18182" result="effect1_foregroundBlur_7802_27454"/>
</filter>
<filter id="filter2_f_7802_27454" x="51.9176" y="6.84645" width="13.2273" height="13.1849" filterUnits="userSpaceOnUse" color-interpolation-filters="sRGB">
<feFlood flood-opacity="0" result="BackgroundImageFix"/>
<feBlend mode="normal" in="SourceGraphic" in2="BackgroundImageFix" result="shape"/>
<feGaussianBlur stdDeviation="2.18182" result="effect1_foregroundBlur_7802_27454"/>
</filter>
<filter id="filter3_f_7802_27454" x="28.3102" y="-2.29039" width="13.2273" height="13.1849" filterUnits="userSpaceOnUse" color-interpolation-filters="sRGB">
<feFlood flood-opacity="0" result="BackgroundImageFix"/>
<feBlend mode="normal" in="SourceGraphic" in2="BackgroundImageFix" result="shape"/>
<feGaussianBlur stdDeviation="2.18182" result="effect1_foregroundBlur_7802_27454"/>
</filter>
<filter id="filter4_f_7802_27454" x="6.22035" y="8.60536" width="13.2273" height="13.1849" filterUnits="userSpaceOnUse" color-interpolation-filters="sRGB">
<feFlood flood-opacity="0" result="BackgroundImageFix"/>
<feBlend mode="normal" in="SourceGraphic" in2="BackgroundImageFix" result="shape"/>
<feGaussianBlur stdDeviation="2.18182" result="effect1_foregroundBlur_7802_27454"/>
</filter>
<filter id="filter5_f_7802_27454" x="-1.74645" y="31.218" width="13.2273" height="13.1849" filterUnits="userSpaceOnUse" color-interpolation-filters="sRGB">
<feFlood flood-opacity="0" result="BackgroundImageFix"/>
<feBlend mode="normal" in="SourceGraphic" in2="BackgroundImageFix" result="shape"/>
<feGaussianBlur stdDeviation="2.18182" result="effect1_foregroundBlur_7802_27454"/>
</filter>
<filter id="filter6_f_7802_27454" x="8.04261" y="53.1253" width="13.2273" height="13.1849" filterUnits="userSpaceOnUse" color-interpolation-filters="sRGB">
<feFlood flood-opacity="0" result="BackgroundImageFix"/>
<feBlend mode="normal" in="SourceGraphic" in2="BackgroundImageFix" result="shape"/>
<feGaussianBlur stdDeviation="2.18182" result="effect1_foregroundBlur_7802_27454"/>
</filter>
<filter id="filter7_f_7802_27454" x="30.7926" y="61.5347" width="13.2273" height="13.1849" filterUnits="userSpaceOnUse" color-interpolation-filters="sRGB">
<feFlood flood-opacity="0" result="BackgroundImageFix"/>
<feBlend mode="normal" in="SourceGraphic" in2="BackgroundImageFix" result="shape"/>
<feGaussianBlur stdDeviation="2.18182" result="effect1_foregroundBlur_7802_27454"/>
</filter>
<filter id="filter8_f_7802_27454" x="52.9254" y="51.3663" width="13.2273" height="13.1849" filterUnits="userSpaceOnUse" color-interpolation-filters="sRGB">
<feFlood flood-opacity="0" result="BackgroundImageFix"/>
<feBlend mode="normal" in="SourceGraphic" in2="BackgroundImageFix" result="shape"/>
<feGaussianBlur stdDeviation="2.18182" result="effect1_foregroundBlur_7802_27454"/>
</filter>
<filter id="filter9_f_7802_27454" x="41.2243" y="-0.340321" width="13.2273" height="13.1849" filterUnits="userSpaceOnUse" color-interpolation-filters="sRGB">
<feFlood flood-opacity="0" result="BackgroundImageFix"/>
<feBlend mode="normal" in="SourceGraphic" in2="BackgroundImageFix" result="shape"/>
<feGaussianBlur stdDeviation="2.18182" result="effect1_foregroundBlur_7802_27454"/>
</filter>
<filter id="filter10_f_7802_27454" x="15.3493" y="1.34718" width="13.2273" height="13.1849" filterUnits="userSpaceOnUse" color-interpolation-filters="sRGB">
<feFlood flood-opacity="0" result="BackgroundImageFix"/>
<feBlend mode="normal" in="SourceGraphic" in2="BackgroundImageFix" result="shape"/>
<feGaussianBlur stdDeviation="2.18182" result="effect1_foregroundBlur_7802_27454"/>
</filter>
<filter id="filter11_f_7802_27454" x="0.167614" y="18.8876" width="13.2273" height="13.1849" filterUnits="userSpaceOnUse" color-interpolation-filters="sRGB">
<feFlood flood-opacity="0" result="BackgroundImageFix"/>
<feBlend mode="normal" in="SourceGraphic" in2="BackgroundImageFix" result="shape"/>
<feGaussianBlur stdDeviation="2.18182" result="effect1_foregroundBlur_7802_27454"/>
</filter>
<filter id="filter12_f_7802_27454" x="1.29261" y="43.3728" width="13.2273" height="13.1849" filterUnits="userSpaceOnUse" color-interpolation-filters="sRGB">
<feFlood flood-opacity="0" result="BackgroundImageFix"/>
<feBlend mode="normal" in="SourceGraphic" in2="BackgroundImageFix" result="shape"/>
<feGaussianBlur stdDeviation="2.18182" result="effect1_foregroundBlur_7802_27454"/>
</filter>
<filter id="filter13_f_7802_27454" x="18.3375" y="59.4063" width="13.2273" height="13.1849" filterUnits="userSpaceOnUse" color-interpolation-filters="sRGB">
<feFlood flood-opacity="0" result="BackgroundImageFix"/>
<feBlend mode="normal" in="SourceGraphic" in2="BackgroundImageFix" result="shape"/>
<feGaussianBlur stdDeviation="2.18182" result="effect1_foregroundBlur_7802_27454"/>
</filter>
<filter id="filter14_f_7802_27454" x="43.07" y="58.439" width="13.2273" height="13.1849" filterUnits="userSpaceOnUse" color-interpolation-filters="sRGB">
<feFlood flood-opacity="0" result="BackgroundImageFix"/>
<feBlend mode="normal" in="SourceGraphic" in2="BackgroundImageFix" result="shape"/>
<feGaussianBlur stdDeviation="2.18182" result="effect1_foregroundBlur_7802_27454"/>
</filter>
<filter id="filter15_f_7802_27454" x="59.7926" y="41.0422" width="13.2273" height="13.1849" filterUnits="userSpaceOnUse" color-interpolation-filters="sRGB">
<feFlood flood-opacity="0" result="BackgroundImageFix"/>
<feBlend mode="normal" in="SourceGraphic" in2="BackgroundImageFix" result="shape"/>
<feGaussianBlur stdDeviation="2.18182" result="effect1_foregroundBlur_7802_27454"/>
</filter>
<filter id="filter16_f_7802_27454" x="59.4469" y="16.5571" width="13.2273" height="13.1849" filterUnits="userSpaceOnUse" color-interpolation-filters="sRGB">
<feFlood flood-opacity="0" result="BackgroundImageFix"/>
<feBlend mode="normal" in="SourceGraphic" in2="BackgroundImageFix" result="shape"/>
<feGaussianBlur stdDeviation="2.18182" result="effect1_foregroundBlur_7802_27454"/>
</filter>
<radialGradient id="paint0_radial_7802_27454" cx="0" cy="0" r="1" gradientUnits="userSpaceOnUse" gradientTransform="translate(22.8734 -3.68333) scale(51.169 51.1106)">
<stop stop-color="#FFF1D1"/>
<stop offset="0.05" stop-color="#FFC94C"/>
<stop offset="0.14" stop-color="#A2621E"/>
<stop offset="0.16" stop-color="#955A1B"/>
<stop offset="0.25" stop-color="#6E4214"/>
<stop offset="0.34" stop-color="#4C2E0E"/>
<stop offset="0.44" stop-color="#301D08"/>
<stop offset="0.55" stop-color="#1A1004"/>
<stop offset="0.66" stop-color="#0B0702"/>
<stop offset="0.8" stop-color="#020100"/>
<stop offset="1"/>
</radialGradient>
<linearGradient id="paint1_linear_7802_27454" x1="36.8886" y1="-2.66387" x2="36.8886" y2="54.5766" gradientUnits="userSpaceOnUse">
<stop offset="0.06" stop-color="white"/>
<stop offset="0.11" stop-color="white" stop-opacity="0.8464"/>
<stop offset="0.3" stop-color="white" stop-opacity="0.36"/>
<stop offset="0.47" stop-color="white" stop-opacity="0.1156"/>
<stop offset="0.62" stop-color="white" stop-opacity="0.0256"/>
<stop offset="0.73" stop-color="white" stop-opacity="0.01"/>
<stop offset="0.79" stop-color="white" stop-opacity="0"/>
</linearGradient>
<radialGradient id="paint2_radial_7802_27454" cx="0" cy="0" r="1" gradientUnits="userSpaceOnUse" gradientTransform="translate(66.8497 37.097) rotate(-137.526) scale(7.58525 7.58487)">
<stop stop-color="#EEB456"/>
<stop offset="0.17" stop-color="#EFC560"/>
<stop offset="0.19" stop-color="#F0C762"/>
<stop offset="0.73" stop-color="#C37808"/>
<stop offset="0.95" stop-color="#EDB05A"/>
</radialGradient>
<radialGradient id="paint3_radial_7802_27454" cx="0" cy="0" r="1" gradientUnits="userSpaceOnUse" gradientTransform="translate(56.5938 15.2317) rotate(-137.526) scale(7.58525 7.58487)">
<stop stop-color="#EEB456"/>
<stop offset="0.17" stop-color="#EFC560"/>
<stop offset="0.19" stop-color="#F0C762"/>
<stop offset="0.73" stop-color="#C37808"/>
<stop offset="0.95" stop-color="#EDB05A"/>
</radialGradient>
<radialGradient id="paint4_radial_7802_27454" cx="0" cy="0" r="1" gradientUnits="userSpaceOnUse" gradientTransform="translate(32.9864 6.09488) rotate(-137.526) scale(7.58525 7.58487)">
<stop stop-color="#EEB456"/>
<stop offset="0.17" stop-color="#EFC560"/>
<stop offset="0.19" stop-color="#F0C762"/>
<stop offset="0.73" stop-color="#C37808"/>
<stop offset="0.95" stop-color="#EDB05A"/>
</radialGradient>
<radialGradient id="paint5_radial_7802_27454" cx="0" cy="0" r="1" gradientUnits="userSpaceOnUse" gradientTransform="translate(10.8966 16.9906) rotate(-137.526) scale(7.58525 7.58487)">
<stop stop-color="#EEB456"/>
<stop offset="0.17" stop-color="#EFC560"/>
<stop offset="0.19" stop-color="#F0C762"/>
<stop offset="0.73" stop-color="#C37808"/>
<stop offset="0.95" stop-color="#EDB05A"/>
</radialGradient>
<radialGradient id="paint6_radial_7802_27454" cx="0" cy="0" r="1" gradientUnits="userSpaceOnUse" gradientTransform="translate(2.92977 39.6033) rotate(-137.526) scale(7.58525 7.58487)">
<stop stop-color="#EEB456"/>
<stop offset="0.17" stop-color="#EFC560"/>
<stop offset="0.19" stop-color="#F0C762"/>
<stop offset="0.73" stop-color="#C37808"/>
<stop offset="0.95" stop-color="#EDB05A"/>
</radialGradient>
<radialGradient id="paint7_radial_7802_27454" cx="0" cy="0" r="1" gradientUnits="userSpaceOnUse" gradientTransform="translate(12.7188 61.5105) rotate(-137.526) scale(7.58525 7.58487)">
<stop stop-color="#EEB456"/>
<stop offset="0.17" stop-color="#EFC560"/>
<stop offset="0.19" stop-color="#F0C762"/>
<stop offset="0.73" stop-color="#C37808"/>
<stop offset="0.95" stop-color="#EDB05A"/>
</radialGradient>
<radialGradient id="paint8_radial_7802_27454" cx="0" cy="0" r="1" gradientUnits="userSpaceOnUse" gradientTransform="translate(35.4688 69.9199) rotate(-137.526) scale(7.58525 7.58487)">
<stop stop-color="#EEB456"/>
<stop offset="0.17" stop-color="#EFC560"/>
<stop offset="0.19" stop-color="#F0C762"/>
<stop offset="0.73" stop-color="#C37808"/>
<stop offset="0.95" stop-color="#EDB05A"/>
</radialGradient>
<radialGradient id="paint9_radial_7802_27454" cx="0" cy="0" r="1" gradientUnits="userSpaceOnUse" gradientTransform="translate(57.6016 59.7516) rotate(-137.526) scale(7.58525 7.58487)">
<stop stop-color="#EEB456"/>
<stop offset="0.17" stop-color="#EFC560"/>
<stop offset="0.19" stop-color="#F0C762"/>
<stop offset="0.73" stop-color="#C37808"/>
<stop offset="0.95" stop-color="#EDB05A"/>
</radialGradient>
<radialGradient id="paint10_radial_7802_27454" cx="0" cy="0" r="1" gradientUnits="userSpaceOnUse" gradientTransform="translate(45.9005 8.04495) rotate(-137.526) scale(7.58525 7.58487)">
<stop stop-color="#EEB456"/>
<stop offset="0.17" stop-color="#EFC560"/>
<stop offset="0.19" stop-color="#F0C762"/>
<stop offset="0.73" stop-color="#C37808"/>
<stop offset="0.95" stop-color="#EDB05A"/>
</radialGradient>
<radialGradient id="paint11_radial_7802_27454" cx="0" cy="0" r="1" gradientUnits="userSpaceOnUse" gradientTransform="translate(20.0255 9.73245) rotate(-137.526) scale(7.58525 7.58487)">
<stop stop-color="#EEB456"/>
<stop offset="0.17" stop-color="#EFC560"/>
<stop offset="0.19" stop-color="#F0C762"/>
<stop offset="0.73" stop-color="#C37808"/>
<stop offset="0.95" stop-color="#EDB05A"/>
</radialGradient>
<radialGradient id="paint12_radial_7802_27454" cx="0" cy="0" r="1" gradientUnits="userSpaceOnUse" gradientTransform="translate(4.84383 27.2729) rotate(-137.526) scale(7.58525 7.58487)">
<stop stop-color="#EEB456"/>
<stop offset="0.17" stop-color="#EFC560"/>
<stop offset="0.19" stop-color="#F0C762"/>
<stop offset="0.73" stop-color="#C37808"/>
<stop offset="0.95" stop-color="#EDB05A"/>
</radialGradient>
<radialGradient id="paint13_radial_7802_27454" cx="0" cy="0" r="1" gradientUnits="userSpaceOnUse" gradientTransform="translate(5.96883 51.7581) rotate(-137.526) scale(7.58525 7.58487)">
<stop stop-color="#EEB456"/>
<stop offset="0.17" stop-color="#EFC560"/>
<stop offset="0.19" stop-color="#F0C762"/>
<stop offset="0.73" stop-color="#C37808"/>
<stop offset="0.95" stop-color="#EDB05A"/>
</radialGradient>
<radialGradient id="paint14_radial_7802_27454" cx="0" cy="0" r="1" gradientUnits="userSpaceOnUse" gradientTransform="translate(23.0138 67.7915) rotate(-137.526) scale(7.58525 7.58487)">
<stop stop-color="#EEB456"/>
<stop offset="0.17" stop-color="#EFC560"/>
<stop offset="0.19" stop-color="#F0C762"/>
<stop offset="0.73" stop-color="#C37808"/>
<stop offset="0.95" stop-color="#EDB05A"/>
</radialGradient>
<radialGradient id="paint15_radial_7802_27454" cx="0" cy="0" r="1" gradientUnits="userSpaceOnUse" gradientTransform="translate(47.7462 66.8242) rotate(-137.526) scale(7.58525 7.58487)">
<stop stop-color="#EEB456"/>
<stop offset="0.17" stop-color="#EFC560"/>
<stop offset="0.19" stop-color="#F0C762"/>
<stop offset="0.73" stop-color="#C37808"/>
<stop offset="0.95" stop-color="#EDB05A"/>
</radialGradient>
<radialGradient id="paint16_radial_7802_27454" cx="0" cy="0" r="1" gradientUnits="userSpaceOnUse" gradientTransform="translate(64.4688 49.4275) rotate(-137.526) scale(7.58525 7.58487)">
<stop stop-color="#EEB456"/>
<stop offset="0.17" stop-color="#EFC560"/>
<stop offset="0.19" stop-color="#F0C762"/>
<stop offset="0.73" stop-color="#C37808"/>
<stop offset="0.95" stop-color="#EDB05A"/>
</radialGradient>
<radialGradient id="paint17_radial_7802_27454" cx="0" cy="0" r="1" gradientUnits="userSpaceOnUse" gradientTransform="translate(64.1231 24.9424) rotate(-137.526) scale(7.58525 7.58487)">
<stop stop-color="#EEB456"/>
<stop offset="0.17" stop-color="#EFC560"/>
<stop offset="0.19" stop-color="#F0C762"/>
<stop offset="0.73" stop-color="#C37808"/>
<stop offset="0.95" stop-color="#EDB05A"/>
</radialGradient>
<clipPath id="clip0_7802_27454">
<rect x="0.5" width="72" height="72" rx="36" fill="white"/>
</clipPath>
</defs>
</svg>
