<svg width="14" height="14" viewBox="0 0 14 14" fill="none" xmlns="http://www.w3.org/2000/svg">
<path d="M7.18229 0.333313C3.50229 0.333313 0.515625 3.31998 0.515625 6.99998C0.515625 10.68 3.50229 13.6666 7.18229 13.6666C10.8623 13.6666 13.849 10.68 13.849 6.99998C13.849 3.31998 10.8623 0.333313 7.18229 0.333313ZM8.12229 11.06V11.4466C8.12229 11.9333 7.72229 12.3333 7.23563 12.3333H7.22896C6.74229 12.3333 6.34229 11.9333 6.34229 11.4466V11.0466C5.45563 10.86 4.66896 10.3733 4.33563 9.55331C4.18229 9.18665 4.46896 8.77998 4.86896 8.77998H5.02896C5.27563 8.77998 5.47563 8.94665 5.56896 9.17998C5.76229 9.67998 6.26896 10.0266 7.24229 10.0266C8.54896 10.0266 8.84229 9.37331 8.84229 8.96665C8.84229 8.41331 8.54896 7.89331 7.06229 7.53998C5.40896 7.13998 4.27562 6.45998 4.27562 5.09331C4.27562 3.94665 5.20229 3.19998 6.34896 2.95331V2.55331C6.34896 2.06665 6.74896 1.66665 7.23563 1.66665H7.24229C7.72896 1.66665 8.12896 2.06665 8.12896 2.55331V2.96665C9.04896 3.19331 9.62896 3.76665 9.88229 4.47331C10.0156 4.83998 9.73563 5.22665 9.34229 5.22665H9.16896C8.92229 5.22665 8.72229 5.05331 8.65563 4.81331C8.50229 4.30665 8.08229 3.97998 7.24229 3.97998C6.24229 3.97998 5.64229 4.43331 5.64229 5.07331C5.64229 5.63331 6.07562 5.99998 7.42229 6.34665C8.76896 6.69331 10.209 7.27331 10.209 8.95331C10.1956 10.1733 9.28229 10.84 8.12229 11.06Z" fill="#7C0FD1"/>
</svg>
