<svg width="20" height="20" viewBox="0 0 20 20" fill="none" xmlns="http://www.w3.org/2000/svg">
<path d="M10 2.50018C8.51664 2.50018 7.06659 2.94005 5.83323 3.76416C4.59986 4.58827 3.63856 5.75961 3.07091 7.13006C2.50325 8.5005 2.35472 10.0085 2.64411 11.4634C2.9335 12.9182 3.64781 14.2546 4.6967 15.3035C5.7456 16.3524 7.08197 17.0667 8.53683 17.3561C9.99168 17.6455 11.4997 17.4969 12.8701 16.9293C14.2406 16.3616 15.4119 15.4003 16.236 14.167C17.0601 12.9336 17.5 11.4835 17.5 10.0002C17.4977 8.01178 16.7067 6.10549 15.3007 4.69947C13.8947 3.29346 11.9884 2.50253 10 2.50018ZM12.5275 12.5277C12.3996 12.6555 12.2262 12.7273 12.0455 12.7273C11.8647 12.7273 11.6913 12.6555 11.5634 12.5277L9.51796 10.4822C9.39008 10.3544 9.31822 10.181 9.31818 10.0002V5.90927C9.31818 5.72844 9.39002 5.55502 9.51788 5.42716C9.64575 5.29929 9.81917 5.22746 10 5.22746C10.1808 5.22746 10.3543 5.29929 10.4821 5.42716C10.61 5.55502 10.6818 5.72844 10.6818 5.90927V9.71791L12.5275 11.5636C12.6553 11.6915 12.7271 11.8648 12.7271 12.0456C12.7271 12.2264 12.6553 12.3998 12.5275 12.5277Z" fill="#7C0FD1"/>
</svg>
