<svg width="20" height="20" viewBox="0 0 20 20" fill="none" xmlns="http://www.w3.org/2000/svg">
<path d="M15.8346 6.66669H4.16797C3.70964 6.66669 3.33464 6.29169 3.33464 5.83335C3.33464 5.37502 3.70964 5.00002 4.16797 5.00002H15.8346C16.293 5.00002 16.668 5.37502 16.668 5.83335C16.668 6.29169 16.293 6.66669 15.8346 6.66669ZM14.168 1.66669H5.83464C5.3763 1.66669 5.0013 2.04169 5.0013 2.50002C5.0013 2.95835 5.3763 3.33335 5.83464 3.33335H14.168C14.6263 3.33335 15.0013 2.95835 15.0013 2.50002C15.0013 2.04169 14.6263 1.66669 14.168 1.66669ZM18.3346 10V16.6667C18.3346 17.5834 17.5846 18.3334 16.668 18.3334H3.33464C2.41797 18.3334 1.66797 17.5834 1.66797 16.6667V10C1.66797 9.08335 2.41797 8.33335 3.33464 8.33335H16.668C17.5846 8.33335 18.3346 9.08335 18.3346 10ZM12.6596 12.9667L8.33464 10.6084V16.05L12.6596 13.7C12.9513 13.5417 12.9513 13.125 12.6596 12.9667Z" fill="#7C0FD1"/>
</svg>
