<svg width="25" height="24" viewBox="0 0 25 24" fill="none" xmlns="http://www.w3.org/2000/svg">
<path d="M19.911 0.706055H5.08743C2.94155 0.706055 1.20508 2.44958 1.20508 4.58841V19.4119C1.20508 21.5508 2.94155 23.2943 5.08743 23.2943H19.911C22.0498 23.2943 23.7933 21.5508 23.7933 19.4119V4.58841C23.7933 2.44958 22.0498 0.706055 19.911 0.706055ZM9.67567 2.8237H10.7345C11.3133 2.8237 11.7933 3.29664 11.7933 3.88253C11.7933 4.46841 11.3133 4.94135 10.7345 4.94135H9.67567C9.08978 4.94135 8.61684 4.46841 8.61684 3.88253C8.61684 3.29664 9.08978 2.8237 9.67567 2.8237ZM15.7321 11.4284C15.9157 11.5625 16.0286 11.7743 16.0286 12.0002C16.0286 12.2331 15.9157 12.4449 15.7321 12.579L10.791 16.1084C10.6639 16.1931 10.5227 16.2355 10.3815 16.2355C10.2686 16.2355 10.1557 16.2143 10.0568 16.1578C9.8239 16.0378 9.67567 15.7978 9.67567 15.5296V8.47076C9.67567 8.20958 9.8239 7.96958 10.0568 7.84958C10.2898 7.72958 10.5721 7.7437 10.791 7.899L15.7321 11.4284ZM6.14625 21.1766H5.08743C4.50155 21.1766 4.02861 20.7037 4.02861 20.1178C4.02861 19.5319 4.50155 19.059 5.08743 19.059H6.14625C6.72508 19.059 7.20508 19.5319 7.20508 20.1178C7.20508 20.7037 6.72508 21.1766 6.14625 21.1766ZM6.14625 4.94135H5.08743C4.50155 4.94135 4.02861 4.46841 4.02861 3.88253C4.02861 3.29664 4.50155 2.8237 5.08743 2.8237H6.14625C6.72508 2.8237 7.20508 3.29664 7.20508 3.88253C7.20508 4.46841 6.72508 4.94135 6.14625 4.94135ZM10.7345 21.1766H9.67567C9.08978 21.1766 8.61684 20.7037 8.61684 20.1178C8.61684 19.5319 9.08978 19.059 9.67567 19.059H10.7345C11.3133 19.059 11.7933 19.5319 11.7933 20.1178C11.7933 20.7037 11.3133 21.1766 10.7345 21.1766ZM15.3227 21.1766H14.2639C13.678 21.1766 13.2051 20.7037 13.2051 20.1178C13.2051 19.5319 13.678 19.059 14.2639 19.059H15.3227C15.9015 19.059 16.3815 19.5319 16.3815 20.1178C16.3815 20.7037 15.9015 21.1766 15.3227 21.1766ZM15.3227 4.94135H14.2639C13.678 4.94135 13.2051 4.46841 13.2051 3.88253C13.2051 3.29664 13.678 2.8237 14.2639 2.8237H15.3227C15.9015 2.8237 16.3815 3.29664 16.3815 3.88253C16.3815 4.46841 15.9015 4.94135 15.3227 4.94135ZM19.911 21.1766H18.8521C18.2663 21.1766 17.7933 20.7037 17.7933 20.1178C17.7933 19.5319 18.2663 19.059 18.8521 19.059H19.911C20.4898 19.059 20.9698 19.5319 20.9698 20.1178C20.9698 20.7037 20.4898 21.1766 19.911 21.1766ZM19.911 4.94135H18.8521C18.2663 4.94135 17.7933 4.46841 17.7933 3.88253C17.7933 3.29664 18.2663 2.8237 18.8521 2.8237H19.911C20.4898 2.8237 20.9698 3.29664 20.9698 3.88253C20.9698 4.46841 20.4898 4.94135 19.911 4.94135Z" fill="#7C0FD1"/>
</svg>
