<svg class="path-svg" width="808" height="240" viewBox="0 0 808 240" fill="none" xmlns="http://www.w3.org/2000/svg"><path class="path-txt" d="M198.349 58.0026V100.814C195.553 101.089 192.757 101.37 189.969 101.659V42.5096C193.863 42.1084 197.757 41.7212 201.652 41.3411C204.835 52.8429 208.011 64.3518 211.194 75.8677V40.4401C213.962 40.1867 216.729 39.9333 219.497 39.687V98.8291C216.3 99.1106 213.102 99.3992 209.912 99.6949C206.053 85.7857 202.201 71.8836 198.349 57.9885V58.0026Z" stroke="white" style="--path: 313.77001953125;"></path><path class="path-txt" d="M256.295 95.9077C253.161 96.1259 250.035 96.3582 246.908 96.5905C246.373 93.0569 245.83 89.5232 245.295 85.9896C241.492 86.2782 237.683 86.5809 233.88 86.8906C233.345 90.5087 232.802 94.1268 232.267 97.7449C229.415 97.9772 226.563 98.2165 223.711 98.4629C226.866 78.479 230.021 58.4951 233.176 38.5253C237.725 38.1523 242.274 37.7933 246.823 37.4554C249.978 56.9324 253.14 76.4165 256.295 95.9077ZM227.683 36.1391C230.317 32.6196 232.943 29.1 235.577 25.5876C238.542 25.3482 241.507 25.1159 244.464 24.8907C247.084 27.9879 249.704 31.0921 252.323 34.2033C249.528 34.4075 246.725 34.6116 243.929 34.8298C242.605 33.2953 241.281 31.7608 239.957 30.2263C238.662 31.9649 237.366 33.7036 236.07 35.4422C233.274 35.6675 230.471 35.8998 227.676 36.1321L227.683 36.1391ZM235.042 78.7535C238.049 78.5071 241.049 78.2748 244.056 78.0426C242.556 68.1879 241.049 58.3403 239.549 48.4926C238.049 58.5796 236.542 68.6665 235.042 78.7535Z" stroke="white" style="--path: 317.969482421875;"></path><path class="path-txt" d="M268.913 52.2446C268.913 66.5127 268.913 80.7879 268.913 95.0561C266.11 95.2391 263.315 95.4221 260.512 95.6122V36.4701C264.413 36.2026 268.322 35.9421 272.223 35.7028C275.413 47.3102 278.596 58.9246 281.786 70.5531V35.1256C284.561 34.9637 287.335 34.8089 290.11 34.654C290.11 54.3704 290.11 74.0868 290.11 93.7961C286.906 93.9721 283.709 94.1551 280.505 94.3381C276.638 80.2952 272.779 66.2664 268.913 52.2446Z" stroke="white" style="--path: 314.43536376953125;"></path><path class="path-txt" d="M310.771 59.8187C315.13 59.6216 319.496 59.4457 323.862 59.2767V78.0428C323.862 87.9468 319.221 93.0571 309.947 93.4724C300.672 93.8948 296.031 89.1997 296.031 79.2958V48.5281C296.031 38.6312 300.665 33.4293 309.947 33.007C319.221 32.5917 323.862 37.3782 323.862 47.2751V53.0472C320.918 53.1598 317.982 53.2795 315.038 53.4062V47.0569C315.038 43.1784 313.425 41.306 310.193 41.4539C306.961 41.6017 305.348 43.6148 305.348 47.4934V79.4155C305.348 83.2658 306.961 85.11 310.193 84.9693C313.425 84.8214 315.038 82.8364 315.038 78.9861V68.0967C313.616 68.16 312.193 68.2163 310.771 68.2797V59.8258V59.8187Z" stroke="white" style="--path: 267.1791076660156;"></path><path class="path-txt" d="M370.064 68.9131V76.7898C370.064 86.6937 365.423 91.6985 356.141 91.9097C346.86 92.1279 342.219 87.3273 342.219 77.4233V46.6556C342.219 36.7587 346.86 31.6554 356.141 31.4442C365.423 31.2331 370.064 36.1252 370.064 46.0221V51.7941C367.12 51.8434 364.176 51.8927 361.24 51.956V45.6068C361.24 41.7283 359.627 39.8207 356.395 39.8981C353.162 39.9756 351.55 41.9535 351.55 45.8321V77.7541C351.55 81.6045 353.169 83.4839 356.395 83.4135C359.627 83.3432 361.24 81.3863 361.24 77.5359V69.082C364.183 69.0187 367.127 68.9694 370.064 68.9201V68.9131Z" stroke="white" style="--path: 236.83746337890625;"></path><path class="path-txt" d="M405.912 90.6989C402.778 90.6989 399.637 90.6989 396.503 90.713C395.961 87.1372 395.426 83.5684 394.884 79.9925C391.074 80.0066 387.257 80.0348 383.447 80.07C382.912 83.6529 382.37 87.2287 381.827 90.8116C378.968 90.8397 376.109 90.8749 373.25 90.9172C376.412 71.1585 379.574 51.3999 382.743 31.6554C387.299 31.6061 391.863 31.5779 396.419 31.5639C399.581 51.2662 402.75 70.9755 405.912 90.6989ZM377.229 28.882C379.87 25.5455 382.503 22.223 385.144 18.9006C388.116 18.8725 391.088 18.8513 394.053 18.8373C396.679 22.1245 399.306 25.4188 401.926 28.7131C399.123 28.7131 396.313 28.7271 393.51 28.7412C392.186 27.1152 390.856 25.4821 389.532 23.8561C388.236 25.5032 386.933 27.1504 385.637 28.7975C382.834 28.8186 380.032 28.8538 377.222 28.889L377.229 28.882ZM384.609 72.0243C387.623 71.9962 390.63 71.9751 393.644 71.961C392.137 62.0007 390.63 52.0405 389.123 42.0872C387.616 52.0686 386.109 62.043 384.602 72.0243H384.609ZM414.778 12.0727C411.707 15.36 408.644 18.6472 405.574 21.9415C403.377 21.9415 401.179 21.9415 398.982 21.9415C401.01 18.6402 403.046 15.3389 405.074 12.0375C408.306 12.0375 411.538 12.0516 414.771 12.0657L414.778 12.0727Z" stroke="white" style="--path: 359.3801574707031;"></path><path class="path-txt" d="M423.979 31.6554C433.261 31.7469 437.902 36.7165 437.902 46.4797V54.1522C437.902 63.8872 433.261 68.6667 423.979 68.5752C422.5 68.5612 421.021 68.5471 419.543 68.54V90.7694C416.437 90.7483 413.324 90.7271 410.219 90.7201V31.5639C414.803 31.578 419.395 31.6061 423.979 31.6484V31.6554ZM419.543 40.0671V60.1143C421.021 60.1284 422.5 60.1354 423.979 60.1495C427.021 60.1776 428.536 58.3264 428.536 54.5886V45.7194C428.536 42.0099 427.014 40.1304 423.979 40.1023C422.5 40.0882 421.021 40.0741 419.543 40.0671Z" stroke="white" style="--path: 217.22137451171875;"></path><path class="path-txt" d="M452.836 32.1269C462.449 32.3521 472.061 32.6407 481.674 32.9997V41.4536C478.427 41.334 475.181 41.2213 471.941 41.1158V91.804C468.836 91.7054 465.73 91.6069 462.618 91.5224V40.8342C459.357 40.7427 456.096 40.6582 452.836 40.5808V32.1269Z" stroke="white" style="--path: 175.9871063232422;"></path><path class="path-txt" d="M495.204 92.6907C492.098 92.557 488.992 92.4303 485.887 92.3035V33.1614C488.992 33.2811 492.098 33.4148 495.204 33.5486C495.204 42.0025 495.204 50.4564 495.204 58.9173C498.739 59.0722 502.274 59.2341 505.802 59.403V34.0343C508.978 34.1891 512.154 34.351 515.323 34.52V93.6621C512.147 93.4931 508.971 93.3312 505.802 93.1764V67.8499C502.267 67.6809 498.732 67.512 495.204 67.3642C495.204 75.804 495.204 84.2438 495.204 92.6907Z" stroke="white" style="--path: 278.6097717285156;"></path><path class="path-txt" d="M550.312 95.8163C547.185 95.5981 544.051 95.387 540.917 95.1828C540.382 91.5718 539.84 87.9608 539.305 84.3568C535.495 84.1104 531.692 83.8711 527.882 83.6458C527.347 87.1865 526.805 90.7341 526.27 94.2748C523.41 94.1058 520.558 93.9439 517.699 93.7891C520.861 74.2487 524.016 54.7083 527.178 35.182C531.734 35.4494 536.284 35.731 540.833 36.0337C543.995 55.9542 547.15 75.8817 550.305 95.8163H550.312ZM532.601 22.7651C534.643 26.1931 536.685 29.6211 538.727 33.0491C536.382 32.9013 534.037 32.7535 531.692 32.6057C528.643 29.1213 525.594 25.644 522.544 22.1667C525.896 22.3568 529.248 22.5539 532.601 22.758V22.7651ZM529.044 75.6706C532.051 75.8536 535.058 76.0366 538.065 76.2267C536.558 66.1608 535.058 56.102 533.551 46.0432C532.044 55.919 530.544 65.7948 529.037 75.6706H529.044Z" stroke="white" style="--path: 297.2423095703125;"></path><path class="path-txt" d="M562.926 53.927V96.7385C560.13 96.5273 557.327 96.3162 554.531 96.1191V36.9699C558.433 37.2515 562.334 37.5401 566.235 37.8428C569.418 49.9006 572.602 61.9656 575.785 74.0376V38.61C578.552 38.8353 581.327 39.0746 584.094 39.3069V98.449C580.897 98.1745 577.7 97.907 574.503 97.6465C570.644 83.0616 566.785 68.4837 562.926 53.9199V53.927Z" stroke="white" style="--path: 317.3212585449219;"></path><path class="path-txt" d="M600.038 99.8919C596.939 99.6033 593.841 99.3147 590.742 99.0401V39.898C593.841 40.1725 596.939 40.4611 600.038 40.7497V66.1185C603.566 66.4493 607.087 66.7872 610.608 67.1391V41.7704C613.777 42.0872 616.939 42.4039 620.101 42.7348V101.877C616.939 101.546 613.77 101.229 610.608 100.913V75.586C607.087 75.2341 603.559 74.8962 600.038 74.5653V99.8919Z" stroke="white" style="--path: 278.6673583984375;"></path><path class="path-txt" d="M14.3953 185.909C13.3883 186.099 12.3742 186.289 11.3672 186.486V178.898C12.3742 178.708 13.3813 178.511 14.3953 178.321V152.544C19.2474 151.629 24.1065 150.728 28.9657 149.841C38.1346 148.18 42.7261 152.269 42.7261 162.025C42.7261 171.993 42.7261 181.96 42.7261 191.927C42.7261 201.662 38.1346 207.322 28.9657 208.983C24.1065 209.87 19.2474 210.764 14.3953 211.686V185.909ZM23.5995 159.28C23.5995 165.052 23.5995 170.831 23.5995 176.603C25.4938 176.251 27.3952 175.906 29.2896 175.562V183.15C27.3952 183.495 25.4938 183.839 23.5995 184.191C23.5995 189.963 23.5995 195.743 23.5995 201.515C25.3319 201.198 27.0643 200.874 28.7966 200.564C31.9375 199.994 33.5079 197.805 33.5079 193.983C33.5079 183.727 33.5079 173.471 33.5079 163.215C33.5079 159.393 31.9375 157.76 28.7966 158.33C27.0643 158.647 25.3319 158.963 23.5995 159.28Z" stroke="white" style="--path: 283.4170227050781;"></path><path class="path-txt" d="M47.8125 160.695C47.8125 150.798 52.4815 145.026 61.8406 143.478C71.1926 141.936 75.8757 146.16 75.8757 156.05C75.8757 166.305 75.8757 176.561 75.8757 186.817C75.8757 196.721 71.1926 202.395 61.8406 203.936C52.4885 205.485 47.8125 201.36 47.8125 191.456V160.688V160.695ZM49.5731 143.358C52.1716 139.613 54.7702 135.876 57.3617 132.138C60.3124 131.645 63.2701 131.152 66.2208 130.674C68.8194 133.546 71.418 136.432 74.0165 139.311C71.2349 139.754 68.4602 140.205 65.6856 140.655C64.3758 139.233 63.0589 137.811 61.749 136.397C60.4603 138.248 59.1786 140.092 57.8899 141.943C55.1153 142.408 52.3406 142.879 49.566 143.351L49.5731 143.358ZM57.0378 190.471C57.0378 194.377 58.6364 196.06 61.8406 195.525C65.0377 194.997 66.6434 192.786 66.6434 188.88V156.958C66.6434 153.079 65.0448 151.404 61.8406 151.932C58.6434 152.46 57.0378 154.67 57.0378 158.548V190.471ZM74.1503 122.917C76.1785 125.894 78.1996 128.872 80.2278 131.856C77.8968 132.222 75.5729 132.588 73.2489 132.961C70.2138 130.146 67.1715 127.337 64.1363 124.543C67.4743 123.994 70.8123 123.452 74.1503 122.924V122.917Z" stroke="white" style="--path: 358.55596923828125;"></path><path class="path-txt" d="M90.0997 155.993C90.0997 170.261 90.0997 184.537 90.0997 198.805C87.318 199.227 84.5363 199.649 81.7617 200.086C81.7617 180.37 81.7617 160.653 81.7617 140.944C85.6349 140.338 89.5152 139.747 93.3884 139.17C96.5503 150.503 99.7193 161.85 102.888 173.197C102.888 161.385 102.888 149.581 102.888 137.769C105.642 137.368 108.402 136.974 111.156 136.587V195.729C107.973 196.179 104.797 196.637 101.614 197.094C97.7757 183.382 93.9377 169.684 90.1067 155.993H90.0997Z" stroke="white" style="--path: 312.7289733886719;"></path><path class="path-txt" d="M131.679 159.977C136.017 159.407 140.355 158.851 144.7 158.316V177.082C144.7 186.986 140.08 192.491 130.862 193.701C121.637 194.919 117.031 190.618 117.031 180.721C117.031 170.465 117.031 160.21 117.031 149.954C117.031 140.057 121.637 134.454 130.862 133.243C140.087 132.032 144.7 136.425 144.7 146.322V152.094C141.778 152.46 138.848 152.826 135.925 153.206V146.856C135.925 142.978 134.32 141.246 131.109 141.669C127.897 142.091 126.292 144.245 126.292 148.124V180.046C126.292 183.896 127.897 185.606 131.109 185.184C134.32 184.762 135.925 182.636 135.925 178.786V167.896C134.51 168.079 133.095 168.262 131.686 168.445C131.686 165.63 131.686 162.807 131.686 159.991L131.679 159.977Z" stroke="white" style="--path: 267.2343444824219;"></path><path class="path-txt" d="M171.99 145.231V188.042C169.202 188.352 166.406 188.669 163.617 188.992V129.85C167.504 129.4 171.399 128.963 175.293 128.534C178.469 139.994 181.645 151.46 184.828 162.941C184.828 151.129 184.828 139.325 184.828 127.513C187.596 127.225 190.356 126.936 193.124 126.655C193.124 146.371 193.124 166.087 193.124 185.797C189.934 186.12 186.737 186.451 183.547 186.789C179.695 172.929 175.842 159.076 171.99 145.231Z" stroke="white" style="--path: 313.5069274902344;"></path><path class="path-txt" d="M213.742 150.869C218.094 150.475 222.447 150.087 226.799 149.721V168.487C226.799 178.391 222.172 183.713 212.911 184.558C203.658 185.409 199.031 180.925 199.031 171.029V140.261C199.031 130.364 203.658 124.944 212.911 124.099C222.165 123.255 226.799 127.83 226.799 137.72V143.492C223.862 143.738 220.933 143.999 217.996 144.259V137.91C217.996 134.031 216.383 132.236 213.165 132.532C209.94 132.828 208.327 134.918 208.334 138.797V170.719C208.334 174.569 209.947 176.343 213.165 176.047C216.39 175.752 217.996 173.689 217.996 169.839V158.95C216.58 159.076 215.158 159.203 213.742 159.33V150.876V150.869Z" stroke="white" style="--path: 267.18585205078125;"></path><path class="path-txt" d="M242.045 181.432C238.946 181.672 235.841 181.918 232.742 182.171V123.029C235.841 122.776 238.946 122.529 242.045 122.29V147.659C245.573 147.384 249.101 147.124 252.636 146.863V121.495C255.805 121.262 258.981 121.044 262.15 120.826V179.968C258.981 180.186 255.805 180.405 252.636 180.637V155.31C249.108 155.564 245.58 155.831 242.045 156.106V181.432Z" stroke="white" style="--path: 278.6553955078125;"></path><path class="path-txt" d="M268.898 120.383C272.004 120.186 275.103 119.988 278.208 119.805V178.948C275.103 179.131 271.997 179.328 268.898 179.525V120.383Z" stroke="white" style="--path: 136.9407958984375;"></path><path class="path-txt" d="M294.317 143.851C298.599 143.626 302.873 143.414 307.155 143.217V151.629C302.873 151.826 298.599 152.037 294.317 152.262V169.586C299.683 169.304 305.056 169.044 310.422 168.804V177.258C301.944 177.638 293.472 178.068 285 178.546V119.404C293.472 118.925 301.951 118.489 310.422 118.116V126.57C305.049 126.809 299.683 127.07 294.317 127.351V143.851ZM285.254 116.546C287.887 113.097 290.528 109.655 293.162 106.213C296.127 106.058 299.098 105.903 302.063 105.762C304.683 108.937 307.31 112.112 309.929 115.293C307.127 115.42 304.324 115.554 301.521 115.688C300.197 114.118 298.873 112.548 297.549 110.978C296.253 112.682 294.958 114.385 293.655 116.089C290.852 116.237 288.049 116.391 285.254 116.546ZM302.063 182.059C302.063 184.931 302.063 187.803 302.063 190.682C299.176 190.822 296.296 190.97 293.408 191.118V182.495C296.296 182.34 299.176 182.2 302.063 182.059Z" stroke="white" style="--path: 325.4281311035156;"></path><path class="path-txt" d="M329.934 117.335C339.215 117.011 343.856 121.776 343.856 131.533V139.205C343.856 148.94 339.215 153.924 329.934 154.255C328.455 154.304 326.976 154.36 325.504 154.417V176.646C322.399 176.766 319.293 176.885 316.188 177.019V117.877C320.772 117.687 325.356 117.511 329.941 117.349L329.934 117.335ZM325.504 125.951V145.998C326.983 145.941 328.462 145.892 329.934 145.836C332.969 145.73 334.49 143.809 334.49 140.071V131.202C334.49 127.492 332.969 125.683 329.934 125.789C328.455 125.838 326.976 125.894 325.504 125.951Z" stroke="white" style="--path: 217.210693359375;"></path><path class="path-txt" d="M388.407 153.163V161.04C388.407 170.944 383.767 175.914 374.485 176.04C365.203 176.174 360.562 171.338 360.562 161.434V130.667C360.562 120.77 365.203 115.709 374.485 115.575C383.774 115.448 388.407 120.376 388.407 130.272V136.045C385.464 136.066 382.52 136.094 379.576 136.129V129.78C379.576 125.901 377.957 123.98 374.724 124.029C371.492 124.071 369.872 126.042 369.872 129.921V161.843C369.872 165.693 371.485 167.587 374.724 167.544C377.957 167.502 379.569 165.559 379.576 161.709V153.255C382.52 153.22 385.464 153.192 388.407 153.171V153.163Z" stroke="white" style="--path: 236.86355590820312;"></path><path class="path-txt" d="M402.949 116.025V161.638C402.949 165.489 404.569 167.41 407.801 167.417C411.033 167.417 412.653 165.51 412.653 161.66V116.046C415.597 116.061 418.54 116.075 421.484 116.103V161.139C421.484 171.043 416.843 175.935 407.554 175.914C398.273 175.9 393.632 170.993 393.625 161.089V116.053C396.731 116.039 399.843 116.032 402.949 116.025ZM404.526 113.674C404.442 113.315 404.4 112.97 404.4 112.647C404.4 111.408 404.618 110.324 405.062 109.388C405.252 108.972 405.463 108.55 405.681 108.106C406.167 107.403 406.646 106.706 407.132 106.002C407.301 105.643 407.463 105.277 407.632 104.89C407.963 104.038 408.132 103.073 408.132 102.004C408.132 101.18 407.885 100.765 407.385 100.765C406.857 100.765 406.597 101.173 406.597 102.004V105.305C404.871 105.305 403.146 105.305 401.414 105.305V102.215C401.414 97.9279 403.428 95.774 407.463 95.781C411.47 95.7881 413.47 97.942 413.47 102.236C413.47 103.637 413.245 104.932 412.808 106.107C412.583 106.544 412.322 107.029 412.019 107.55C411.85 107.881 411.604 108.261 411.273 108.705C411.216 108.761 411.16 108.846 411.104 108.951C410.914 109.212 410.716 109.472 410.526 109.732C410.28 110.063 410.069 110.366 409.907 110.64C409.576 111.33 409.407 112.041 409.407 112.78C409.407 112.97 409.435 113.273 409.491 113.688C407.836 113.688 406.174 113.688 404.519 113.681L404.526 113.674Z" stroke="white" style="--path: 328.4795227050781;"></path><path class="path-txt" d="M458.037 175.864C454.903 175.787 451.769 175.71 448.628 175.646C448.086 172.063 447.551 168.473 447.009 164.891C443.199 164.813 439.382 164.743 435.572 164.686C435.037 168.255 434.495 171.817 433.952 175.386C431.093 175.344 428.234 175.308 425.375 175.28C428.537 155.599 431.699 135.925 434.868 116.251C439.424 116.321 443.988 116.399 448.544 116.497C451.706 136.277 454.868 156.071 458.037 175.864ZM436.734 156.662C439.748 156.711 442.755 156.76 445.769 156.824C444.262 146.828 442.755 136.833 441.255 126.837C439.748 136.777 438.241 146.723 436.741 156.662H436.734Z" stroke="white" style="--path: 254.24603271484375;"></path><path class="path-txt" d="M487.61 152.917C486.673 154.515 485.729 156.113 484.793 157.718V176.73C481.687 176.611 478.581 176.498 475.469 176.392V117.25C478.574 117.356 481.68 117.468 484.793 117.588V144.477C489.131 135.678 493.462 126.901 497.8 118.13C500.645 118.257 503.49 118.391 506.328 118.531C502.032 127.077 497.743 135.643 493.447 144.217C497.743 155.36 502.032 166.51 506.328 177.68C503.138 177.526 499.947 177.378 496.764 177.237C493.715 169.128 490.666 161.026 487.61 152.931V152.917Z" stroke="white" style="--path: 267.3421630859375;"></path><path class="path-txt" d="M519.879 178.377C516.774 178.208 513.668 178.039 510.562 177.885V118.742C513.668 118.897 516.774 119.066 519.879 119.235V144.604C523.415 144.801 526.943 145.005 530.478 145.216V119.848C533.654 120.038 536.823 120.242 539.999 120.446V179.588C536.83 179.384 533.654 179.18 530.478 178.99V153.663C526.943 153.452 523.415 153.248 519.879 153.051V178.377Z" stroke="white" style="--path: 278.64794921875;"></path><path class="path-txt" d="M574.935 182.157C571.808 181.904 568.675 181.65 565.548 181.411C565.013 177.793 564.47 174.182 563.935 170.564C560.132 170.275 556.323 169.994 552.52 169.719C551.985 173.253 551.442 176.793 550.907 180.327C548.055 180.123 545.196 179.933 542.344 179.743C545.506 160.238 548.661 140.739 551.816 121.248C556.365 121.572 560.914 121.91 565.463 122.255C568.618 142.211 571.773 162.18 574.935 182.15V182.157ZM553.682 161.758C556.689 161.976 559.696 162.194 562.696 162.427C561.196 152.347 559.689 142.267 558.189 132.187C556.689 142.042 555.182 151.903 553.682 161.758ZM569.893 109.859C566.837 112.914 563.773 115.976 560.71 119.052C558.52 118.89 556.323 118.728 554.132 118.566C556.161 115.413 558.189 112.259 560.21 109.113C563.435 109.352 566.66 109.606 569.886 109.859H569.893Z" stroke="white" style="--path: 294.7944641113281;"></path><path class="path-txt" d="M587.536 140.416V183.227C584.74 182.981 581.944 182.742 579.148 182.509V123.367C583.05 123.691 586.944 124.029 590.846 124.381C594.029 136.474 597.212 148.574 600.388 160.688V125.261C603.155 125.521 605.923 125.789 608.69 126.056V185.198C605.5 184.881 602.303 184.579 599.106 184.283C595.247 169.649 591.395 155.029 587.536 140.423V140.416Z" stroke="white" style="--path: 317.5574951171875;"></path><path class="path-txt" d="M624.632 186.817C621.534 186.486 618.442 186.17 615.344 185.853V126.711C618.442 127.028 621.534 127.344 624.632 127.675V153.044C628.154 153.417 631.675 153.797 635.196 154.191C635.196 145.737 635.196 137.283 635.196 128.822C638.358 129.174 641.52 129.533 644.682 129.899V189.042C641.52 188.676 638.358 188.317 635.196 187.965C635.196 179.525 635.196 171.085 635.196 162.638C631.675 162.244 628.154 161.864 624.632 161.491V186.817Z" stroke="white" style="--path: 278.69793701171875;"></path><path class="path-txt" d="M673.736 192.603C670.645 192.202 667.56 191.808 664.469 191.421V132.279C667.56 132.666 670.652 133.06 673.736 133.461V158.83C677.25 159.288 680.764 159.752 684.278 160.224V134.855C687.433 135.284 690.588 135.714 693.743 136.157V195.299C690.588 194.856 687.433 194.427 684.278 193.997V168.671C680.764 168.199 677.25 167.735 673.736 167.277V192.603Z" stroke="white" style="--path: 278.7339782714844;"></path><path class="path-txt" d="M709.301 138.382V183.995C709.301 187.845 710.907 190.006 714.111 190.485C717.315 190.963 718.921 189.288 718.921 185.438V139.825C721.836 140.268 724.759 140.718 727.674 141.176V186.212C727.674 196.116 723.076 200.332 713.871 198.953C704.667 197.58 700.055 191.991 700.055 182.087V137.051C703.139 137.495 706.224 137.938 709.308 138.396L709.301 138.382ZM712.505 126.112C714.533 129.716 716.562 133.32 718.59 136.924C716.259 136.572 713.935 136.221 711.604 135.876C708.562 132.124 705.519 128.379 702.477 124.641C705.822 125.12 709.167 125.613 712.512 126.112H712.505Z" stroke="white" style="--path: 307.54962158203125;"></path><path class="path-txt" d="M742.206 159.83V202.641C739.431 202.184 736.65 201.74 733.875 201.297V142.154C737.748 142.774 741.621 143.4 745.488 144.041C748.65 156.373 751.804 168.713 754.959 181.059V145.632C757.706 146.096 760.452 146.568 763.199 147.047V206.189C760.03 205.64 756.861 205.091 753.685 204.556C749.861 189.64 746.03 174.731 742.199 159.83H742.206Z" stroke="white" style="--path: 319.13543701171875;"></path><path class="path-txt" d="M783.632 176.885C787.942 177.68 792.252 178.49 796.561 179.306C796.561 185.564 796.561 191.815 796.561 198.073C796.561 207.977 791.984 212.038 782.815 210.349C773.646 208.666 769.055 202.923 769.055 193.019V162.251C769.055 152.354 773.646 148.201 782.815 149.883C791.984 151.573 796.561 157.408 796.561 167.305C796.561 169.227 796.561 171.155 796.561 173.077C793.66 172.521 790.752 171.979 787.85 171.437V165.088C787.85 161.209 786.252 158.971 783.062 158.386C779.872 157.802 778.273 159.449 778.273 163.328V195.25C778.273 199.1 779.872 201.311 783.062 201.902C786.252 202.486 787.85 200.867 787.85 197.017V186.127C786.449 185.867 785.04 185.606 783.632 185.346C783.632 182.53 783.632 179.708 783.632 176.892V176.885Z" stroke="white" style="--path: 267.31866455078125;"></path></svg>