<svg width="24" height="24" viewBox="0 0 24 24" fill="none" xmlns="http://www.w3.org/2000/svg">
<g clip-path="url(#clip0_4903_30800)">
<path d="M12 24C18.6274 24 24 18.6274 24 12C24 5.37258 18.6274 0 12 0C5.37258 0 0 5.37258 0 12C0 18.6274 5.37258 24 12 24Z" fill="#FF0000"/>
<path d="M15.9262 7.48633H8.07254C7.75869 7.48633 7.44791 7.54817 7.15797 7.66833C6.86802 7.78848 6.6046 7.96459 6.38274 8.18659C6.16089 8.40859 5.98495 8.67214 5.86499 8.96216C5.74503 9.25218 5.68339 9.563 5.68359 9.87685V14.1242C5.68339 14.4381 5.74503 14.7489 5.86499 15.0389C5.98495 15.3289 6.16089 15.5925 6.38274 15.8145C6.6046 16.0365 6.86802 16.2126 7.15797 16.3328C7.44791 16.4529 7.75869 16.5147 8.07254 16.5147H15.9262C16.2401 16.5147 16.5509 16.4529 16.8408 16.3328C17.1307 16.2126 17.3942 16.0365 17.616 15.8145C17.8379 15.5925 18.0138 15.3289 18.1338 15.0389C18.2537 14.7489 18.3154 14.4381 18.3152 14.1242V9.87685C18.3154 9.563 18.2537 9.25218 18.1338 8.96216C18.0138 8.67214 17.8379 8.40859 17.616 8.18659C17.3942 7.96459 17.1307 7.78848 16.8408 7.66833C16.5509 7.54817 16.2401 7.48633 15.9262 7.48633ZM10.3352 13.9363V10.0647L13.6636 12.0005L10.3352 13.9363Z" fill="white"/>
</g>
<defs>
<clipPath id="clip0_4903_30800">
<rect width="24" height="24" fill="white"/>
</clipPath>
</defs>
</svg>
