<svg width="24" height="24" viewBox="0 0 24 24" fill="none" xmlns="http://www.w3.org/2000/svg">
<g clip-path="url(#clip0_4903_30793)">
<path d="M12 24C18.6274 24 24 18.6274 24 12C24 5.37258 18.6274 0 12 0C5.37258 0 0 5.37258 0 12C0 18.6274 5.37258 24 12 24Z" fill="#007AB9"/>
<path d="M19.1688 12.9651V17.9124H16.3005V13.2967C16.3005 12.1377 15.8863 11.3462 14.8478 11.3462C14.0552 11.3462 13.5844 11.8791 13.3765 12.395C13.301 12.5794 13.2815 12.8355 13.2815 13.0941V17.9122H10.413C10.413 17.9122 10.4515 10.0946 10.413 9.28539H13.2817V10.5079C13.276 10.5175 13.2678 10.5269 13.2627 10.5361H13.2817V10.5079C13.6629 9.92135 14.3427 9.08282 15.8669 9.08282C17.754 9.08282 19.1688 10.3158 19.1688 12.9651ZM7.41222 5.12695C6.43101 5.12695 5.78906 5.77104 5.78906 6.61727C5.78906 7.44554 6.4124 8.10824 7.37457 8.10824H7.39318C8.39365 8.10824 9.0157 7.44554 9.0157 6.61727C8.99666 5.77104 8.39365 5.12695 7.41222 5.12695ZM5.95955 17.9124H8.82703V9.28539H5.95955V17.9124Z" fill="#F1F2F2"/>
</g>
<defs>
<clipPath id="clip0_4903_30793">
<rect width="24" height="24" fill="white"/>
</clipPath>
</defs>
</svg>
