<svg width="24" height="24" viewBox="0 0 24 24" fill="none" xmlns="http://www.w3.org/2000/svg">
<g clip-path="url(#clip0_4903_30783)">
<path d="M12 24C18.6274 24 24 18.6274 24 12C24 5.37258 18.6274 0 12 0C5.37258 0 0 5.37258 0 12C0 18.6274 5.37258 24 12 24Z" fill="#3B5998"/>
<path d="M15.0182 12.4706H12.877V20.3152H9.63279V12.4706H8.08984V9.71376H9.63279V7.92974C9.63279 6.65397 10.2388 4.65625 12.9058 4.65625L15.3089 4.6663V7.34233H13.5653C13.2793 7.34233 12.8772 7.48523 12.8772 8.09381V9.71632H15.3017L15.0182 12.4706Z" fill="white"/>
</g>
<defs>
<clipPath id="clip0_4903_30783">
<rect width="24" height="24" fill="white"/>
</clipPath>
</defs>
</svg>
