<svg width="100" height="26" viewBox="0 0 100 26" fill="none" xmlns="http://www.w3.org/2000/svg">
<path d="M98.5554 8.79179C98.6698 8.56303 98.7169 8.30063 98.6866 8.03823C98.6025 7.30823 98.3771 6.62531 98.0205 6.01305C97.6706 5.41087 97.2098 4.89617 96.6513 4.47565C96.1063 4.06523 95.4773 3.7591 94.7809 3.55389C94.0946 3.35205 93.3545 3.26458 92.574 3.28477C91.6725 3.30831 90.8146 3.47652 90.0241 3.77593C89.6473 3.91722 89.294 4.09215 88.961 4.29063C88.7592 4.38483 88.564 4.48575 88.3756 4.59676C88.231 4.66404 88.0931 4.73805 87.9551 4.81206V4.72796C87.9551 4.06187 87.3496 3.53707 86.6095 3.55389C85.7247 3.57071 84.8366 3.58417 83.9519 3.59763C83.5515 3.60436 83.1949 3.76247 82.9494 4.00468C82.7542 4.07533 82.586 4.18298 82.4515 4.31755C82.2564 4.38819 82.0882 4.49584 81.9536 4.6304C81.7585 4.70105 81.5903 4.8087 81.4557 4.94327C81.4153 4.95672 81.375 4.9769 81.338 4.99709C81.1058 4.71114 80.8704 4.4252 80.6382 4.14261C80.3859 3.83648 79.9721 3.66155 79.5247 3.66491C78.7611 3.675 77.9974 3.68173 77.2304 3.69182C77.0857 3.69182 76.9512 3.71873 76.82 3.75237C76.6888 3.71873 76.5542 3.69855 76.4096 3.69855C75.5955 3.70528 74.7813 3.71537 73.9706 3.7221C73.9504 3.65145 73.9235 3.58417 73.8831 3.51689C73.5164 2.87435 73.1531 2.23853 72.7864 1.60608C72.5678 1.2293 72.0867 0.993816 71.5585 1.00727C70.7814 1.02409 70.0043 1.04428 69.2272 1.05774C68.7293 1.06783 68.2752 1.28986 68.0397 1.63299C68.0161 1.67 67.9926 1.70701 67.9758 1.74738C67.8917 1.81802 67.8177 1.8954 67.7571 1.98286C67.7336 2.01987 67.71 2.05687 67.6932 2.09724C67.6091 2.16789 67.5351 2.24526 67.4745 2.33273C67.451 2.36973 67.4274 2.40674 67.4106 2.44374C67.3265 2.51439 67.2525 2.59176 67.1919 2.67923C67.1684 2.71623 67.1448 2.75324 67.128 2.79024C67.0439 2.86089 66.9699 2.93826 66.9094 3.02573C66.8858 3.06273 66.8656 3.09974 66.8454 3.13674C66.7613 3.20739 66.6873 3.28476 66.6268 3.37223C66.6032 3.40924 66.5797 3.44624 66.5629 3.48661C66.4788 3.55726 66.4047 3.63463 66.3442 3.7221C66.3307 3.73892 66.324 3.75911 66.3139 3.77593C66.2971 3.77593 66.2803 3.77256 66.2601 3.77256C65.372 3.77592 64.4872 3.78265 63.5991 3.78602C62.9902 3.78602 62.4788 4.09888 62.314 4.51939C62.2232 4.61358 62.1559 4.71787 62.1122 4.82888C62.0213 4.92308 61.9574 5.02737 61.9103 5.13838C61.8195 5.23257 61.7522 5.33687 61.7085 5.44788C61.6176 5.54208 61.5537 5.64636 61.5066 5.75738C61.4158 5.85157 61.3485 5.95586 61.3048 6.07024C61.2139 6.16443 61.15 6.26872 61.1063 6.37973C61.0155 6.47393 60.9515 6.57821 60.9044 6.68923C60.8136 6.78342 60.7497 6.88771 60.7026 6.99872C60.669 7.03573 60.6387 7.07273 60.6118 7.10974H60.595C60.595 6.33936 60.595 5.57235 60.595 4.80197C60.595 4.24353 59.9894 3.79611 59.246 3.79611C58.5967 3.79611 57.9508 3.79611 57.3015 3.79947C57.2948 3.78938 57.2914 3.77929 57.2813 3.76583C55.8078 3.80284 52.723 3.79947 52.723 3.79947C52.723 3.79947 52.723 3.79947 52.723 3.80283C52.0401 3.80283 51.3605 3.80283 50.6776 3.80283C49.9341 3.80283 49.332 4.2469 49.332 4.79525V5.02064C49.3286 5.05092 49.3185 5.07783 49.3185 5.1081V5.3335C49.3151 5.36041 49.3084 5.39069 49.3084 5.4176V5.64299C49.305 5.67327 49.295 5.70019 49.295 5.73046C49.295 5.80447 49.295 5.87848 49.295 5.95586C49.2916 5.98614 49.2815 6.01305 49.2815 6.04332C49.2815 6.11733 49.2815 6.19471 49.2815 6.26872C49.2781 6.29563 49.2714 6.32591 49.2714 6.35282V6.57821C49.268 6.60849 49.258 6.63541 49.258 6.66568V6.89108C49.258 6.91799 49.2479 6.94827 49.2479 6.97518V7.07273C48.8509 7.07273 48.4539 7.07273 48.057 7.07273C48.0536 7.05591 48.0435 7.04246 48.0368 7.02564C48.0368 7.00882 48.0368 6.992 48.0368 6.97518C48.0368 6.88435 48.0166 6.80024 47.9863 6.71614C47.9863 6.69932 47.9863 6.6825 47.9863 6.66568C47.9863 6.57485 47.9661 6.49075 47.9359 6.40665V6.35619C47.9359 6.26536 47.9157 6.18125 47.8854 6.09715C47.8854 6.08033 47.8854 6.06351 47.8854 6.04669C47.8854 5.95586 47.8652 5.87176 47.8349 5.78765V5.73719C47.8349 5.64636 47.8148 5.56226 47.7845 5.47816V5.42769C47.7845 5.33686 47.7643 5.25276 47.734 5.16866V5.1182C47.734 5.02737 47.7138 4.94327 47.6836 4.85917V4.8087C47.6836 4.26035 47.0814 3.8163 46.3379 3.81293C45.4498 3.81293 44.5617 3.81293 43.6702 3.80956C43.5255 3.80956 43.391 3.82975 43.2598 3.86003C43.1286 3.82975 42.994 3.8062 42.8494 3.8062C41.9612 3.8062 41.0765 3.80284 40.1884 3.79947C39.4449 3.79947 38.8427 4.2469 38.8394 4.80534C38.8394 5.33687 38.8394 5.87176 38.8394 6.40328C38.18 5.68337 37.524 4.96008 36.868 4.23008C36.619 3.95086 36.2019 3.78601 35.7578 3.78265C34.9942 3.78265 34.2272 3.77592 33.4635 3.77256C33.3424 3.77256 33.228 3.78602 33.117 3.80956C33.1002 3.77929 33.0834 3.74565 33.0632 3.71537C33.0026 3.62454 32.9253 3.5438 32.8344 3.46979C32.8176 3.43279 32.7974 3.39915 32.7739 3.36551C32.7133 3.27468 32.636 3.19393 32.5451 3.11992C32.5283 3.08292 32.5081 3.04928 32.4846 3.01564C32.424 2.92481 32.3466 2.84407 32.2558 2.77342C32.239 2.73642 32.2188 2.70278 32.1953 2.66914C32.1347 2.57831 32.0573 2.49757 31.9665 2.42692C31.9497 2.38992 31.9295 2.35628 31.906 2.32263C31.8454 2.2318 31.768 2.15107 31.6772 2.08042C31.6604 2.04341 31.6402 2.00977 31.6166 1.97613C31.5561 1.8853 31.4787 1.80456 31.3879 1.73392C31.3711 1.69691 31.3509 1.66327 31.3273 1.62963C31.0952 1.28649 30.6377 1.06446 30.1398 1.05437C29.3627 1.03755 28.5856 1.02073 27.8085 1.00055C27.277 0.987091 26.7959 1.22258 26.5806 1.60272C26.2173 2.23853 25.8539 2.87771 25.4906 3.52025C25.4402 3.60772 25.4099 3.69519 25.3897 3.78602C25.0129 3.89367 24.7102 4.13252 24.5756 4.44875C24.4747 4.69096 24.3704 4.93654 24.2695 5.17875C24.2224 5.14848 24.1719 5.1182 24.1214 5.09128C24.0138 4.96681 23.8725 4.85916 23.711 4.77842C23.6034 4.65395 23.4621 4.54967 23.3006 4.46893C23.1929 4.34109 23.0517 4.2368 22.8902 4.15607C22.648 3.87348 22.2476 3.68509 21.7935 3.67836C20.9054 3.66827 20.0206 3.65818 19.1358 3.64473C18.3924 3.63463 17.7902 4.13588 17.7868 4.76497C17.7868 4.90289 17.7868 5.04082 17.7868 5.17539C17.6556 5.06437 17.4975 4.97691 17.326 4.91635C17.1847 4.78179 17.0131 4.67414 16.8113 4.60349C16.67 4.46893 16.4984 4.36128 16.2966 4.29063C16.1553 4.15607 15.9803 4.04841 15.7818 3.97777C15.5363 3.74228 15.183 3.58417 14.7894 3.57744C13.9013 3.56398 13.0132 3.54716 12.1251 3.53034C12.0948 3.53034 12.0679 3.53371 12.041 3.53707C12.0006 3.53371 11.9636 3.52698 11.9232 3.52698C10.877 3.5068 9.83076 3.48325 8.78789 3.4597C8.37411 3.44961 7.98387 3.61781 7.7282 3.91385C7.60037 4.06523 7.46917 4.21999 7.34133 4.37473C7.29424 4.36128 7.24714 4.34782 7.19668 4.33773C7.01502 4.18298 6.78962 4.07196 6.54068 4.0215C6.35902 3.86676 6.13362 3.75238 5.88468 3.70528C5.64919 3.50343 5.34306 3.37223 5.00329 3.36214C4.11517 3.33859 3.23041 3.31168 2.34229 3.28477C1.59882 3.26122 0.99665 3.8432 1.00001 4.58667C1.00001 8.26363 1.00001 11.9372 1.00001 15.6108C1.00001 16.3307 1.56182 16.8421 2.26491 16.795C2.4634 16.9127 2.70225 16.9665 2.96128 16.9497C3.15976 17.0675 3.39861 17.1213 3.65765 17.1045C3.85613 17.2222 4.09498 17.276 4.35402 17.2592C4.5525 17.377 4.79135 17.4308 5.05038 17.414C5.24887 17.5317 5.48772 17.5855 5.74675 17.5687C5.94523 17.6865 6.18408 17.7403 6.44312 17.7235C6.6416 17.8412 6.88045 17.895 7.13949 17.8782C7.33797 17.996 7.57682 18.0498 7.83585 18.033C8.03434 18.1507 8.27319 18.2045 8.53222 18.1877C8.7307 18.3055 8.96955 18.3593 9.22859 18.3425C9.44726 18.4703 9.71302 18.5308 9.99897 18.4938C10.7424 18.403 11.4859 18.3155 12.2294 18.2314C12.7542 18.1709 13.205 17.8345 13.4236 17.3971C13.5985 17.4981 13.8038 17.5553 14.0224 17.562C14.1974 17.6629 14.4059 17.7201 14.6246 17.7268C14.85 17.858 15.1292 17.9152 15.4185 17.8849C16.31 17.7907 17.1981 17.7033 18.0863 17.6192C18.1098 17.6192 18.13 17.6124 18.1502 17.6091C18.1636 17.6091 18.1804 17.6091 18.1939 17.6091C18.9374 17.5384 19.6842 17.4678 20.4277 17.4039C21.0904 17.3433 21.6387 16.8858 21.7498 16.3341C21.78 16.3442 21.817 16.3442 21.8507 16.3509C21.9819 16.435 22.1333 16.4956 22.3015 16.5292C22.4327 16.6133 22.584 16.6739 22.7523 16.7075C22.8835 16.7916 23.0348 16.8522 23.203 16.8858C23.4385 17.0372 23.7379 17.1213 24.071 17.0944C24.3401 17.0742 24.6126 17.054 24.8817 17.0338C24.0811 19.0523 23.2602 21.1044 22.4327 23.1497C22.2476 23.6073 22.3284 24.1287 22.6412 24.5088C22.9003 24.8251 23.2838 25 23.6807 25C23.7648 25 23.8489 24.9933 23.933 24.9764C23.9936 24.963 24.0575 24.9529 24.1214 24.9428C24.1584 24.9428 24.1954 24.9563 24.2358 24.9563C24.3166 24.9563 24.4007 24.9495 24.4848 24.9327C24.5487 24.9226 24.6092 24.9092 24.6731 24.8991C24.7135 24.9024 24.7505 24.9125 24.7909 24.9125C24.8716 24.9125 24.9524 24.9058 25.0331 24.889C25.097 24.8789 25.1576 24.8688 25.2215 24.8553C25.2619 24.8587 25.3022 24.8688 25.346 24.8688C25.4233 24.8688 25.5041 24.8621 25.5815 24.8486C25.6454 24.8385 25.7093 24.8284 25.7698 24.815C25.8136 24.8183 25.8539 24.8284 25.8977 24.8284C25.9751 24.8284 26.0524 24.8217 26.1298 24.8082C26.1937 24.7982 26.2576 24.7881 26.3182 24.778C26.3619 24.7813 26.4057 24.7914 26.4528 24.7914C26.5268 24.7914 26.6041 24.7847 26.6781 24.7712C26.7421 24.7611 26.806 24.7511 26.8699 24.741C26.917 24.7443 26.9607 24.7578 27.0112 24.7578C27.0852 24.7578 27.1592 24.7511 27.2299 24.741C27.2938 24.7309 27.3577 24.7208 27.4216 24.7107C27.4687 24.7174 27.5192 24.7275 27.5663 24.7275C27.6369 24.7275 27.7109 24.7208 27.7816 24.7107C27.8455 24.7006 27.9094 24.6905 27.9733 24.6804C28.0238 24.6871 28.0742 24.6972 28.1247 24.6972C28.1954 24.6972 28.266 24.6905 28.3333 24.6804C28.3972 24.6703 28.4611 24.6602 28.525 24.6501C28.5789 24.6569 28.6293 24.667 28.6831 24.667C28.7504 24.667 28.8177 24.6602 28.8884 24.6501C28.9523 24.64 29.0162 24.63 29.0801 24.6232C29.1339 24.63 29.1878 24.64 29.2416 24.64C29.3089 24.64 29.3728 24.6367 29.4401 24.6266C29.504 24.6165 29.5679 24.6098 29.6318 24.5997C29.689 24.6064 29.7428 24.6199 29.8 24.6199C29.8639 24.6199 29.9279 24.6165 29.9918 24.6064C30.4661 24.5391 30.9405 24.4718 31.4148 24.4079C31.6907 24.3709 31.9396 24.2498 32.1381 24.0681C32.1852 24.0681 32.2356 24.0681 32.2827 24.0581C32.2962 24.0581 32.313 24.0547 32.3265 24.0513C32.4005 24.0648 32.4745 24.0715 32.5519 24.0715C32.609 24.0715 32.6629 24.0715 32.7201 24.0614C32.7335 24.0614 32.7503 24.0581 32.7638 24.0547C32.8378 24.0681 32.9152 24.0749 32.9926 24.0749C33.0464 24.0749 33.1002 24.0749 33.1574 24.0648C33.1742 24.0648 33.1877 24.0614 33.2045 24.0581C33.2785 24.0715 33.3559 24.0782 33.4366 24.0782C33.4904 24.0782 33.5409 24.0782 33.5947 24.0681C33.6115 24.0681 33.6284 24.0648 33.6452 24.0614C33.7226 24.0749 33.7999 24.085 33.8773 24.085C33.9278 24.085 33.9816 24.085 34.0321 24.0749C34.5064 24.021 34.9807 23.9672 35.4584 23.9201C35.7276 23.8932 35.9765 23.7755 36.1817 23.6073C36.249 23.614 36.3196 23.614 36.3869 23.6174C36.4946 23.6308 36.6056 23.6375 36.7166 23.6443C36.8276 23.6577 36.9386 23.6678 37.0497 23.6712C37.1573 23.6846 37.2683 23.6947 37.376 23.6981C37.5576 23.7216 37.7393 23.7385 37.931 23.7385C38.0622 23.7385 38.2002 23.7317 38.3381 23.7216C38.8663 23.6779 39.3541 23.5602 39.788 23.3684C39.8654 23.3348 39.9428 23.2944 40.0168 23.2574C40.0908 23.2776 40.1648 23.2877 40.2388 23.2978C40.3162 23.3213 40.3936 23.3314 40.4709 23.3415C40.5449 23.365 40.6223 23.3751 40.6997 23.3852C40.8242 23.4222 40.9486 23.4458 41.0798 23.4458C41.1068 23.4458 41.137 23.4458 41.1639 23.4458C41.6416 23.4155 42.116 23.3886 42.5937 23.3617C43.0579 23.3381 43.465 23.0757 43.6904 22.6821C43.7005 22.6889 43.7139 22.6922 43.724 22.6956C43.761 22.7158 43.798 22.7326 43.8384 22.7494C43.8754 22.7696 43.9158 22.7864 43.9528 22.8032C43.9898 22.8234 44.0268 22.8403 44.0672 22.8571C44.1042 22.8773 44.1445 22.8941 44.1849 22.9143C44.2219 22.9344 44.2589 22.9513 44.2959 22.9681C44.3329 22.9883 44.3733 23.0085 44.4137 23.0253C44.4507 23.0455 44.4877 23.0623 44.528 23.0791C44.7232 23.1868 44.9452 23.2507 45.1773 23.2507C45.1941 23.2507 45.2076 23.2507 45.2244 23.2507C45.7021 23.2339 46.1798 23.2204 46.6541 23.2103C46.7551 23.2103 46.8526 23.1935 46.9502 23.1699C47.0377 23.1868 47.1285 23.2002 47.2227 23.2002C47.2328 23.2002 47.2395 23.2002 47.2496 23.2002C47.9291 23.1868 48.6087 23.18 49.2882 23.1767C50.062 23.1733 50.755 23.0219 51.3471 22.7259C51.4581 22.672 51.5556 22.6048 51.6566 22.5408C51.8853 22.9277 52.3025 23.1935 52.7835 23.2036C54.0619 23.2305 55.3537 23.2742 56.6253 23.3348C56.6455 23.3348 56.6691 23.3348 56.6892 23.3348C56.8103 23.3348 56.9281 23.3112 57.0425 23.2809C57.1737 23.3314 57.3116 23.3684 57.4563 23.3751C57.8869 23.3987 58.3208 23.4256 58.7514 23.4525C58.7783 23.4525 58.8086 23.4525 58.8355 23.4525C58.9499 23.4525 59.0677 23.4357 59.1753 23.4088C59.2695 23.4054 59.3637 23.392 59.4579 23.3684C59.5016 23.3684 59.5454 23.365 59.5891 23.3583C59.7506 23.4424 59.9289 23.4963 60.1173 23.5131C60.3931 23.5333 60.669 23.5534 60.9448 23.577C60.9818 23.577 61.0155 23.5804 61.0525 23.5804C61.1534 23.5804 61.2543 23.5669 61.3519 23.5467C61.3687 23.5467 61.3821 23.5467 61.399 23.5467C61.4999 23.5467 61.5975 23.5333 61.6916 23.5131C61.6984 23.5131 61.7051 23.5131 61.7085 23.5131C61.8868 23.6274 62.0886 23.7015 62.3106 23.7216C62.7412 23.7586 63.1718 23.799 63.6025 23.8428C63.6462 23.8461 63.6899 23.8495 63.7337 23.8495C63.8211 23.8495 63.9086 23.8394 63.9927 23.8226C64.0028 23.8226 64.0095 23.8226 64.0196 23.8226C64.0667 23.8259 64.1104 23.8293 64.1575 23.8293C64.245 23.8293 64.3291 23.8192 64.4132 23.8057C64.4199 23.8057 64.43 23.8057 64.4367 23.8057C64.4838 23.8091 64.5309 23.8125 64.578 23.8125C64.6621 23.8125 64.7496 23.8057 64.8303 23.7889C64.8371 23.7889 64.8472 23.7889 64.8539 23.7889C64.901 23.7957 64.9515 23.7957 64.9986 23.7957C65.0827 23.7957 65.1668 23.7889 65.2475 23.7721C65.2542 23.7721 65.2643 23.7721 65.271 23.7721C65.3215 23.7788 65.372 23.7788 65.4191 23.7788C65.4224 23.7788 65.4292 23.7788 65.4325 23.7788C65.631 23.9538 65.8799 24.0782 66.1625 24.1085C66.5999 24.159 67.0406 24.2128 67.4779 24.27C67.5351 24.2767 67.5923 24.2801 67.6495 24.2801C67.7201 24.2801 67.7908 24.27 67.8614 24.2599C67.9119 24.2666 67.959 24.2734 68.0094 24.2801C68.0666 24.2868 68.1272 24.2902 68.1843 24.2902C68.2516 24.2902 68.3223 24.2801 68.3896 24.27C68.44 24.2767 68.4905 24.2834 68.5409 24.2902C68.6015 24.2969 68.6621 24.3036 68.7226 24.3036C68.7899 24.3036 68.8538 24.2935 68.9211 24.2868C68.9715 24.2935 69.022 24.3003 69.0725 24.307C69.133 24.3171 69.1969 24.3205 69.2575 24.3205C69.3181 24.3205 69.3853 24.3104 69.4492 24.3036C69.4997 24.3104 69.5502 24.3171 69.6006 24.3238C69.6646 24.3339 69.7285 24.3373 69.7924 24.3373C69.8563 24.3373 69.9169 24.3272 69.9774 24.3205C70.0279 24.3272 70.0783 24.3339 70.1288 24.3406C70.1927 24.3507 70.26 24.3541 70.3239 24.3541C70.3845 24.3541 70.445 24.344 70.5022 24.3373C70.5527 24.344 70.6031 24.3507 70.6536 24.3608C70.7209 24.3709 70.7882 24.3743 70.8554 24.3743C70.9126 24.3743 70.9698 24.3642 71.027 24.3575C71.0775 24.3642 71.1279 24.3709 71.1818 24.381C71.249 24.3911 71.3197 24.3978 71.387 24.3978C71.4442 24.3978 71.498 24.3877 71.5552 24.381C71.6056 24.3877 71.6561 24.3978 71.7099 24.4046C71.7806 24.4146 71.8512 24.4214 71.9219 24.4214C71.9757 24.4214 72.0295 24.4146 72.0833 24.4079C72.1338 24.4146 72.1876 24.4247 72.2381 24.4315C72.3087 24.4416 72.3827 24.4483 72.4534 24.4483C72.5072 24.4483 72.5577 24.4416 72.6081 24.4348C72.6586 24.4449 72.7124 24.4517 72.7629 24.4584C72.8369 24.4718 72.9109 24.4752 72.9849 24.4752C73.0354 24.4752 73.0858 24.4685 73.1329 24.4617C73.1834 24.4718 73.2372 24.4786 73.2877 24.4887C73.3651 24.5021 73.4391 24.5088 73.5164 24.5088C73.8461 24.5088 74.1691 24.3877 74.418 24.159C74.7242 23.8831 74.8856 23.4794 74.8587 23.0656L74.7242 21.1582C75.4306 19.8899 76.1303 18.6149 76.8099 17.3669C76.9646 17.0809 77.0084 16.7546 76.9411 16.4417C77.0757 16.4047 77.1968 16.3475 77.3078 16.2735C77.328 16.2702 77.3515 16.2668 77.3751 16.2601C77.4962 16.4216 77.6206 16.5763 77.7417 16.7378C77.994 17.0675 78.4078 17.2929 78.8485 17.3299C79.481 17.3837 80.1134 17.4409 80.7425 17.5014C81.0486 17.5317 81.3245 17.4644 81.5499 17.3299C81.7517 17.313 81.93 17.2491 82.0882 17.1583C82.2732 17.1415 82.4414 17.0877 82.5928 17.0103C82.6567 17.0506 82.7172 17.0944 82.7845 17.1347C83.6558 17.6663 84.6617 18.0027 85.7718 18.1272C86.6734 18.2247 87.4976 18.1608 88.2377 17.9219C88.4631 17.8816 88.6818 17.8277 88.8937 17.7605C89.1191 17.7201 89.3378 17.6663 89.5497 17.599C89.7751 17.5586 89.9971 17.5048 90.2091 17.4375C90.4345 17.3971 90.6531 17.3433 90.8617 17.276C91.0871 17.2357 91.3058 17.1818 91.5211 17.1146C91.7465 17.0742 91.9651 17.0204 92.1771 16.9531C92.4025 16.9127 92.6211 16.8589 92.8331 16.7916C93.0585 16.7512 93.2771 16.6974 93.4891 16.6301C93.7145 16.5898 93.9331 16.5359 94.1451 16.4687C94.3705 16.4283 94.5891 16.3745 94.8011 16.3072C95.1408 16.2433 95.4672 16.1524 95.7767 16.0347C96.7287 15.6646 97.4856 15.0423 98.0306 14.1811C98.5689 13.33 98.8447 12.2602 98.8447 11.0323C98.8447 10.5445 98.8447 10.0601 98.8447 9.57226C98.8447 9.27622 98.7472 8.997 98.5857 8.76824L98.5554 8.79179Z" fill="#3A3A3A" stroke="#EC008C" stroke-width="0.826735" stroke-miterlimit="10"/>
<path d="M2.33984 15.7116V4.6875C3.22796 4.71105 4.11272 4.73123 5.00084 4.75142C5.00084 6.25181 5.00084 7.75219 5.00084 9.24921C5.04794 9.24921 5.0984 9.24585 5.1455 9.24249C6.35994 7.70173 7.57438 6.23162 8.78881 4.82543C9.83505 4.84561 10.8779 4.86243 11.9242 4.87589C10.6189 6.30899 9.31698 7.80602 8.01507 9.37705C9.33716 11.2172 10.6593 12.9632 11.978 14.6318C10.9183 14.7361 9.8586 14.8471 8.79891 14.9581C7.88724 13.7268 6.97557 12.4552 6.0639 11.1365C5.7073 11.5839 5.35407 12.038 5.00084 12.5023C5.00084 13.4644 5.00084 14.4232 5.00084 15.3853C4.11609 15.4896 3.23133 15.5973 2.34657 15.7049L2.33984 15.7116Z" fill="white"/>
<path d="M12.1055 14.6219C12.1122 11.3755 12.1156 8.12916 12.1223 4.88281C13.0104 4.89627 13.8985 4.90636 14.7867 4.91982C14.7867 6.18472 14.7833 7.44962 14.7799 8.71452C16.2265 8.67078 17.673 8.63041 19.123 8.59341C19.123 7.3857 19.1297 6.17799 19.1297 4.96691C20.0145 4.97701 20.9026 4.98037 21.7873 4.99047C21.7806 7.92732 21.7739 10.8608 21.7671 13.7977C20.8824 13.8616 19.9943 13.9322 19.1095 14.0029C19.1095 12.7918 19.1162 11.5841 19.1162 10.373C17.6697 10.4369 16.2231 10.5042 14.7732 10.5782C14.7732 11.8431 14.7665 13.1114 14.7665 14.3763C13.8783 14.457 12.9936 14.5411 12.1055 14.6286V14.6219Z" fill="white"/>
<path d="M24.9717 13.5713C24.0163 13.6318 23.0609 13.6991 22.1055 13.7664C23.3535 10.7521 24.5983 7.83884 25.8463 5.00963C27.0305 5.01636 28.2113 5.01972 29.3955 5.02645C30.6301 7.79174 31.8647 10.4864 33.0993 13.1272C32.1439 13.1676 31.1885 13.2147 30.2331 13.2618C29.3753 11.2534 28.5141 9.21139 27.6562 7.12901C27.6259 7.12901 27.599 7.12901 27.5688 7.12901C26.7008 9.23157 25.8362 11.3745 24.9683 13.5645L24.9717 13.5713ZM24.5983 10.2139C26.5932 10.1399 28.5914 10.0726 30.5864 10.0154C30.5864 10.5167 30.5864 11.0213 30.5864 11.5225C28.5881 11.5999 26.5932 11.6907 24.5949 11.7916C24.5949 11.2668 24.5949 10.7387 24.5983 10.2139ZM26.7176 4.21234C27.081 3.59671 27.4443 2.98444 27.811 2.37891C28.5881 2.39909 29.3652 2.41591 30.1423 2.43273C29.5973 3.02481 29.0557 3.62699 28.5107 4.23253C27.9119 4.2258 27.3165 4.21907 26.7176 4.21234Z" fill="white"/>
<path d="M42.848 5.05784C42.848 7.64819 42.8446 10.2385 42.8412 12.8289C42.0877 12.8423 41.3308 12.8592 40.5772 12.876C39.1138 11.4059 37.6504 9.92568 36.1904 8.4152C36.1669 8.4152 36.1433 8.4152 36.1198 8.4152C36.1198 9.94587 36.113 11.4799 36.113 13.0106C35.2249 13.0408 34.3334 13.0778 33.4453 13.1148C33.452 10.4236 33.4554 7.73229 33.4621 5.04102C34.2258 5.04102 34.9928 5.04438 35.7564 5.04775C37.1996 6.58177 38.6462 8.08552 40.0928 9.56909C40.123 9.56909 40.1533 9.56909 40.1836 9.56909C40.1836 8.06534 40.187 6.56159 40.1903 5.05784C41.0784 5.05784 41.9632 5.05784 42.8513 5.05784H42.848Z" fill="white"/>
<path d="M43.6641 12.8152C43.6641 10.2282 43.6674 7.64461 43.6708 5.05762C44.5589 5.05762 45.4504 5.05762 46.3385 5.05762C46.3385 6.09039 46.3385 7.12317 46.3385 8.15595C47.7884 8.14922 49.2384 8.14922 50.6883 8.14922C50.6883 7.11981 50.6883 6.08703 50.6883 5.05762C51.5764 5.05762 52.4645 5.05762 53.3493 5.05762C53.3493 7.63115 53.3493 10.2047 53.3527 12.7782C52.4645 12.7715 51.5764 12.7648 50.6883 12.7648C50.6883 11.732 50.6883 10.6992 50.6883 9.66979C49.2384 9.66979 47.7884 9.66979 46.3385 9.67988C46.3385 10.7127 46.3385 11.7488 46.3385 12.7816C45.447 12.7917 44.5589 12.8018 43.6674 12.8152H43.6641Z" fill="white"/>
<path d="M56.5888 12.8222C56.5888 10.2352 56.5854 7.64483 56.582 5.05784C57.4702 5.05784 58.3616 5.05784 59.2498 5.05784C59.2498 6.10407 59.2498 7.15031 59.2531 8.19654C60.703 8.21 62.153 8.22682 63.6029 8.24364C63.6029 7.17722 63.5995 6.11416 63.5962 5.04775C64.4843 5.04775 65.369 5.04438 66.2572 5.04102C66.2639 7.73229 66.2673 10.4202 66.274 13.1115C65.3859 13.0745 64.4977 13.0375 63.6096 13.0072C63.6096 11.9408 63.6063 10.8744 63.6029 9.80794C62.153 9.77766 60.703 9.75411 59.2531 9.73393C59.2531 10.7802 59.2531 11.8298 59.2565 12.876C58.365 12.8558 57.4769 12.8356 56.5854 12.8188L56.5888 12.8222Z" fill="white"/>
<path d="M73.7491 5.01321C74.6372 5.00984 75.522 5.00311 76.4101 4.99638C76.4135 6.86346 76.4202 8.73053 76.4236 10.5942C76.4236 11.2401 76.2318 11.7952 75.8416 12.2494C75.4514 12.7035 74.9064 13.0366 74.2066 13.2519C73.5069 13.4672 72.6928 13.5412 71.7677 13.4874C70.8291 13.4335 70.0116 13.262 69.3085 12.9827C68.6088 12.7002 68.0638 12.3301 67.6736 11.8659C67.2833 11.4016 67.0882 10.8701 67.0882 10.2679C67.0849 8.52532 67.0815 6.78272 67.0781 5.03676C67.9662 5.03676 68.8544 5.03003 69.7425 5.02667C69.7459 6.74235 69.7492 8.45804 69.7526 10.1704C69.7526 10.4529 69.8367 10.712 70.0049 10.9407C70.1731 11.1695 70.4086 11.3545 70.708 11.4925C71.0108 11.6337 71.3606 11.7111 71.7576 11.7279C72.1579 11.7448 72.5044 11.6977 72.8038 11.5833C73.1032 11.4689 73.3387 11.3007 73.5069 11.0787C73.6751 10.8566 73.7592 10.5976 73.7592 10.3049C73.7559 8.53878 73.7525 6.77263 73.7458 5.00648L73.7491 5.01321ZM70.8627 4.2361C70.3177 3.63056 69.7728 3.03512 69.2278 2.44304C70.0049 2.42622 70.782 2.4094 71.5591 2.39258C71.9258 2.99812 72.2891 3.60701 72.6558 4.21928C72.057 4.22601 71.4615 4.23274 70.8627 4.2361Z" fill="white"/>
<path d="M86.6096 4.90039C86.6163 8.10637 86.6197 11.3124 86.6264 14.5217C85.8728 14.4511 85.1226 14.3804 84.3691 14.3131C82.9057 12.3788 81.439 10.5352 79.9722 8.7691C79.9487 8.7691 79.9251 8.7691 79.9016 8.7691C79.9049 10.4949 79.9083 12.2173 79.915 13.9431C79.0269 13.8724 78.1388 13.8085 77.2507 13.7446C77.2439 10.8313 77.2372 7.91462 77.2305 5.00131C77.9941 4.99459 78.7578 4.99122 79.5248 4.98449C80.9747 6.68673 82.4246 8.4596 83.8746 10.3199C83.9048 10.3199 83.9351 10.3199 83.9654 10.3233C83.962 8.53025 83.9587 6.73382 83.9553 4.94076C84.8401 4.93067 85.7282 4.92058 86.6129 4.90712L86.6096 4.90039Z" fill="white"/>
<path d="M94.6608 8.22348C94.6002 8.00481 94.5094 7.80969 94.3916 7.64148C94.2739 7.47328 94.1292 7.32862 93.9543 7.21088C93.7827 7.09314 93.5843 7.00231 93.3622 6.94175C93.1402 6.8812 92.898 6.85092 92.6322 6.84756C92.0973 6.84756 91.6365 6.96194 91.2496 7.19743C90.8593 7.43291 90.5599 7.77269 90.3514 8.21675C90.1394 8.66081 90.0351 9.20243 90.0351 9.84161C90.0351 10.4841 90.1394 11.0359 90.3446 11.5035C90.5499 11.9711 90.8459 12.3411 91.2328 12.6136C91.6196 12.8861 92.0906 13.0476 92.639 13.0947C93.1267 13.1351 93.5372 13.0947 93.8769 12.9736C94.2167 12.8491 94.4724 12.654 94.6473 12.3849C94.8223 12.1157 94.9097 11.7861 94.9097 11.4025C95.0746 11.4328 95.2394 11.4631 95.4042 11.4934C94.5128 11.4362 93.6213 11.3756 92.7298 11.3218C92.7298 10.7129 92.7298 10.104 92.7298 9.4951C94.3109 9.55902 95.892 9.62294 97.4732 9.68685V11.1469C97.4732 12.1359 97.2646 12.9668 96.8474 13.6228C96.4303 14.2822 95.8584 14.7498 95.1317 15.0324C94.4051 15.315 93.5674 15.3957 92.6221 15.2881C91.5725 15.1703 90.6508 14.8575 89.8568 14.3663C89.0596 13.8752 88.4406 13.2393 87.9931 12.4589C87.5491 11.6784 87.3237 10.7835 87.3203 9.76086C87.3203 8.96694 87.4515 8.26384 87.7206 7.64821C87.9898 7.03258 88.3632 6.50778 88.8443 6.07045C89.3253 5.63312 89.8838 5.29334 90.5196 5.05449C91.1554 4.81564 91.8417 4.68445 92.575 4.66763C93.2142 4.65417 93.8063 4.72482 94.358 4.88966C94.9097 5.0545 95.3975 5.29671 95.8214 5.6163C96.2453 5.93589 96.5918 6.32612 96.8575 6.78364C97.1233 7.24116 97.2881 7.74577 97.352 8.29412C96.4538 8.27393 95.559 8.25375 94.6608 8.23357V8.22348Z" fill="white"/>
<path d="M25.5084 23.1524C24.8793 23.2634 24.2502 23.3778 23.6211 23.4989C24.6707 21.0398 25.7001 18.5907 26.7093 16.1517C27.4696 16.0205 28.2265 15.8961 28.9902 15.7783C29.5957 17.9515 30.2248 20.1281 30.8774 22.3114C30.245 22.3989 29.6125 22.4897 28.9835 22.5839C28.5529 20.9523 28.1323 19.3207 27.7253 17.6925C27.7051 17.6925 27.6883 17.6992 27.6681 17.7026C26.9583 19.5125 26.2417 21.3291 25.5117 23.1524H25.5084ZM25.5151 20.478C26.817 20.2458 28.1189 20.0305 29.4242 19.8388C29.3905 20.2593 29.3569 20.6832 29.3232 21.1037C28.0112 21.2988 26.7026 21.5141 25.394 21.7462C25.4343 21.3224 25.4747 20.9018 25.5151 20.478Z" fill="url(#paint0_linear_4882_33193)"/>
<path d="M38.1656 17.1485C37.5802 17.199 36.9915 17.2528 36.4062 17.31C36.3927 17.1418 36.3523 16.9904 36.2884 16.8592C36.2245 16.728 36.1337 16.6204 36.0193 16.5329C35.9049 16.4454 35.7704 16.3849 35.6089 16.3512C35.4508 16.3142 35.2725 16.3075 35.0774 16.331C34.7309 16.3681 34.4247 16.4858 34.1657 16.6775C33.9033 16.8693 33.6981 17.1283 33.5433 17.4547C33.3886 17.781 33.2977 18.1611 33.2675 18.6018C33.2372 19.0593 33.2809 19.4327 33.3987 19.7221C33.5164 20.0147 33.6981 20.2199 33.9403 20.3478C34.1825 20.4756 34.4785 20.5193 34.8217 20.479C35.0168 20.4588 35.1951 20.4151 35.3566 20.3511C35.5181 20.2872 35.6627 20.2031 35.7905 20.1022C35.9184 19.9979 36.0227 19.8768 36.1101 19.7389C36.1976 19.6009 36.2582 19.4462 36.2985 19.278C36.8872 19.2242 37.4793 19.1737 38.0714 19.1266C38.0277 19.4327 37.92 19.7389 37.7518 20.0484C37.5836 20.3579 37.3548 20.6438 37.0723 20.9129C36.7897 21.1821 36.4499 21.4041 36.0496 21.5858C35.6526 21.7674 35.2018 21.8852 34.6972 21.939C34.0345 22.0096 33.4491 21.9424 32.9479 21.7338C32.4433 21.5252 32.0598 21.1753 31.7974 20.6875C31.535 20.1998 31.4307 19.5808 31.4879 18.8238C31.5417 18.0669 31.7402 17.4042 32.0766 16.839C32.413 16.2739 32.847 15.8231 33.3751 15.4867C33.9033 15.1503 34.4819 14.9484 35.1144 14.8778C35.545 14.8307 35.9419 14.8475 36.3019 14.9249C36.6618 15.0022 36.9781 15.1402 37.2438 15.3353C37.513 15.5304 37.7249 15.7793 37.8864 16.0821C38.0479 16.3849 38.1387 16.7415 38.1622 17.1485H38.1656Z" fill="url(#paint1_linear_4882_33193)"/>
<path d="M40.3806 21.3367C39.7448 21.3805 39.109 21.4276 38.4766 21.478C39.4017 19.1232 40.3066 16.7784 41.1914 14.4403C41.9584 14.3899 42.7254 14.3495 43.4924 14.3125C44.2393 16.5597 45.0063 18.8103 45.7935 21.071C45.1577 21.0912 44.5218 21.1113 43.886 21.1416C43.3511 19.4562 42.8263 17.7775 42.315 16.0988C42.2948 16.0988 42.278 16.0988 42.2578 16.0988C41.6422 17.8381 41.0198 19.584 40.3806 21.3334V21.3367ZM40.2293 18.6555C41.5446 18.5647 42.8566 18.4907 44.1753 18.4369C44.1652 18.8574 44.1552 19.2745 44.1484 19.6951C42.8263 19.7489 41.5042 19.8229 40.1855 19.9171C40.2023 19.4966 40.2192 19.0794 40.2326 18.6589L40.2293 18.6555Z" fill="url(#paint2_linear_4882_33193)"/>
<path d="M49.2924 21.0173C48.3875 21.0206 47.4825 21.0341 46.5742 21.0543C46.6045 18.7701 46.6348 16.4892 46.6617 14.205C47.5431 14.1848 48.4211 14.1713 49.3025 14.168C50.0325 14.168 50.6582 14.3059 51.1898 14.5818C51.7179 14.861 52.1317 15.2579 52.4244 15.776C52.7171 16.2941 52.8684 16.9063 52.8785 17.6195C52.8886 18.3327 52.7507 18.9416 52.4647 19.4496C52.1788 19.9576 51.765 20.3444 51.2234 20.6102C50.6818 20.8793 50.0392 21.0105 49.2924 21.0139V21.0173ZM48.3606 19.6144C48.6499 19.6144 48.9392 19.6077 49.2285 19.6077C49.6389 19.6077 49.9854 19.5404 50.268 19.4126C50.5506 19.2848 50.7659 19.0728 50.9105 18.7768C51.0552 18.4807 51.1258 18.0905 51.1225 17.596C51.1225 17.1048 51.0451 16.7112 50.8971 16.4152C50.7491 16.1225 50.5371 15.9072 50.2545 15.776C49.972 15.6448 49.6255 15.5809 49.2117 15.5809C48.9358 15.5809 48.66 15.5843 48.3841 15.5876C48.3774 16.9299 48.3673 18.2722 48.3606 19.6144Z" fill="url(#paint3_linear_4882_33193)"/>
<path d="M53.9592 21.0739C53.9222 18.7897 53.8886 16.5088 53.8516 14.2246C55.5134 14.2717 57.1753 14.3524 58.8372 14.4601C58.854 14.9075 58.8708 15.3583 58.8843 15.8057C57.7943 15.7351 56.701 15.6745 55.611 15.6308C55.6211 16.0984 55.6312 16.566 55.6413 17.037C56.6539 17.0807 57.6631 17.1312 58.6757 17.1951C58.6925 17.6459 58.706 18.0933 58.7228 18.5441C57.7068 18.4802 56.6909 18.4264 55.6715 18.3826C55.6816 18.8536 55.6917 19.3212 55.7052 19.7922C56.8153 19.8393 57.9255 19.8965 59.0323 19.9705C59.0491 20.4179 59.0659 20.8687 59.0794 21.3161C57.3738 21.2051 55.6648 21.1244 53.9592 21.0739Z" fill="url(#paint4_linear_4882_33193)"/>
<path d="M59.9141 14.5346C60.6273 14.5884 61.3371 14.6456 62.0503 14.7095C62.7231 16.1797 63.406 17.6565 64.099 19.1367C64.1259 19.1367 64.1562 19.1434 64.1831 19.1468C64.718 17.7944 65.2394 16.4421 65.7541 15.0931C66.464 15.1772 67.1738 15.2646 67.8836 15.3588C68.0484 17.6531 68.2133 19.9474 68.3781 22.2384C67.8062 22.161 67.231 22.0904 66.6591 22.0197C66.5682 20.6135 66.4774 19.204 66.3832 17.7978C66.363 17.7978 66.3428 17.7944 66.3227 17.7911C65.8382 19.1165 65.3403 20.442 64.8357 21.7708C64.469 21.7304 64.1024 21.6934 63.7357 21.6564C63.0729 20.1997 62.4203 18.7465 61.7778 17.2965C61.7576 17.2965 61.7374 17.2932 61.7172 17.2898C61.7845 18.7027 61.8484 20.1156 61.9157 21.5286C61.3404 21.4781 60.7652 21.4344 60.1899 21.3906C60.0991 19.1031 60.0083 16.8188 59.9141 14.5312V14.5346Z" fill="url(#paint5_linear_4882_33193)"/>
<path d="M68.6055 15.4531C69.2446 15.5406 69.8838 15.6348 70.523 15.7323C71.1016 16.7685 71.687 17.8114 72.2757 18.8576C72.2959 18.861 72.3161 18.8643 72.3396 18.8677C72.7601 17.9897 73.1739 17.1116 73.581 16.237C74.2168 16.348 74.8526 16.4657 75.4884 16.5868C74.7853 17.9594 74.062 19.3353 73.3253 20.7146C73.3959 21.4816 73.4666 22.252 73.5372 23.019C72.9552 22.9181 72.3733 22.8239 71.7879 22.733C71.724 21.966 71.6567 21.199 71.5928 20.432C70.5836 18.7634 69.5878 17.1049 68.6088 15.4565L68.6055 15.4531Z" fill="url(#paint6_linear_4882_33193)"/>
<defs>
<linearGradient id="paint0_linear_4882_33193" x1="27.2493" y1="15.7783" x2="27.2493" y2="23.4989" gradientUnits="userSpaceOnUse">
<stop stop-color="#FA98CD"/>
<stop offset="1" stop-color="#F41E92"/>
</linearGradient>
<linearGradient id="paint1_linear_4882_33193" x1="34.8191" y1="14.8516" x2="34.8191" y2="21.9661" gradientUnits="userSpaceOnUse">
<stop stop-color="#FA98CD"/>
<stop offset="1" stop-color="#F41E92"/>
</linearGradient>
<linearGradient id="paint2_linear_4882_33193" x1="42.135" y1="14.3125" x2="42.135" y2="21.478" gradientUnits="userSpaceOnUse">
<stop stop-color="#FA98CD"/>
<stop offset="1" stop-color="#F41E92"/>
</linearGradient>
<linearGradient id="paint3_linear_4882_33193" x1="49.7266" y1="14.168" x2="49.7266" y2="21.0543" gradientUnits="userSpaceOnUse">
<stop stop-color="#FA98CD"/>
<stop offset="1" stop-color="#F41E92"/>
</linearGradient>
<linearGradient id="paint4_linear_4882_33193" x1="56.4655" y1="14.2246" x2="56.4655" y2="21.3161" gradientUnits="userSpaceOnUse">
<stop stop-color="#FA98CD"/>
<stop offset="1" stop-color="#F41E92"/>
</linearGradient>
<linearGradient id="paint5_linear_4882_33193" x1="64.1461" y1="14.5312" x2="64.1461" y2="22.2384" gradientUnits="userSpaceOnUse">
<stop stop-color="#FA98CD"/>
<stop offset="1" stop-color="#F41E92"/>
</linearGradient>
<linearGradient id="paint6_linear_4882_33193" x1="72.0469" y1="15.4531" x2="72.0469" y2="23.019" gradientUnits="userSpaceOnUse">
<stop stop-color="#FA98CD"/>
<stop offset="1" stop-color="#F41E92"/>
</linearGradient>
</defs>
</svg>
