<svg width="28" height="28" viewBox="0 0 28 28" fill="none" xmlns="http://www.w3.org/2000/svg">
<g clip-path="url(#clip0_5759_25840)">
<path d="M15.0994 14.0099L19.7719 9.33715C20.076 9.03321 20.076 8.54178 19.7719 8.23784C19.468 7.9339 18.9766 7.9339 18.6726 8.23784L13.9999 12.9105L9.32737 8.23784C9.02329 7.9339 8.532 7.9339 8.22806 8.23784C7.92398 8.54178 7.92398 9.03321 8.22806 9.33715L12.9006 14.0099L8.22806 18.6826C7.92398 18.9865 7.92398 19.4779 8.22806 19.7819C8.37953 19.9335 8.5787 20.0096 8.77772 20.0096C8.97674 20.0096 9.17576 19.9335 9.32737 19.7819L13.9999 15.1092L18.6726 19.7819C18.8243 19.9335 19.0233 20.0096 19.2223 20.0096C19.4213 20.0096 19.6203 19.9335 19.7719 19.7819C20.076 19.4779 20.076 18.9865 19.7719 18.6826L15.0994 14.0099Z" fill="white"/>
</g>
<defs>
<clipPath id="clip0_5759_25840">
<rect width="12" height="12" fill="white" transform="translate(8 8)"/>
</clipPath>
</defs>
</svg>
