<svg width="70" height="70" viewBox="0 0 70 70" fill="none" xmlns="http://www.w3.org/2000/svg">
<path d="M64.1654 5.83545H29.1654C25.9437 5.83545 23.332 8.44712 23.332 11.6688V35.0021C23.332 38.2238 25.9437 40.8354 29.1654 40.8354H64.1654C67.387 40.8354 69.9987 38.2238 69.9987 35.0021V11.6688C69.9987 8.44712 67.387 5.83545 64.1654 5.83545Z" fill="#FF4BAD"/>
<g style="mix-blend-mode:multiply">
<path fill-rule="evenodd" clip-rule="evenodd" d="M15.5951 64.1686H42.7612C52.4843 64.1686 55.4403 61.1416 55.4159 51.1776V33.8984H2.91602V51.2029C2.91602 61.1416 5.87203 64.1686 15.5951 64.1686ZM2.91729 30.1146H55.4146C55.3443 20.4571 52.3437 17.502 42.7367 17.502H15.5951C5.98816 17.502 2.98759 20.4571 2.91729 30.1146ZM19.4062 54.0785H14.5202C13.5186 54.0785 12.688 53.2209 12.688 52.1866C12.688 51.1524 13.5186 50.2947 14.5202 50.2947H19.4062C20.4078 50.2947 21.2384 51.1524 21.2384 52.1866C21.2384 53.2209 20.4078 54.0785 19.4062 54.0785ZM25.5137 54.0785H35.2856C36.2873 54.0785 37.1179 53.2209 37.1179 52.1866C37.1179 51.1524 36.2873 50.2947 35.2856 50.2947H25.5137C24.512 50.2947 23.6814 51.1524 23.6814 52.1866C23.6814 53.2209 24.512 54.0785 25.5137 54.0785Z" fill="#A943F9"/>
</g>
</svg>
