<svg width="70" height="70" viewBox="0 0 70 70" fill="none" xmlns="http://www.w3.org/2000/svg">
<path fill-rule="evenodd" clip-rule="evenodd" d="M61.2447 26.0517V26.0517C61.2447 28.5777 59.1969 30.6255 56.6709 30.6255H54.6826V51.7695C54.6826 52.9776 53.7033 53.9569 52.4953 53.9569V53.9569C51.2872 53.9569 50.3079 52.9776 50.3079 51.7695V30.6255H43.7458V51.7695C43.7458 52.9776 42.7665 53.9569 41.5585 53.9569V53.9569C40.3504 53.9569 39.3711 52.9776 39.3711 51.7695V30.6255H30.6217V51.7695C30.6217 52.9776 29.6423 53.9569 28.4343 53.9569V53.9569C27.2262 53.9569 26.2469 52.9776 26.2469 51.7695V30.6255H19.6848V51.7695C19.6848 52.9775 18.7055 53.9569 17.4975 53.9569V53.9569C16.2894 53.9569 15.3101 52.9776 15.3101 51.7695V30.6255H13.3218C10.7958 30.6255 8.74805 28.5777 8.74805 26.0517V26.0517C8.74783 24.8728 9.0652 23.7156 9.66681 22.7018C10.2684 21.688 11.132 20.8549 12.1669 20.2902L31.8531 9.55246C32.8168 9.025 33.8978 8.74854 34.9964 8.74854C36.095 8.74854 37.1759 9.025 38.1396 9.55246L57.8259 20.2902C58.8607 20.8549 59.7243 21.688 60.3259 22.7018C60.9275 23.7156 61.2449 24.8728 61.2447 26.0517ZM56.5637 24.9351C56.7643 25.273 56.87 25.6588 56.87 26.0517V26.2508H13.1228V26.0517C13.1227 25.6588 13.2285 25.273 13.429 24.9351C13.6296 24.5971 13.9174 24.3195 14.2624 24.1312L33.9486 13.3935C34.27 13.2181 34.6303 13.1262 34.9964 13.1262C35.3625 13.1262 35.7227 13.2181 36.0441 13.3935L55.7304 24.1312C56.0753 24.3195 56.3632 24.5971 56.5637 24.9351Z" fill="#A943F9"/>
<path d="M56.87 26.0517C56.87 25.6588 56.7643 25.273 56.5637 24.9351C56.3632 24.5971 56.0753 24.3195 55.7304 24.1312L36.0441 13.3935C35.7227 13.2181 35.3625 13.1262 34.9964 13.1262C34.6303 13.1262 34.27 13.2181 33.9486 13.3935L14.2624 24.1312C13.9174 24.3195 13.6296 24.5971 13.429 24.9351C13.2285 25.273 13.1227 25.6588 13.1228 26.0517V26.2508H56.87V26.0517Z" fill="#A943F9"/>
<g style="mix-blend-mode:multiply">
<path d="M5.83203 49.5819C5.83203 46.3602 8.4437 43.7485 11.6654 43.7485H58.332C61.5537 43.7485 64.1654 46.3602 64.1654 49.5819V52.4985C64.1654 55.7202 61.5537 58.3319 58.332 58.3319H11.6654C8.4437 58.3319 5.83203 55.7202 5.83203 52.4985V49.5819Z" fill="#FF4BAD"/>
</g>
</svg>
