<svg width="14" height="14" viewBox="0 0 14 14" fill="none" xmlns="http://www.w3.org/2000/svg">
<path d="M6.32953 7.7583C5.20003 7.7583 1.87578 7.7583 1.87578 7.7583C1.52289 7.7583 1.23413 8.04701 1.23413 8.3999V13.2158C1.23413 13.5686 1.52289 13.8574 1.87578 13.8574C1.87578 13.8574 5.26959 13.8574 6.40442 13.8574C6.55536 13.8574 6.55536 13.6952 6.55536 13.6952V7.97633C6.55536 7.97633 6.55532 7.7583 6.32953 7.7583Z" fill="white"/>
<path d="M12.318 7.75879C12.318 7.75879 8.98105 7.75879 7.8688 7.75879C7.59781 7.75879 7.63839 8.041 7.63839 8.041V13.7009C7.63839 13.7009 7.63619 13.8577 7.79919 13.8577C8.92888 13.8577 12.3179 13.8577 12.3179 13.8577C12.6708 13.8577 12.9596 13.569 12.9596 13.2161V8.40039C12.9597 8.0475 12.6709 7.75879 12.318 7.75879Z" fill="white"/>
<path d="M6.55479 3.96888C6.55479 3.96888 6.55479 3.75146 6.33994 3.75146C5.05343 3.75146 1.15068 3.75146 1.15068 3.75146C0.797788 3.75146 0.509033 4.04022 0.509033 4.39306V6.39593C0.509033 6.74882 0.797788 7.03753 1.15068 7.03753C1.15068 7.03753 5.07091 7.03753 6.35752 7.03753C6.55479 7.03753 6.55479 6.86644 6.55479 6.86644V3.96888Z" fill="white"/>
<path d="M13.0432 3.75098C13.0432 3.75098 9.13889 3.75098 7.83741 3.75098C7.63916 3.75098 7.63916 3.93988 7.63916 3.93988V6.86992C7.63916 6.86992 7.63916 7.03704 7.88019 7.03704C9.17091 7.03704 13.0432 7.03704 13.0432 7.03704C13.3961 7.03704 13.6849 6.74833 13.6849 6.39544V4.39258C13.6849 4.03973 13.3961 3.75098 13.0432 3.75098Z" fill="white"/>
<path d="M4.37273 3.27648C4.07916 3.27648 3.81102 3.2532 3.57589 3.20725C2.97865 3.09057 2.56817 2.86347 2.32097 2.51306C2.09948 2.19902 2.0317 1.81186 2.11944 1.36229C2.27315 0.575734 2.80139 0.142578 3.60674 0.142578C3.77718 0.142578 3.96435 0.162259 4.16312 0.201105C4.66873 0.299881 5.31543 0.589804 5.89308 0.976634C6.87312 1.63301 6.9216 2.04106 6.8728 2.29092C6.80104 2.65807 6.45787 2.92041 5.82366 3.093C5.39518 3.20959 4.86633 3.27648 4.37273 3.27648ZM3.60679 1.17096C3.29489 1.17096 3.1877 1.2581 3.12885 1.55947C3.0807 1.80587 3.14142 1.89194 3.16134 1.92022C3.24473 2.03849 3.46196 2.13712 3.77306 2.19785C3.94093 2.23066 4.14835 2.24801 4.37268 2.24801C4.866 2.24801 5.30061 2.17326 5.58899 2.0915C5.60998 2.08556 5.64256 2.06074 5.60764 2.03994C5.23063 1.73281 4.54088 1.3227 3.96594 1.21037C3.83201 1.18428 3.71112 1.17096 3.60679 1.17096Z" fill="white"/>
<path d="M9.83543 3.27643C9.83543 3.27643 9.83543 3.27643 9.83534 3.27643C9.34174 3.27643 8.81294 3.20954 8.38446 3.09295C7.7502 2.92041 7.40708 2.65802 7.33532 2.29092C7.28657 2.04106 7.33495 1.63301 8.31509 0.976634C8.89265 0.589805 9.53934 0.299881 10.045 0.201105C10.2438 0.162259 10.431 0.142578 10.6013 0.142578C11.4068 0.142578 11.935 0.57578 12.0886 1.36234C12.1764 1.81186 12.1087 2.19902 11.8872 2.51306C11.64 2.86352 11.2295 3.09057 10.6321 3.20725C10.3971 3.25311 10.129 3.27643 9.83543 3.27643ZM8.60871 2.03353C8.57528 2.05293 8.59146 2.08355 8.6088 2.08855C8.89704 2.17143 9.33623 2.24801 9.83534 2.24801C10.0598 2.24801 10.2671 2.23066 10.435 2.19785C10.7461 2.13708 10.9634 2.03849 11.0467 1.92022C11.0667 1.89194 11.1275 1.80587 11.0792 1.55947C11.0204 1.2581 10.9132 1.17096 10.6012 1.17096C10.4969 1.17096 10.3762 1.18424 10.2421 1.21041C9.66715 1.3227 8.98572 1.72636 8.60871 2.03353Z" fill="white"/>
</svg>
