<svg width="12" height="9" viewBox="0 0 12 9" fill="none" xmlns="http://www.w3.org/2000/svg">
<path d="M1.3413 5.80325V2.57383C1.07889 2.44437 0.903949 2.17496 0.903949 1.86357C0.903949 1.42971 1.25033 1.07633 1.68769 1.07633C2.12504 1.07633 2.47842 1.42971 2.47842 1.86707C2.47842 1.98253 2.45393 2.09799 2.40495 2.20295L4.25233 4.20079L5.39295 1.91955C5.27399 1.7796 5.20751 1.60116 5.20751 1.41222C5.20751 0.978363 5.5609 0.624981 5.99825 0.624981C6.4356 0.624981 6.78899 0.978363 6.78899 1.41222C6.78899 1.60116 6.71901 1.7796 6.60355 1.91955L7.74417 4.20079L9.59505 2.20295C9.54607 2.09799 9.52158 1.98253 9.52158 1.86707C9.52158 1.42971 9.87496 1.07633 10.3123 1.07633C10.7497 1.07633 11.103 1.42971 11.103 1.86707C11.103 2.17496 10.9246 2.44437 10.6657 2.57383V5.80675H1.3413V5.80325ZM10.9176 6.45754H1.07889C0.896951 6.45754 0.75 6.60449 0.75 6.78643V8.18946C0.75 8.3714 0.896951 8.51835 1.07889 8.51835H10.9211C11.103 8.51835 11.25 8.3714 11.25 8.18946V6.78643C11.2465 6.60449 11.0996 6.45754 10.9176 6.45754Z" fill="#F5D31E"/>
</svg>
