<svg width="24" height="24" viewBox="0 0 24 24" fill="none" xmlns="http://www.w3.org/2000/svg">
<path d="M23.2968 8.484H20.4375C20.0489 8.484 19.7344 8.79849 19.7344 9.18713C19.7344 9.57577 20.0489 9.89025 20.4375 9.89025H23.2968C23.6855 9.89025 24 9.57577 24 9.18713C24 8.79849 23.6855 8.484 23.2968 8.484Z" fill="white"/>
<path d="M23.9261 4.65394C23.7523 4.3065 23.33 4.16644 22.9826 4.33945L20.1233 5.74571C19.7758 5.91942 19.6351 6.34172 19.8088 6.68916C19.9816 7.03364 20.4013 7.17788 20.7522 7.00364L23.6116 5.59739C23.959 5.42367 24.0998 5.00138 23.9261 4.65394Z" fill="white"/>
<path d="M23.6116 12.7769L20.7522 11.3706C20.4048 11.199 19.9839 11.337 19.8088 11.6851C19.6351 12.0325 19.7758 12.4548 20.1233 12.6285L22.9826 14.0348C23.3336 14.209 23.7533 14.0648 23.9261 13.7203C24.0998 13.3729 23.959 12.9506 23.6116 12.7769Z" fill="white"/>
<path d="M16.9219 1.45284C16.1452 1.45284 15.5156 2.08242 15.5156 2.85909V16.9214C15.5156 17.698 16.1452 18.3277 16.9219 18.3277C17.6985 18.3277 18.3281 17.698 18.3281 16.9214V2.85909C18.3281 2.08237 17.6985 1.45284 16.9219 1.45284Z" fill="white"/>
<path d="M8.46222 16.325C8.40883 16.6601 8.13077 16.9214 7.78066 16.9214H6.91961C6.859 16.9214 6.80486 16.9415 6.7488 16.9558L6.63428 15.7157L6.03245 15.5152H2.33594L2.92197 20.9492C3.20945 22.0967 4.37083 22.7639 5.47966 22.4832C6.6078 22.2017 7.29653 21.0543 7.03286 20.0312L6.87466 18.3187C6.89027 18.3197 6.90358 18.3277 6.91956 18.3277H7.78066C8.75064 18.3277 9.5613 17.6661 9.80655 16.7731L8.46222 16.325Z" fill="white"/>
<path d="M7.07812 5.39934V14.3811L14.1093 16.7248V3.05573L7.07812 5.39934Z" fill="white"/>
<path d="M2.10933 5.67155C0.946219 5.67155 0 6.61777 0 7.78088V11.9996C0 13.1627 0.946219 14.1089 2.10933 14.1089H5.67178V5.67155H2.10933Z" fill="white"/>
</svg>
