<svg width="32" height="32" viewBox="0 0 32 32" fill="none" xmlns="http://www.w3.org/2000/svg">
<g opacity="0.5">
<path d="M22.0305 23.9804C22.0505 25.0154 20.8705 25.6154 20.0455 25.8954C18.1605 26.5454 16.0305 26.6404 14.0655 26.3754C12.7905 26.2104 10.8055 25.8904 10.1255 24.6104C9.33045 23.1104 11.4855 22.2254 12.5305 21.9204C13.1555 21.7504 13.4205 22.7154 12.7955 22.8854C12.6955 22.9154 12.5955 22.9454 12.5005 22.9754C12.0655 23.1154 10.5005 23.6304 11.1455 24.3204C11.6205 24.8254 12.4455 25.0354 13.0905 25.1904C14.0605 25.4204 15.0805 25.5154 16.0755 25.5004C17.1055 25.4804 18.1355 25.3954 19.1305 25.1354C19.7005 24.9804 20.5305 24.7604 20.9155 24.2554C21.4755 23.5104 19.5955 23.0004 19.2055 22.8854C18.5805 22.7154 18.8455 21.7504 19.4705 21.9204C20.4155 22.2004 22.0105 22.7404 22.0305 23.9804Z" fill="#C9D9E9"/>
<path d="M16.4758 6.51918C20.9058 6.87918 23.3008 12.1142 20.7008 15.7042C19.0858 17.8692 17.0708 19.8242 16.0008 22.3442C14.9308 19.8242 12.9158 17.8692 11.3008 15.7042C9.88084 13.7442 9.84584 11.0292 11.2108 9.02918C12.3758 7.31918 14.4158 6.34918 16.4758 6.51918ZM19.3008 12.2992C19.3008 10.4992 17.8008 8.99918 16.0008 8.99918C14.2008 8.99918 12.7008 10.4992 12.7008 12.2992C12.7008 14.0992 14.2008 15.6042 16.0008 15.6042C17.8008 15.6042 19.3008 14.0992 19.3008 12.2992Z" fill="#C9D9E9"/>
</g>
</svg>
