<svg width="32" height="32" viewBox="0 0 32 32" fill="none" xmlns="http://www.w3.org/2000/svg">
<g opacity="0.5">
<path d="M25.4994 12.4707V21.5007C25.4994 21.7107 25.4544 21.9157 25.3744 22.1057L20.1094 16.0507L25.4994 12.4707Z" fill="#C9D9E9"/>
<path d="M25.5 10.5V11.27L19.085 15.535C17.235 16.765 14.825 16.7595 12.98 15.5245L6.5 11.19V10.5C6.5 9.67 7.17 9 8 9H24C24.83 9 25.5 9.67 25.5 10.5Z" fill="#C9D9E9"/>
<path d="M19.2588 16.5998L24.6838 22.8348C24.4688 22.9448 24.2388 22.9998 23.9988 22.9998H7.99875C7.81875 22.9998 7.63875 22.9648 7.46875 22.9048L12.8038 16.5898C14.8038 17.7398 17.2588 17.7398 19.2588 16.5998Z" fill="#C9D9E9"/>
<path d="M11.96 16.0456L6.705 22.2556C6.57 22.0256 6.5 21.7656 6.5 21.5006V12.3906L11.96 16.0456Z" fill="#C9D9E9"/>
</g>
</svg>
