<svg width="157" height="79" viewBox="0 0 157 79" fill="none" xmlns="http://www.w3.org/2000/svg">
<path d="M71.9711 31.2559L67.5664 55.9968L156.11 28.7478L71.9711 31.2559Z" fill="#D1E4F5"/>
<path d="M81.8128 40.6026L67.5655 55.9968L156.109 28.7478L81.8128 40.6026Z" fill="#B1C8E5"/>
<path d="M81.8107 40.6029L104.817 61.5739L156.106 28.748L81.8107 40.6029Z" fill="white"/>
<path d="M71.9682 31.2559L156.107 28.7478L54.7745 14.9356L71.9682 31.2559Z" fill="white"/>
<line y1="-0.5" x2="28.4128" y2="-0.5" transform="matrix(-0.985426 0.170107 -0.181652 -0.983363 28 25.555)" stroke="white"/>
<line y1="-0.5" x2="26.2851" y2="-0.5" transform="matrix(-0.989121 0.147103 -0.15717 -0.987572 29 51.6555)" stroke="white"/>
<line y1="-0.5" x2="38.7778" y2="-0.5" transform="matrix(-0.978815 0.204747 -0.218437 -0.975851 67.957 58.4224)" stroke="white"/>
</svg>
