<svg width="16" height="16" viewBox="0 0 16 16" fill="none" xmlns="http://www.w3.org/2000/svg">
<g clip-path="url(#clip0_2588_59143)">
<path d="M1.23546 2.345C1.00548 2.595 0.885486 2.92999 0.910481 3.26499L1.11547 6.35498C1.18047 7.25998 1.93547 7.96499 2.84047 7.96499H3.95546C4.42546 9.58499 5.82549 10.77 7.50048 10.965V12.235C6.20546 12.47 5.22548 13.61 5.22548 15C5.22548 15.275 5.44548 15.5 5.72548 15.5H10.2755C10.5555 15.5 10.7755 15.24 10.7755 14.965C10.7755 13.605 9.79549 12.47 8.50048 12.235V10.965C10.1755 10.77 11.5755 9.58499 12.0455 7.96499H13.1605C14.0655 7.96499 14.8205 7.25998 14.8855 6.35498L15.0905 3.26499C15.1105 2.93 14.9955 2.595 14.7655 2.345C14.5355 2.10001 14.2055 1.95499 13.8655 1.95499H12.4905L12.5455 1.03C12.5505 0.889985 12.5005 0.755005 12.4105 0.655C12.3155 0.554995 12.1805 0.5 12.0455 0.5H3.95546C3.82048 0.5 3.68547 0.554995 3.59047 0.655C3.50048 0.755005 3.45049 0.889985 3.45546 1.03L3.51049 1.95499H2.13549C1.79549 1.95499 1.46547 2.10001 1.23546 2.345ZM12.4405 2.95498H13.8655C13.9505 2.95498 14.0055 3 14.0305 3.02999C14.0555 3.05499 14.0955 3.10998 14.0905 3.195L13.8855 6.285C13.8605 6.66497 13.5405 6.96499 13.1605 6.96499H12.2105L12.4405 2.95498ZM3.56548 2.95498L3.79048 6.96499H2.84047C2.46047 6.96499 2.14049 6.66497 2.11547 6.285L1.91048 3.195C1.90548 3.10998 1.94548 3.055 1.97048 3.03C1.99547 3 2.05046 2.95498 2.13549 2.95498H3.56548Z" fill="#7C0FD1"/>
</g>
<defs>
<clipPath id="clip0_2588_59143">
<rect width="16" height="16" fill="white"/>
</clipPath>
</defs>
</svg>
