<svg width="18" height="18" viewBox="0 0 18 18" fill="none" xmlns="http://www.w3.org/2000/svg">
<path d="M8.99935 0.666687C4.39935 0.666687 0.666016 4.40002 0.666016 9.00002C0.666016 13.6 4.39935 17.3334 8.99935 17.3334C13.5993 17.3334 17.3327 13.6 17.3327 9.00002C17.3327 4.40002 13.5993 0.666687 8.99935 0.666687ZM8.99935 13.1667C8.54102 13.1667 8.16602 12.7917 8.16602 12.3334V9.00002C8.16602 8.54169 8.54102 8.16669 8.99935 8.16669C9.45768 8.16669 9.83268 8.54169 9.83268 9.00002V12.3334C9.83268 12.7917 9.45768 13.1667 8.99935 13.1667ZM9.83268 6.50002H8.16602V4.83335H9.83268V6.50002Z" fill="white"/>
</svg>
