<svg width="17" height="16" viewBox="0 0 17 16" fill="none" xmlns="http://www.w3.org/2000/svg">
<g clip-path="url(#clip0_1033_501)">
<path d="M16.2308 10.7307C16.0515 10.5512 15.8334 10.4614 15.5771 10.4614H11.1154L9.8077 11.7691C9.43588 12.128 9.00001 12.3075 8.50002 12.3075C8.00012 12.3075 7.56412 12.1282 7.19234 11.7691L5.89426 10.4614H1.42307C1.1667 10.4614 0.948769 10.5513 0.769228 10.7307C0.58972 10.9101 0.5 11.1281 0.5 11.3846V14.4614C0.5 14.7178 0.58972 14.9358 0.769228 15.1153C0.948736 15.2947 1.16667 15.3843 1.42307 15.3843H15.5771C15.8334 15.3843 16.0515 15.2947 16.2308 15.1153C16.4104 14.9358 16.5 14.7178 16.5 14.4614V11.3846C16.5 11.1281 16.4104 10.9101 16.2308 10.7307ZM12.6252 13.971C12.5032 14.0928 12.359 14.1537 12.1923 14.1537C12.0256 14.1537 11.8815 14.0928 11.7596 13.971C11.6379 13.8492 11.577 13.705 11.577 13.5385C11.577 13.3718 11.6379 13.2274 11.7596 13.1058C11.8815 12.9839 12.0256 12.9229 12.1923 12.9229C12.359 12.9229 12.5032 12.9839 12.6252 13.1058C12.7469 13.2274 12.8078 13.3718 12.8078 13.5385C12.8078 13.705 12.7469 13.8492 12.6252 13.971ZM15.0866 13.971C14.9649 14.0928 14.8206 14.1537 14.6539 14.1537C14.4872 14.1537 14.343 14.0928 14.2212 13.971C14.0995 13.8492 14.0387 13.705 14.0387 13.5385C14.0387 13.3718 14.0995 13.2274 14.2212 13.1058C14.343 12.9839 14.4872 12.9229 14.6539 12.9229C14.8205 12.9229 14.9648 12.9839 15.0866 13.1058C15.2084 13.2274 15.2693 13.3718 15.2693 13.5385C15.2693 13.705 15.2085 13.8492 15.0866 13.971Z" fill="white"/>
<path d="M8.06734 10.8943C8.18279 11.016 8.327 11.0769 8.50001 11.0769C8.67315 11.0769 8.8172 11.016 8.93268 10.8943L13.2404 6.58651C13.4391 6.40064 13.4841 6.17624 13.375 5.91341C13.2663 5.66348 13.0771 5.5385 12.8078 5.53836H10.3461V1.23065C10.3461 1.064 10.2852 0.919758 10.1636 0.797975C10.0417 0.676159 9.89748 0.615234 9.7309 0.615234H7.26912C7.10255 0.615234 6.9583 0.676159 6.83645 0.797975C6.7147 0.919758 6.65378 1.06397 6.65378 1.23065V5.53839H4.19223C3.92287 5.53839 3.73386 5.66351 3.62488 5.91344C3.51596 6.17617 3.56079 6.40067 3.75956 6.58654L8.06734 10.8943Z" fill="white"/>
</g>
<defs>
<clipPath id="clip0_1033_501">
<rect width="16" height="16" fill="white" transform="translate(0.5)"/>
</clipPath>
</defs>
</svg>
