<svg width="22" height="20" viewBox="0 0 22 20" fill="none" xmlns="http://www.w3.org/2000/svg">
<path d="M18.3294 4.98776C18.3249 4.70876 18.1652 4.45976 17.9162 4.33376L10.9262 0.821513C10.7147 0.715013 10.4649 0.715013 10.2527 0.821513L3.26269 4.33376C3.01294 4.45976 2.85394 4.70876 2.84944 4.98776C2.81719 7.00001 3.14569 15.1128 10.3367 17.5563C10.4972 17.611 10.6809 17.611 10.8414 17.5563C18.0332 15.1128 18.3617 7.00001 18.3294 4.98776ZM13.8257 8.49476L12.7022 9.58976C12.5964 9.69326 12.5477 9.84176 12.5732 9.98726L12.8387 11.533C12.9017 11.8998 12.5169 12.1795 12.1869 12.0063L10.7987 11.2765C10.6682 11.2075 10.5114 11.2075 10.3809 11.2765L8.99269 12.0063C8.66344 12.1795 8.27869 11.8998 8.34094 11.533L8.60644 9.98726C8.63119 9.84176 8.58319 9.69326 8.47744 9.58976L7.35394 8.49476C7.08769 8.23526 7.23469 7.78226 7.60294 7.72901L9.15544 7.50326C9.30169 7.48226 9.42844 7.39001 9.49369 7.25726L10.1882 5.85101C10.3532 5.51726 10.8287 5.51726 10.9937 5.85101L11.6882 7.25726C11.7534 7.39001 11.8802 7.48151 12.0264 7.50326L13.5789 7.72901C13.9449 7.78301 14.0919 8.23526 13.8257 8.49476Z" fill="#7C0FD1"/>
<path d="M18.0558 12.7112C17.3306 14.2097 16.3368 15.583 15.0273 16.7027L17.5788 19.2542L18.5313 16.7042L21.0896 15.745L18.0558 12.7112Z" fill="#7C0FD1"/>
<path d="M3.12359 12.7112L0.0898438 15.745L2.64734 16.705L3.59984 19.255L6.15134 16.7035C4.84259 15.5837 3.84884 14.2105 3.12359 12.7112Z" fill="#7C0FD1"/>
</svg>
