<svg width="21" height="18" viewBox="0 0 21 18" fill="none" xmlns="http://www.w3.org/2000/svg">
<path d="M18.9398 3.70997C18.9396 4.50015 18.6859 5.26943 18.2162 5.9048C17.7464 6.54017 17.0852 7.00814 16.3298 7.23998C16.5028 6.6762 16.5905 6.08971 16.5898 5.49998C16.5899 4.46122 16.3198 3.44029 15.8061 2.53742C15.2925 1.63455 14.5528 0.880784 13.6598 0.350109C14.1549 0.120287 14.694 0.000826324 15.2398 0C16.2223 0.00171428 17.164 0.393454 17.8578 1.08912C18.5516 1.78479 18.9408 2.72747 18.9398 3.70997ZM18.1898 8.30006C17.7698 8.18236 17.3201 8.23632 16.9398 8.45006C16.5122 8.68714 16.0377 8.82709 15.5499 8.85994C15.3479 9.16775 15.1132 9.45279 14.8498 9.71006C15.7946 10.0209 16.6356 10.5855 17.2811 11.3421C17.9266 12.0987 18.3517 13.0182 18.5098 14.0001H19.1998C19.4215 14.0032 19.6398 13.9463 19.8317 13.8354C20.0236 13.7245 20.1819 13.5638 20.2899 13.3702C20.4884 12.9978 20.5915 12.582 20.5899 12.16V11.45C20.5898 9.95995 19.5999 8.66991 18.1898 8.30006ZM7.51986 0.350109C7.02478 0.120287 6.48567 0.000826324 5.93985 0C5.05385 0.000615042 4.19746 0.318928 3.52615 0.897143C2.85485 1.47536 2.41314 2.27513 2.28125 3.15125C2.14936 4.02737 2.33601 4.92175 2.80733 5.67198C3.27864 6.4222 4.00337 6.97855 4.84991 7.23998C4.67691 6.67621 4.58925 6.08971 4.58985 5.49998C4.58979 4.46122 4.85987 3.44029 5.37355 2.53742C5.88724 1.63455 6.62688 0.880784 7.51986 0.350109ZM6.32985 9.70997C6.0665 9.4527 5.83178 9.16766 5.62982 8.85984C5.14202 8.82699 4.66745 8.68705 4.23988 8.44997C3.85957 8.23622 3.40994 8.18227 2.98986 8.29997C1.57982 8.66981 0.589862 9.95986 0.589862 11.45V12.1599C0.588257 12.5819 0.691334 12.9977 0.889862 13.3701C0.996674 13.5625 1.15335 13.7225 1.34341 13.8333C1.53347 13.9442 1.74989 14.0018 1.96991 14H2.66985C2.82803 13.0181 3.2531 12.0986 3.89859 11.342C4.54407 10.5854 5.38514 10.0208 6.32985 9.70997ZM14.1699 11.07C13.9965 11.0265 13.8186 11.003 13.6398 11C13.293 11.0007 12.9522 11.0903 12.6499 11.26C12.0189 11.6077 11.3102 11.79 10.5898 11.79C9.86945 11.79 9.16077 11.6077 8.52983 11.26C8.22746 11.0903 7.88665 11.0007 7.53988 11C7.36109 11.003 7.18323 11.0265 7.00982 11.07C6.16941 11.2979 5.4277 11.7968 4.89974 12.4892C4.37178 13.1817 4.08709 14.029 4.08983 14.8997V15.7698C4.09016 16.2796 4.21732 16.7814 4.45986 17.2298C4.70985 17.7097 5.20986 17.9998 5.76983 17.9998H15.4099C15.9698 17.9998 16.4698 17.7097 16.7198 17.2298C16.9624 16.7814 17.0895 16.2796 17.0899 15.7698V14.8999C17.0926 14.0291 16.808 13.1818 16.28 12.4893C15.7521 11.7968 15.0103 11.2979 14.1699 11.07ZM15.0898 5.49998C15.0898 4.60997 14.8259 3.73994 14.3315 2.99992C13.837 2.2599 13.1342 1.68312 12.3119 1.34253C11.4897 1.00193 10.5849 0.912817 9.71194 1.08645C8.83903 1.26008 8.0372 1.68867 7.40787 2.318C6.77853 2.94734 6.34995 3.74916 6.17631 4.62208C6.00268 5.49499 6.09179 6.39979 6.43239 7.22206C6.77298 8.04433 7.34976 8.74713 8.08978 9.2416C8.8298 9.73606 9.69983 9.99998 10.5898 9.99998C11.7833 9.99998 12.9279 9.52588 13.7718 8.68196C14.6157 7.83805 15.0898 6.69346 15.0898 5.49998Z" fill="#F41E92"/>
</svg>
