<svg width="21" height="20" viewBox="0 0 21 20" fill="none" xmlns="http://www.w3.org/2000/svg">
<g clip-path="url(#clip0_8825_11799)">
<path d="M10.1777 20C9.7359 20 9.29766 19.9048 8.89758 19.7232C8.46418 19.7951 8.01625 19.7736 7.58945 19.6593C7.16266 19.5448 6.76402 19.3395 6.42461 19.0606C5.98738 19.0178 5.56027 18.8811 5.17773 18.6603C4.79508 18.4393 4.46316 18.1377 4.20754 17.7805C3.79613 17.626 3.41891 17.3834 3.10664 17.071C2.79457 16.7591 2.55195 16.3818 2.39723 15.9703C2.03996 15.7146 1.73836 15.3826 1.51746 15C1.29648 14.6174 1.15984 14.1903 1.11719 13.7531C0.838164 13.4137 0.632773 13.015 0.518398 12.5882C0.404102 12.1614 0.382617 11.7135 0.454414 11.2801C0.272891 10.88 0.177734 10.4418 0.177734 10C0.177734 9.5582 0.272891 9.12 0.454414 8.71988C0.382617 8.28645 0.404102 7.83855 0.518398 7.41184C0.632734 6.98492 0.838164 6.58625 1.11719 6.24691C1.15984 5.80973 1.29648 5.38262 1.51746 4.99996C1.7384 4.61738 2.03996 4.28543 2.39723 4.02973C2.55195 3.61816 2.79461 3.24094 3.10684 2.92883C3.41895 2.61656 3.79613 2.37398 4.20758 2.21945C4.4632 1.86223 4.79512 1.56074 5.17766 1.33973C5.56027 1.11883 5.98738 0.982148 6.42465 0.939375C6.76402 0.660469 7.1627 0.455117 7.58938 0.340742C8.01633 0.226328 8.46426 0.204844 8.89762 0.276758C9.29766 0.0952344 9.7359 0 10.1777 0C10.6196 0 11.0578 0.0952344 11.4579 0.276797C11.8912 0.204883 12.3392 0.226406 12.766 0.340742C13.1928 0.455156 13.5914 0.660508 13.9308 0.939414C14.368 0.982188 14.7952 1.11887 15.1777 1.33973C15.5604 1.5607 15.8923 1.8623 16.1479 2.21945C16.5593 2.37398 16.9365 2.6166 17.2488 2.92898C17.5609 3.24094 17.8035 3.61816 17.9582 4.02973C18.3155 4.28543 18.6171 4.61738 18.838 4.99996C19.0589 5.38258 19.1956 5.80969 19.2382 6.24691C19.5173 6.58629 19.7227 6.98496 19.837 7.41184C19.9513 7.83855 19.9728 8.28648 19.901 8.71988C20.0826 9.12004 20.1777 9.55824 20.1777 10C20.1777 10.4418 20.0826 10.88 19.9011 11.2801C19.9729 11.7136 19.9514 12.1614 19.8371 12.5882C19.7227 13.0151 19.5173 13.4138 19.2383 13.7531C19.1956 14.1903 19.059 14.6174 18.838 15.0001C18.6171 15.3826 18.3155 15.7146 17.9583 15.9703C17.8035 16.3819 17.5609 16.7591 17.2487 17.0712C16.9366 17.3834 16.5594 17.626 16.1479 17.7805C15.8923 18.1377 15.5604 18.4393 15.1778 18.6603C14.7952 18.8812 14.3681 19.0179 13.9309 19.0606C13.5914 19.3396 13.1928 19.5449 12.7661 19.6593C12.3392 19.7737 11.8913 19.7951 11.4579 19.7232C11.0578 19.9048 10.6196 20 10.1777 20Z" fill="#FFC800"/>
<path d="M10.1777 0C10.6196 0 11.0578 0.0952344 11.4579 0.276797C11.8912 0.204883 12.3392 0.226406 12.766 0.340742C13.1928 0.455156 13.5914 0.660508 13.9308 0.939414C14.368 0.982188 14.7952 1.11887 15.1777 1.33973C15.5604 1.5607 15.8923 1.8623 16.1479 2.21945C16.5593 2.37398 16.9365 2.6166 17.2488 2.92898C17.5609 3.24094 17.8035 3.61816 17.9582 4.02973C18.3155 4.28543 18.6171 4.61738 18.838 4.99996C19.0589 5.38258 19.1956 5.80969 19.2382 6.24691C19.5173 6.58629 19.7227 6.98496 19.837 7.41184C19.9513 7.83855 19.9728 8.28648 19.901 8.71988C20.0826 9.12004 20.1777 9.55824 20.1777 10C20.1777 10.4418 20.0826 10.88 19.9011 11.2801C19.9729 11.7136 19.9514 12.1614 19.8371 12.5882C19.7227 13.0151 19.5173 13.4138 19.2383 13.7531C19.1956 14.1903 19.059 14.6174 18.838 15.0001C18.6171 15.3826 18.3155 15.7146 17.9583 15.9703C17.8035 16.3819 17.5609 16.7591 17.2487 17.0712C16.9366 17.3834 16.5594 17.626 16.1479 17.7805C15.8923 18.1377 15.5604 18.4393 15.1778 18.6603C14.7952 18.8812 14.3681 19.0179 13.9309 19.0606C13.5914 19.3396 13.1928 19.5449 12.7661 19.6593C12.3392 19.7737 11.8913 19.7951 11.4579 19.7232C11.0578 19.9048 10.6196 20 10.1777 20V0Z" fill="#FFA400"/>
<path d="M10.179 17.4896C14.3154 17.4896 17.6686 14.1364 17.6686 10.0001C17.6686 5.86369 14.3154 2.5105 10.179 2.5105C6.04265 2.5105 2.68945 5.86369 2.68945 10.0001C2.68945 14.1364 6.04265 17.4896 10.179 17.4896Z" fill="#F41E92"/>
<path d="M10.1777 2.5105C14.3075 2.5105 17.6673 5.87034 17.6673 10.0001C17.6673 14.1298 14.3075 17.4896 10.1777 17.4896V2.5105Z" fill="#AD1568"/>
<path d="M13.3144 13.7239H7.0384C6.76954 13.7239 6.53516 13.5409 6.46997 13.2801L5.21477 8.2593C5.1593 8.0373 5.23809 7.80332 5.41661 7.66016C5.59508 7.51691 5.84059 7.49082 6.04528 7.59312L8.07036 8.60566L9.67403 5.93289C9.77993 5.75641 9.97063 5.64844 10.1765 5.64844C10.3823 5.64844 10.573 5.75645 10.6789 5.93289L12.2825 8.60566L14.3077 7.59312C14.5122 7.49078 14.7577 7.51691 14.9363 7.66016C15.1148 7.80332 15.1936 8.0373 15.1381 8.2593L13.8829 13.2801C13.8177 13.5409 13.5833 13.7239 13.3144 13.7239Z" fill="#FFE66F"/>
<path d="M13.3157 13.7239C13.5846 13.7239 13.819 13.5409 13.8842 13.2801L15.1394 8.2593C15.1949 8.0373 15.1161 7.80332 14.9376 7.66016C14.7591 7.51691 14.5135 7.49078 14.3089 7.59312L12.2838 8.60566L10.6802 5.93289C10.5743 5.75641 10.3835 5.64844 10.1777 5.64844V13.7239H13.3157Z" fill="#FFC800"/>
</g>
<defs>
<clipPath id="clip0_8825_11799">
<rect width="20" height="20" fill="white" transform="translate(0.181641)"/>
</clipPath>
</defs>
</svg>
