<svg width="20" height="20" viewBox="0 0 20 20" fill="none" xmlns="http://www.w3.org/2000/svg">
<path d="M12.5 3.125H3.75C2.71447 3.125 1.875 3.96447 1.875 5V17.5C1.875 18.5355 2.71447 19.375 3.75 19.375H12.5C13.5355 19.375 14.375 18.5355 14.375 17.5V5C14.375 3.96447 13.5355 3.125 12.5 3.125Z" fill="#2686EC"/>
<path d="M18.1272 2.5V15C18.1258 15.4968 17.9277 15.9729 17.5764 16.3242C17.2251 16.6755 16.7491 16.8735 16.2522 16.875H15.6272V5C15.6272 4.1712 15.298 3.37634 14.712 2.79029C14.1259 2.20424 13.331 1.875 12.5022 1.875H5.73975C5.86869 1.51028 6.10729 1.19437 6.42283 0.970586C6.73837 0.746799 7.11541 0.626087 7.50225 0.625H16.2522C16.7491 0.626484 17.2251 0.824504 17.5764 1.17581C17.9277 1.52712 18.1258 2.00318 18.1272 2.5Z" fill="#2686EC"/>
</svg>
