<svg width="16" height="18" viewBox="0 0 16 18" fill="none" xmlns="http://www.w3.org/2000/svg">
<g clip-path="url(#clip0_2588_59131)">
<path d="M7.88597 9.70724C8.9448 9.70724 9.86167 9.32749 10.6108 8.57822C11.36 7.82908 11.7397 6.91246 11.7397 5.8535C11.7397 4.79491 11.36 3.87817 10.6107 3.12878C9.86143 2.37976 8.94468 2 7.88597 2C6.82702 2 5.91039 2.37976 5.16125 3.1289C4.41211 3.87804 4.03223 4.79479 4.03223 5.8535C4.03223 6.91246 4.41211 7.8292 5.16137 8.57834C5.91064 9.32736 6.82738 9.70724 7.88597 9.70724Z" fill="#7C0FD1"/>
<path d="M14.629 14.3032C14.6074 13.9914 14.5637 13.6513 14.4993 13.2922C14.4344 12.9304 14.3508 12.5883 14.2507 12.2757C14.1473 11.9526 14.0067 11.6335 13.8328 11.3277C13.6524 11.0103 13.4405 10.734 13.2027 10.5066C12.9541 10.2686 12.6496 10.0774 12.2976 9.93783C11.9467 9.79904 11.5579 9.72873 11.1421 9.72873C10.9787 9.72873 10.8208 9.79575 10.5157 9.99435C10.328 10.1168 10.1084 10.2584 9.86325 10.415C9.65365 10.5486 9.36972 10.6737 9.01901 10.787C8.67685 10.8977 8.32944 10.9538 7.98655 10.9538C7.64365 10.9538 7.29636 10.8977 6.95384 10.787C6.60349 10.6738 6.31956 10.5487 6.11021 10.4151C5.86741 10.26 5.64769 10.1184 5.45714 9.99423C5.15245 9.79562 4.99437 9.72861 4.83104 9.72861C4.41503 9.72861 4.02636 9.79904 3.67565 9.93796C3.32384 10.0772 3.01928 10.2685 2.77038 10.5067C2.53271 10.7342 2.32067 11.0105 2.1405 11.3277C1.96679 11.6335 1.82617 11.9525 1.72265 12.2758C1.62268 12.5885 1.53906 12.9304 1.47412 13.2922C1.40979 13.6508 1.36609 13.991 1.34448 14.3035C1.32324 14.6097 1.3125 14.9274 1.3125 15.2484C1.3125 16.0836 1.578 16.7597 2.10156 17.2584C2.61865 17.7504 3.30285 18.0001 4.13488 18.0001H11.8389C12.671 18.0001 13.3549 17.7505 13.8721 17.2584C14.3958 16.7601 14.6613 16.0838 14.6613 15.2482C14.6612 14.9259 14.6503 14.6079 14.629 14.3032Z" fill="#7C0FD1"/>
</g>
<defs>
<clipPath id="clip0_2588_59131">
<rect width="15.9999" height="16" fill="white" transform="translate(0 2)"/>
</clipPath>
</defs>
</svg>
