<svg width="16" height="16" viewBox="0 0 16 16" fill="none" xmlns="http://www.w3.org/2000/svg">
<g clip-path="url(#clip0_394_1655)">
<path d="M10.8127 5.60192L12.9221 5.22667L14.0436 4.04906C14.0077 3.97436 13.9563 3.90759 13.8852 3.8601L8.26025 0.0789793C8.18152 0.0263671 8.09094 0 8.00024 0L7.53149 2.84387L8.00024 4.1018L8.9768 5.18761L10.8127 5.60192Z" fill="#FF0059"/>
<path d="M5.18749 5.60217L3.89843 4.28943L1.95666 4.04932C1.92676 4.11169 1.90625 4.1792 1.90625 4.25037V11.7502C1.90625 11.8215 1.92676 11.889 1.95666 11.9514L4.13281 11.6721L5.18749 10.3985L5.81249 7.84411L5.18749 5.60217Z" fill="#FF0059"/>
<path d="M10.8127 10.3984L9.17212 10.6956L8.00024 11.8984L7.53149 13.8517L8.00024 16.0001C8.09094 16.0001 8.18152 15.974 8.26025 15.9214L13.8852 12.1401C13.9563 12.0928 14.0077 12.026 14.0436 11.9513L12.6877 10.6565L10.8127 10.3984Z" fill="#FF0059"/>
<path d="M7.99999 4.1018V0C7.90941 0 7.81872 0.0263671 7.7401 0.0789793L2.11511 3.8601C2.04407 3.90759 1.99268 3.97436 1.95679 4.04906L5.18762 5.60192L7.99999 4.1018Z" fill="#FF5E95"/>
<path d="M10.8123 10.3981L14.0431 11.9509C14.073 11.8885 14.0935 11.821 14.0935 11.7497V4.24988C14.0935 4.17871 14.073 4.11121 14.0431 4.04883L10.8123 5.60168V10.3981Z" fill="#E50048"/>
<path d="M5.18762 10.3979L1.95679 11.9508C1.99268 12.0255 2.04407 12.0923 2.11511 12.1398L7.7401 15.9209C7.81884 15.9735 7.90941 15.9996 7.99999 15.9996V11.8979L5.18762 10.3979Z" fill="#FF5E95"/>
<path d="M10.8124 5.60009V10.4L7.99987 11.9L5.1875 10.4V5.60009L7.99987 4.1001L10.8124 5.60009Z" fill="#FFA2C3"/>
<path d="M10.8125 5.60009V10.4L8 11.9V4.1001L10.8125 5.60009Z" fill="#FF5E95"/>
</g>
<defs>
<clipPath id="clip0_394_1655">
<rect width="16" height="16" fill="white"/>
</clipPath>
</defs>
</svg>
